# Blender v2.79 (sub 0) OBJ File: ''
# www.blender.org
mtllib book.mtl
o Book_Cube
v 0.087500 -0.140000 0.017500
v -0.087500 -0.140000 -0.017500
v 0.087500 -0.140000 -0.017500
v -0.087500 0.140000 -0.017500
v 0.087500 0.140000 0.017500
v 0.087500 0.140000 -0.017500
v -0.087500 -0.140000 0.017500
v -0.087500 0.140000 0.017500
vt 0.820300 0.968800
vt 0.964800 0.636700
vt 0.964800 0.968800
vt 0.964800 0.968800
vt 0.820300 0.636700
vt 0.964800 0.636700
vt 0.964800 0.968800
vt 0.820300 0.636700
vt 0.964800 0.636700
vt 0.545873 0.862684
vt 0.020526 0.016216
vt 0.545873 0.016216
vt 0.652809 0.019500
vt 0.555905 0.796779
vt 0.555905 0.019500
vt 0.659200 0.016653
vt 0.995100 0.360247
vt 0.659200 0.360247
vt 0.820300 0.636700
vt 0.820300 0.968800
vt 0.820300 0.968800
vt 0.020526 0.862684
vt 0.652809 0.796779
vt 0.995100 0.016653
vn 0.0000 -1.0000 0.0000
vn 0.0000 1.0000 0.0000
vn 1.0000 -0.0000 0.0000
vn 0.0000 -0.0000 1.0000
vn -1.0000 0.0000 0.0000
vn 0.0000 0.0000 -1.0000
usemtl Material.001
s 1
f 1/1/1 2/2/1 3/3/1
f 4/4/2 5/5/2 6/6/2
f 6/7/3 1/8/3 3/9/3
f 5/10/4 7/11/4 1/12/4
f 7/13/5 4/14/5 2/15/5
f 3/16/6 4/17/6 6/18/6
f 1/1/1 7/19/1 2/2/1
f 4/4/2 8/20/2 5/5/2
f 6/7/3 5/21/3 1/8/3
f 5/10/4 8/22/4 7/11/4
f 7/13/5 8/23/5 4/14/5
f 3/16/6 2/24/6 4/17/6
