# Blender v2.78 (sub 0) OBJ File: ''
# www.blender.org
o Cylinder.001
v 0.000000 0.000000 -1.950000
v 0.000000 3.000000 -1.950000
v 0.380426 0.000000 -1.912531
v 0.380426 3.000000 -1.912531
v 0.746233 0.000000 -1.801565
v 0.746233 3.000000 -1.801565
v 1.083362 0.000000 -1.621366
v 1.083362 3.000000 -1.621366
v 1.378858 0.000000 -1.378858
v 1.378858 3.000000 -1.378858
v 1.621366 0.000000 -1.083362
v 1.621366 3.000000 -1.083362
v 1.801565 0.000000 -0.746233
v 1.801565 3.000000 -0.746233
v 1.912531 0.000000 -0.380426
v 1.912531 3.000000 -0.380426
v 1.950000 0.000000 -0.000000
v 1.950000 3.000000 -0.000000
v 1.912531 0.000000 0.380426
v 1.912531 3.000000 0.380426
v 1.801565 0.000000 0.746232
v 1.801565 3.000000 0.746232
v 1.621366 0.000000 1.083362
v 1.621366 3.000000 1.083362
v 1.378858 0.000000 1.378858
v 1.378858 3.000000 1.378858
v 1.083362 0.000000 1.621366
v 1.083362 3.000000 1.621366
v 0.746232 0.000000 1.801565
v 0.746232 3.000000 1.801565
v 0.380426 0.000000 1.912531
v 0.380426 3.000000 1.912531
v -0.000001 0.000000 1.950000
v -0.000001 3.000000 1.950000
v -0.380427 0.000000 1.912531
v -0.380427 3.000000 1.912531
v -0.746234 0.000000 1.801565
v -0.746234 3.000000 1.801565
v -1.083363 0.000000 1.621365
v -1.083363 3.000000 1.621365
v -1.378859 0.000000 1.378857
v -1.378859 3.000000 1.378857
v -1.621367 0.000000 1.083361
v -1.621367 3.000000 1.083361
v -1.801566 0.000000 0.746231
v -1.801566 3.000000 0.746231
v -1.912532 0.000000 0.380424
v -1.912532 3.000000 0.380424
v -1.950000 0.000000 -0.000002
v -1.950000 3.000000 -0.000002
v -1.912531 0.000000 -0.380428
v -1.912531 3.000000 -0.380428
v -1.801564 0.000000 -0.746235
v -1.801564 3.000000 -0.746235
v -1.621364 0.000000 -1.083364
v -1.621364 3.000000 -1.083364
v -1.378857 0.000000 -1.378860
v -1.378857 3.000000 -1.378860
v -1.083360 0.000000 -1.621367
v -1.083360 3.000000 -1.621367
v -0.746230 0.000000 -1.801566
v -0.746230 3.000000 -1.801566
v -0.380423 0.000000 -1.912532
v -0.380423 3.000000 -1.912532
v 1.579792 3.000000 1.055583
v 1.579792 -0.000000 1.055583
v 0.000000 3.000001 -1.900000
v 0.000000 -0.000000 -1.900000
v -0.370669 3.000001 -1.863492
v -0.370669 -0.000000 -1.863492
v -0.727096 0.000000 -1.755372
v -0.727096 3.000000 -1.755372
v -1.755372 3.000000 0.727097
v -1.755372 0.000000 0.727097
v -1.579793 3.000000 1.055582
v -1.579793 0.000000 1.055582
v -1.863492 0.000000 0.370670
v -1.863492 3.000000 0.370670
v -1.343504 3.000000 1.343502
v -1.343504 0.000000 1.343502
v -0.370672 3.000000 1.863492
v -0.370672 0.000000 1.863492
v -0.000001 3.000000 1.900000
v -0.000001 0.000000 1.900000
v -0.727099 3.000000 1.755371
v -0.727099 0.000000 1.755371
v 1.863492 -0.000000 -0.370672
v 1.863492 3.000000 -0.370672
v 1.055583 0.000000 -1.579792
v 1.055583 3.000000 -1.579792
v 1.900000 3.000000 -0.000000
v 1.900000 0.000000 -0.000000
v 1.755371 3.000000 -0.727099
v 1.755371 0.000001 -0.727099
v 0.370671 -0.000000 1.863492
v 0.370671 3.000000 1.863492
v -1.343501 0.000000 -1.343505
v -1.343501 2.999999 -1.343505
v -1.055581 0.000000 -1.579794
v -1.055581 2.999999 -1.579794
v -1.579791 0.000000 -1.055585
v -1.579791 2.999999 -1.055585
v 1.863492 3.000000 0.370671
v 1.863492 0.000000 0.370671
v 1.055583 3.000000 1.579792
v 1.055583 -0.000000 1.579792
v 1.343503 3.000000 1.343503
v 1.343503 -0.000000 1.343503
v 1.755371 3.000000 0.727098
v 1.755371 0.000000 0.727098
v -1.900000 -0.000000 -0.000002
v -1.900000 3.000000 -0.000002
v -1.055584 -0.000000 1.579792
v -1.055584 3.000000 1.579792
v -1.863492 -0.000000 -0.370674
v -1.863492 3.000000 -0.370674
v 1.343503 3.000000 -1.343503
v 1.343503 0.000001 -1.343503
v 0.727098 3.000000 1.755371
v 0.727098 -0.000000 1.755371
v 1.579792 3.000000 -1.055583
v 1.579792 0.000001 -1.055583
v -1.755370 3.000000 -0.727100
v -1.755370 -0.000000 -0.727101
v 0.727099 -0.000000 -1.755371
v 0.727099 3.000000 -1.755371
v 0.370672 3.000001 -1.863492
v 0.370672 -0.000000 -1.863492
vn 0.0980 0.0000 -0.9952
vn 0.2903 0.0000 -0.9569
vn 0.4714 0.0000 -0.8819
vn 0.6344 0.0000 -0.7730
vn 0.7730 0.0000 -0.6344
vn 0.8819 0.0000 -0.4714
vn 0.9569 0.0000 -0.2903
vn 0.9952 0.0000 -0.0980
vn 0.9952 0.0000 0.0980
vn 0.9569 0.0000 0.2903
vn 0.8819 0.0000 0.4714
vn 0.7730 0.0000 0.6344
vn 0.6344 0.0000 0.7730
vn 0.4714 0.0000 0.8819
vn 0.2903 0.0000 0.9569
vn 0.0980 0.0000 0.9952
vn -0.0980 0.0000 0.9952
vn -0.2903 0.0000 0.9569
vn -0.4714 0.0000 0.8819
vn -0.6344 0.0000 0.7730
vn -0.7730 0.0000 0.6344
vn -0.8819 0.0000 0.4714
vn -0.9569 0.0000 0.2903
vn -0.9952 0.0000 0.0980
vn -0.9952 0.0000 -0.0980
vn -0.9569 0.0000 -0.2903
vn -0.8819 0.0000 -0.4714
vn -0.7730 0.0000 -0.6344
vn -0.6344 0.0000 -0.7730
vn -0.4714 0.0000 -0.8819
vn 0.0000 1.0000 -0.0000
vn -0.2903 0.0000 -0.9569
vn -0.0980 0.0000 -0.9952
vn -0.0000 -1.0000 -0.0000
s off
f 2//1 3//1 1//1
f 4//2 5//2 3//2
f 6//3 7//3 5//3
f 8//4 9//4 7//4
f 10//5 11//5 9//5
f 12//6 13//6 11//6
f 14//7 15//7 13//7
f 16//8 17//8 15//8
f 18//9 19//9 17//9
f 20//10 21//10 19//10
f 22//11 23//11 21//11
f 24//12 25//12 23//12
f 26//13 27//13 25//13
f 28//14 29//14 27//14
f 30//15 31//15 29//15
f 32//16 33//16 31//16
f 34//17 35//17 33//17
f 36//18 37//18 35//18
f 38//19 39//19 37//19
f 40//20 41//20 39//20
f 42//21 43//21 41//21
f 44//22 45//22 43//22
f 46//23 47//23 45//23
f 48//24 49//24 47//24
f 50//25 51//25 49//25
f 52//26 53//26 51//26
f 54//27 55//27 53//27
f 56//28 57//28 55//28
f 58//29 59//29 57//29
f 60//30 61//30 59//30
f 2//31 67//31 127//31
f 62//32 63//32 61//32
f 64//33 1//33 63//33
f 68//34 70//34 63//34
f 103//25 92//25 104//25
f 107//28 66//28 108//28
f 65//27 110//27 66//27
f 116//9 111//9 115//9
f 87//23 93//23 94//23
f 92//24 88//24 87//24
f 121//21 118//21 122//21
f 67//16 70//16 68//16
f 81//1 84//1 82//1
f 102//11 124//11 101//11
f 84//33 96//33 95//33
f 69//15 71//15 70//15
f 117//20 89//20 118//20
f 114//3 86//3 113//3
f 83//31 81//31 36//31
f 90//19 125//19 89//19
f 105//29 108//29 106//29
f 100//13 97//13 99//13
f 123//10 115//10 124//10
f 120//30 105//30 106//30
f 79//4 113//4 80//4
f 73//6 76//6 74//6
f 127//17 68//17 128//17
f 93//22 122//22 94//22
f 112//8 77//8 111//8
f 109//26 104//26 110//26
f 86//2 81//2 82//2
f 71//14 100//14 99//14
f 126//18 128//18 125//18
f 96//32 120//32 95//32
f 78//7 74//7 77//7
f 97//12 102//12 101//12
f 84//34 95//34 31//34
f 75//5 80//5 76//5
f 2//1 4//1 3//1
f 4//2 6//2 5//2
f 6//3 8//3 7//3
f 8//4 10//4 9//4
f 10//5 12//5 11//5
f 12//6 14//6 13//6
f 14//7 16//7 15//7
f 16//8 18//8 17//8
f 18//9 20//9 19//9
f 20//10 22//10 21//10
f 22//11 24//11 23//11
f 24//12 26//12 25//12
f 26//13 28//13 27//13
f 28//14 30//14 29//14
f 30//15 32//15 31//15
f 32//16 34//16 33//16
f 34//17 36//17 35//17
f 36//18 38//18 37//18
f 38//19 40//19 39//19
f 40//20 42//20 41//20
f 42//21 44//21 43//21
f 44//22 46//22 45//22
f 46//23 48//23 47//23
f 48//24 50//24 49//24
f 50//25 52//25 51//25
f 52//26 54//26 53//26
f 54//27 56//27 55//27
f 56//28 58//28 57//28
f 58//29 60//29 59//29
f 60//30 62//30 61//30
f 6//31 4//31 127//31
f 2//31 64//31 69//31
f 62//31 60//31 100//31
f 58//31 56//31 102//31
f 54//31 52//31 116//31
f 50//31 112//31 116//31
f 52//31 50//31 116//31
f 10//31 8//31 90//31
f 14//31 12//31 121//31
f 18//31 16//31 88//31
f 88//31 91//31 18//31
f 88//31 16//31 14//31
f 54//31 116//31 123//31
f 54//31 123//31 102//31
f 93//31 88//31 14//31
f 121//31 93//31 14//31
f 56//31 54//31 102//31
f 58//31 102//31 98//31
f 121//31 12//31 10//31
f 117//31 121//31 10//31
f 58//31 98//31 100//31
f 60//31 58//31 100//31
f 90//31 117//31 10//31
f 90//31 8//31 6//31
f 62//31 100//31 72//31
f 62//31 72//31 69//31
f 126//31 90//31 6//31
f 127//31 126//31 6//31
f 64//31 62//31 69//31
f 2//31 69//31 67//31
f 127//31 4//31 2//31
f 62//32 64//32 63//32
f 64//33 2//33 1//33
f 63//34 1//34 68//34
f 3//34 5//34 125//34
f 7//34 9//34 118//34
f 11//34 13//34 94//34
f 15//34 17//34 92//34
f 15//34 92//34 87//34
f 59//34 61//34 71//34
f 55//34 57//34 97//34
f 51//34 53//34 124//34
f 111//34 49//34 51//34
f 115//34 111//34 51//34
f 15//34 87//34 94//34
f 13//34 15//34 94//34
f 124//34 115//34 51//34
f 124//34 53//34 55//34
f 11//34 94//34 122//34
f 11//34 122//34 118//34
f 101//34 124//34 55//34
f 97//34 101//34 55//34
f 9//34 11//34 118//34
f 7//34 118//34 89//34
f 97//34 57//34 59//34
f 99//34 97//34 59//34
f 7//34 89//34 125//34
f 5//34 7//34 125//34
f 71//34 99//34 59//34
f 71//34 61//34 63//34
f 3//34 125//34 128//34
f 3//34 128//34 68//34
f 70//34 71//34 63//34
f 1//34 3//34 68//34
f 103//25 91//25 92//25
f 107//28 65//28 66//28
f 65//27 109//27 110//27
f 116//9 112//9 111//9
f 87//23 88//23 93//23
f 92//24 91//24 88//24
f 121//21 117//21 118//21
f 67//16 69//16 70//16
f 81//1 83//1 84//1
f 102//11 123//11 124//11
f 84//33 83//33 96//33
f 69//15 72//15 71//15
f 117//20 90//20 89//20
f 114//3 85//3 86//3
f 20//31 18//31 91//31
f 20//31 91//31 103//31
f 24//31 22//31 109//31
f 28//31 26//31 107//31
f 32//31 30//31 119//31
f 36//31 34//31 83//31
f 40//31 38//31 85//31
f 44//31 42//31 79//31
f 48//31 46//31 73//31
f 112//31 50//31 48//31
f 78//31 112//31 48//31
f 20//31 103//31 109//31
f 22//31 20//31 109//31
f 73//31 78//31 48//31
f 73//31 46//31 44//31
f 24//31 109//31 65//31
f 24//31 65//31 107//31
f 75//31 73//31 44//31
f 79//31 75//31 44//31
f 26//31 24//31 107//31
f 28//31 107//31 105//31
f 79//31 42//31 40//31
f 114//31 79//31 40//31
f 28//31 105//31 119//31
f 30//31 28//31 119//31
f 85//31 114//31 40//31
f 85//31 38//31 36//31
f 32//31 119//31 96//31
f 32//31 96//31 83//31
f 81//31 85//31 36//31
f 34//31 32//31 83//31
f 90//19 126//19 125//19
f 105//29 107//29 108//29
f 100//13 98//13 97//13
f 123//10 116//10 115//10
f 120//30 119//30 105//30
f 79//4 114//4 113//4
f 73//6 75//6 76//6
f 127//17 67//17 68//17
f 93//22 121//22 122//22
f 112//8 78//8 77//8
f 109//26 103//26 104//26
f 86//2 85//2 81//2
f 71//14 72//14 100//14
f 126//18 127//18 128//18
f 96//32 119//32 120//32
f 78//7 73//7 74//7
f 97//12 98//12 102//12
f 47//34 49//34 111//34
f 47//34 111//34 77//34
f 43//34 45//34 74//34
f 39//34 41//34 80//34
f 35//34 37//34 86//34
f 31//34 33//34 84//34
f 27//34 29//34 120//34
f 23//34 25//34 108//34
f 19//34 21//34 110//34
f 92//34 17//34 19//34
f 104//34 92//34 19//34
f 47//34 77//34 74//34
f 45//34 47//34 74//34
f 110//34 104//34 19//34
f 110//34 21//34 23//34
f 43//34 74//34 76//34
f 43//34 76//34 80//34
f 66//34 110//34 23//34
f 108//34 66//34 23//34
f 41//34 43//34 80//34
f 39//34 80//34 113//34
f 108//34 25//34 27//34
f 106//34 108//34 27//34
f 39//34 113//34 86//34
f 37//34 39//34 86//34
f 120//34 106//34 27//34
f 120//34 29//34 31//34
f 35//34 86//34 82//34
f 35//34 82//34 84//34
f 95//34 120//34 31//34
f 33//34 35//34 84//34
f 75//5 79//5 80//5
