# Blender v2.78 (sub 0) OBJ File: ''
# www.blender.org
mtllib frame2.mtl
o frameside2_Plane.007
v -0.150000 -0.125000 -0.000000
v 0.150000 -0.125000 -0.000000
v -0.150000 0.125000 0.000000
v 0.150000 0.125000 0.000000
v -0.030000 0.036603 0.000000
v 0.030000 0.036603 0.000000
v 0.030000 -0.136602 -0.100000
v -0.030000 -0.136602 -0.100000
v -0.165000 -0.137500 -0.010000
v 0.165000 -0.137500 -0.010000
v 0.165000 -0.137500 0.002500
v -0.165000 -0.137500 0.002500
v -0.165000 0.137500 0.002500
v 0.165000 0.137500 0.002500
v 0.165000 0.137500 -0.010000
v -0.165000 0.137500 -0.010000
v 0.165000 -0.137500 0.002500
v 0.165000 -0.137500 -0.010000
v 0.165000 0.137500 -0.010000
v 0.165000 0.137500 0.002500
v -0.165000 -0.137500 -0.010000
v -0.165000 -0.137500 0.002500
v -0.165000 0.137500 0.002500
v -0.165000 0.137500 -0.010000
v -0.030000 -0.136602 -0.100000
v 0.030000 -0.136602 -0.100000
v 0.030000 0.036603 0.000000
v -0.030000 0.036603 0.000000
v 0.165000 -0.137500 -0.010000
v -0.165000 -0.137500 -0.010000
v -0.165000 0.137500 -0.010000
v 0.165000 0.137500 -0.010000
v -0.165000 -0.137500 0.002500
v 0.165000 -0.137500 0.002500
v 0.165000 -0.112500 0.002500
v -0.165000 -0.112500 0.002500
v -0.165000 0.112500 0.002500
v 0.165000 0.112500 0.002500
v 0.165000 0.137500 0.002500
v -0.165000 0.137500 0.002500
v 0.135000 -0.137500 0.002500
v 0.165000 -0.137500 0.002500
v 0.165000 0.137500 0.002500
v 0.135000 0.137500 0.002500
v -0.165000 -0.137500 0.002500
v -0.135000 -0.137500 0.002500
v -0.135000 0.137500 0.002500
v -0.165000 0.137500 0.002500
vt 0.0000 0.0000
vt 0.0000 0.0000
vt 0.0000 0.0000
vt 0.0000 0.0000
vt 0.0000 0.0000
vt 0.0000 0.0000
vt 0.0000 0.0000
vt 0.0000 0.0000
vt 0.0000 0.0000
vt 0.0000 0.0000
vt 0.0000 0.0000
vt 0.0000 0.0000
vt 0.0000 0.0000
vt 0.0000 0.0000
vt 0.0000 0.0000
vt 0.0000 0.0000
vt 0.0000 0.0000
vt 0.0000 0.0000
vt 0.0000 0.0000
vt 0.0000 0.0000
vt 0.0000 0.0000
vt 0.0000 0.0000
vt 0.0000 0.0000
vt 0.0000 0.0000
vt 0.0000 0.0000
vt 0.0000 0.0000
vt 0.0000 0.0000
vt 0.0000 0.0000
vt 0.0000 0.0000
vt 0.0000 0.0000
vt 0.0000 0.0000
vt 0.0000 0.0000
vt 0.0000 0.0000
vt 0.0000 0.0000
vt 0.0000 0.0000
vt 0.0000 0.0000
vt 0.0000 0.0000
vt 0.0000 0.0000
vt 0.0000 0.0000
vt 0.0000 0.0000
vt 0.0000 0.0000
vt 0.0000 0.0000
vt 0.0000 0.0000
vt 0.0000 0.0000
vt 0.0001 0.0001
vt 0.9999 0.0001
vt 0.9999 0.9999
vt 0.0001 0.9999
vn 0.0000 0.5000 -0.8660
vn 0.0000 -1.0000 0.0000
vn 0.0000 1.0000 0.0000
vn 1.0000 0.0000 0.0000
vn -1.0000 0.0000 0.0000
vn 0.0000 -0.5000 0.8660
vn 0.0000 0.0000 -1.0000
vn 0.0000 -0.0000 1.0000
usemtl None
s 1
f 5/1/1 6/2/1 7/3/1 8/4/1
f 9/5/2 10/6/2 11/7/2 12/8/2
f 13/9/3 14/10/3 15/11/3 16/12/3
f 17/13/4 18/14/4 19/15/4 20/16/4
f 21/17/5 22/18/5 23/19/5 24/20/5
f 25/21/6 26/22/6 27/23/6 28/24/6
f 29/25/7 30/26/7 31/27/7 32/28/7
f 33/29/8 34/30/8 35/31/8 36/32/8
f 37/33/8 38/34/8 39/35/8 40/36/8
f 41/37/8 42/38/8 43/39/8 44/40/8
f 45/41/8 46/42/8 47/43/8 48/44/8
usemtl Material.001
s off
f 1/45/8 2/46/8 4/47/8 3/48/8
