# Blender v2.78 (sub 0) OBJ File: ''
# www.blender.org
mtllib frame.mtl
o frameside2_Plane.007
v -0.200000 -0.000000 -0.292820
v 0.200000 -0.000000 -0.292820
v -0.200000 -0.800000 1.092820
v 0.200000 -0.800000 1.092820
v -1.100000 -0.080000 1.100000
v 1.100000 -0.080000 1.100000
v -1.100000 0.020000 1.100000
v 1.100000 0.020000 1.100000
v -1.100000 0.020000 -1.100000
v 1.100000 0.020000 -1.100000
v -1.100000 -0.080000 -1.100000
v 1.100000 -0.080000 -1.100000
v 1.100000 0.020000 1.100000
v 1.100000 -0.080000 1.100000
v 1.100000 0.020000 -1.100000
v 1.100000 -0.080000 -1.100000
v -1.100000 -0.080000 1.100000
v -1.100000 0.020000 1.100000
v -1.100000 -0.080000 -1.100000
v -1.100000 0.020000 -1.100000
v -0.200000 -0.800000 1.092820
v 0.200000 -0.800000 1.092820
v -0.200000 0.000000 -0.292820
v 0.200000 0.000000 -0.292820
v 1.100000 -0.080000 1.100000
v -1.100000 -0.080000 1.100000
v 1.100000 -0.080000 -1.100000
v -1.100000 -0.080000 -1.100000
v -1.100000 0.020000 1.100000
v 1.100000 0.020000 1.100000
v -1.100000 0.020000 0.900000
v 1.100000 0.020000 0.900000
v -1.100000 0.020000 -0.900000
v 1.100000 0.020000 -0.900000
v -1.100000 0.020000 -1.100000
v 1.100000 0.020000 -1.100000
v 0.900000 0.020000 1.100000
v 1.100000 0.020000 1.100000
v 0.900000 0.020000 -1.100000
v 1.100000 0.020000 -1.100000
v -1.100000 0.020000 1.100000
v -0.900000 0.020000 1.100000
v -1.100000 0.020000 -1.100000
v -0.900000 0.020000 -1.100000
vn -0.0000 -0.8660 -0.5000
vn -0.0000 0.0000 1.0000
vn 0.0000 0.0000 -1.0000
vn 1.0000 0.0000 0.0000
vn -1.0000 0.0000 0.0000
vn 0.0000 0.8660 0.5000
vn -0.0000 -1.0000 0.0000
vn 0.0000 1.0000 0.0000
usemtl None
s off
f 1//1 2//1 4//1 3//1
f 5//2 6//2 8//2 7//2
f 9//3 10//3 12//3 11//3
f 13//4 14//4 16//4 15//4
f 17//5 18//5 20//5 19//5
f 21//6 22//6 24//6 23//6
f 25//7 26//7 28//7 27//7
f 29//8 30//8 32//8 31//8
f 33//8 34//8 36//8 35//8
f 37//8 38//8 40//8 39//8
f 41//8 42//8 44//8 43//8
