# Blender v2.78 (sub 0) OBJ File: ''
# www.blender.org
mtllib frame.mtl
o frameside2_Plane.007
v -0.030000 0.036603 0.000000
v 0.030000 0.036603 0.000000
v 0.030000 -0.136602 -0.100000
v -0.030000 -0.136602 -0.100000
v -0.165000 -0.137500 -0.010000
v 0.165000 -0.137500 -0.010000
v 0.165000 -0.137500 0.002500
v -0.165000 -0.137500 0.002500
v -0.165000 0.137500 0.002500
v 0.165000 0.137500 0.002500
v 0.165000 0.137500 -0.010000
v -0.165000 0.137500 -0.010000
v 0.165000 -0.137500 0.002500
v 0.165000 -0.137500 -0.010000
v 0.165000 0.137500 -0.010000
v 0.165000 0.137500 0.002500
v -0.165000 -0.137500 -0.010000
v -0.165000 -0.137500 0.002500
v -0.165000 0.137500 0.002500
v -0.165000 0.137500 -0.010000
v -0.030000 -0.136602 -0.100000
v 0.030000 -0.136602 -0.100000
v 0.030000 0.036603 0.000000
v -0.030000 0.036603 0.000000
v 0.165000 -0.137500 -0.010000
v -0.165000 -0.137500 -0.010000
v -0.165000 0.137500 -0.010000
v 0.165000 0.137500 -0.010000
v -0.165000 -0.137500 0.002500
v 0.165000 -0.137500 0.002500
v 0.165000 -0.112500 0.002500
v -0.165000 -0.112500 0.002500
v -0.165000 0.112500 0.002500
v 0.165000 0.112500 0.002500
v 0.165000 0.137500 0.002500
v -0.165000 0.137500 0.002500
v 0.135000 -0.137500 0.002500
v 0.165000 -0.137500 0.002500
v 0.165000 0.137500 0.002500
v 0.135000 0.137500 0.002500
v -0.165000 -0.137500 0.002500
v -0.135000 -0.137500 0.002500
v -0.135000 0.137500 0.002500
v -0.165000 0.137500 0.002500
vn 0.0000 0.5000 -0.8660
vn 0.0000 -1.0000 0.0000
vn 0.0000 1.0000 0.0000
vn 1.0000 0.0000 0.0000
vn -1.0000 0.0000 0.0000
vn 0.0000 -0.5000 0.8660
vn 0.0000 0.0000 -1.0000
vn 0.0000 -0.0000 1.0000
usemtl None
s 1
f 1//1 2//1 3//1 4//1
f 5//2 6//2 7//2 8//2
f 9//3 10//3 11//3 12//3
f 13//4 14//4 15//4 16//4
f 17//5 18//5 19//5 20//5
f 21//6 22//6 23//6 24//6
f 25//7 26//7 27//7 28//7
f 29//8 30//8 31//8 32//8
f 33//8 34//8 35//8 36//8
f 37//8 38//8 39//8 40//8
f 41//8 42//8 43//8 44//8
