# Blender v2.78 (sub 0) OBJ File: ''
# www.blender.org
mtllib frame.mtl
o frameside2_Plane.007
v -0.030000 0.036603 0.000000
v 0.030000 0.036603 0.000000
v 0.030000 -0.136602 -0.100000
v -0.030000 -0.136602 -0.100000
v -0.165000 -0.137500 -0.010000
v 0.165000 -0.137500 -0.010000
v 0.165000 -0.137500 0.002500
v -0.165000 -0.137500 0.002500
v -0.165000 0.137500 0.002500
v 0.165000 0.137500 0.002500
v 0.165000 0.137500 -0.010000
v -0.165000 0.137500 -0.010000
v 0.165000 -0.137500 0.002500
v 0.165000 -0.137500 -0.010000
v 0.165000 0.137500 -0.010000
v 0.165000 0.137500 0.002500
v -0.165000 -0.137500 -0.010000
v -0.165000 -0.137500 0.002500
v -0.165000 0.137500 0.002500
v -0.165000 0.137500 -0.010000
v -0.030000 -0.136602 -0.100000
v 0.030000 -0.136602 -0.100000
v 0.030000 0.036603 0.000000
v -0.030000 0.036603 0.000000
v 0.165000 -0.137500 -0.010000
v -0.165000 -0.137500 -0.010000
v -0.165000 0.137500 -0.010000
v 0.165000 0.137500 -0.010000
v -0.165000 -0.137500 0.002500
v 0.165000 -0.137500 0.002500
v 0.165000 -0.112500 0.002500
v -0.165000 -0.112500 0.002500
v -0.165000 0.112500 0.002500
v 0.165000 0.112500 0.002500
v 0.165000 0.137500 0.002500
v -0.165000 0.137500 0.002500
v 0.135000 -0.137500 0.002500
v 0.165000 -0.137500 0.002500
v 0.165000 0.137500 0.002500
v 0.135000 0.137500 0.002500
v -0.165000 -0.137500 0.002500
v -0.135000 -0.137500 0.002500
v -0.135000 0.137500 0.002500
v -0.165000 0.137500 0.002500
v -0.150000 -0.125000 -0.000000
v 0.150000 -0.125000 -0.000000
v 0.150000 0.125000 0.000000
v -0.150000 0.125000 0.000000
vt 0.0001 0.0001
vt 0.9999 0.0001
vt 0.9999 0.9999
vt 0.0001 0.9999
vt 0.0000 0.0000
vt 0.0000 0.0000
vt 0.0000 0.0000
vt 0.0000 0.0000
vt 0.0000 0.0000
vt 0.0000 0.0000
vt 0.0000 0.0000
vt 0.0000 0.0000
vt 0.0000 0.0000
vt 0.0000 0.0000
vt 0.0000 0.0000
vt 0.0000 0.0000
vt 0.0000 0.0000
vt 0.0000 0.0000
vt 0.0000 0.0000
vt 0.0000 0.0000
vt 0.0000 0.0000
vt 0.0000 0.0000
vt 0.0000 0.0000
vt 0.0000 0.0000
vt 0.0000 0.0000
vt 0.0000 0.0000
vt 0.0000 0.0000
vt 0.0000 0.0000
vt 0.0000 0.0000
vt 0.0000 0.0000
vt 0.0000 0.0000
vt 0.0000 0.0000
vt 0.0000 0.0000
vt 0.0000 0.0000
vt 0.0000 0.0000
vt 0.0000 0.0000
vt 0.0000 0.0000
vt 0.0000 0.0000
vt 0.0000 0.0000
vt 0.0000 0.0000
vt 0.0000 0.0000
vt 0.0000 0.0000
vt 0.0000 0.0000
vt 0.0000 0.0000
vt 0.0000 0.0000
vt 0.0000 0.0000
vt 0.0000 0.0000
vt 0.0000 0.0000
vn 0.0000 -0.0000 1.0000
vn 0.0000 0.5000 -0.8660
vn 0.0000 -1.0000 0.0000
vn 0.0000 1.0000 0.0000
vn 1.0000 0.0000 0.0000
vn -1.0000 0.0000 0.0000
vn 0.0000 -0.5000 0.8660
vn 0.0000 0.0000 -1.0000
usemtl Material.001
s off
f 45/1/1 46/2/1 47/3/1 48/4/1
usemtl Material.001_NONE
s 1
f 1/5/2 2/6/2 3/7/2 4/8/2
f 5/9/3 6/10/3 7/11/3 8/12/3
f 9/13/4 10/14/4 11/15/4 12/16/4
f 13/17/5 14/18/5 15/19/5 16/20/5
f 17/21/6 18/22/6 19/23/6 20/24/6
f 21/25/7 22/26/7 23/27/7 24/28/7
f 25/29/8 26/30/8 27/31/8 28/32/8
f 29/33/1 30/34/1 31/35/1 32/36/1
f 33/37/1 34/38/1 35/39/1 36/40/1
f 37/41/1 38/42/1 39/43/1 40/44/1
f 41/45/1 42/46/1 43/47/1 44/48/1
