# Blender v2.78 (sub 0) OBJ File: 'podium.blend'
# www.blender.org
mtllib podium2.mtl
o Cube.010
v -0.502686 2.261656 -0.495000
v -0.504491 2.271492 -0.495000
v -0.502686 2.261656 -0.505000
v -0.504491 2.271492 -0.505000
v 0.504491 2.446508 -0.495000
v 0.502686 2.456343 -0.495000
v 0.504491 2.446508 -0.505000
v 0.502686 2.456343 -0.505000
vn -0.9836 -0.1805 0.0000
vn 0.0000 0.0000 -1.0000
vn 0.9836 0.1805 0.0000
vn -0.0000 0.0000 1.0000
vn 0.1805 -0.9836 0.0000
vn -0.1805 0.9836 0.0000
usemtl Gold
s off
f 2//1 3//1 1//1
f 4//2 7//2 3//2
f 8//3 5//3 7//3
f 5//4 2//4 1//4
f 7//5 1//5 3//5
f 4//6 6//6 8//6
f 2//1 4//1 3//1
f 4//2 8//2 7//2
f 8//3 6//3 5//3
f 5//4 6//4 2//4
f 7//5 5//5 1//5
f 4//6 2//6 6//6
o Cube.009
v -0.502686 2.261656 0.505000
v -0.504491 2.271492 0.505000
v -0.502686 2.261656 0.495000
v -0.504491 2.271492 0.495000
v 0.504491 2.446508 0.505000
v 0.502686 2.456343 0.505000
v 0.504491 2.446508 0.495000
v 0.502686 2.456343 0.495000
vn -0.9836 -0.1805 0.0000
vn 0.0000 0.0000 -1.0000
vn 0.9836 0.1805 0.0000
vn -0.0000 0.0000 1.0000
vn 0.1805 -0.9836 0.0000
vn -0.1805 0.9836 0.0000
usemtl Gold
s off
f 10//7 11//7 9//7
f 12//8 15//8 11//8
f 16//9 13//9 15//9
f 13//10 10//10 9//10
f 15//11 9//11 11//11
f 12//12 14//12 16//12
f 10//7 12//7 11//7
f 12//8 16//8 15//8
f 16//9 14//9 13//9
f 13//10 14//10 10//10
f 15//11 13//11 9//11
f 12//12 10//12 14//12
o Cube.008
v 0.495000 2.445000 0.505000
v 0.495000 2.455000 0.505000
v 0.495000 2.445000 -0.505000
v 0.495000 2.455000 -0.505000
v 0.505000 2.445000 0.505000
v 0.505000 2.455000 0.505000
v 0.505000 2.445000 -0.505000
v 0.505000 2.455000 -0.505000
vn -1.0000 0.0000 0.0000
vn 0.0000 0.0000 -1.0000
vn 1.0000 0.0000 0.0000
vn 0.0000 0.0000 1.0000
vn 0.0000 -1.0000 0.0000
vn 0.0000 1.0000 0.0000
usemtl Gold
s off
f 18//13 19//13 17//13
f 20//14 23//14 19//14
f 24//15 21//15 23//15
f 22//16 17//16 21//16
f 23//17 17//17 19//17
f 20//18 22//18 24//18
f 18//13 20//13 19//13
f 20//14 24//14 23//14
f 24//15 22//15 21//15
f 22//16 18//16 17//16
f 23//17 21//17 17//17
f 20//18 18//18 22//18
o Cube.007
v 0.495000 0.000000 -0.495000
v 0.495000 2.450000 -0.495000
v 0.495000 0.000000 -0.505000
v 0.495000 2.450000 -0.505000
v 0.505000 0.000000 -0.495000
v 0.505000 2.450000 -0.495000
v 0.505000 0.000000 -0.505000
v 0.505000 2.450000 -0.505000
vn -1.0000 0.0000 0.0000
vn 0.0000 0.0000 -1.0000
vn 1.0000 0.0000 0.0000
vn 0.0000 0.0000 1.0000
vn 0.0000 -1.0000 0.0000
vn 0.0000 1.0000 0.0000
usemtl Gold
s off
f 26//19 27//19 25//19
f 28//20 31//20 27//20
f 32//21 29//21 31//21
f 30//22 25//22 29//22
f 31//23 25//23 27//23
f 28//24 30//24 32//24
f 26//19 28//19 27//19
f 28//20 32//20 31//20
f 32//21 30//21 29//21
f 30//22 26//22 25//22
f 31//23 29//23 25//23
f 28//24 26//24 30//24
o Cube.006_Cube.002
v 0.495000 0.000000 0.505000
v 0.495000 2.450000 0.505000
v 0.495000 0.000000 0.495000
v 0.495000 2.450000 0.495000
v 0.505000 0.000000 0.505000
v 0.505000 2.450000 0.505000
v 0.505000 0.000000 0.495000
v 0.505000 2.450000 0.495000
vn -1.0000 0.0000 0.0000
vn 0.0000 0.0000 -1.0000
vn 1.0000 0.0000 0.0000
vn 0.0000 0.0000 1.0000
vn 0.0000 -1.0000 0.0000
vn 0.0000 1.0000 0.0000
usemtl Gold
s off
f 34//25 35//25 33//25
f 36//26 39//26 35//26
f 40//27 37//27 39//27
f 38//28 33//28 37//28
f 39//29 33//29 35//29
f 36//30 38//30 40//30
f 34//25 36//25 35//25
f 36//26 40//26 39//26
f 40//27 38//27 37//27
f 38//28 34//28 33//28
f 39//29 37//29 33//29
f 36//30 34//30 38//30
o Cube.001
v -0.505000 0.000000 0.505000
v -0.505000 2.270000 0.505000
v -0.505000 0.000000 0.495000
v -0.505000 2.270000 0.495000
v -0.495000 0.000000 0.505000
v -0.495000 2.270000 0.505000
v -0.495000 0.000000 0.495000
v -0.495000 2.270000 0.495000
vn -1.0000 0.0000 0.0000
vn 0.0000 0.0000 -1.0000
vn 1.0000 0.0000 0.0000
vn 0.0000 0.0000 1.0000
vn 0.0000 -1.0000 0.0000
vn 0.0000 1.0000 0.0000
usemtl Gold
s off
f 42//31 43//31 41//31
f 44//32 47//32 43//32
f 48//33 45//33 47//33
f 46//34 41//34 45//34
f 47//35 41//35 43//35
f 44//36 46//36 48//36
f 42//31 44//31 43//31
f 44//32 48//32 47//32
f 48//33 46//33 45//33
f 46//34 42//34 41//34
f 47//35 45//35 41//35
f 44//36 42//36 46//36
o Cube
v -0.505000 0.000000 -0.495000
v -0.505000 2.270000 -0.495000
v -0.505000 0.000000 -0.505000
v -0.505000 2.270000 -0.505000
v -0.495000 0.000000 -0.495000
v -0.495000 2.270000 -0.495000
v -0.495000 0.000000 -0.505000
v -0.495000 2.270000 -0.505000
vn -1.0000 0.0000 0.0000
vn 0.0000 0.0000 -1.0000
vn 1.0000 0.0000 0.0000
vn 0.0000 0.0000 1.0000
vn 0.0000 -1.0000 0.0000
vn 0.0000 1.0000 0.0000
usemtl Gold
s off
f 50//37 51//37 49//37
f 52//38 55//38 51//38
f 56//39 53//39 55//39
f 54//40 49//40 53//40
f 55//41 49//41 51//41
f 52//42 54//42 56//42
f 50//37 52//37 51//37
f 52//38 56//38 55//38
f 56//39 54//39 53//39
f 54//40 50//40 49//40
f 55//41 53//41 49//41
f 52//42 50//42 54//42
o Cube.005_Cube.006
v -0.500000 0.000000 0.500000
v -0.500000 2.250000 0.500000
v -0.500000 0.000000 -0.500000
v -0.500000 2.250000 -0.500000
v 0.500000 0.000000 0.500000
v 0.500000 2.250000 0.500000
v 0.500000 0.000000 -0.500000
v 0.500000 2.250000 -0.500000
v 0.480000 2.250000 0.500000
v 0.480000 2.450000 0.500000
v 0.480000 2.250000 -0.500000
v 0.480000 2.450000 -0.500000
v 0.500000 2.250000 0.500000
v 0.500000 2.450000 0.500000
v 0.500000 2.250000 -0.500000
v 0.500000 2.450000 -0.500000
v -0.500000 2.250000 -0.480000
v -0.500000 2.270000 -0.480000
v -0.500000 2.250000 -0.500000
v -0.500000 2.270000 -0.500000
v 0.480000 2.250000 -0.480000
v 0.480000 2.450000 -0.480000
v 0.480000 2.250000 -0.500000
v 0.480000 2.450000 -0.500000
v -0.500000 2.250001 0.500000
v -0.500000 2.270001 0.500000
v -0.500000 2.250001 0.480000
v -0.500000 2.270001 0.480000
v 0.480000 2.250001 0.500000
v 0.480000 2.450002 0.500000
v 0.480000 2.250001 0.480000
v 0.480000 2.450002 0.480000
vt 0.6579 0.0146
vt 0.9503 0.3431
vt 0.6579 0.3431
vt 0.6579 0.6642
vt 0.9503 0.3723
vt 0.9503 0.6642
vt 0.3366 0.6934
vt 0.6287 0.4015
vt 0.6287 0.6934
vt 0.0146 0.3723
vt 0.3070 0.0146
vt 0.3070 0.3723
vt 0.9503 0.0146
vt 0.6579 0.3723
vt 0.3366 0.4015
vt 0.0146 0.0146
vt 0.0146 0.7591
vt 0.3070 0.4277
vt 0.3070 0.7591
vt 0.0146 0.4015
vt 0.6579 0.9854
vt 0.6871 0.6934
vt 0.6871 0.9854
vt 0.9854 0.0146
vt 0.9795 0.3066
vt 0.9795 0.0146
vt 0.9854 0.3358
vt 0.9795 0.6277
vt 0.9795 0.3358
vt 0.6579 0.6934
vt 0.9854 0.3066
vt 0.9854 0.6277
vt 0.6287 0.3723
vt 0.3363 0.0409
vt 0.6287 0.0146
vt 0.3363 0.3723
vt 0.4389 0.7285
vt 0.4418 0.7226
vt 0.4418 0.7285
vt 0.3775 0.7518
vt 0.3717 0.7226
vt 0.3775 0.7226
vt 0.7749 0.6934
vt 0.7778 0.9796
vt 0.7749 0.9796
vt 0.9386 0.6934
vt 0.9444 0.9796
vt 0.9386 0.9796
vt 0.8392 0.9805
vt 0.8333 0.6934
vt 0.8392 0.6934
vt 0.4389 0.7226
vt 0.3717 0.7518
vt 0.8041 0.6934
vt 0.9444 0.6934
vt 0.8333 0.9805
vt 0.4067 0.7285
vt 0.4097 0.7226
vt 0.4097 0.7285
vt 0.7427 0.9796
vt 0.7456 0.6934
vt 0.7456 0.9796
vt 0.3366 0.7226
vt 0.3424 0.7518
vt 0.3366 0.7518
vt 0.9094 0.9796
vt 0.9035 0.6934
vt 0.9094 0.6934
vt 0.8684 0.6934
vt 0.8743 0.9805
vt 0.8684 0.9805
vt 0.4067 0.7226
vt 0.7164 0.6934
vt 0.3424 0.7226
vt 0.9035 0.9796
vt 0.8743 0.6934
vn -1.0000 0.0000 0.0000
vn 0.0000 -1.0000 0.0000
vn 0.0000 1.0000 0.0000
vn 1.0000 0.0000 0.0000
vn 0.0000 0.0000 1.0000
vn 0.0000 0.0000 -1.0000
vn -0.1807 0.9835 0.0000
usemtl Light
s off
f 58/1/43 59/2/43 57/3/43
f 63/4/44 57/5/44 59/6/44
f 60/7/45 62/8/45 64/9/45
f 63/10/46 70/11/46 61/12/46
f 58/1/43 60/13/43 59/2/43
f 63/4/44 61/14/44 57/5/44
f 60/7/45 58/15/45 62/8/45
f 63/10/46 72/16/46 70/11/46
usemtl Light_NONE
f 61/17/47 82/18/47 57/19/47
f 61/17/47 70/20/47 82/18/47
usemtl Light
f 66/21/43 67/22/43 65/23/43
f 71/24/44 65/25/44 67/26/44
f 68/27/45 70/28/45 72/29/45
f 66/21/43 68/30/43 67/22/43
f 71/24/44 69/31/44 65/25/44
f 68/27/45 66/32/45 70/28/45
usemtl Light_NONE
f 63/33/48 76/34/48 72/35/48
f 63/33/48 59/36/48 76/34/48
usemtl Light
f 74/37/43 75/38/43 73/39/43
f 80/40/46 77/41/46 79/42/46
f 77/43/47 74/44/47 73/45/47
f 79/46/44 73/47/44 75/48/44
f 76/49/49 78/50/49 80/51/49
f 74/37/43 76/52/43 75/38/43
f 80/40/46 78/53/46 77/41/46
f 77/43/47 78/54/47 74/44/47
f 79/46/44 77/55/44 73/47/44
f 76/49/49 74/56/49 78/50/49
f 82/57/43 83/58/43 81/59/43
f 84/60/48 87/61/48 83/62/48
f 88/63/46 85/64/46 87/65/46
f 87/66/44 81/67/44 83/68/44
f 84/69/49 86/70/49 88/71/49
f 82/57/43 84/72/43 83/58/43
f 84/60/48 88/73/48 87/61/48
f 88/63/46 86/74/46 85/64/46
f 87/66/44 85/75/44 81/67/44
f 84/69/49 82/76/49 86/70/49
o Cylinder_Cylinder.002
v 0.500000 1.827107 -0.384350
v 0.500000 1.772893 -0.384350
v 0.500000 1.819168 -0.387867
v 0.500000 1.809922 -0.390078
v 0.500000 1.800000 -0.390832
v 0.500000 1.790078 -0.390078
v 0.500000 1.780832 -0.387867
v 0.540000 1.772893 -0.384350
v 0.540000 1.827107 -0.384350
v 0.540000 1.780832 -0.387867
v 0.540000 1.790078 -0.390078
v 0.540000 1.800000 -0.390832
v 0.540000 1.809922 -0.390078
v 0.540000 1.819168 -0.387867
v 0.500000 1.480697 -0.215650
v 0.500000 1.453590 -0.168699
v 0.500000 1.473681 -0.210533
v 0.500000 1.467143 -0.203632
v 0.500000 1.461529 -0.195416
v 0.500000 1.457221 -0.186446
v 0.500000 1.454513 -0.177334
v 0.540000 1.453590 -0.168699
v 0.540000 1.480697 -0.215650
v 0.540000 1.454513 -0.177334
v 0.540000 1.457221 -0.186446
v 0.540000 1.461529 -0.195416
v 0.540000 1.467143 -0.203632
v 0.540000 1.473681 -0.210533
v 0.500000 1.453590 0.168699
v 0.500000 1.480697 0.215650
v 0.500000 1.454513 0.177334
v 0.500000 1.457222 0.186446
v 0.500000 1.461529 0.195416
v 0.500000 1.467144 0.203632
v 0.500000 1.473681 0.210533
v 0.540000 1.480697 0.215650
v 0.540000 1.453590 0.168699
v 0.540000 1.473681 0.210533
v 0.540000 1.467144 0.203632
v 0.540000 1.461529 0.195416
v 0.540000 1.457222 0.186446
v 0.540000 1.454513 0.177334
v 0.500000 1.772893 0.384350
v 0.500000 1.827107 0.384350
v 0.500000 1.780832 0.387867
v 0.500000 1.790078 0.390078
v 0.500000 1.800000 0.390832
v 0.500000 1.809922 0.390078
v 0.500000 1.819168 0.387867
v 0.540000 1.827107 0.384350
v 0.540000 1.772893 0.384350
v 0.540000 1.819168 0.387867
v 0.540000 1.809922 0.390078
v 0.540000 1.800000 0.390832
v 0.540000 1.790078 0.390078
v 0.540000 1.780832 0.387867
v 0.500000 2.119303 0.215650
v 0.500000 2.146410 0.168699
v 0.500000 2.126319 0.210533
v 0.500000 2.132856 0.203632
v 0.500000 2.138471 0.195416
v 0.500000 2.142778 0.186446
v 0.500000 2.145487 0.177334
v 0.540000 2.146410 0.168699
v 0.540000 2.119303 0.215650
v 0.540000 2.145487 0.177334
v 0.540000 2.142778 0.186446
v 0.540000 2.138471 0.195416
v 0.540000 2.132856 0.203632
v 0.540000 2.126319 0.210533
v 0.500000 2.146410 -0.168699
v 0.500000 2.119303 -0.215650
v 0.500000 2.145487 -0.177334
v 0.500000 2.142778 -0.186446
v 0.500000 2.138471 -0.195416
v 0.500000 2.132856 -0.203632
v 0.500000 2.126319 -0.210533
v 0.540000 2.119303 -0.215650
v 0.540000 2.146410 -0.168699
v 0.540000 2.126319 -0.210533
v 0.540000 2.132856 -0.203632
v 0.540000 2.138471 -0.195416
v 0.540000 2.142778 -0.186446
v 0.540000 2.145487 -0.177334
vn 0.0000 0.5000 -0.8660
vn 0.0000 -0.5000 0.8660
vn 0.0000 0.5000 0.8660
vn 0.0000 1.0000 0.0000
vn 0.0000 -1.0000 0.0000
vn 1.0000 0.0000 -0.0000
vn 0.0000 -0.5000 -0.8660
vn 0.0000 0.4051 -0.9143
vn 0.0000 0.2326 -0.9726
vn 0.0000 0.0758 -0.9971
vn 0.0000 -0.0758 -0.9971
vn 0.0000 -0.2326 -0.9726
vn 0.0000 -0.4050 -0.9143
vn 0.0000 -0.9943 -0.1064
vn 0.0000 -0.9586 -0.2849
vn 0.0000 -0.9014 -0.4329
vn 0.0000 -0.8256 -0.5642
vn 0.0000 -0.7260 -0.6877
vn 0.0000 -0.5893 -0.8079
vn 0.0000 -0.5893 0.8079
vn 0.0000 -0.7260 0.6877
vn 0.0000 -0.8256 0.5642
vn 0.0000 -0.9014 0.4329
vn 0.0000 -0.9586 0.2848
vn 0.0000 -0.9943 0.1063
vn 0.0000 0.4051 0.9143
vn 0.0000 0.2326 0.9726
vn 0.0000 0.0758 0.9971
vn 0.0000 -0.0758 0.9971
vn 0.0000 -0.2326 0.9726
vn 0.0000 -0.4050 0.9143
vn 0.0000 0.9943 0.1063
vn 0.0000 0.9586 0.2849
vn 0.0000 0.9014 0.4329
vn 0.0000 0.8256 0.5642
vn 0.0000 0.7260 0.6877
vn 0.0000 0.5893 0.8079
vn 0.0000 0.5893 -0.8079
vn 0.0000 0.7260 -0.6877
vn 0.0000 0.8256 -0.5642
vn 0.0000 0.9014 -0.4329
vn 0.0000 0.9586 -0.2849
vn 0.0000 0.9943 -0.1063
vn -1.0000 -0.0000 0.0000
vn 1.0000 -0.0001 0.0000
vn 0.0000 0.4050 -0.9143
vn 0.0000 -0.4051 -0.9143
vn 0.0000 -0.9943 -0.1063
vn 0.0000 -0.9586 -0.2848
vn 0.0000 -0.9586 0.2849
vn 0.0000 -0.9943 0.1064
vn 0.0000 0.4050 0.9143
vn 0.0000 -0.4051 0.9143
vn -1.0000 0.0001 0.0000
vn -1.0000 -0.0001 0.0000
usemtl Gold.001
s off
f 166//50 89//50 160//50
f 124//51 131//51 118//51
f 138//52 145//52 132//52
f 152//53 159//53 146//53
f 110//54 117//54 104//54
f 96//55 153//55 124//55
f 96//56 103//56 90//56
f 97//57 91//57 89//57
f 102//58 92//58 91//58
f 101//59 93//59 92//59
f 100//60 94//60 93//60
f 99//61 95//61 94//61
f 98//62 90//62 95//62
f 104//63 112//63 110//63
f 109//64 113//64 112//64
f 108//65 114//65 113//65
f 107//66 115//66 114//66
f 106//67 116//67 115//67
f 105//68 111//68 116//68
f 118//69 126//69 124//69
f 123//70 127//70 126//70
f 127//71 121//71 128//71
f 121//72 129//72 128//72
f 120//73 130//73 129//73
f 119//74 125//74 130//74
f 132//75 140//75 138//75
f 137//76 141//76 140//76
f 136//77 142//77 141//77
f 135//78 143//78 142//78
f 134//79 144//79 143//79
f 133//80 139//80 144//80
f 146//81 154//81 152//81
f 151//82 155//82 154//82
f 150//83 156//83 155//83
f 149//84 157//84 156//84
f 148//85 158//85 157//85
f 147//86 153//86 158//86
f 160//87 168//87 166//87
f 165//88 169//88 168//88
f 164//89 170//89 169//89
f 163//90 171//90 170//90
f 162//91 172//91 171//91
f 161//92 167//92 172//92
f 103//93 132//93 159//93
f 166//50 97//50 89//50
f 124//51 139//51 131//51
f 138//52 153//52 145//52
f 152//53 167//53 159//53
f 110//54 125//54 117//54
f 125//55 110//55 111//55
f 112//94 113//94 110//94
f 114//55 115//55 111//55
f 116//55 111//55 115//55
f 96//55 98//55 99//55
f 99//55 100//55 96//55
f 101//55 102//55 97//55
f 97//55 166//55 167//55
f 168//55 169//55 166//55
f 170//55 171//55 167//55
f 172//55 167//55 171//55
f 152//55 154//55 155//55
f 155//55 156//55 152//55
f 157//55 158//55 153//55
f 153//55 138//55 139//55
f 140//55 141//55 138//55
f 142//55 143//55 139//55
f 144//55 139//55 143//55
f 124//55 126//55 127//55
f 127//55 128//55 124//55
f 129//94 130//94 125//94
f 110//55 113//55 114//55
f 114//55 111//55 110//55
f 96//55 100//55 97//55
f 101//55 97//55 100//55
f 169//55 170//55 166//55
f 167//55 152//55 153//55
f 156//55 157//55 153//55
f 138//55 142//55 139//55
f 142//55 138//55 141//55
f 124//55 128//55 125//55
f 129//55 125//55 128//55
f 111//55 96//55 124//55
f 166//55 170//55 167//55
f 152//55 156//55 153//55
f 153//55 139//55 124//55
f 124//55 125//55 111//55
f 96//55 97//55 167//55
f 167//55 153//55 96//55
f 96//56 111//56 103//56
f 97//95 102//95 91//95
f 102//58 101//58 92//58
f 101//59 100//59 93//59
f 100//60 99//60 94//60
f 99//61 98//61 95//61
f 98//96 96//96 90//96
f 104//97 109//97 112//97
f 109//98 108//98 113//98
f 108//65 107//65 114//65
f 107//66 106//66 115//66
f 106//67 105//67 116//67
f 105//68 103//68 111//68
f 118//69 123//69 126//69
f 123//70 122//70 127//70
f 127//71 122//71 121//71
f 121//72 120//72 129//72
f 120//99 119//99 130//99
f 119//100 117//100 125//100
f 132//101 137//101 140//101
f 137//76 136//76 141//76
f 136//77 135//77 142//77
f 135//78 134//78 143//78
f 134//79 133//79 144//79
f 133//102 131//102 139//102
f 146//81 151//81 154//81
f 151//82 150//82 155//82
f 150//83 149//83 156//83
f 149//84 148//84 157//84
f 148//85 147//85 158//85
f 147//86 145//86 153//86
f 160//87 165//87 168//87
f 165//88 164//88 169//88
f 164//89 163//89 170//89
f 163//90 162//90 171//90
f 162//91 161//91 172//91
f 161//92 159//92 167//92
f 160//93 89//93 90//93
f 91//93 92//93 89//93
f 93//93 94//93 90//93
f 95//93 90//93 94//93
f 103//93 105//93 106//93
f 106//93 107//93 103//93
f 108//93 109//93 104//93
f 104//93 117//93 118//93
f 119//93 120//93 117//93
f 121//93 122//93 118//93
f 123//103 118//103 122//103
f 131//93 133//93 134//93
f 134//93 135//93 131//93
f 136//93 137//93 132//93
f 132//93 145//93 159//93
f 147//93 148//93 145//93
f 149//93 150//93 146//93
f 151//104 146//104 150//104
f 159//104 161//104 162//104
f 162//93 163//93 159//93
f 164//93 165//93 160//93
f 89//93 92//93 93//93
f 93//93 90//93 89//93
f 103//93 107//93 104//93
f 108//93 104//93 107//93
f 120//93 121//93 117//93
f 118//93 131//93 132//93
f 135//93 136//93 132//93
f 145//93 146//93 159//93
f 149//93 145//93 148//93
f 159//93 163//93 160//93
f 164//93 160//93 163//93
f 90//93 103//93 159//93
f 117//93 121//93 118//93
f 131//93 135//93 132//93
f 149//93 146//93 145//93
f 159//93 160//93 90//93
f 103//93 104//93 118//93
f 118//93 132//93 103//93
