# Blender v2.78 (sub 0) OBJ File: 'podium.blend'
# www.blender.org
mtllib podium.mtl
o Cube.010
v -0.502686 2.011656 -0.495000
v -0.504491 2.021492 -0.495000
v -0.502686 2.011656 -0.505000
v -0.504491 2.021492 -0.505000
v 0.504491 2.196508 -0.495000
v 0.502686 2.206344 -0.495000
v 0.504491 2.196508 -0.505000
v 0.502686 2.206344 -0.505000
vn -0.9836 -0.1805 0.0000
vn 0.0000 0.0000 -1.0000
vn 0.9836 0.1805 0.0000
vn -0.0000 0.0000 1.0000
vn 0.1805 -0.9836 0.0000
vn -0.1805 0.9836 0.0000
usemtl Gold
s off
f 2//1 3//1 1//1
f 4//2 7//2 3//2
f 8//3 5//3 7//3
f 5//4 2//4 1//4
f 7//5 1//5 3//5
f 4//6 6//6 8//6
f 2//1 4//1 3//1
f 4//2 8//2 7//2
f 8//3 6//3 5//3
f 5//4 6//4 2//4
f 7//5 5//5 1//5
f 4//6 2//6 6//6
o Cube.009
v -0.502686 2.011656 0.505000
v -0.504491 2.021492 0.505000
v -0.502686 2.011656 0.495000
v -0.504491 2.021492 0.495000
v 0.504491 2.196508 0.505000
v 0.502686 2.206344 0.505000
v 0.504491 2.196508 0.495000
v 0.502686 2.206344 0.495000
vn -0.9836 -0.1805 0.0000
vn 0.0000 0.0000 -1.0000
vn 0.9836 0.1805 0.0000
vn -0.0000 0.0000 1.0000
vn 0.1805 -0.9836 0.0000
vn -0.1805 0.9836 0.0000
usemtl Gold
s off
f 10//7 11//7 9//7
f 12//8 15//8 11//8
f 16//9 13//9 15//9
f 13//10 10//10 9//10
f 15//11 9//11 11//11
f 12//12 14//12 16//12
f 10//7 12//7 11//7
f 12//8 16//8 15//8
f 16//9 14//9 13//9
f 13//10 14//10 10//10
f 15//11 13//11 9//11
f 12//12 10//12 14//12
o Cube.008
v 0.495000 2.195000 0.505000
v 0.495000 2.205000 0.505000
v 0.495000 2.195000 -0.505000
v 0.495000 2.205000 -0.505000
v 0.505000 2.195000 0.505000
v 0.505000 2.205000 0.505000
v 0.505000 2.195000 -0.505000
v 0.505000 2.205000 -0.505000
vn -1.0000 0.0000 0.0000
vn 0.0000 0.0000 -1.0000
vn 1.0000 0.0000 0.0000
vn 0.0000 0.0000 1.0000
vn 0.0000 -1.0000 0.0000
vn 0.0000 1.0000 0.0000
usemtl Gold
s off
f 18//13 19//13 17//13
f 20//14 23//14 19//14
f 24//15 21//15 23//15
f 22//16 17//16 21//16
f 23//17 17//17 19//17
f 20//18 22//18 24//18
f 18//13 20//13 19//13
f 20//14 24//14 23//14
f 24//15 22//15 21//15
f 22//16 18//16 17//16
f 23//17 21//17 17//17
f 20//18 18//18 22//18
o Cube.007
v 0.495000 0.000000 -0.495000
v 0.495000 2.200000 -0.495000
v 0.495000 0.000000 -0.505000
v 0.495000 2.200000 -0.505000
v 0.505000 0.000000 -0.495000
v 0.505000 2.200000 -0.495000
v 0.505000 0.000000 -0.505000
v 0.505000 2.200000 -0.505000
vn -1.0000 0.0000 0.0000
vn 0.0000 0.0000 -1.0000
vn 1.0000 0.0000 0.0000
vn 0.0000 0.0000 1.0000
vn 0.0000 -1.0000 0.0000
vn 0.0000 1.0000 0.0000
usemtl Gold
s off
f 26//19 27//19 25//19
f 28//20 31//20 27//20
f 32//21 29//21 31//21
f 30//22 25//22 29//22
f 31//23 25//23 27//23
f 28//24 30//24 32//24
f 26//19 28//19 27//19
f 28//20 32//20 31//20
f 32//21 30//21 29//21
f 30//22 26//22 25//22
f 31//23 29//23 25//23
f 28//24 26//24 30//24
o Cube.006_Cube.002
v 0.495000 0.000000 0.505000
v 0.495000 2.200000 0.505000
v 0.495000 0.000000 0.495000
v 0.495000 2.200000 0.495000
v 0.505000 0.000000 0.505000
v 0.505000 2.200000 0.505000
v 0.505000 0.000000 0.495000
v 0.505000 2.200000 0.495000
vn -1.0000 0.0000 0.0000
vn 0.0000 0.0000 -1.0000
vn 1.0000 0.0000 0.0000
vn 0.0000 0.0000 1.0000
vn 0.0000 -1.0000 0.0000
vn 0.0000 1.0000 0.0000
usemtl Gold
s off
f 34//25 35//25 33//25
f 36//26 39//26 35//26
f 40//27 37//27 39//27
f 38//28 33//28 37//28
f 39//29 33//29 35//29
f 36//30 38//30 40//30
f 34//25 36//25 35//25
f 36//26 40//26 39//26
f 40//27 38//27 37//27
f 38//28 34//28 33//28
f 39//29 37//29 33//29
f 36//30 34//30 38//30
o Cube.001
v -0.505000 0.000000 0.505000
v -0.505000 2.020000 0.505000
v -0.505000 0.000000 0.495000
v -0.505000 2.020000 0.495000
v -0.495000 0.000000 0.505000
v -0.495000 2.020000 0.505000
v -0.495000 0.000000 0.495000
v -0.495000 2.020000 0.495000
vn -1.0000 0.0000 0.0000
vn 0.0000 0.0000 -1.0000
vn 1.0000 0.0000 0.0000
vn 0.0000 0.0000 1.0000
vn 0.0000 -1.0000 0.0000
vn 0.0000 1.0000 0.0000
usemtl Gold
s off
f 42//31 43//31 41//31
f 44//32 47//32 43//32
f 48//33 45//33 47//33
f 46//34 41//34 45//34
f 47//35 41//35 43//35
f 44//36 46//36 48//36
f 42//31 44//31 43//31
f 44//32 48//32 47//32
f 48//33 46//33 45//33
f 46//34 42//34 41//34
f 47//35 45//35 41//35
f 44//36 42//36 46//36
o Cube
v -0.505000 0.000002 -0.495000
v -0.505000 2.020002 -0.495000
v -0.505000 0.000002 -0.505000
v -0.505000 2.020002 -0.505000
v -0.495000 0.000002 -0.495000
v -0.495000 2.020002 -0.495000
v -0.495000 0.000002 -0.505000
v -0.495000 2.020002 -0.505000
vn -1.0000 0.0000 0.0000
vn 0.0000 0.0000 -1.0000
vn 1.0000 0.0000 0.0000
vn 0.0000 0.0000 1.0000
vn 0.0000 -1.0000 0.0000
vn 0.0000 1.0000 0.0000
usemtl Gold
s off
f 50//37 51//37 49//37
f 52//38 55//38 51//38
f 56//39 53//39 55//39
f 54//40 49//40 53//40
f 55//41 49//41 51//41
f 52//42 54//42 56//42
f 50//37 52//37 51//37
f 52//38 56//38 55//38
f 56//39 54//39 53//39
f 54//40 50//40 49//40
f 55//41 53//41 49//41
f 52//42 50//42 54//42
o Cube.005_Cube.006
v -0.500000 0.000000 0.500000
v -0.500000 2.000000 0.500000
v -0.500000 0.000000 -0.500000
v -0.500000 2.000000 -0.500000
v 0.500000 0.000000 0.500000
v 0.500000 2.050000 0.500000
v 0.500000 0.000000 -0.500000
v 0.500000 2.050000 -0.500000
vn -1.0000 0.0000 0.0000
vn 0.0000 0.0000 -1.0000
vn 1.0000 0.0000 0.0000
vn 0.0000 0.0000 1.0000
vn 0.0000 -1.0000 0.0000
vn -0.0499 0.9988 0.0000
usemtl White.002
s off
f 58//43 59//43 57//43
f 60//44 63//44 59//44
f 64//45 61//45 63//45
f 61//46 58//46 57//46
f 63//47 57//47 59//47
f 60//48 62//48 64//48
f 58//43 60//43 59//43
f 60//44 64//44 63//44
f 64//45 62//45 61//45
f 61//46 62//46 58//46
f 63//47 61//47 57//47
f 60//48 58//48 62//48
o Cube.004_Cube.005
v 0.480000 2.000000 0.500000
v 0.480000 2.200000 0.500000
v 0.480000 2.000000 -0.500000
v 0.480000 2.200000 -0.500000
v 0.500000 2.000000 0.500000
v 0.500000 2.200000 0.500000
v 0.500000 2.000000 -0.500000
v 0.500000 2.200000 -0.500000
vn -1.0000 0.0000 0.0000
vn 0.0000 0.0000 -1.0000
vn 1.0000 0.0000 0.0000
vn 0.0000 0.0000 1.0000
vn 0.0000 -1.0000 0.0000
vn 0.0000 1.0000 0.0000
usemtl White.003
s off
f 66//49 67//49 65//49
f 68//50 71//50 67//50
f 72//51 69//51 71//51
f 70//52 65//52 69//52
f 71//53 65//53 67//53
f 68//54 70//54 72//54
f 66//49 68//49 67//49
f 68//50 72//50 71//50
f 72//51 70//51 69//51
f 70//52 66//52 65//52
f 71//53 69//53 65//53
f 68//54 66//54 70//54
o Cube.003_Cube.004
v -0.500000 2.000000 -0.480000
v -0.500000 2.020000 -0.480000
v -0.500000 2.000000 -0.500000
v -0.500000 2.020000 -0.500000
v 0.480000 2.000000 -0.480000
v 0.480000 2.200000 -0.480000
v 0.480000 2.000000 -0.500000
v 0.480000 2.200000 -0.500000
vn -1.0000 0.0000 0.0000
vn 0.0000 0.0000 -1.0000
vn 1.0000 0.0000 0.0000
vn 0.0000 0.0000 1.0000
vn 0.0000 -1.0000 0.0000
vn -0.1807 0.9835 0.0000
usemtl White.004
s off
f 74//55 75//55 73//55
f 76//56 79//56 75//56
f 80//57 77//57 79//57
f 77//58 74//58 73//58
f 79//59 73//59 75//59
f 76//60 78//60 80//60
f 74//55 76//55 75//55
f 76//56 80//56 79//56
f 80//57 78//57 77//57
f 77//58 78//58 74//58
f 79//59 77//59 73//59
f 76//60 74//60 78//60
o Cube.002_Cube.003
v -0.500000 2.000002 0.500000
v -0.500000 2.020002 0.500000
v -0.500000 2.000002 0.480000
v -0.500000 2.020002 0.480000
v 0.480000 2.000002 0.500000
v 0.480000 2.200002 0.500000
v 0.480000 2.000002 0.480000
v 0.480000 2.200002 0.480000
vn -1.0000 0.0000 0.0000
vn 0.0000 0.0000 -1.0000
vn 1.0000 0.0000 0.0000
vn 0.0000 0.0000 1.0000
vn 0.0000 -1.0000 0.0000
vn -0.1807 0.9835 0.0000
usemtl White
s off
f 82//61 83//61 81//61
f 84//62 87//62 83//62
f 88//63 85//63 87//63
f 85//64 82//64 81//64
f 87//65 81//65 83//65
f 84//66 86//66 88//66
f 82//61 84//61 83//61
f 84//62 88//62 87//62
f 88//63 86//63 85//63
f 85//64 86//64 82//64
f 87//65 85//65 81//65
f 84//66 82//66 86//66
o Cylinder_Cylinder.002
v 0.500000 1.627108 -0.384350
v 0.500000 1.572893 -0.384350
v 0.500000 1.619168 -0.387867
v 0.500000 1.609922 -0.390078
v 0.500000 1.600000 -0.390832
v 0.500000 1.590078 -0.390078
v 0.500000 1.580832 -0.387867
v 0.540000 1.572893 -0.384350
v 0.540000 1.627108 -0.384350
v 0.540000 1.580832 -0.387867
v 0.540000 1.590078 -0.390078
v 0.540000 1.600000 -0.390832
v 0.540000 1.609922 -0.390078
v 0.540000 1.619168 -0.387867
v 0.500000 1.280697 -0.215650
v 0.500000 1.253590 -0.168699
v 0.500000 1.273681 -0.210533
v 0.500000 1.267144 -0.203632
v 0.500000 1.261529 -0.195416
v 0.500000 1.257222 -0.186446
v 0.500000 1.254514 -0.177334
v 0.540000 1.253590 -0.168699
v 0.540000 1.280697 -0.215650
v 0.540000 1.254514 -0.177334
v 0.540000 1.257222 -0.186446
v 0.540000 1.261529 -0.195416
v 0.540000 1.267144 -0.203632
v 0.540000 1.273681 -0.210533
v 0.500000 1.253590 0.168699
v 0.500000 1.280697 0.215650
v 0.500000 1.254514 0.177334
v 0.500000 1.257222 0.186446
v 0.500000 1.261530 0.195416
v 0.500000 1.267144 0.203632
v 0.500000 1.273681 0.210533
v 0.540000 1.280697 0.215650
v 0.540000 1.253590 0.168699
v 0.540000 1.273681 0.210533
v 0.540000 1.267144 0.203632
v 0.540000 1.261530 0.195416
v 0.540000 1.257222 0.186446
v 0.540000 1.254514 0.177334
v 0.500000 1.572893 0.384350
v 0.500000 1.627108 0.384350
v 0.500000 1.580832 0.387867
v 0.500000 1.590078 0.390078
v 0.500000 1.600000 0.390832
v 0.500000 1.609922 0.390078
v 0.500000 1.619168 0.387867
v 0.540000 1.627108 0.384350
v 0.540000 1.572893 0.384350
v 0.540000 1.619168 0.387867
v 0.540000 1.609922 0.390078
v 0.540000 1.600000 0.390832
v 0.540000 1.590078 0.390078
v 0.540000 1.580832 0.387867
v 0.500000 1.919303 0.215650
v 0.500000 1.946410 0.168699
v 0.500000 1.926319 0.210533
v 0.500000 1.932857 0.203632
v 0.500000 1.938471 0.195416
v 0.500000 1.942779 0.186446
v 0.500000 1.945487 0.177334
v 0.540000 1.946410 0.168699
v 0.540000 1.919303 0.215650
v 0.540000 1.945487 0.177334
v 0.540000 1.942779 0.186446
v 0.540000 1.938471 0.195416
v 0.540000 1.932857 0.203632
v 0.540000 1.926319 0.210533
v 0.500000 1.946410 -0.168699
v 0.500000 1.919303 -0.215650
v 0.500000 1.945487 -0.177334
v 0.500000 1.942779 -0.186446
v 0.500000 1.938471 -0.195416
v 0.500000 1.932857 -0.203632
v 0.500000 1.926319 -0.210533
v 0.540000 1.919303 -0.215650
v 0.540000 1.946410 -0.168699
v 0.540000 1.926319 -0.210533
v 0.540000 1.932857 -0.203632
v 0.540000 1.938471 -0.195416
v 0.540000 1.942779 -0.186446
v 0.540000 1.945487 -0.177334
vn 0.0000 0.5000 -0.8660
vn 0.0000 -0.5000 0.8660
vn 0.0000 0.5000 0.8660
vn 0.0000 1.0000 0.0000
vn 0.0000 -1.0000 0.0000
vn 1.0000 0.0000 -0.0000
vn 0.0000 -0.5000 -0.8660
vn 0.0000 0.4050 -0.9143
vn 0.0000 0.2326 -0.9726
vn 0.0000 0.0758 -0.9971
vn 0.0000 -0.0758 -0.9971
vn 0.0000 -0.2326 -0.9726
vn 0.0000 -0.4050 -0.9143
vn 0.0000 -0.9943 -0.1064
vn 0.0000 -0.9586 -0.2848
vn 0.0000 -0.9014 -0.4329
vn 0.0000 -0.8256 -0.5642
vn 0.0000 -0.7260 -0.6877
vn 0.0000 -0.5893 -0.8079
vn 0.0000 -0.5893 0.8079
vn 0.0000 -0.7260 0.6877
vn 0.0000 -0.8256 0.5642
vn 0.0000 -0.9014 0.4329
vn 0.0000 -0.9586 0.2848
vn 0.0000 -0.9943 0.1064
vn 0.0000 0.4050 0.9143
vn 0.0000 0.2326 0.9726
vn 0.0000 0.0758 0.9971
vn 0.0000 -0.0758 0.9971
vn 0.0000 -0.2326 0.9726
vn 0.0000 -0.4050 0.9143
vn 0.0000 0.9943 0.1063
vn 0.0000 0.9586 0.2849
vn 0.0000 0.9014 0.4329
vn 0.0000 0.8256 0.5642
vn 0.0000 0.7260 0.6877
vn 0.0000 0.5893 0.8079
vn 0.0000 0.5893 -0.8079
vn 0.0000 0.7260 -0.6877
vn 0.0000 0.8256 -0.5642
vn 0.0000 0.9014 -0.4329
vn 0.0000 0.9586 -0.2848
vn 0.0000 0.9943 -0.1063
vn -1.0000 -0.0000 0.0000
vn 1.0000 -0.0001 0.0000
vn 0.0000 -0.4051 -0.9143
vn 0.0000 -0.9586 0.2849
vn 0.0000 -0.4051 0.9143
vn 0.0000 0.9586 0.2848
vn 0.0000 0.9586 -0.2849
vn -1.0000 0.0001 0.0000
vn -1.0000 -0.0001 0.0000
usemtl Gold.001
s off
f 166//67 89//67 160//67
f 124//68 131//68 118//68
f 138//69 145//69 132//69
f 152//70 159//70 146//70
f 110//71 117//71 104//71
f 96//72 153//72 124//72
f 96//73 103//73 90//73
f 97//74 91//74 89//74
f 102//75 92//75 91//75
f 101//76 93//76 92//76
f 100//77 94//77 93//77
f 99//78 95//78 94//78
f 98//79 90//79 95//79
f 104//80 112//80 110//80
f 109//81 113//81 112//81
f 108//82 114//82 113//82
f 107//83 115//83 114//83
f 106//84 116//84 115//84
f 105//85 111//85 116//85
f 118//86 126//86 124//86
f 123//87 127//87 126//87
f 122//88 128//88 127//88
f 121//89 129//89 128//89
f 120//90 130//90 129//90
f 119//91 125//91 130//91
f 132//92 140//92 138//92
f 137//93 141//93 140//93
f 136//94 142//94 141//94
f 135//95 143//95 142//95
f 134//96 144//96 143//96
f 133//97 139//97 144//97
f 146//98 154//98 152//98
f 151//99 155//99 154//99
f 150//100 156//100 155//100
f 149//101 157//101 156//101
f 148//102 158//102 157//102
f 147//103 153//103 158//103
f 160//104 168//104 166//104
f 165//105 169//105 168//105
f 164//106 170//106 169//106
f 163//107 171//107 170//107
f 162//108 172//108 171//108
f 161//109 167//109 172//109
f 103//110 132//110 159//110
f 166//67 97//67 89//67
f 124//68 139//68 131//68
f 138//69 153//69 145//69
f 152//70 167//70 159//70
f 110//71 125//71 117//71
f 125//72 110//72 111//72
f 112//111 113//111 110//111
f 114//72 115//72 111//72
f 116//72 111//72 115//72
f 96//72 98//72 99//72
f 99//72 100//72 96//72
f 101//72 102//72 97//72
f 97//72 166//72 167//72
f 168//72 169//72 166//72
f 170//72 171//72 167//72
f 172//72 167//72 171//72
f 152//72 154//72 155//72
f 155//72 156//72 152//72
f 157//72 158//72 153//72
f 153//72 138//72 139//72
f 140//72 141//72 138//72
f 142//72 143//72 139//72
f 144//72 139//72 143//72
f 124//72 126//72 127//72
f 127//72 128//72 124//72
f 129//111 130//111 125//111
f 110//72 113//72 114//72
f 114//72 111//72 110//72
f 96//72 100//72 97//72
f 101//72 97//72 100//72
f 169//72 170//72 166//72
f 167//72 152//72 153//72
f 156//72 157//72 153//72
f 138//72 142//72 139//72
f 142//72 138//72 141//72
f 124//72 128//72 125//72
f 129//72 125//72 128//72
f 111//72 96//72 124//72
f 166//72 170//72 167//72
f 152//72 156//72 153//72
f 153//72 139//72 124//72
f 124//72 125//72 111//72
f 96//72 97//72 167//72
f 167//72 153//72 96//72
f 96//73 111//73 103//73
f 97//74 102//74 91//74
f 102//75 101//75 92//75
f 101//76 100//76 93//76
f 100//77 99//77 94//77
f 99//78 98//78 95//78
f 98//112 96//112 90//112
f 104//80 109//80 112//80
f 109//81 108//81 113//81
f 108//82 107//82 114//82
f 107//83 106//83 115//83
f 106//84 105//84 116//84
f 105//85 103//85 111//85
f 118//86 123//86 126//86
f 123//87 122//87 127//87
f 122//88 121//88 128//88
f 121//89 120//89 129//89
f 120//113 119//113 130//113
f 119//91 117//91 125//91
f 132//92 137//92 140//92
f 137//93 136//93 141//93
f 136//94 135//94 142//94
f 135//95 134//95 143//95
f 134//96 133//96 144//96
f 133//114 131//114 139//114
f 146//98 151//98 154//98
f 151//115 150//115 155//115
f 150//100 149//100 156//100
f 149//101 148//101 157//101
f 148//102 147//102 158//102
f 147//103 145//103 153//103
f 160//104 165//104 168//104
f 165//105 164//105 169//105
f 164//106 163//106 170//106
f 163//107 162//107 171//107
f 162//116 161//116 172//116
f 161//109 159//109 167//109
f 160//110 89//110 90//110
f 91//110 92//110 89//110
f 93//110 94//110 90//110
f 95//110 90//110 94//110
f 103//110 105//110 106//110
f 106//110 107//110 103//110
f 108//110 109//110 104//110
f 104//110 117//110 118//110
f 119//110 120//110 117//110
f 121//110 122//110 118//110
f 123//117 118//117 122//117
f 131//110 133//110 134//110
f 134//110 135//110 131//110
f 136//110 137//110 132//110
f 132//110 145//110 146//110
f 147//110 148//110 145//110
f 149//110 150//110 146//110
f 151//118 146//118 150//118
f 159//118 161//118 162//118
f 162//110 163//110 159//110
f 164//110 165//110 160//110
f 89//110 92//110 93//110
f 93//110 90//110 89//110
f 103//110 107//110 104//110
f 108//110 104//110 107//110
f 120//110 121//110 117//110
f 118//110 131//110 132//110
f 135//110 136//110 132//110
f 145//110 149//110 146//110
f 149//110 145//110 148//110
f 159//110 163//110 160//110
f 164//110 160//110 163//110
f 90//110 103//110 159//110
f 117//110 121//110 118//110
f 131//110 135//110 132//110
f 132//110 146//110 159//110
f 159//110 160//110 90//110
f 103//110 104//110 118//110
f 118//110 132//110 103//110
