# Blender v2.78 (sub 0) OBJ File: 'podium.blend'
# www.blender.org
mtllib podium.mtl
o Cube.010
v -0.502686 2.461656 -0.495000
v -0.504491 2.471492 -0.495000
v -0.502686 2.461656 -0.505000
v -0.504491 2.471492 -0.505000
v 0.504491 2.646508 -0.495000
v 0.502686 2.656343 -0.495000
v 0.504491 2.646508 -0.505000
v 0.502686 2.656343 -0.505000
vn -0.9836 -0.1805 0.0000
vn 0.0000 0.0000 -1.0000
vn 0.9836 0.1805 0.0000
vn -0.0000 0.0000 1.0000
vn 0.1805 -0.9836 0.0000
vn -0.1805 0.9836 0.0000
usemtl Gold
s off
f 2//1 3//1 1//1
f 4//2 7//2 3//2
f 8//3 5//3 7//3
f 5//4 2//4 1//4
f 7//5 1//5 3//5
f 4//6 6//6 8//6
f 2//1 4//1 3//1
f 4//2 8//2 7//2
f 8//3 6//3 5//3
f 5//4 6//4 2//4
f 7//5 5//5 1//5
f 4//6 2//6 6//6
o Cube.009
v -0.502686 2.461656 0.505000
v -0.504491 2.471492 0.505000
v -0.502686 2.461656 0.495000
v -0.504491 2.471492 0.495000
v 0.504491 2.646508 0.505000
v 0.502686 2.656343 0.505000
v 0.504491 2.646508 0.495000
v 0.502686 2.656343 0.495000
vn -0.9836 -0.1805 0.0000
vn 0.0000 0.0000 -1.0000
vn 0.9836 0.1805 0.0000
vn -0.0000 0.0000 1.0000
vn 0.1805 -0.9836 0.0000
vn -0.1805 0.9836 0.0000
usemtl Gold
s off
f 10//7 11//7 9//7
f 12//8 15//8 11//8
f 16//9 13//9 15//9
f 13//10 10//10 9//10
f 15//11 9//11 11//11
f 12//12 14//12 16//12
f 10//7 12//7 11//7
f 12//8 16//8 15//8
f 16//9 14//9 13//9
f 13//10 14//10 10//10
f 15//11 13//11 9//11
f 12//12 10//12 14//12
o Cube.008
v 0.495000 2.645000 0.505000
v 0.495000 2.655000 0.505000
v 0.495000 2.645000 -0.505000
v 0.495000 2.655000 -0.505000
v 0.505000 2.645000 0.505000
v 0.505000 2.655000 0.505000
v 0.505000 2.645000 -0.505000
v 0.505000 2.655000 -0.505000
vn -1.0000 0.0000 0.0000
vn 0.0000 0.0000 -1.0000
vn 1.0000 0.0000 0.0000
vn 0.0000 0.0000 1.0000
vn 0.0000 -1.0000 0.0000
vn 0.0000 1.0000 0.0000
usemtl Gold
s off
f 18//13 19//13 17//13
f 20//14 23//14 19//14
f 24//15 21//15 23//15
f 22//16 17//16 21//16
f 23//17 17//17 19//17
f 20//18 22//18 24//18
f 18//13 20//13 19//13
f 20//14 24//14 23//14
f 24//15 22//15 21//15
f 22//16 18//16 17//16
f 23//17 21//17 17//17
f 20//18 18//18 22//18
o Cube.007
v 0.495000 0.200000 -0.495000
v 0.495000 2.650000 -0.495000
v 0.495000 0.200000 -0.505000
v 0.495000 2.650000 -0.505000
v 0.505000 0.200000 -0.495000
v 0.505000 2.650000 -0.495000
v 0.505000 0.200000 -0.505000
v 0.505000 2.650000 -0.505000
vn -1.0000 0.0000 0.0000
vn 0.0000 0.0000 -1.0000
vn 1.0000 0.0000 0.0000
vn 0.0000 0.0000 1.0000
vn 0.0000 -1.0000 0.0000
vn 0.0000 1.0000 0.0000
usemtl Gold
s off
f 26//19 27//19 25//19
f 28//20 31//20 27//20
f 32//21 29//21 31//21
f 30//22 25//22 29//22
f 31//23 25//23 27//23
f 28//24 30//24 32//24
f 26//19 28//19 27//19
f 28//20 32//20 31//20
f 32//21 30//21 29//21
f 30//22 26//22 25//22
f 31//23 29//23 25//23
f 28//24 26//24 30//24
o Cube.006_Cube.002
v 0.495000 0.200000 0.505000
v 0.495000 2.650000 0.505000
v 0.495000 0.200000 0.495000
v 0.495000 2.650000 0.495000
v 0.505000 0.200000 0.505000
v 0.505000 2.650000 0.505000
v 0.505000 0.200000 0.495000
v 0.505000 2.650000 0.495000
vn -1.0000 0.0000 0.0000
vn 0.0000 0.0000 -1.0000
vn 1.0000 0.0000 0.0000
vn 0.0000 0.0000 1.0000
vn 0.0000 -1.0000 0.0000
vn 0.0000 1.0000 0.0000
usemtl Gold
s off
f 34//25 35//25 33//25
f 36//26 39//26 35//26
f 40//27 37//27 39//27
f 38//28 33//28 37//28
f 39//29 33//29 35//29
f 36//30 38//30 40//30
f 34//25 36//25 35//25
f 36//26 40//26 39//26
f 40//27 38//27 37//27
f 38//28 34//28 33//28
f 39//29 37//29 33//29
f 36//30 34//30 38//30
o Cube.001
v -0.505000 0.200000 0.505000
v -0.505000 2.470000 0.505000
v -0.505000 0.200000 0.495000
v -0.505000 2.470000 0.495000
v -0.495000 0.200000 0.505000
v -0.495000 2.470000 0.505000
v -0.495000 0.200000 0.495000
v -0.495000 2.470000 0.495000
vn -1.0000 0.0000 0.0000
vn 0.0000 0.0000 -1.0000
vn 1.0000 0.0000 0.0000
vn 0.0000 0.0000 1.0000
vn 0.0000 -1.0000 0.0000
vn 0.0000 1.0000 0.0000
usemtl Gold
s off
f 42//31 43//31 41//31
f 44//32 47//32 43//32
f 48//33 45//33 47//33
f 46//34 41//34 45//34
f 47//35 41//35 43//35
f 44//36 46//36 48//36
f 42//31 44//31 43//31
f 44//32 48//32 47//32
f 48//33 46//33 45//33
f 46//34 42//34 41//34
f 47//35 45//35 41//35
f 44//36 42//36 46//36
o Cube
v -0.505000 0.200000 -0.495000
v -0.505000 2.470000 -0.495000
v -0.505000 0.200000 -0.505000
v -0.505000 2.470000 -0.505000
v -0.495000 0.200000 -0.495000
v -0.495000 2.470000 -0.495000
v -0.495000 0.200000 -0.505000
v -0.495000 2.470000 -0.505000
vn -1.0000 0.0000 0.0000
vn 0.0000 0.0000 -1.0000
vn 1.0000 0.0000 0.0000
vn 0.0000 0.0000 1.0000
vn 0.0000 -1.0000 0.0000
vn 0.0000 1.0000 0.0000
usemtl Gold
s off
f 50//37 51//37 49//37
f 52//38 55//38 51//38
f 56//39 53//39 55//39
f 54//40 49//40 53//40
f 55//41 49//41 51//41
f 52//42 54//42 56//42
f 50//37 52//37 51//37
f 52//38 56//38 55//38
f 56//39 54//39 53//39
f 54//40 50//40 49//40
f 55//41 53//41 49//41
f 52//42 50//42 54//42
o Cube.005_Cube.006
v 0.500000 2.390000 0.440000
v 0.500000 2.590000 0.440000
v 0.500000 2.390000 -0.440000
v 0.500000 2.590000 -0.440000
v 0.520000 2.390000 0.440000
v 0.520000 2.590000 0.440000
v 0.520000 2.390000 -0.440000
v 0.520000 2.590000 -0.440000
v -0.500000 0.200000 0.500000
v -0.500000 2.450000 0.500000
v -0.500000 0.200000 -0.500000
v -0.500000 2.450000 -0.500000
v 0.500000 0.200000 0.500000
v 0.500000 2.450000 0.500000
v 0.500000 0.200000 -0.500000
v 0.500000 2.450000 -0.500000
v 0.480000 2.450000 0.500000
v 0.480000 2.650000 0.500000
v 0.480000 2.450000 -0.500000
v 0.480000 2.650000 -0.500000
v 0.500000 2.450000 0.500000
v 0.500000 2.650000 0.500000
v 0.500000 2.450000 -0.500000
v 0.500000 2.650000 -0.500000
v -0.500000 2.450000 -0.480000
v -0.500000 2.470000 -0.480000
v -0.500000 2.450000 -0.500000
v -0.500000 2.470000 -0.500000
v 0.480000 2.450000 -0.480000
v 0.480000 2.650000 -0.480000
v 0.480000 2.450000 -0.500000
v 0.480000 2.650000 -0.500000
v -0.500000 2.450002 0.500000
v -0.500000 2.470002 0.500000
v -0.500000 2.450002 0.480000
v -0.500000 2.470002 0.480000
v 0.480000 2.450002 0.500000
v 0.480000 2.650002 0.500000
v 0.480000 2.450002 0.480000
v 0.480000 2.650002 0.480000
vt 0.6466 0.0146
vt 0.9339 0.3431
vt 0.6466 0.3431
vt 0.6466 0.6642
vt 0.9339 0.3723
vt 0.9339 0.6642
vt 0.6178 0.4015
vt 0.3307 0.6934
vt 0.3307 0.4015
vt 0.6466 0.9854
vt 0.6753 0.6934
vt 0.6753 0.9854
vt 0.0144 0.3723
vt 0.3017 0.0146
vt 0.3017 0.3723
vt 0.9684 0.0146
vt 0.9626 0.3066
vt 0.9626 0.0146
vt 0.9684 0.3358
vt 0.9626 0.6277
vt 0.9626 0.3358
vt 0.5692 0.7285
vt 0.5720 0.7226
vt 0.5720 0.7285
vt 0.4743 0.7518
vt 0.4686 0.7226
vt 0.4743 0.7226
vt 0.7615 0.6934
vt 0.7644 0.9796
vt 0.7615 0.9796
vt 0.9799 0.6934
vt 0.9856 0.9796
vt 0.9799 0.9796
vt 0.9109 0.6934
vt 0.9167 0.9803
vt 0.9109 0.9803
vt 0.5375 0.7285
vt 0.5404 0.7226
vt 0.5404 0.7285
vt 0.7299 0.9796
vt 0.7328 0.6934
vt 0.7328 0.9796
vt 0.4341 0.7226
vt 0.4398 0.7518
vt 0.4341 0.7518
vt 0.9511 0.9796
vt 0.9454 0.6934
vt 0.9511 0.6934
vt 0.8764 0.6934
vt 0.8822 0.9803
vt 0.8764 0.9803
vt 0.9339 0.0146
vt 0.6466 0.3723
vt 0.6178 0.6934
vt 0.6466 0.6934
vt 0.0144 0.0146
vt 0.9684 0.3066
vt 0.9684 0.6277
vt 0.5692 0.7226
vt 0.4686 0.7518
vt 0.7902 0.6934
vt 0.9856 0.6934
vt 0.9167 0.6934
vt 0.5375 0.7226
vt 0.7040 0.6934
vt 0.4398 0.7226
vt 0.9454 0.9796
vt 0.8822 0.6934
vt 0.5031 0.7226
vt 0.5088 0.7518
vt 0.5031 0.7518
vt 0.8190 0.9504
vt 0.8477 0.6934
vt 0.8477 0.9504
vt 0.3996 0.7226
vt 0.4054 0.7518
vt 0.3996 0.7518
vt 0.3364 0.7226
vt 0.3307 0.9796
vt 0.3307 0.7226
vt 0.3709 0.7226
vt 0.3651 0.9796
vt 0.3651 0.7226
vt 0.6178 0.3723
vt 0.3305 0.0409
vt 0.6178 0.0146
vt 0.0144 0.7591
vt 0.3017 0.4277
vt 0.3017 0.7591
vt 0.5088 0.7226
vt 0.8190 0.6934
vt 0.4054 0.7226
vt 0.3364 0.9796
vt 0.3709 0.9796
vt 0.3305 0.3723
vt 0.0144 0.4015
vn -1.0000 0.0000 0.0000
vn 0.0000 -1.0000 0.0000
vn 0.0000 1.0000 0.0000
vn 1.0000 0.0000 0.0000
vn 0.0000 0.0000 1.0000
vn -0.1807 0.9835 0.0000
vn 0.0000 0.0000 -1.0000
usemtl Light
s off
f 66/1/43 67/2/43 65/3/43
f 71/4/44 65/5/44 67/6/44
f 68/7/45 70/8/45 72/9/45
f 74/10/43 75/11/43 73/12/43
f 71/13/46 78/14/46 69/15/46
f 79/16/44 73/17/44 75/18/44
f 76/19/45 78/20/45 80/21/45
f 82/22/43 83/23/43 81/24/43
f 88/25/46 85/26/46 87/27/46
f 85/28/47 82/29/47 81/30/47
f 87/31/44 81/32/44 83/33/44
f 84/34/48 86/35/48 88/36/48
f 90/37/43 91/38/43 89/39/43
f 92/40/49 95/41/49 91/42/49
f 96/43/46 93/44/46 95/45/46
f 95/46/44 89/47/44 91/48/44
f 92/49/48 94/50/48 96/51/48
f 66/1/43 68/52/43 67/2/43
f 71/4/44 69/53/44 65/5/44
f 68/7/45 66/54/45 70/8/45
f 74/10/43 76/55/43 75/11/43
f 71/13/46 80/56/46 78/14/46
f 79/16/44 77/57/44 73/17/44
f 76/19/45 74/58/45 78/20/45
f 82/22/43 84/59/43 83/23/43
f 88/25/46 86/60/46 85/26/46
f 85/28/47 86/61/47 82/29/47
f 87/31/44 85/62/44 81/32/44
f 84/34/48 82/63/48 86/35/48
f 90/37/43 92/64/43 91/38/43
f 92/40/49 96/65/49 95/41/49
f 96/43/46 94/66/46 93/44/46
f 95/46/44 93/67/44 89/47/44
f 92/49/48 90/68/48 94/50/48
usemtl Light_NONE
f 60/69/49 63/70/49 59/71/49
f 64/72/46 61/73/46 63/74/46
f 62/75/47 57/76/47 61/77/47
f 63/78/44 57/79/44 59/80/44
f 60/81/45 62/82/45 64/83/45
f 71/84/49 84/85/49 80/86/49
f 69/87/47 90/88/47 65/89/47
f 60/69/49 64/90/49 63/70/49
f 64/72/46 62/91/46 61/73/46
f 62/75/47 58/92/47 57/76/47
f 63/78/44 61/93/44 57/79/44
f 60/81/45 58/94/45 62/82/45
f 71/84/49 67/95/49 84/85/49
f 69/87/47 78/96/47 90/88/47
o Cylinder_Cylinder.002
v 0.500000 2.027107 -0.384350
v 0.500000 1.972893 -0.384350
v 0.500000 2.019168 -0.387867
v 0.500000 2.009922 -0.390078
v 0.500000 2.000000 -0.390832
v 0.500000 1.990078 -0.390078
v 0.500000 1.980832 -0.387867
v 0.540000 1.972893 -0.384350
v 0.540000 2.027107 -0.384350
v 0.540000 1.980832 -0.387867
v 0.540000 1.990078 -0.390078
v 0.540000 2.000000 -0.390832
v 0.540000 2.009922 -0.390078
v 0.540000 2.019168 -0.387867
v 0.500000 1.680697 -0.215650
v 0.500000 1.653590 -0.168699
v 0.500000 1.673681 -0.210533
v 0.500000 1.667143 -0.203632
v 0.500000 1.661529 -0.195416
v 0.500000 1.657221 -0.186446
v 0.500000 1.654513 -0.177334
v 0.540000 1.653590 -0.168699
v 0.540000 1.680697 -0.215650
v 0.540000 1.654513 -0.177334
v 0.540000 1.657221 -0.186446
v 0.540000 1.661529 -0.195416
v 0.540000 1.667143 -0.203632
v 0.540000 1.673681 -0.210533
v 0.500000 1.653590 0.168699
v 0.500000 1.680697 0.215650
v 0.500000 1.654513 0.177334
v 0.500000 1.657222 0.186446
v 0.500000 1.661529 0.195416
v 0.500000 1.667144 0.203632
v 0.500000 1.673681 0.210533
v 0.540000 1.680697 0.215650
v 0.540000 1.653590 0.168699
v 0.540000 1.673681 0.210533
v 0.540000 1.667144 0.203632
v 0.540000 1.661529 0.195416
v 0.540000 1.657222 0.186446
v 0.540000 1.654513 0.177334
v 0.500000 1.972893 0.384350
v 0.500000 2.027107 0.384350
v 0.500000 1.980832 0.387867
v 0.500000 1.990078 0.390078
v 0.500000 2.000000 0.390832
v 0.500000 2.009922 0.390078
v 0.500000 2.019168 0.387867
v 0.540000 2.027107 0.384350
v 0.540000 1.972893 0.384350
v 0.540000 2.019168 0.387867
v 0.540000 2.009922 0.390078
v 0.540000 2.000000 0.390832
v 0.540000 1.990078 0.390078
v 0.540000 1.980832 0.387867
v 0.500000 2.319303 0.215650
v 0.500000 2.346410 0.168699
v 0.500000 2.326319 0.210533
v 0.500000 2.332856 0.203632
v 0.500000 2.338471 0.195416
v 0.500000 2.342778 0.186446
v 0.500000 2.345487 0.177334
v 0.540000 2.346410 0.168699
v 0.540000 2.319303 0.215650
v 0.540000 2.345487 0.177334
v 0.540000 2.342778 0.186446
v 0.540000 2.338471 0.195416
v 0.540000 2.332856 0.203632
v 0.540000 2.326319 0.210533
v 0.500000 2.346410 -0.168699
v 0.500000 2.319303 -0.215650
v 0.500000 2.345487 -0.177334
v 0.500000 2.342778 -0.186446
v 0.500000 2.338471 -0.195416
v 0.500000 2.332856 -0.203632
v 0.500000 2.326319 -0.210533
v 0.540000 2.319303 -0.215650
v 0.540000 2.346410 -0.168699
v 0.540000 2.326319 -0.210533
v 0.540000 2.332856 -0.203632
v 0.540000 2.338471 -0.195416
v 0.540000 2.342778 -0.186446
v 0.540000 2.345487 -0.177334
vn 0.0000 0.5000 -0.8660
vn 0.0000 -0.5000 0.8660
vn 0.0000 0.5000 0.8660
vn 0.0000 1.0000 0.0000
vn 0.0000 -1.0000 0.0000
vn 1.0000 0.0000 -0.0000
vn 0.0000 -0.5000 -0.8660
vn 0.0000 0.4051 -0.9143
vn 0.0000 0.2326 -0.9726
vn 0.0000 0.0758 -0.9971
vn 0.0000 -0.0758 -0.9971
vn 0.0000 -0.2326 -0.9726
vn 0.0000 -0.4050 -0.9143
vn 0.0000 -0.9943 -0.1063
vn 0.0000 -0.9586 -0.2848
vn 0.0000 -0.9014 -0.4329
vn 0.0000 -0.8256 -0.5642
vn 0.0000 -0.7260 -0.6877
vn 0.0000 -0.5893 -0.8079
vn 0.0000 -0.5893 0.8079
vn 0.0000 -0.7260 0.6877
vn 0.0000 -0.8256 0.5642
vn 0.0000 -0.9014 0.4329
vn 0.0000 -0.9586 0.2848
vn 0.0000 -0.9943 0.1063
vn 0.0000 0.4050 0.9143
vn 0.0000 0.2326 0.9726
vn 0.0000 0.0758 0.9971
vn 0.0000 -0.0758 0.9971
vn 0.0000 -0.2326 0.9726
vn 0.0000 -0.4050 0.9143
vn 0.0000 0.9943 0.1063
vn 0.0000 0.9586 0.2849
vn 0.0000 0.9014 0.4329
vn 0.0000 0.8256 0.5642
vn 0.0000 0.7260 0.6877
vn 0.0000 0.5893 0.8079
vn 0.0000 0.5893 -0.8079
vn 0.0000 0.7260 -0.6877
vn 0.0000 0.8256 -0.5642
vn 0.0000 0.9014 -0.4329
vn 0.0000 0.9586 -0.2848
vn 0.0000 0.9943 -0.1064
vn -1.0000 -0.0000 0.0000
vn 1.0000 -0.0001 0.0000
vn 0.0000 -0.4051 -0.9143
vn 0.0000 -0.9586 -0.2849
vn 0.0000 -0.9586 0.2849
vn 0.0000 0.4051 0.9143
vn 0.0000 -0.4051 0.9143
vn 0.0000 0.9943 0.1064
vn 0.0000 0.9586 0.2848
vn 0.0000 0.9586 -0.2849
vn 0.0000 0.9943 -0.1063
vn -1.0000 0.0001 0.0000
vn -1.0000 -0.0001 0.0000
usemtl Gold.001
s off
f 174//50 97//50 168//50
f 132//51 139//51 126//51
f 146//52 153//52 140//52
f 160//53 167//53 154//53
f 118//54 125//54 112//54
f 104//55 161//55 132//55
f 104//56 111//56 98//56
f 105//57 99//57 97//57
f 110//58 100//58 99//58
f 109//59 101//59 100//59
f 108//60 102//60 101//60
f 107//61 103//61 102//61
f 106//62 98//62 103//62
f 112//63 120//63 118//63
f 117//64 121//64 120//64
f 116//65 122//65 121//65
f 115//66 123//66 122//66
f 114//67 124//67 123//67
f 113//68 119//68 124//68
f 126//69 134//69 132//69
f 131//70 135//70 134//70
f 135//71 129//71 136//71
f 129//72 137//72 136//72
f 128//73 138//73 137//73
f 127//74 133//74 138//74
f 140//75 148//75 146//75
f 145//76 149//76 148//76
f 144//77 150//77 149//77
f 143//78 151//78 150//78
f 142//79 152//79 151//79
f 141//80 147//80 152//80
f 154//81 162//81 160//81
f 159//82 163//82 162//82
f 158//83 164//83 163//83
f 157//84 165//84 164//84
f 156//85 166//85 165//85
f 155//86 161//86 166//86
f 168//87 176//87 174//87
f 173//88 177//88 176//88
f 172//89 178//89 177//89
f 171//90 179//90 178//90
f 170//91 180//91 179//91
f 169//92 175//92 180//92
f 111//93 140//93 167//93
f 174//50 105//50 97//50
f 132//51 147//51 139//51
f 146//52 161//52 153//52
f 160//53 175//53 167//53
f 118//54 133//54 125//54
f 133//55 118//55 119//55
f 120//94 121//94 118//94
f 122//55 123//55 119//55
f 124//55 119//55 123//55
f 104//55 106//55 107//55
f 107//55 108//55 104//55
f 109//55 110//55 105//55
f 105//55 174//55 175//55
f 176//55 177//55 174//55
f 178//55 179//55 175//55
f 180//55 175//55 179//55
f 160//55 162//55 163//55
f 163//55 164//55 160//55
f 165//55 166//55 161//55
f 161//55 146//55 147//55
f 148//55 149//55 146//55
f 150//55 151//55 147//55
f 152//55 147//55 151//55
f 132//55 134//55 135//55
f 135//55 136//55 132//55
f 137//94 138//94 133//94
f 118//55 121//55 122//55
f 122//55 119//55 118//55
f 104//55 108//55 105//55
f 109//55 105//55 108//55
f 177//55 178//55 174//55
f 175//55 160//55 161//55
f 164//55 165//55 161//55
f 146//55 150//55 147//55
f 150//55 146//55 149//55
f 132//55 136//55 133//55
f 137//55 133//55 136//55
f 119//55 104//55 132//55
f 174//55 178//55 175//55
f 160//55 164//55 161//55
f 161//55 147//55 132//55
f 132//55 133//55 119//55
f 104//55 105//55 175//55
f 175//55 161//55 104//55
f 104//56 119//56 111//56
f 105//57 110//57 99//57
f 110//58 109//58 100//58
f 109//59 108//59 101//59
f 108//60 107//60 102//60
f 107//61 106//61 103//61
f 106//95 104//95 98//95
f 112//63 117//63 120//63
f 117//96 116//96 121//96
f 116//65 115//65 122//65
f 115//66 114//66 123//66
f 114//67 113//67 124//67
f 113//68 111//68 119//68
f 126//69 131//69 134//69
f 131//70 130//70 135//70
f 135//71 130//71 129//71
f 129//72 128//72 137//72
f 128//97 127//97 138//97
f 127//74 125//74 133//74
f 140//98 145//98 148//98
f 145//76 144//76 149//76
f 144//77 143//77 150//77
f 143//78 142//78 151//78
f 142//79 141//79 152//79
f 141//99 139//99 147//99
f 154//100 159//100 162//100
f 159//101 158//101 163//101
f 158//83 157//83 164//83
f 157//84 156//84 165//84
f 156//85 155//85 166//85
f 155//86 153//86 161//86
f 168//87 173//87 176//87
f 173//88 172//88 177//88
f 172//89 171//89 178//89
f 171//90 170//90 179//90
f 170//102 169//102 180//102
f 169//103 167//103 175//103
f 168//93 97//93 98//93
f 99//93 100//93 97//93
f 101//93 102//93 98//93
f 103//93 98//93 102//93
f 111//93 113//93 114//93
f 114//93 115//93 111//93
f 116//93 117//93 112//93
f 112//93 125//93 126//93
f 127//93 128//93 125//93
f 129//93 130//93 126//93
f 131//104 126//104 130//104
f 139//93 141//93 142//93
f 142//93 143//93 139//93
f 144//93 145//93 140//93
f 140//93 153//93 167//93
f 155//93 156//93 153//93
f 157//93 158//93 154//93
f 159//105 154//105 158//105
f 167//105 169//105 170//105
f 170//93 171//93 167//93
f 172//93 173//93 168//93
f 97//93 100//93 101//93
f 101//93 98//93 97//93
f 111//93 115//93 112//93
f 116//93 112//93 115//93
f 128//93 129//93 125//93
f 126//93 139//93 140//93
f 143//93 144//93 140//93
f 153//93 154//93 167//93
f 157//93 153//93 156//93
f 167//93 171//93 168//93
f 172//93 168//93 171//93
f 98//93 111//93 167//93
f 125//93 129//93 126//93
f 139//93 143//93 140//93
f 157//93 154//93 153//93
f 167//93 168//93 98//93
f 111//93 112//93 126//93
f 126//93 140//93 111//93
