# Blender v2.79 (sub 0) OBJ File: 'houseLit - Copy.blend'
# www.blender.org
mtllib fence.mtl
o wall
v 0.263765 -0.110460 0.572129
v 0.313288 -0.110460 0.549352
v 0.270689 -0.110460 0.564501
v 0.279766 -0.110460 0.557170
v 0.291502 -0.110460 0.551770
v 0.302984 -0.110460 0.549646
v -0.136235 -0.110460 0.736575
v -0.086712 -0.110460 0.759352
v -0.129311 -0.110460 0.744202
v -0.120234 -0.110460 0.751534
v -0.108498 -0.110460 0.756934
v -0.097017 -0.110460 0.759058
v 0.073289 -0.110460 0.759352
v 0.122812 -0.110460 0.736575
v 0.083587 -0.110460 0.759059
v 0.095060 -0.110460 0.756939
v 0.106798 -0.110460 0.751542
v 0.115883 -0.110460 0.744207
v -0.626712 -0.110459 0.519353
v -0.596712 -0.110459 0.549352
v -0.626325 -0.110459 0.529399
v -0.623533 -0.110459 0.539055
v -0.616426 -0.110459 0.546167
v -0.606765 -0.110459 0.548965
v 0.573289 -0.110458 0.549352
v 0.603288 -0.110458 0.519353
v 0.583335 -0.110458 0.548966
v 0.592992 -0.110458 0.546173
v 0.600104 -0.110458 0.539066
v 0.602901 -0.110458 0.529405
v -0.326711 -0.110460 0.549352
v -0.277188 -0.110460 0.572129
v -0.316413 -0.110460 0.549645
v -0.304940 -0.110460 0.551765
v -0.293202 -0.110460 0.557162
v -0.284117 -0.110460 0.564497
v 0.603288 -0.110459 -1.180649
v 0.573289 -0.110459 -1.210648
v 0.602902 -0.110459 -1.190695
v 0.600110 -0.110459 -1.200351
v 0.593002 -0.110459 -1.207464
v 0.583341 -0.110459 -1.210261
v -0.596712 -0.110459 -1.210648
v -0.626711 -0.110459 -1.180649
v -0.606759 -0.110459 -1.210262
v -0.616415 -0.110459 -1.207469
v -0.623527 -0.110459 -1.200362
v -0.626325 -0.110459 -1.190701
v -0.596712 -0.050460 0.549352
v -0.626712 -0.050460 0.519353
v -0.606759 -0.050460 0.548966
v -0.616415 -0.050460 0.546173
v -0.623527 -0.050460 0.539066
v -0.626325 -0.050460 0.529405
v -0.626711 -0.050459 -1.180649
v -0.596712 -0.050459 -1.210648
v -0.626325 -0.050459 -1.190695
v -0.623533 -0.050459 -1.200351
v -0.616426 -0.050459 -1.207464
v -0.606765 -0.050459 -1.210261
v 0.573289 -0.050459 -1.210648
v 0.603288 -0.050459 -1.180649
v 0.583336 -0.050459 -1.210262
v 0.592992 -0.050459 -1.207469
v 0.600104 -0.050459 -1.200362
v 0.602902 -0.050459 -1.190701
v -0.086712 -0.050460 0.759352
v -0.136235 -0.050460 0.736575
v -0.097010 -0.050460 0.759059
v -0.108484 -0.050460 0.756938
v -0.120221 -0.050460 0.751542
v -0.129306 -0.050460 0.744207
v 0.603288 -0.050460 0.519353
v 0.573289 -0.050460 0.549352
v 0.602902 -0.050460 0.529399
v 0.600110 -0.050460 0.539055
v 0.593002 -0.050460 0.546167
v 0.583341 -0.050460 0.548965
v 0.313288 -0.050460 0.549352
v 0.263765 -0.050460 0.572129
v 0.302990 -0.050460 0.549645
v 0.291516 -0.050460 0.551765
v 0.279779 -0.050460 0.557162
v 0.270694 -0.050460 0.564497
v -0.277188 -0.050460 0.572129
v -0.326711 -0.050460 0.549352
v -0.284113 -0.050460 0.564501
v -0.293189 -0.050460 0.557170
v -0.304925 -0.050460 0.551770
v -0.316407 -0.050460 0.549646
v 0.122812 -0.050460 0.736575
v 0.073289 -0.050460 0.759352
v 0.115887 -0.050460 0.744202
v 0.106811 -0.050460 0.751534
v 0.095075 -0.050460 0.756934
v 0.083593 -0.050460 0.759058
vt 17.395580 1.352317
vt 24.320333 3.056823
vt 17.395578 3.056823
vt 24.267069 -2.056826
vt -8.971615 -0.352271
vt -8.971614 -2.056818
vt 13.834579 6.465922
vt 18.506334 4.761375
vt 18.506334 6.465922
vt 24.318720 -0.352269
vt 17.113092 1.352273
vt 17.113094 -0.352276
vt 24.267063 -3.761389
vt -24.028431 -5.465912
vt 24.267073 -5.465926
vt 19.721565 4.761372
vt 24.267065 3.056823
vt 24.267067 4.761370
vt -24.028429 -3.761323
vt 24.267067 -2.056829
vt -24.028433 -2.056820
vt 24.320330 1.352277
vt 24.594597 3.056823
vt 24.594763 1.352276
vt 24.900177 3.056823
vt 24.900557 1.352274
vt 25.119318 3.056823
vt 19.330891 4.761373
vt 19.578232 6.465922
vt 19.330578 6.465922
vt 19.578369 4.761372
vt 19.800488 6.465922
vt 24.586828 1.352273
vt 24.318720 1.352273
vt 24.586988 -0.352269
vt 24.844528 1.352273
vt 24.844814 -0.352268
vt 25.119318 1.352273
vt 24.826796 -3.761389
vt 24.552652 -5.465926
vt 24.827110 -5.465926
vt 24.552471 -3.761389
vt -9.257022 -2.056818
vt -9.257191 -0.352271
vt -9.531345 -2.056818
vt -9.531648 -0.352271
vt -9.823864 -2.056818
vt -24.588167 -5.465913
vt -24.314016 -3.761370
vt -24.588474 -3.761370
vt -24.313841 -5.465912
vt -24.028435 -3.761370
vt 24.267067 -3.761373
vt 24.552477 -2.056829
vt 24.552649 -3.761373
vt 24.826803 -2.056829
vt 24.827106 -3.761373
vt 25.119318 -2.056829
vt 24.826801 -0.352283
vt 24.552645 -2.056827
vt 24.827103 -2.056826
vt 24.552477 -0.352283
vt 18.728451 6.465922
vt 18.728590 4.761375
vt 18.975933 6.465922
vt 18.976244 4.761375
vt 19.153412 6.465922
vt 19.103065 3.056824
vt 19.428837 4.761372
vt 19.102655 4.761372
vt 19.429016 3.056824
vt 17.128010 1.352318
vt 17.127851 3.056823
vt 16.870832 1.352320
vt 16.870544 3.056823
vt 16.596596 1.352321
vt -24.588160 -3.761322
vt -24.314013 -2.056820
vt -24.588470 -2.056820
vt -24.313837 -3.761322
vt 16.838278 -0.352276
vt 16.838106 1.352273
vt 16.532082 -0.352276
vt 16.531693 1.352273
vt 16.312496 -0.352276
vt 13.364979 4.761372
vt 13.612321 6.465922
vt 13.364668 6.465922
vt 13.612459 4.761373
vt 24.559614 4.761370
vt 24.559792 3.056823
vt 24.885569 4.761370
vt 24.885973 3.056823
vt 25.119318 4.761370
vt 24.941837 6.465917
vt 24.694498 4.761370
vt 24.942152 4.761370
vt 24.694357 6.465917
vt 24.472242 4.761370
vt 19.800488 4.761372
vt 24.267069 -0.352283
vt 13.834578 4.761372
vt 19.721563 3.056824
vt 25.119314 1.352273
vt 25.119318 -0.352268
vt -9.823864 -0.352271
vt 25.119314 -3.761374
vt 19.153412 4.761375
vt 16.596594 3.056823
vt 16.312494 1.352273
vt 25.119314 3.056823
vt 24.472240 6.465918
vn -0.0000 0.0000 -1.0000
vn 0.0000 0.0000 1.0000
vn 0.7593 0.0000 -0.6508
vn 1.0000 0.0000 0.0000
vn -1.0000 0.0000 -0.0000
vn -0.0285 0.0000 -0.9996
vn -0.1817 0.0000 -0.9834
vn -0.4177 0.0000 -0.9086
vn -0.6282 0.0000 -0.7780
vn -0.7404 0.0000 -0.6722
vn 0.0384 0.0000 -0.9993
vn 0.2778 -0.0000 -0.9606
vn 0.7069 -0.0001 -0.7074
vn 0.9605 -0.0000 -0.2781
vn 0.9993 -0.0000 -0.0385
vn 0.0384 0.0000 0.9993
vn 0.2778 0.0000 0.9606
vn 0.7069 0.0001 0.7073
vn 0.9605 0.0000 0.2781
vn 0.9993 0.0000 0.0385
vn -0.9993 0.0000 0.0384
vn -0.9606 0.0000 0.2778
vn -0.7074 0.0001 0.7069
vn -0.2781 0.0000 0.9605
vn -0.0385 0.0000 0.9993
vn 0.7404 -0.0000 -0.6721
vn 0.6284 0.0000 -0.7779
vn 0.4180 0.0000 -0.9084
vn 0.1819 0.0000 -0.9833
vn 0.0285 0.0000 -0.9996
vn -0.0384 0.0000 -0.9993
vn -0.2778 0.0000 -0.9606
vn -0.7069 0.0001 -0.7074
vn -0.9605 0.0000 -0.2781
vn -0.9993 0.0000 -0.0385
vn 0.1817 -0.0000 -0.9834
vn 0.4177 -0.0000 -0.9086
vn 0.6282 -0.0000 -0.7781
vn 0.7404 -0.0000 -0.6722
vn -0.0284 0.0000 -0.9996
vn -0.6282 0.0000 -0.7781
vn -0.7593 0.0000 -0.6508
vn -0.1819 -0.0000 -0.9833
vn -0.4180 -0.0000 -0.9084
vn -0.6284 -0.0000 -0.7779
vn -0.7404 0.0000 -0.6721
vn 0.2782 0.0000 -0.9605
vn 0.7074 0.0001 -0.7069
vn 0.9606 0.0000 -0.2778
vn 0.9993 0.0000 -0.0384
vn 0.0385 -0.0000 0.9993
vn 0.2781 -0.0000 0.9605
vn 0.7073 -0.0001 0.7069
vn 0.9606 -0.0000 0.2778
vn 0.9993 0.0000 0.0384
vn -0.9993 -0.0000 0.0385
vn -0.9605 -0.0000 0.2781
vn -0.7069 -0.0001 0.7074
vn -0.2778 -0.0000 0.9606
vn -0.0384 0.0000 0.9993
vn 0.6282 -0.0000 -0.7780
vn 0.0284 0.0000 -0.9996
vn -0.2782 -0.0000 -0.9605
vn -0.7074 -0.0001 -0.7069
vn -0.9606 -0.0000 -0.2778
vn -0.9993 0.0000 -0.0384
usemtl hedge
s off
f 25/1/1 79/2/1 74/3/1
f 38/4/2 56/5/2 43/6/2
f 32/7/3 68/8/3 7/9/3
f 20/10/1 86/11/1 31/12/1
f 19/13/4 55/14/4 50/15/4
f 8/16/1 92/17/1 13/18/1
f 73/19/5 37/20/5 26/21/5
f 2/22/6 81/23/6 79/2/6
f 6/24/7 82/25/7 81/23/7
f 5/26/8 83/27/8 82/25/8
f 4/28/9 84/29/9 83/30/9
f 3/31/10 80/32/10 84/29/10
f 20/10/11 51/33/11 49/34/11
f 24/35/12 52/36/12 51/33/12
f 23/37/13 53/38/13 52/36/13
f 22/39/14 54/40/14 53/41/14
f 21/42/15 50/15/15 54/40/15
f 56/5/16 45/43/16 43/6/16
f 60/44/17 46/45/17 45/43/17
f 59/46/18 47/47/18 46/45/18
f 58/48/19 48/49/19 47/50/19
f 57/51/20 44/52/20 48/49/20
f 62/53/21 39/54/21 37/20/21
f 66/55/22 40/56/22 39/54/22
f 65/57/23 41/58/23 40/56/23
f 64/59/24 42/60/24 41/61/24
f 63/62/25 38/4/25 42/60/25
f 68/8/26 9/63/26 7/9/26
f 72/64/27 10/65/27 9/63/27
f 71/66/28 11/67/28 10/65/28
f 70/68/29 12/69/29 11/70/29
f 69/71/30 8/16/30 12/69/30
f 74/3/31 27/72/31 25/1/31
f 78/73/32 28/74/32 27/72/32
f 77/75/33 29/76/33 28/74/33
f 76/77/34 30/78/34 29/79/34
f 75/80/35 26/21/35 30/78/35
f 86/11/30 33/81/30 31/12/30
f 90/82/36 34/83/36 33/81/36
f 89/84/37 35/85/37 34/83/37
f 88/86/38 36/87/38 35/88/38
f 87/89/39 32/7/39 36/87/39
f 92/17/40 15/90/40 13/18/40
f 96/91/7 16/92/7 15/90/7
f 95/93/8 17/94/8 16/92/8
f 94/95/41 18/96/41 17/97/41
f 93/98/10 14/99/10 18/96/10
f 14/99/42 80/32/42 1/100/42
f 25/1/1 2/22/1 79/2/1
f 38/4/2 61/101/2 56/5/2
f 32/7/3 85/102/3 68/8/3
f 20/10/1 49/34/1 86/11/1
f 19/13/4 44/52/4 55/14/4
f 8/16/1 67/103/1 92/17/1
f 73/19/5 62/53/5 37/20/5
f 2/22/6 6/24/6 81/23/6
f 6/24/43 5/26/43 82/25/43
f 5/26/44 4/104/44 83/27/44
f 4/28/45 3/31/45 84/29/45
f 3/31/46 1/100/46 80/32/46
f 20/10/11 24/35/11 51/33/11
f 24/35/47 23/37/47 52/36/47
f 23/37/48 22/105/48 53/38/48
f 22/39/49 21/42/49 54/40/49
f 21/42/50 19/13/50 50/15/50
f 56/5/51 60/44/51 45/43/51
f 60/44/52 59/46/52 46/45/52
f 59/46/53 58/106/53 47/47/53
f 58/48/54 57/51/54 48/49/54
f 57/51/55 55/14/55 44/52/55
f 62/53/56 66/55/56 39/54/56
f 66/55/57 65/57/57 40/56/57
f 65/57/58 64/107/58 41/58/58
f 64/59/59 63/62/59 42/60/59
f 63/62/60 61/101/60 38/4/60
f 68/8/39 72/64/39 9/63/39
f 72/64/61 71/66/61 10/65/61
f 71/66/37 70/108/37 11/67/37
f 70/68/36 69/71/36 12/69/36
f 69/71/62 67/103/62 8/16/62
f 74/3/31 78/73/31 27/72/31
f 78/73/63 77/75/63 28/74/63
f 77/75/64 76/109/64 29/76/64
f 76/77/65 75/80/65 30/78/65
f 75/80/66 73/19/66 26/21/66
f 86/11/30 90/82/30 33/81/30
f 90/82/29 89/84/29 34/83/29
f 89/84/28 88/110/28 35/85/28
f 88/86/27 87/89/27 36/87/27
f 87/89/26 85/102/26 32/7/26
f 92/17/6 96/91/6 15/90/6
f 96/91/43 95/93/43 16/92/43
f 95/93/44 94/111/44 17/94/44
f 94/95/45 93/98/45 18/96/45
f 93/98/46 91/112/46 14/99/46
f 14/99/42 91/112/42 80/32/42
