# Blender v2.79 (sub 0) OBJ File: 'objects.blend'
# www.blender.org
mtllib bar.mtl
o mesh350836760
v 0.273095 -0.038714 -0.129637
v 0.272776 -0.040174 -0.129637
v 0.272776 -0.038714 -0.129637
v 0.273095 -0.040174 -0.128176
v 0.272776 -0.038714 -0.128176
v 0.272776 -0.040174 -0.128176
v 0.273095 -0.040174 -0.129637
v 0.273095 -0.038714 -0.128176
v 0.272593 -0.038787 -0.129564
v 0.272593 -0.040102 -0.129564
v 0.272593 -0.038787 -0.128249
v 0.272593 -0.040102 -0.128249
v 0.273095 -0.038826 -0.089749
v 0.272776 -0.040287 -0.089749
v 0.272776 -0.038826 -0.089749
v 0.273095 -0.040287 -0.088289
v 0.272776 -0.038826 -0.088289
v 0.272776 -0.040287 -0.088289
v 0.273095 -0.040287 -0.089749
v 0.273095 -0.038826 -0.088289
v 0.272593 -0.040214 -0.089676
v 0.272593 -0.038899 -0.088362
v 0.272593 -0.038899 -0.089676
v 0.272593 -0.040214 -0.088362
v 0.273043 -0.038714 -0.126940
v 0.272723 -0.040174 -0.126940
v 0.272723 -0.038714 -0.126940
v 0.273043 -0.038714 -0.125480
v 0.272723 -0.040174 -0.125480
v 0.273043 -0.040174 -0.125480
v 0.273043 -0.040174 -0.126940
v 0.272723 -0.038714 -0.125480
v 0.272541 -0.038787 -0.126867
v 0.272541 -0.040102 -0.126867
v 0.272541 -0.038787 -0.125553
v 0.272541 -0.040102 -0.125553
v 0.273155 -0.038826 -0.086941
v 0.272835 -0.040287 -0.086941
v 0.272835 -0.038826 -0.086941
v 0.273155 -0.040287 -0.085480
v 0.272835 -0.038826 -0.085480
v 0.272835 -0.040287 -0.085480
v 0.273155 -0.040287 -0.086941
v 0.273155 -0.038826 -0.085480
v 0.272653 -0.040214 -0.086868
v 0.272653 -0.038899 -0.086868
v 0.272653 -0.040214 -0.085553
v 0.272653 -0.038899 -0.085553
vt -0.164093 1.234506
vt -0.141026 1.342029
vt -0.164091 1.342029
vt -0.155274 0.939923
vt -0.141039 0.837703
vt -0.141039 0.934546
vt -0.155274 0.832327
vt -0.178346 0.939923
vt -0.178344 0.832326
vt -0.178359 0.435523
vt -0.164106 0.537744
vt -0.178359 0.532368
vt 1.149259 0.146389
vt 1.172402 0.038865
vt 1.172401 0.146389
vt 0.094096 -0.255864
vt 0.190938 -0.352708
vt 0.190938 -0.255864
vt 1.163512 0.843080
vt 1.186579 0.950602
vt 1.163512 0.950603
vt 1.149260 0.945225
vt 1.149259 0.848382
vt 0.167707 1.342030
vt 0.190856 1.234506
vt 0.190856 1.342029
vt -0.141039 0.430146
vt -0.164106 0.430147
vt 0.499629 0.843080
vt 0.522773 0.950602
vt 0.499629 0.950601
vt -0.178344 1.239883
vt -0.178346 1.336727
vt 0.854677 1.245185
vt 0.831609 1.352708
vt 0.831609 1.245185
vt 1.186579 0.543119
vt 1.172333 0.440972
vt 1.186579 0.446349
vt 0.840426 0.548496
vt 0.817358 0.440899
vt 0.840426 0.440899
vt 0.094096 0.135563
vt 0.190867 0.038719
vt 0.190867 0.135563
vt 0.190865 0.934546
vt 0.176612 0.832327
vt 0.190865 0.837703
vt 0.176612 0.939923
vt 0.153544 0.832326
vt 1.149259 0.548495
vt 1.149259 0.440972
vt 0.854679 0.543119
vt 0.817356 1.347332
vt 0.817356 1.250561
vt -0.200564 0.135563
vt -0.297332 0.038719
vt -0.200564 0.038719
vt 1.186579 0.044243
vt 1.186579 0.141085
vt 0.854676 0.843078
vt 0.831531 0.950603
vt 0.831533 0.843081
vt 0.485450 0.848456
vt 0.485450 0.945300
vt 0.167710 1.234507
vt 0.153544 1.336653
vt 0.153549 1.239883
vt 0.817355 0.945227
vt 0.817355 0.848456
vt 0.817358 0.146316
vt 0.840500 0.038719
vt 0.840500 0.146316
vt -0.200488 -0.255864
vt -0.297332 -0.352708
vt -0.200488 -0.352708
vt 0.508592 0.548495
vt 0.485450 0.440899
vt 0.508592 0.440899
vt 0.176689 0.537743
vt 0.153544 0.430146
vt 0.176689 0.430146
vt 0.485450 0.140939
vt 0.499629 0.038719
vt 0.499629 0.146316
vt 0.854679 0.140939
vt 0.854679 0.044094
vt 0.522772 0.446273
vt 0.522772 0.543117
vt 0.522775 0.038719
vt 0.522775 0.146315
vt 0.190867 0.435521
vt 0.190867 0.532365
vt -0.141026 1.234506
vt 1.149259 0.038866
vt 0.094096 -0.352708
vt 1.186579 0.843078
vt -0.141039 0.537743
vt 0.522773 0.843078
vt 0.854677 1.352708
vt 1.172331 0.548495
vt 0.817360 0.548495
vt 0.094096 0.038719
vt 0.153544 0.939923
vt 0.854679 0.446275
vt -0.297332 0.135563
vt 0.854676 0.950602
vt 0.817358 0.038720
vt -0.297332 -0.255864
vt 0.485450 0.548495
vt 0.153544 0.537743
vt 0.485452 0.044094
vn 0.0000 0.0000 -1.0000
vn -0.3660 -0.9306 0.0000
vn 0.0000 -1.0000 0.0000
vn -0.3704 0.9289 0.0000
vn 0.0000 0.0000 1.0000
vn -1.0000 0.0000 0.0000
vn -0.3705 0.0000 0.9289
vn 0.0000 1.0000 0.0000
vn -0.3704 0.0000 -0.9289
vn -0.3704 -0.9289 0.0000
vn -0.3705 0.0000 0.9288
vn -0.3705 0.0000 -0.9288
vn -0.3722 0.0000 0.9281
vn -0.3723 0.0000 -0.9281
vn -0.3678 -0.9299 -0.0000
vn -0.3722 0.9281 0.0000
vn -0.3724 -0.9281 0.0000
vn -0.3723 0.0000 0.9281
vn -0.3662 -0.9306 0.0000
vn -0.3705 0.9288 0.0000
vn -0.3706 0.0000 0.9288
vn -0.3706 0.0000 -0.9288
vn -0.3705 -0.9288 0.0000
vn -0.3706 0.9288 0.0000
vn -0.3724 0.0000 0.9281
vn -0.3679 -0.9299 -0.0000
vn -0.3723 0.9281 0.0000
vn -0.3722 -0.9281 0.0000
vn -0.3724 0.9281 0.0000
vn -0.3722 0.0000 -0.9281
usemtl mat19
s off
f 3/1/1 7/2/1 2/3/1
f 2/4/2 12/5/2 10/6/2
f 6/7/3 7/8/3 4/9/3
f 11/10/4 3/11/4 9/12/4
f 30/13/5 32/14/5 29/15/5
f 12/16/6 9/17/6 10/18/6
f 6/19/5 8/20/5 5/21/5
f 6/19/7 11/22/7 12/23/7
f 29/24/3 31/25/3 30/26/3
f 8/27/8 3/11/8 5/28/8
f 27/29/1 31/30/1 26/31/1
f 9/32/9 2/3/9 10/33/9
f 20/34/8 15/35/8 17/36/8
f 21/37/10 18/38/10 24/39/10
f 15/40/1 19/41/1 14/42/1
f 24/43/6 23/44/6 21/45/6
f 24/46/11 17/47/11 22/48/11
f 18/49/5 20/50/5 17/47/5
f 18/38/3 19/51/3 16/52/3
f 14/42/12 23/53/12 15/40/12
f 17/36/4 23/54/4 22/55/4
f 34/56/6 35/57/6 33/58/6
f 29/15/13 35/59/13 36/60/13
f 28/61/8 27/62/8 32/63/8
f 33/64/14 26/31/14 34/65/14
f 26/66/15 36/67/15 34/68/15
f 32/63/16 33/69/16 35/70/16
f 44/71/8 39/72/8 41/73/8
f 45/74/6 48/75/6 46/76/6
f 42/77/5 44/78/5 41/79/5
f 39/80/1 43/81/1 38/82/1
f 47/83/17 38/84/17 42/85/17
f 48/86/16 39/72/16 46/87/16
f 42/77/18 48/88/18 47/89/18
f 42/85/3 43/90/3 40/91/3
f 39/80/14 45/92/14 46/93/14
f 3/1/1 1/94/1 7/2/1
f 2/4/19 6/7/19 12/5/19
f 6/7/3 2/4/3 7/8/3
f 11/10/20 5/28/20 3/11/20
f 30/13/5 28/95/5 32/14/5
f 12/16/6 11/96/6 9/17/6
f 6/19/5 4/97/5 8/20/5
f 6/19/21 5/21/21 11/22/21
f 29/24/3 26/66/3 31/25/3
f 8/27/8 1/98/8 3/11/8
f 27/29/1 25/99/1 31/30/1
f 9/32/22 3/1/22 2/3/22
f 20/34/8 13/100/8 15/35/8
f 21/37/23 14/101/23 18/38/23
f 15/40/1 13/102/1 19/41/1
f 24/43/6 22/103/6 23/44/6
f 24/46/11 18/49/11 17/47/11
f 18/49/5 16/104/5 20/50/5
f 18/38/3 14/101/3 19/51/3
f 14/42/12 21/105/12 23/53/12
f 17/36/24 15/35/24 23/54/24
f 34/56/6 36/106/6 35/57/6
f 29/15/25 32/14/25 35/59/25
f 28/61/8 25/107/8 27/62/8
f 33/64/14 27/29/14 26/31/14
f 26/66/26 29/24/26 36/67/26
f 32/63/27 27/62/27 33/69/27
f 44/71/8 37/108/8 39/72/8
f 45/74/6 47/109/6 48/75/6
f 42/77/5 40/110/5 44/78/5
f 39/80/1 37/111/1 43/81/1
f 47/83/28 45/112/28 38/84/28
f 48/86/29 41/73/29 39/72/29
f 42/77/18 41/79/18 48/88/18
f 42/85/3 38/84/3 43/90/3
f 39/80/30 38/82/30 45/92/30
o mesh2129603691
v 0.273380 -0.029275 -0.067390
v 0.273380 -0.049725 -0.067390
v 0.282256 -0.049725 -0.067390
v 0.282256 0.007466 -0.067390
v 0.275065 0.001174 -0.139637
v 0.275065 -0.029276 -0.147390
v 0.275065 -0.029276 -0.139637
v 0.281357 0.001174 -0.139637
v 0.281357 -0.029276 -0.139637
v 0.275065 0.001174 -0.147390
v 0.273268 0.001174 -0.147390
v 0.273268 0.007466 -0.147390
v 0.272481 0.001237 -0.146992
v 0.272481 0.007404 -0.146992
v 0.275065 0.001174 -0.115143
v 0.281357 0.001174 -0.115143
v 0.281357 -0.029276 -0.115143
v 0.275065 -0.029276 -0.115143
v 0.273268 0.001174 -0.067390
v 0.273268 0.007466 -0.067390
v 0.272481 0.001237 -0.067788
v 0.272481 0.007404 -0.067788
v 0.273380 -0.029275 -0.147390
v 0.273380 -0.049725 -0.147390
v 0.275065 0.001174 -0.075143
v 0.275065 -0.029276 -0.067390
v 0.275065 0.001174 -0.067390
v 0.281357 -0.029276 -0.075143
v 0.275065 -0.029276 -0.075143
v 0.281357 0.001174 -0.075143
v 0.275065 -0.029276 -0.099637
v 0.275065 0.001174 -0.099637
v 0.281357 -0.029276 -0.099637
v 0.281357 0.001174 -0.099637
v 0.282256 0.007466 -0.147390
v 0.282256 -0.049725 -0.147390
vt 2.022218 1.359075
vt 1.021258 1.359076
vt 0.814426 1.124264
vt 1.815386 2.472513
vt 0.814426 2.217654
vt 1.815386 2.217654
vt -1.946841 0.991330
vt 0.682938 2.871326
vt -1.946841 2.871325
vt 1.815386 2.604002
vt 0.814426 2.858860
vt 0.814426 2.604002
vt 0.814426 1.576448
vt 1.815386 2.086165
vt 0.814426 2.086165
vt 1.920710 -1.665871
vt 2.921669 -1.871326
vt 2.921670 -1.665871
vt 0.682937 -0.819976
vt -0.886811 -0.875366
vt -0.377094 -0.875366
vt 0.186567 -1.547901
vt -0.814393 -1.753354
vt 0.186566 -1.753354
vt 0.788261 -1.534382
vt 2.668257 -1.534382
vt 1.460465 -1.299569
vt 1.019188 1.444959
vt 0.814426 1.417756
vt 1.021259 1.417755
vt -1.946841 0.187603
vt 0.682937 0.859840
vt -1.946841 0.859841
vt 1.815386 0.056114
vt 0.814426 -0.749059
vt 1.815386 -0.749059
vt 0.682936 -0.265218
vt -1.933758 0.056114
vt -1.946841 -0.265217
vt -1.946841 -1.753355
vt -0.945882 -1.547899
vt -1.946841 -1.547899
vt 0.788261 -1.871325
vt 1.789221 -1.665871
vt 0.788261 -1.665871
vt 1.815386 0.992775
vt 0.814426 0.187603
vt 1.815386 0.187603
vt -1.946841 -1.416409
vt 0.656772 -1.213686
vt -1.946841 -1.213686
vt 2.668257 -1.240892
vt 2.463495 -1.213686
vt 2.461424 -1.240892
vt -0.377094 -0.481666
vt 0.428079 -0.481665
vt 0.669854 -0.396707
vt 2.694422 1.124264
vt 2.694423 1.414096
vt 2.022186 1.414097
vt 0.814426 2.472513
vt 0.682938 0.991330
vt 1.815386 2.858860
vt 1.815386 1.576448
vt 1.920710 -1.871326
vt 0.428079 -0.875367
vt 0.682937 -0.875366
vt -1.946841 -0.819976
vt -1.691983 -0.875366
vt -1.691983 -1.082197
vt -0.886811 -1.082197
vt -1.946841 -0.875366
vt -0.377094 -1.082197
vt 0.428079 -1.082197
vt -0.814393 -1.547899
vt 1.460498 -1.244549
vt 0.788261 -1.244548
vt 2.461424 -1.299571
vt 0.816465 1.444959
vt 0.682937 0.187603
vt 0.814426 0.056114
vt -1.946841 0.030238
vt 0.682936 0.030237
vt 0.669853 0.056113
vt -0.945882 -1.753355
vt 1.789221 -1.871326
vt 0.814426 0.992775
vt 0.656772 -1.416410
vt 2.666219 -1.213687
vt -1.691983 -0.481666
vt -1.691983 -0.688487
vt -0.886811 -0.688487
vt -0.886810 -0.481666
vt -1.946841 -0.422597
vt -1.946841 -0.481665
vt -1.933758 -0.396706
vt 0.682937 -0.481666
vt 0.682937 -0.422597
vt -0.377094 -0.688487
vt 0.428079 -0.688487
vn -0.0000 0.0000 -1.0000
vn -1.0000 0.0000 0.0000
vn 1.0000 0.0000 0.0000
vn 0.0000 0.0000 1.0000
vn 0.0006 1.0000 0.0000
vn -0.4513 0.0000 -0.8924
vn -0.0063 1.0000 0.0000
vn -0.4513 0.0000 0.8924
vn -0.0244 -0.9997 -0.0000
vn 0.0000 1.0000 0.0000
vn 0.0000 0.9881 -0.1539
vn 0.0000 0.9881 0.1539
vn 0.0000 -1.0000 -0.0000
vn 0.0000 -0.9877 0.1563
vn 0.0000 -0.9877 -0.1563
usemtl mat20
s off
f 54/113/31 58/114/31 83/115/31
f 55/116/32 58/117/32 54/118/32
f 83/119/33 51/120/33 84/121/33
f 77/122/32 75/123/32 73/124/32
f 63/125/32 79/126/32 80/127/32
f 56/128/34 55/129/34 57/130/34
f 71/131/35 79/132/35 66/133/35
f 66/134/31 64/135/31 65/136/31
f 51/137/34 52/138/34 74/139/34
f 61/140/36 60/141/36 59/142/36
f 49/143/32 72/144/32 50/145/32
f 76/146/32 82/147/32 81/148/32
f 83/149/37 70/150/37 52/151/37
f 80/152/34 81/153/34 82/154/34
f 77/155/31 78/156/31 76/157/31
f 65/158/32 56/159/32 57/160/32
f 70/161/32 61/162/32 69/163/32
f 68/164/38 69/165/38 67/166/38
f 80/167/39 73/168/39 69/169/39
f 83/115/31 84/170/31 54/113/31
f 72/171/31 71/172/31 54/113/31
f 58/114/31 59/142/31 60/141/31
f 84/170/31 72/171/31 54/113/31
f 58/114/31 60/141/31 83/115/31
f 55/116/32 53/173/32 58/117/32
f 83/119/33 52/174/33 51/120/33
f 77/122/32 74/175/32 75/123/32
f 63/125/32 66/176/32 79/126/32
f 56/128/34 53/177/34 55/129/34
f 55/178/35 54/179/35 71/131/35
f 71/131/35 49/180/35 79/132/35
f 77/181/40 76/182/40 81/183/40
f 49/180/35 74/184/35 77/181/35
f 65/185/40 57/186/40 55/178/40
f 55/178/35 71/131/35 66/133/35
f 77/181/40 81/183/40 79/132/40
f 66/133/40 65/185/40 55/178/40
f 49/180/35 77/181/35 79/132/35
f 66/134/31 63/187/31 64/135/31
f 49/188/34 50/189/34 74/139/34
f 52/138/34 68/164/34 75/190/34
f 68/164/34 67/166/34 75/190/34
f 74/139/34 50/189/34 51/137/34
f 52/138/34 75/190/34 74/139/34
f 61/140/36 62/191/36 60/141/36
f 49/143/32 71/192/32 72/144/32
f 76/146/32 78/193/32 82/147/32
f 68/194/41 52/151/41 70/150/41
f 83/149/42 60/195/42 62/196/42
f 62/196/37 70/150/37 83/149/37
f 80/152/34 79/197/34 81/153/34
f 77/155/31 73/198/31 78/156/31
f 65/158/32 64/199/32 56/159/32
f 70/161/32 62/200/32 61/162/32
f 68/164/38 70/201/38 69/165/38
f 53/202/43 56/203/43 64/204/43
f 53/202/43 64/204/43 63/205/43
f 59/206/44 58/207/44 61/208/44
f 69/169/39 61/208/39 80/167/39
f 75/209/45 67/210/45 69/169/45
f 82/211/43 78/212/43 73/168/43
f 73/168/39 75/209/39 69/169/39
f 61/208/39 58/207/39 53/202/39
f 53/202/39 63/205/39 61/208/39
f 80/167/43 82/211/43 73/168/43
f 61/208/39 63/205/39 80/167/39
o mesh1462752248
v 0.273380 -0.031748 -0.138513
v 0.273043 -0.047028 -0.138513
v 0.273043 -0.031748 -0.138513
v 0.273380 -0.031748 -0.127727
v 0.273043 -0.047028 -0.127727
v 0.273380 -0.047028 -0.127727
v 0.273380 -0.047028 -0.138513
v 0.273043 -0.031748 -0.127727
v 0.273380 -0.031748 -0.087502
v 0.273043 -0.047028 -0.087502
v 0.273043 -0.031748 -0.087502
v 0.273380 -0.031748 -0.076716
v 0.273043 -0.047028 -0.076716
v 0.273380 -0.047028 -0.076716
v 0.273380 -0.047028 -0.087502
v 0.273043 -0.031748 -0.076716
v 0.273380 -0.031748 -0.098513
v 0.273043 -0.047028 -0.098513
v 0.273043 -0.031748 -0.098513
v 0.273380 -0.031748 -0.087727
v 0.273043 -0.047028 -0.087727
v 0.273380 -0.047028 -0.087727
v 0.273380 -0.047028 -0.098513
v 0.273043 -0.031748 -0.087727
v 0.273380 -0.031748 -0.127502
v 0.273043 -0.047028 -0.127502
v 0.273043 -0.031748 -0.127502
v 0.273380 -0.031748 -0.116716
v 0.273043 -0.047028 -0.116716
v 0.273380 -0.047028 -0.116716
v 0.273380 -0.047028 -0.127502
v 0.273043 -0.031748 -0.116716
vt 0.878482 -0.425018
vt 0.865848 0.147846
vt 0.865848 -0.425018
vt -0.405437 0.870675
vt -0.001059 0.297811
vt -0.001059 0.870675
vt -0.405437 -0.425018
vt -0.001057 0.147846
vt -0.405437 0.147846
vt 0.715884 0.297811
vt 0.703250 0.870674
vt 0.703250 0.297811
vt 0.865848 0.297810
vt 0.878482 0.870674
vt 0.865848 0.870674
vt 1.353642 0.129326
vt 1.366276 0.533706
vt 1.353642 0.533706
vt 1.028446 0.147846
vt 1.041080 -0.425018
vt 1.041080 0.147846
vt 1.191044 1.020639
vt 1.203678 1.425018
vt 1.191044 1.425018
vt 1.353642 0.683670
vt 1.366276 1.088049
vt 1.353642 1.088049
vt 0.703250 1.020639
vt 0.715884 1.425017
vt 0.703250 1.425017
vt 1.191044 0.297810
vt 1.203678 0.870674
vt 1.191044 0.870674
vt 0.553286 -0.425018
vt 0.148907 0.147846
vt 0.148907 -0.425018
vt 0.553286 0.870675
vt 0.148907 0.297811
vt 0.553285 0.297811
vt 0.865848 1.425017
vt 0.878482 1.020639
vt 0.878482 1.425017
vt 1.366276 -0.425018
vt 1.353642 -0.020638
vt 1.353642 -0.425018
vt 1.041080 1.020639
vt 1.028446 1.425017
vt 1.028446 1.020639
vt 0.703250 -0.425018
vt 0.715884 0.147846
vt 0.703250 0.147846
vt 0.553286 1.020639
vt 0.540652 1.425017
vt 0.540652 1.020639
vt 1.041080 0.297810
vt 1.028446 0.870674
vt 1.028446 0.297810
vt 1.191044 -0.425018
vt 1.203678 0.147846
vt 1.191044 0.147846
vt 0.878482 0.147846
vt -0.405437 0.297811
vt -0.001057 -0.425018
vt 0.715884 0.870674
vt 0.878482 0.297810
vt 1.366276 0.129326
vt 1.028446 -0.425018
vt 1.203678 1.020639
vt 1.366276 0.683670
vt 0.715884 1.020639
vt 1.203678 0.297810
vt 0.553286 0.147846
vt 0.148907 0.870675
vt 0.865848 1.020639
vt 1.366276 -0.020638
vt 1.041080 1.425017
vt 0.715884 -0.425018
vt 0.553286 1.425017
vt 1.041080 0.870674
vt 1.203678 -0.425018
vn 0.0000 0.0000 1.0000
vn -1.0000 0.0000 0.0000
vn 0.0000 0.0000 -1.0000
vn 0.0000 -1.0000 -0.0000
vn 0.0000 1.0000 0.0000
usemtl mat20_wood2.jpg
s off
f 114/213/46 116/214/46 113/215/46
f 89/216/47 87/217/47 86/218/47
f 116/219/47 110/220/47 113/221/47
f 106/222/46 108/223/46 105/224/46
f 95/225/48 99/226/48 94/227/48
f 98/228/49 94/229/49 99/230/49
f 100/231/46 98/232/46 96/233/46
f 100/234/50 93/235/50 95/236/50
f 106/237/49 102/238/49 107/239/49
f 108/240/50 101/241/50 103/242/50
f 103/243/48 107/244/48 102/245/48
f 103/246/47 105/247/47 108/248/47
f 94/249/47 100/250/47 95/251/47
f 115/252/49 113/253/49 110/254/49
f 112/255/50 111/256/50 116/257/50
f 88/258/50 87/259/50 92/260/50
f 87/261/48 91/262/48 86/263/48
f 89/264/49 91/265/49 90/266/49
f 90/267/46 92/268/46 89/269/46
f 111/270/48 115/271/48 110/272/48
f 114/213/46 112/273/46 116/214/46
f 89/216/47 92/274/47 87/217/47
f 116/219/47 111/275/47 110/220/47
f 106/222/46 104/276/46 108/223/46
f 95/225/48 93/277/48 99/226/48
f 98/228/49 97/278/49 94/229/49
f 100/231/46 97/279/46 98/232/46
f 100/234/50 96/280/50 93/235/50
f 106/237/49 105/281/49 102/238/49
f 108/240/50 104/282/50 101/241/50
f 103/243/48 101/283/48 107/244/48
f 103/246/47 102/284/47 105/247/47
f 94/249/47 97/285/47 100/250/47
f 115/252/49 114/286/49 113/253/49
f 112/255/50 109/287/50 111/256/50
f 88/258/50 85/288/50 87/259/50
f 87/261/48 85/289/48 91/262/48
f 89/264/49 86/290/49 91/265/49
f 90/267/46 88/291/46 92/268/46
f 111/270/48 109/292/48 115/271/48
