# Blender v2.79 (sub 0) OBJ File: 'desk.blend'
# www.blender.org
mtllib desk.mtl
o desk_mesh1513493504.032
v -0.012100 0.019540 -0.011861
v 0.016184 0.019540 -0.011861
v -0.013248 -0.000460 -0.010713
v -0.010477 -0.000460 -0.011861
v -0.012993 -0.000460 -0.010937
v -0.012686 -0.000460 -0.011152
v -0.012337 -0.000460 -0.011351
v -0.011961 -0.000460 -0.011525
v -0.011572 -0.000460 -0.011668
v -0.011186 -0.000460 -0.011774
v -0.010816 -0.000460 -0.011839
v 0.014560 -0.000460 -0.011861
v 0.017332 -0.000460 -0.010713
v 0.014899 -0.000460 -0.011839
v 0.015269 -0.000460 -0.011774
v 0.015656 -0.000460 -0.011668
v 0.016045 -0.000460 -0.011525
v 0.016421 -0.000460 -0.011351
v 0.016769 -0.000460 -0.011152
v 0.017077 -0.000460 -0.010937
v -0.037613 0.019540 0.013652
v -0.036465 0.019540 0.016423
v -0.038079 0.019540 0.014192
v -0.038375 0.019540 0.014712
v -0.038492 0.019540 0.015191
v -0.038425 0.019540 0.015611
v -0.038176 0.019540 0.015956
v -0.037754 0.019540 0.016212
v -0.037176 0.019540 0.016370
v -0.036465 -0.000460 0.016423
v -0.037613 -0.000460 0.013652
v -0.037176 -0.000460 0.016370
v -0.037754 -0.000460 0.016212
v -0.038176 -0.000460 0.015956
v -0.038425 -0.000460 0.015611
v -0.038492 -0.000460 0.015191
v -0.038375 -0.000460 0.014712
v -0.038079 -0.000460 0.014192
v 0.040548 0.019540 0.016423
v 0.041696 0.019540 0.013652
v 0.041260 0.019540 0.016370
v 0.041837 0.019540 0.016212
v 0.042259 0.019540 0.015956
v 0.042508 0.019540 0.015611
v 0.042576 0.019540 0.015191
v 0.042459 0.019540 0.014712
v 0.042162 0.019540 0.014192
v 0.041696 -0.000460 0.013652
v 0.040548 -0.000460 0.016423
v 0.042162 -0.000460 0.014192
v 0.042459 -0.000460 0.014712
v 0.042576 -0.000460 0.015191
v 0.042508 -0.000460 0.015611
v 0.042259 -0.000460 0.015956
v 0.041837 -0.000460 0.016212
v 0.041260 -0.000460 0.016370
v 0.017332 0.019540 -0.010713
v 0.014560 0.019540 -0.011861
v 0.017077 0.019540 -0.010937
v 0.016769 0.019540 -0.011152
v 0.016420 0.019540 -0.011351
v 0.016045 0.019540 -0.011525
v 0.015656 0.019540 -0.011668
v 0.015269 0.019540 -0.011774
v 0.014899 0.019540 -0.011839
v -0.010477 0.019540 -0.011861
v -0.013248 0.019540 -0.010713
v -0.010816 0.019540 -0.011839
v -0.011186 0.019540 -0.011774
v -0.011572 0.019540 -0.011668
v -0.011961 0.019540 -0.011525
v -0.012337 0.019540 -0.011351
v -0.012686 0.019540 -0.011153
v -0.012993 0.019540 -0.010937
vt 0.000000 0.000000
vt 0.000000 0.000000
vt 0.000000 0.000000
vt 0.000000 0.000000
vt 0.000000 0.000000
vt 0.000000 0.000000
vt 0.000000 0.000000
vt 0.000000 0.000000
vt 0.000000 0.000000
vt 0.000000 0.000000
vt 0.000000 0.000000
vt 0.000000 0.000000
vt 0.000000 0.000000
vt 0.000000 0.000000
vt 0.000000 0.000000
vt 0.000000 0.000000
vt 0.000000 0.000000
vt 0.000000 0.000000
vt 0.000000 0.000000
vt 0.000000 0.000000
vt 0.000000 0.000000
vt 0.000000 0.000000
vt 0.000000 0.000000
vt 0.000000 0.000000
vt 0.000000 0.000000
vt 0.000000 0.000000
vt 0.000000 0.000000
vt 0.000000 0.000000
vt 0.000000 0.000000
vt 0.000000 0.000000
vt 0.000000 0.000000
vt 0.000000 0.000000
vt 0.000000 0.000000
vt 0.000000 0.000000
vt 0.000000 0.000000
vt 0.000000 0.000000
vt 0.000000 0.000000
vt 0.000000 0.000000
vt 0.000000 0.000000
vt 0.000000 0.000000
vt 0.000000 0.000000
vt 0.000000 0.000000
vt 0.000000 0.000000
vt 0.000000 0.000000
vt 0.000000 0.000000
vt 0.000000 0.000000
vt 0.000000 0.000000
vt 0.000000 0.000000
vt 0.000000 0.000000
vt 0.000000 0.000000
vt 0.000000 0.000000
vt 0.000000 0.000000
vt 0.000000 0.000000
vt 0.000000 0.000000
vt 0.000000 0.000000
vt 0.000000 0.000000
vt 0.000000 0.000000
vt 0.000000 0.000000
vt 0.000000 0.000000
vt 0.000000 0.000000
vt 0.000000 0.000000
vt 0.000000 0.000000
vt 0.000000 0.000000
vt 0.000000 0.000000
vt 0.000000 0.000000
vt 0.000000 0.000000
vt 0.000000 0.000000
vt 0.000000 0.000000
vt 0.000000 0.000000
vt 0.000000 0.000000
vt 0.000000 0.000000
vt 0.000000 0.000000
vn 0.0000 0.0000 1.0000
vn 0.7071 0.0000 -0.7071
vn 0.0000 -0.0000 -1.0000
vn -0.6597 -0.0000 -0.7515
vn -0.5733 -0.0000 -0.8193
vn -0.4948 -0.0000 -0.8690
vn -0.4200 -0.0000 -0.9075
vn -0.3447 -0.0000 -0.9387
vn -0.2645 -0.0000 -0.9644
vn -0.1739 -0.0000 -0.9848
vn -0.0650 -0.0000 -0.9979
vn -0.7579 0.0000 -0.6523
vn -0.8684 0.0000 -0.4959
vn -0.9715 0.0000 -0.2371
vn -0.9873 0.0000 0.1586
vn -0.8103 0.0000 0.5860
vn -0.5193 0.0000 0.8546
vn -0.2634 0.0000 0.9647
vn -0.0746 0.0000 0.9972
vn 0.0746 0.0000 0.9972
vn 0.2634 0.0000 0.9647
vn 0.5192 0.0000 0.8546
vn 0.8103 0.0000 0.5860
vn 0.9873 0.0000 0.1586
vn 0.9715 0.0000 -0.2371
vn 0.8684 0.0000 -0.4959
vn 0.7579 0.0000 -0.6524
vn 0.0650 -0.0000 -0.9979
vn 0.1739 -0.0000 -0.9848
vn 0.2645 -0.0000 -0.9644
vn 0.3447 -0.0000 -0.9387
vn 0.4200 -0.0000 -0.9075
vn 0.4949 -0.0000 -0.8690
vn 0.5734 0.0000 -0.8193
vn 0.6597 0.0000 -0.7516
vn -0.7071 -0.0000 -0.7071
vn 0.0000 1.0000 0.0000
vn -0.5734 -0.0000 -0.8193
vn 0.3448 -0.0000 -0.9387
vn 0.4948 0.0000 -0.8690
vn 0.5733 -0.0000 -0.8193
vn 0.6597 0.0000 -0.7515
vn 0.0000 1.0000 0.0001
vn 0.0000 1.0000 -0.0001
usemtl _
s off
f 49/1/1 22/2/1 30/3/1
f 40/4/2 13/5/2 57/6/2
f 58/7/3 4/8/3 66/9/3
f 67/10/4 5/11/4 3/12/4
f 74/13/5 6/14/5 5/11/5
f 73/15/6 7/16/6 6/14/6
f 7/16/7 71/17/7 8/18/7
f 71/17/8 9/19/8 8/18/8
f 70/20/9 10/21/9 9/19/9
f 69/22/10 11/23/10 10/21/10
f 68/24/11 4/8/11 11/23/11
f 31/25/12 23/26/12 21/27/12
f 38/28/13 24/29/13 23/26/13
f 37/30/14 25/31/14 24/29/14
f 36/32/15 26/33/15 25/31/15
f 35/34/16 27/35/16 26/33/16
f 34/36/17 28/37/17 27/35/17
f 33/38/18 29/39/18 28/37/18
f 32/40/19 22/2/19 29/39/19
f 49/1/20 41/41/20 39/42/20
f 56/43/21 42/44/21 41/41/21
f 55/45/22 43/46/22 42/44/22
f 54/47/23 44/48/23 43/46/23
f 53/49/24 45/50/24 44/48/24
f 52/51/25 46/52/25 45/50/25
f 51/53/26 47/54/26 46/52/26
f 50/55/27 40/4/27 47/54/27
f 12/56/28 65/57/28 14/58/28
f 14/58/29 64/59/29 15/60/29
f 15/60/30 63/61/30 16/62/30
f 63/61/31 17/63/31 16/62/31
f 17/63/32 61/64/32 18/65/32
f 18/65/33 60/66/33 19/67/33
f 60/66/34 20/68/34 19/67/34
f 59/69/35 13/5/35 20/68/35
f 31/25/36 67/10/36 3/12/36
f 66/9/37 68/24/37 74/13/37
f 49/1/1 39/42/1 22/2/1
f 40/4/2 48/70/2 13/5/2
f 58/7/3 12/56/3 4/8/3
f 67/10/4 74/13/4 5/11/4
f 74/13/38 73/15/38 6/14/38
f 73/15/6 72/71/6 7/16/6
f 7/16/7 72/71/7 71/17/7
f 71/17/8 70/20/8 9/19/8
f 70/20/9 69/22/9 10/21/9
f 69/22/10 68/24/10 11/23/10
f 68/24/11 66/9/11 4/8/11
f 31/25/12 38/28/12 23/26/12
f 38/28/13 37/30/13 24/29/13
f 37/30/14 36/32/14 25/31/14
f 36/32/15 35/34/15 26/33/15
f 35/34/16 34/36/16 27/35/16
f 34/36/17 33/38/17 28/37/17
f 33/38/18 32/40/18 29/39/18
f 32/40/19 30/3/19 22/2/19
f 49/1/20 56/43/20 41/41/20
f 56/43/21 55/45/21 42/44/21
f 55/45/22 54/47/22 43/46/22
f 54/47/23 53/49/23 44/48/23
f 53/49/24 52/51/24 45/50/24
f 52/51/25 51/53/25 46/52/25
f 51/53/26 50/55/26 47/54/26
f 50/55/27 48/70/27 40/4/27
f 12/56/28 58/7/28 65/57/28
f 14/58/29 65/57/29 64/59/29
f 15/60/30 64/59/30 63/61/30
f 63/61/39 62/72/39 17/63/39
f 17/63/32 62/72/32 61/64/32
f 18/65/40 61/64/40 60/66/40
f 60/66/41 59/69/41 20/68/41
f 59/69/42 57/6/42 13/5/42
f 31/25/36 21/27/36 67/10/36
f 74/13/37 67/10/37 66/9/37
f 21/27/37 23/26/37 29/39/37
f 24/29/37 25/31/37 28/37/37
f 26/33/37 27/35/37 28/37/37
f 28/37/37 29/39/37 23/26/37
f 22/2/37 57/6/37 67/10/37
f 41/41/37 42/44/37 46/52/37
f 43/46/37 44/48/37 45/50/37
f 45/50/37 46/52/37 42/44/37
f 47/54/37 41/41/37 46/52/37
f 57/6/37 59/69/37 60/66/37
f 60/66/43 61/64/43 62/72/43
f 62/72/37 63/61/37 64/59/37
f 64/59/37 65/57/37 58/7/37
f 58/7/37 66/9/37 57/6/37
f 68/24/37 69/22/37 70/20/37
f 70/20/44 71/17/44 72/71/44
f 72/71/43 73/15/43 74/13/43
f 67/10/37 21/27/37 22/2/37
f 25/31/37 26/33/37 28/37/37
f 29/39/37 22/2/37 21/27/37
f 42/44/37 43/46/37 45/50/37
f 47/54/37 40/4/37 39/42/37
f 57/6/37 60/66/37 62/72/37
f 62/72/37 64/59/37 58/7/37
f 66/9/37 67/10/37 57/6/37
f 70/20/37 72/71/37 74/13/37
f 23/26/37 24/29/37 28/37/37
f 39/42/37 57/6/37 22/2/37
f 40/4/37 57/6/37 39/42/37
f 62/72/37 58/7/37 57/6/37
f 70/20/37 74/13/37 68/24/37
f 41/41/37 47/54/37 39/42/37
