# Blender v2.79 (sub 0) OBJ File: 'house2.blend'
# www.blender.org
mtllib foundation.mtl
o porch.001_mesh1513493504.002
v -0.096712 -0.050460 0.109352
v 0.083288 -0.050460 0.109352
v -0.316712 -0.110460 0.109352
v 0.303288 -0.050460 0.109352
v 0.103288 -0.050460 0.129352
v 0.083288 -0.070460 0.129352
v 0.083288 -0.070460 0.109352
v 0.103288 -0.050460 0.229352
v 0.083288 -0.050460 0.229352
v 0.083288 -0.110460 0.229352
v 0.103288 -0.110460 0.229352
v 0.083288 -0.110460 0.129352
v 0.103288 -0.110460 0.129352
v -0.096712 -0.050460 0.229352
v -0.116712 -0.050460 0.229352
v -0.116712 -0.110460 0.229352
v -0.096712 -0.110460 0.229352
v -0.096712 -0.110460 0.129352
v -0.136712 -0.050460 0.109352
v -0.136712 -0.110460 0.109352
v -0.116712 -0.050460 0.129352
v -0.116712 -0.110460 0.129352
v -0.096712 -0.070460 0.129352
v -0.096712 -0.070460 0.109352
v 0.123288 -0.050460 0.109352
v 0.123288 -0.110460 0.109352
v -0.316712 -0.110460 -0.200648
v -0.316712 -0.110460 -0.290648
v -0.316712 -0.110460 0.109352
v -0.316712 -0.050460 0.109352
v -0.316712 -0.110460 -0.610648
v -0.396712 -0.110460 -0.200648
v -0.316712 -0.110460 -0.200648
v -0.396712 -0.110460 -0.290648
v -0.316712 -0.110460 -0.290648
v 0.303288 -0.110460 -0.530648
v 0.225788 -0.110460 -0.610648
v 0.123288 -0.110459 -0.610648
v 0.043288 -0.110459 -0.690648
v -0.116712 -0.110459 -0.690648
v -0.196712 -0.110459 -0.610648
v -0.316712 -0.110460 -0.610648
v 0.303288 -0.110460 0.109352
v -0.116712 -0.050460 -0.690648
v -0.316712 -0.050460 -0.290648
v -0.316712 -0.050460 -0.200648
v 0.225106 -0.050460 -0.610648
v -0.396712 -0.050460 -0.290648
v -0.316712 -0.050460 -0.610648
v -0.396712 -0.050460 -0.200648
v -0.196712 -0.050460 -0.610648
v 0.043288 -0.050460 -0.690648
v 0.303288 -0.050460 -0.530648
v 0.123288 -0.050460 -0.610648
v 0.083288 -0.110460 0.289352
v -0.096712 -0.110460 0.289352
v -0.116712 -0.110460 0.269352
v 0.083288 -0.110460 0.229352
v 0.103288 -0.110460 0.229352
v -0.116712 -0.110460 0.229352
v -0.096712 -0.110460 0.229352
v 0.103288 -0.110460 0.269352
vt -6.097220 -3.388881
vt -5.541666 -5.055546
vt -5.541665 -3.388880
vt -1.930550 -5.333352
vt -1.374995 -3.666687
vt -1.930550 -3.666686
vt -4.152773 1.333334
vt -9.152775 1.333334
vt -9.152775 -0.333334
vt -4.708328 -3.666685
vt 0.291675 -0.333345
vt -4.708328 -2.000000
vt 0.291679 -2.000000
vt -1.097220 1.333334
vt -9.708328 3.000002
vt -9.708331 1.333347
vt -1.374987 -3.666687
vt 0.847235 -5.333362
vt 0.847235 -3.666686
vt -0.819441 4.666684
vt 1.680558 3.000010
vt 1.680559 4.666684
vt 2.513903 -0.333335
vt 0.291679 -2.000009
vt 2.513903 -2.000010
vt -9.708331 4.666684
vt -0.819442 3.000010
vt -0.819442 4.666684
vt -4.708328 -3.666685
vt -1.374996 -2.000040
vt -4.708328 -2.000012
vt 0.847235 -5.333332
vt 3.069458 -3.666686
vt 0.847236 -3.666687
vt -5.263886 -3.666658
vt -9.708331 -2.000012
vt -9.708332 -3.666656
vt 1.958346 -0.333312
vt -0.263881 1.333334
vt -0.263879 -0.333312
vt 1.731064 1.333335
vt -1.097220 2.999981
vt -1.097220 1.333336
vt 8.069448 6.333360
vt 10.291668 4.666684
vt 10.291668 6.333358
vt -9.708331 4.666684
vt -9.708328 6.333363
vt -9.708322 -0.333334
vt -4.708328 -2.000011
vt -4.708328 -0.333345
vt 1.958346 -3.666679
vt 1.402791 -2.000013
vt 1.402790 -3.666680
vt -1.374986 -2.000012
vt -1.374987 -3.666679
vt -5.541665 -3.388880
vt -4.986109 -5.055548
vt -4.986109 -3.388880
vt -6.930554 -4.777770
vt -9.708331 -5.333324
vt -6.374997 -5.333325
vt -3.041658 0.222222
vt -3.597218 -0.333333
vt -0.263881 -0.333333
vt -6.097220 -5.055546
vt -1.374996 -5.333352
vt -4.152775 -0.333334
vt -3.597220 -0.333334
vt -3.597218 0.777777
vt -9.708331 0.777777
vt -9.708331 -0.333333
vt -4.708328 -5.333352
vt -4.708325 -0.333334
vt -1.097220 3.000010
vt -1.374987 -5.333362
vt -0.819442 3.000010
vt 0.291679 -0.333334
vt -9.708330 3.000010
vt -1.374988 -3.666686
vt 3.069457 -5.333333
vt -5.263887 -2.000012
vt 1.958341 1.333333
vt 1.750002 3.000010
vt 8.069448 4.666685
vt -9.708332 -2.000011
vt 1.958347 -2.000013
vt -5.541665 -5.055548
vt -6.374998 -4.777770
vt -6.930554 -3.666658
vt -9.708331 -3.666658
vt -0.263881 1.333334
vt -3.597214 0.222222
vt -3.041658 1.333334
vn 0.0000 0.0000 1.0000
vn -0.7071 0.0000 0.7071
vn 0.0000 1.0000 0.0000
vn -1.0000 0.0000 0.0000
vn 0.0000 0.0000 -1.0000
vn -0.7071 0.0000 -0.7071
vn 0.7071 0.0000 -0.7071
vn 0.7152 0.0081 -0.6989
vn 1.0000 -0.0000 -0.0000
vn 0.7071 0.0000 0.7071
vn 0.7182 0.0000 -0.6958
usemtl whiteBrick
s off
f 17/1/1 15/2/1 16/3/1
f 21/4/2 20/5/2 22/6/2
f 56/7/3 55/8/3 58/9/3
f 16/10/4 21/4/4 22/6/4
f 3/11/1 19/12/1 30/13/1
f 46/14/4 3/15/4 30/16/4
f 50/17/1 27/18/1 46/19/1
f 48/20/4 32/21/4 50/22/4
f 28/23/5 48/24/5 45/25/5
f 49/26/4 28/27/4 45/28/4
f 49/29/5 41/30/5 31/31/5
f 40/32/6 51/33/6 44/34/6
f 52/35/5 40/36/5 44/37/5
f 54/38/7 39/39/7 52/40/7
f 47/41/5 38/42/5 54/43/5
f 53/44/8 37/45/8 47/46/8
f 43/47/9 53/44/9 4/48/9
f 43/49/1 25/50/1 26/51/1
f 26/52/10 5/53/10 13/54/10
f 13/54/9 8/55/9 11/56/9
f 11/57/1 9/58/1 10/59/1
f 6/60/4 9/61/4 2/62/4
f 23/63/9 1/64/9 14/65/9
f 17/1/1 14/66/1 15/2/1
f 21/4/2 19/67/2 20/5/2
f 61/68/3 60/69/3 57/70/3
f 57/70/3 56/7/3 61/68/3
f 55/8/3 62/71/3 58/9/3
f 58/9/3 61/68/3 56/7/3
f 62/71/3 59/72/3 58/9/3
f 16/10/4 15/73/4 21/4/4
f 3/11/1 20/74/1 19/12/1
f 46/14/4 27/75/4 3/15/4
f 50/17/1 32/76/1 27/18/1
f 48/20/4 34/77/4 32/21/4
f 28/23/5 34/78/5 48/24/5
f 49/26/4 31/79/4 28/27/4
f 49/29/5 51/80/5 41/30/5
f 40/32/6 41/81/6 51/33/6
f 52/35/5 39/82/5 40/36/5
f 54/38/7 38/83/7 39/39/7
f 47/41/5 37/84/5 38/42/5
f 53/44/11 36/85/11 37/45/11
f 43/47/9 36/85/9 53/44/9
f 43/49/1 4/86/1 25/50/1
f 26/52/10 25/87/10 5/53/10
f 13/54/9 5/53/9 8/55/9
f 11/57/1 8/88/1 9/58/1
f 2/62/4 7/89/4 6/60/4
f 6/60/4 12/90/4 10/91/4
f 10/91/4 9/61/4 6/60/4
f 14/65/9 17/92/9 23/63/9
f 23/63/9 24/93/9 1/64/9
f 17/92/9 18/94/9 23/63/9
l 29 33
l 41 42
l 35 42
l 35 34
l 3 33
