# Blender v2.79 (sub 0) OBJ File: 'house2.blend'
# www.blender.org
mtllib foundation.mtl
o porch.001_mesh1513493504.002
v -0.096712 -0.050460 0.109352
v 0.083288 -0.050460 0.109352
v -0.316712 -0.110460 0.109352
v -0.316712 -0.050460 0.109352
v 0.303288 -0.050460 0.109352
v 0.103288 -0.050460 0.129352
v 0.083288 -0.070460 0.129352
v 0.083288 -0.070460 0.109352
v 0.103288 -0.050460 0.229352
v 0.083288 -0.050460 0.229352
v 0.083288 -0.110460 0.229352
v 0.103288 -0.110460 0.229352
v 0.083288 -0.110460 0.129352
v 0.103288 -0.110460 0.129352
v -0.096712 -0.050460 0.229352
v -0.116712 -0.050460 0.229352
v -0.116712 -0.110460 0.229352
v -0.096712 -0.110460 0.229352
v -0.096712 -0.110460 0.129352
v -0.136712 -0.050460 0.109352
v -0.136712 -0.110460 0.109352
v -0.116712 -0.050460 0.129352
v -0.116712 -0.110460 0.129352
v -0.096712 -0.070460 0.129352
v -0.096712 -0.070460 0.109352
v 0.123288 -0.050460 0.109352
v 0.123288 -0.110460 0.109352
v -0.316712 -0.110460 -0.200648
v -0.316712 -0.110460 -0.290648
v -0.316712 -0.110460 0.109352
v -0.316712 -0.050460 0.109352
v -0.316712 -0.110460 -0.610648
v -0.396712 -0.110460 -0.200648
v -0.316712 -0.110460 -0.200648
v -0.396712 -0.110460 -0.290648
v -0.316712 -0.110460 -0.290648
v 0.303288 -0.110460 -0.530648
v 0.225788 -0.110460 -0.610648
v 0.123288 -0.110459 -0.610648
v 0.043288 -0.110459 -0.690648
v -0.116712 -0.110459 -0.690648
v -0.196712 -0.110459 -0.610648
v -0.316712 -0.110460 -0.610648
v 0.303288 -0.050460 0.109352
v 0.303288 -0.110460 0.109352
v -0.116712 -0.050460 -0.690648
v -0.316712 -0.050460 -0.290648
v -0.316712 -0.050460 -0.200648
v 0.225106 -0.050460 -0.610648
v -0.396712 -0.050460 -0.290648
v -0.316712 -0.050460 -0.610648
v -0.316712 -0.050460 -0.290648
v -0.316712 -0.050460 -0.200648
v -0.396712 -0.050460 -0.200648
v -0.196712 -0.050460 -0.610648
v -0.316712 -0.050460 -0.610648
v 0.043288 -0.050460 -0.690648
v 0.303288 -0.050460 -0.530648
v 0.123288 -0.050460 -0.610648
v 0.083288 -0.110460 0.289352
v -0.096712 -0.110460 0.289352
v -0.116712 -0.110460 0.269352
v 0.083288 -0.110460 0.229352
v 0.103288 -0.110460 0.229352
v -0.116712 -0.110460 0.229352
v -0.096712 -0.110460 0.229352
v 0.103288 -0.110460 0.269352
vt -4.986109 -5.055548
vt -5.541665 -3.388880
vt -5.541665 -5.055548
vt -6.930554 -4.777770
vt -9.708331 -5.333324
vt -6.374997 -5.333325
vt -6.097220 -3.388881
vt -5.541666 -5.055546
vt -5.541665 -3.388880
vt -3.041658 0.222222
vt -3.597218 -0.333333
vt -0.263881 -0.333333
vt -4.152773 1.333334
vt -9.152775 1.333334
vt -9.152775 -0.333334
vt 1.402790 -3.666680
vt -1.374986 -2.000012
vt -1.374987 -3.666679
vt 1.958346 -3.666679
vt 1.402791 -2.000013
vt -9.708322 -0.333334
vt -4.708328 -2.000011
vt -4.708328 -0.333345
vt -9.708331 4.666684
vt 8.069448 6.333360
vt -9.708328 6.333363
vt 10.291668 4.666684
vt 10.291668 6.333358
vt 1.731064 1.333335
vt -1.097220 2.999981
vt -1.097220 1.333336
vt 1.958346 -0.333312
vt -0.263881 1.333334
vt -0.263879 -0.333312
vt -5.263886 -3.666658
vt -9.708331 -2.000012
vt -9.708332 -3.666656
vt 0.847235 -5.333332
vt 3.069458 -3.666686
vt 0.847236 -3.666687
vt -4.708328 -3.666685
vt -1.374996 -2.000040
vt -4.708328 -2.000012
vt -9.708331 4.666684
vt -0.819442 3.000010
vt -0.819442 4.666684
vt 2.513903 -0.333335
vt 0.291679 -2.000009
vt 2.513903 -2.000010
vt -0.819441 4.666684
vt 1.680558 3.000010
vt 1.680559 4.666684
vt -1.374987 -3.666687
vt 0.847235 -5.333362
vt 0.847235 -3.666686
vt -1.097220 1.333334
vt -9.708328 3.000002
vt -9.708331 1.333347
vt 0.291675 -0.333345
vt -4.708328 -2.000000
vt 0.291679 -2.000000
vt -1.930550 -5.333352
vt -1.374995 -3.666687
vt -1.930550 -3.666686
vt -4.708328 -3.666685
vt -4.986109 -3.388880
vt -6.374998 -4.777770
vt -6.930554 -3.666658
vt -9.708331 -3.666658
vt -6.097220 -5.055546
vt -0.263881 1.333334
vt -3.597214 0.222222
vt -3.041658 1.333334
vt -4.152775 -0.333334
vt -3.597220 -0.333334
vt -3.597218 0.777777
vt -9.708331 0.777777
vt -9.708331 -0.333333
vt 1.958347 -2.000013
vt -9.708332 -2.000011
vt 8.069448 4.666685
vt 1.750002 3.000010
vt 1.958341 1.333333
vt -5.263887 -2.000012
vt 3.069457 -5.333333
vt -1.374988 -3.666686
vt -9.708330 3.000010
vt 0.291679 -0.333334
vt -0.819442 3.000010
vt -1.374987 -5.333362
vt -1.097220 3.000010
vt -4.708325 -0.333334
vt -1.374996 -5.333352
vt -4.708328 -5.333352
vn 0.0000 0.0000 1.0000
vn -1.0000 -0.0000 0.0000
vn 1.0000 0.0000 0.0000
vn 0.0000 1.0000 0.0000
vn 0.7071 0.0000 0.7071
vn 0.7152 0.0081 -0.6989
vn 0.0000 0.0000 -1.0000
vn 0.7071 0.0000 -0.7071
vn -0.7071 0.0000 -0.7071
vn -0.7071 0.0000 0.7071
vn 0.7182 0.0000 -0.6958
usemtl whiteBrick
s off
f 10/1/1 12/2/1 9/3/1
f 7/4/2 10/5/2 2/6/2
f 18/7/1 16/8/1 17/9/1
f 24/10/3 1/11/3 15/12/3
f 61/13/4 60/14/4 63/15/4
f 14/16/3 9/17/3 12/18/3
f 27/19/5 6/20/5 14/16/5
f 45/21/1 26/22/1 27/23/1
f 45/24/3 58/25/3 5/26/3
f 58/25/6 38/27/6 49/28/6
f 49/29/7 39/30/7 59/31/7
f 59/32/8 40/33/8 57/34/8
f 57/35/7 41/36/7 46/37/7
f 41/38/9 55/39/9 46/40/9
f 51/41/7 42/42/7 32/43/7
f 51/44/2 29/45/2 47/46/2
f 29/47/7 50/48/7 47/49/7
f 50/50/2 33/51/2 54/52/2
f 54/53/1 28/54/1 48/55/1
f 48/56/2 3/57/2 31/58/2
f 3/59/1 20/60/1 31/61/1
f 22/62/10 21/63/10 23/64/10
f 17/65/2 22/62/2 23/64/2
f 10/1/1 11/66/1 12/2/1
f 2/6/2 8/67/2 7/4/2
f 7/4/2 13/68/2 11/69/2
f 11/69/2 10/5/2 7/4/2
f 18/7/1 15/70/1 16/8/1
f 15/12/3 18/71/3 24/10/3
f 24/10/3 25/72/3 1/11/3
f 18/71/3 19/73/3 24/10/3
f 66/74/4 65/75/4 62/76/4
f 62/76/4 61/13/4 66/74/4
f 60/14/4 67/77/4 63/15/4
f 63/15/4 66/74/4 61/13/4
f 67/77/4 64/78/4 63/15/4
f 14/16/3 6/20/3 9/17/3
f 27/19/5 26/79/5 6/20/5
f 45/21/1 5/80/1 26/22/1
f 45/24/3 37/81/3 58/25/3
f 58/25/11 37/81/11 38/27/11
f 49/29/7 38/82/7 39/30/7
f 59/32/8 39/83/8 40/33/8
f 57/35/7 40/84/7 41/36/7
f 41/38/9 42/85/9 55/39/9
f 51/41/7 55/86/7 42/42/7
f 51/44/2 32/87/2 29/45/2
f 29/47/7 35/88/7 50/48/7
f 50/50/2 35/89/2 33/51/2
f 54/53/1 33/90/1 28/54/1
f 48/56/2 28/91/2 3/57/2
f 3/59/1 21/92/1 20/60/1
f 22/62/10 20/93/10 21/63/10
f 17/65/2 16/94/2 22/62/2
l 30 34
l 4 20
l 55 56
l 44 58
l 26 44
l 42 43
l 52 51
l 36 43
l 52 50
l 36 35
l 53 54
l 3 34
l 4 48
