# Blender v2.78 (sub 0) OBJ File: ''
# www.blender.org
mtllib cake.mtl
o Cube.003_Cube.020
v -1.414214 1.199999 1.414214
v -1.414213 -0.000001 1.414213
v -1.414213 -0.000001 1.414213
v -1.414214 1.199999 1.414214
v 0.000000 0.000000 0.000000
v 0.000000 1.200000 0.000000
v -1.662939 1.199999 1.111141
v -1.662939 -0.000001 1.111140
v -1.847759 1.199999 0.765367
v -1.847759 -0.000001 0.765367
v -1.961571 1.199999 0.390181
v -1.961570 -0.000001 0.390181
v -2.000000 1.199999 0.000000
v -2.000000 -0.000001 -0.000000
v 1.414213 1.200001 -1.414213
v 1.414214 0.000001 -1.414214
v 1.414214 0.000001 -1.414214
v 1.414213 1.200001 -1.414213
v 0.000000 0.000000 0.000000
v 0.000000 1.200000 0.000000
v 1.662939 1.200001 -1.111140
v 1.662939 0.000001 -1.111141
v 1.847759 1.200001 -0.765367
v 1.847759 0.000001 -0.765367
v 1.961570 1.200001 -0.390181
v 1.961571 0.000001 -0.390181
v 2.000000 1.200001 0.000000
v 2.000000 0.000001 0.000000
v 0.000000 1.199999 2.000000
v 0.000000 -0.000001 2.000000
v 0.000000 -0.000001 2.000000
v 0.000000 1.199999 2.000000
v 0.000000 0.000000 0.000000
v 0.000000 1.200000 0.000000
v -0.390180 1.199999 1.961571
v -0.390181 -0.000001 1.961570
v -0.765367 1.199999 1.847759
v -0.765367 -0.000001 1.847759
v -1.111140 1.199999 1.662940
v -1.111140 -0.000001 1.662939
v -1.414214 1.199999 1.414214
v -1.414214 -0.000001 1.414213
v -2.000000 1.199999 0.000000
v -2.000000 -0.000001 -0.000000
v -2.000000 -0.000001 -0.000000
v -2.000000 1.199999 0.000000
v 0.000000 0.000000 0.000000
v 0.000000 1.200000 0.000000
v -1.961571 1.199999 -0.390180
v -1.961570 -0.000001 -0.390181
v -1.847759 1.199999 -0.765367
v -1.847759 -0.000001 -0.765367
v -1.662940 1.199999 -1.111140
v -1.662939 -0.000001 -1.111140
v -1.414214 1.199999 -1.414214
v -1.414213 -0.000001 -1.414214
v 2.000000 1.200000 0.000000
v 2.000000 0.000000 0.000000
v 2.000000 0.000000 0.000000
v 2.000000 1.200000 0.000000
v 0.000000 0.000000 0.000000
v 0.000000 1.200000 0.000000
v 1.961571 1.200000 0.390180
v 1.961571 -0.000000 0.390181
v 1.847759 1.200001 0.765366
v 1.847759 0.000001 0.765367
v 1.662939 1.200001 1.111140
v 1.662939 0.000001 1.111141
v 1.414214 1.200001 1.414213
v 1.414214 0.000001 1.414214
v 1.414214 1.200000 1.414213
v 1.414214 -0.000000 1.414213
v 1.414214 -0.000000 1.414213
v 1.414214 1.200000 1.414213
v 0.000000 0.000000 0.000000
v 0.000000 1.200000 0.000000
v 1.111142 1.200000 1.662938
v 1.111141 -0.000000 1.662939
v 0.765368 1.200001 1.847758
v 0.765367 -0.000000 1.847759
v 0.390182 1.200001 1.961570
v 0.390181 0.000001 1.961571
v 0.000001 1.200001 2.000000
v 0.000001 0.000001 2.000000
v -1.414213 1.200000 -1.414214
v -1.414214 0.000000 -1.414213
v -1.414214 0.000000 -1.414213
v -1.414213 1.200000 -1.414214
v 0.000000 0.000000 0.000000
v 0.000000 1.200000 0.000000
v -1.111140 1.200000 -1.662940
v -1.111141 0.000000 -1.662939
v -0.765367 1.200000 -1.847759
v -0.765367 0.000000 -1.847759
v -0.390180 1.199999 -1.961571
v -0.390181 -0.000001 -1.961570
v 0.000000 1.199999 -2.000000
v 0.000000 -0.000001 -2.000000
v -0.000001 1.200001 -2.000000
v -0.000001 0.000001 -2.000000
v -0.000001 0.000001 -2.000000
v -0.000001 1.200001 -2.000000
v 0.000000 0.000000 0.000000
v 0.000000 1.200000 0.000000
v 0.390179 1.200001 -1.961571
v 0.390180 0.000001 -1.961571
v 0.765366 1.200001 -1.847759
v 0.765366 0.000001 -1.847760
v 1.111139 1.200001 -1.662940
v 1.111140 0.000001 -1.662940
v 1.414213 1.200001 -1.414214
v 1.414213 0.000001 -1.414215
vt 0.0000 0.0000
vt 0.0000 0.0000
vt 0.0000 0.0000
vt 0.6021 0.0293
vt 0.5505 0.3045
vt 0.5505 0.0293
vt 0.4968 0.0293
vt 0.4968 0.3045
vt 0.4431 0.0293
vt 0.4431 0.3045
vt 0.3915 0.0293
vt 0.3339 0.6613
vt 0.0669 0.4829
vt 0.1068 0.4342
vt 0.7898 0.1698
vt 0.7726 0.1646
vt 0.8077 0.0798
vt 0.0000 0.0000
vt 0.0000 0.0000
vt 0.0000 0.0000
vt 0.6021 0.3045
vt 0.5505 0.0293
vt 0.6021 0.0293
vt 0.5505 0.3045
vt 0.4968 0.0293
vt 0.4968 0.3045
vt 0.4431 0.0293
vt 0.4431 0.3045
vt 0.3915 0.0293
vt 0.3339 0.6613
vt 0.6010 0.8397
vt 0.5610 0.8884
vt 0.7898 0.1698
vt 0.7726 0.1646
vt 0.8077 0.0798
vt 0.0000 0.0000
vt 0.0000 0.0000
vt 0.0000 0.0000
vt 0.6021 0.0293
vt 0.5505 0.3045
vt 0.5505 0.0293
vt 0.4968 0.3045
vt 0.4968 0.0293
vt 0.4431 0.0293
vt 0.3915 0.3045
vt 0.3915 0.0293
vt 0.3339 0.6613
vt 0.2713 0.3463
vt 0.3339 0.3401
vt 0.7898 0.1698
vt 0.7726 0.1646
vt 0.8077 0.0798
vt 0.0000 0.0000
vt 0.0000 0.0000
vt 0.0000 0.0000
vt 0.6021 0.0293
vt 0.5505 0.3045
vt 0.5505 0.0293
vt 0.4968 0.3045
vt 0.4968 0.0293
vt 0.4431 0.0293
vt 0.3915 0.3045
vt 0.3915 0.0293
vt 0.3339 0.6613
vt 0.0190 0.7239
vt 0.0128 0.6613
vt 0.7898 0.1698
vt 0.7726 0.1646
vt 0.8077 0.0798
vt 0.0000 0.0000
vt 0.0000 0.0000
vt 0.0000 0.0000
vt 0.6021 0.0293
vt 0.5505 0.3045
vt 0.5505 0.0293
vt 0.4968 0.0293
vt 0.4431 0.3045
vt 0.4431 0.0293
vt 0.3915 0.3045
vt 0.3915 0.0293
vt 0.3339 0.6613
vt 0.6489 0.5986
vt 0.6551 0.6613
vt 0.7898 0.1698
vt 0.7726 0.1646
vt 0.8077 0.0798
vt 0.0000 0.0000
vt 0.0000 0.0000
vt 0.0000 0.0000
vt 0.6021 0.3045
vt 0.5505 0.0293
vt 0.6021 0.0293
vt 0.5505 0.3045
vt 0.4968 0.0293
vt 0.4968 0.3045
vt 0.4431 0.0293
vt 0.3915 0.3045
vt 0.3915 0.0293
vt 0.3339 0.6613
vt 0.5124 0.3943
vt 0.5610 0.4342
vt 0.7898 0.1698
vt 0.7726 0.1646
vt 0.8077 0.0798
vt 0.0000 0.0000
vt 0.0000 0.0000
vt 0.0000 0.0000
vt 0.6021 0.3045
vt 0.5505 0.0293
vt 0.6021 0.0293
vt 0.5505 0.3045
vt 0.4968 0.0293
vt 0.4431 0.3045
vt 0.4431 0.0293
vt 0.3915 0.0293
vt 0.3339 0.6613
vt 0.1555 0.9283
vt 0.1068 0.8884
vt 0.7898 0.1698
vt 0.7726 0.1646
vt 0.8077 0.0798
vt 0.0000 0.0000
vt 0.0000 0.0000
vt 0.0000 0.0000
vt 0.6021 0.0293
vt 0.5505 0.3045
vt 0.5505 0.0293
vt 0.4968 0.3045
vt 0.4968 0.0293
vt 0.4431 0.3045
vt 0.4431 0.0293
vt 0.3915 0.3045
vt 0.3915 0.0293
vt 0.3339 0.6613
vt 0.3966 0.9763
vt 0.3339 0.9825
vt 0.7898 0.1698
vt 0.7726 0.1646
vt 0.8077 0.0798
vt 0.0000 0.0000
vt 0.6021 0.3045
vt 0.3915 0.3045
vt 0.0128 0.6613
vt 0.0190 0.5986
vt 0.0372 0.5384
vt 0.1068 0.4342
vt 0.8077 0.1716
vt 0.8077 0.1716
vt 0.7568 0.1561
vt 0.7428 0.1447
vt 0.0000 0.0000
vt 0.3915 0.3045
vt 0.6551 0.6613
vt 0.6489 0.7239
vt 0.6307 0.7842
vt 0.5610 0.8884
vt 0.8077 0.1716
vt 0.8077 0.1716
vt 0.7568 0.1561
vt 0.7428 0.1447
vt 0.0000 0.0000
vt 0.6021 0.3045
vt 0.4431 0.3045
vt 0.1068 0.4342
vt 0.1555 0.3943
vt 0.2110 0.3646
vt 0.3339 0.3401
vt 0.8077 0.1716
vt 0.8077 0.1716
vt 0.7568 0.1561
vt 0.7428 0.1447
vt 0.0000 0.0000
vt 0.6021 0.3045
vt 0.4431 0.3045
vt 0.1068 0.8884
vt 0.0669 0.8397
vt 0.0372 0.7842
vt 0.0128 0.6613
vt 0.8077 0.1716
vt 0.8077 0.1716
vt 0.7568 0.1561
vt 0.7428 0.1447
vt 0.0000 0.0000
vt 0.6021 0.3045
vt 0.4968 0.3045
vt 0.5610 0.4342
vt 0.6010 0.4829
vt 0.6307 0.5384
vt 0.6551 0.6613
vt 0.8077 0.1716
vt 0.8077 0.1716
vt 0.7568 0.1561
vt 0.7428 0.1447
vt 0.0000 0.0000
vt 0.4431 0.3045
vt 0.3339 0.3401
vt 0.3966 0.3463
vt 0.4568 0.3646
vt 0.5610 0.4342
vt 0.8077 0.1716
vt 0.8077 0.1716
vt 0.7568 0.1561
vt 0.7428 0.1447
vt 0.0000 0.0000
vt 0.4968 0.3045
vt 0.3915 0.3045
vt 0.3339 0.9825
vt 0.2713 0.9763
vt 0.2110 0.9580
vt 0.1068 0.8884
vt 0.8077 0.1716
vt 0.8077 0.1716
vt 0.7568 0.1561
vt 0.7428 0.1447
vt 0.0000 0.0000
vt 0.6021 0.3045
vt 0.5610 0.8884
vt 0.5124 0.9283
vt 0.4568 0.9580
vt 0.3339 0.9825
vt 0.8077 0.1716
vt 0.8077 0.1716
vt 0.7568 0.1561
vt 0.7428 0.1447
vn 0.0000 0.0000 1.0000
vn -0.7730 -0.0000 0.6344
vn -0.8819 -0.0000 0.4714
vn -0.9569 0.0000 0.2903
vn -0.9952 -0.0000 0.0980
vn -0.0000 1.0000 0.0000
vn 0.0000 -1.0000 -0.0000
vn 0.7730 0.0000 -0.6344
vn 0.8819 0.0000 -0.4714
vn 0.9569 0.0000 -0.2903
vn 0.9952 0.0000 -0.0980
vn -0.0980 -0.0000 0.9952
vn -0.2903 -0.0000 0.9569
vn -0.4714 -0.0000 0.8819
vn -0.6344 -0.0000 0.7730
vn -0.9952 -0.0000 -0.0980
vn -0.9569 0.0000 -0.2903
vn -0.8819 0.0000 -0.4714
vn -0.7730 -0.0000 -0.6344
vn 0.9952 0.0000 0.0980
vn 0.9569 0.0000 0.2903
vn 0.8819 0.0000 0.4714
vn 0.7730 0.0000 0.6344
vn 0.6344 -0.0000 0.7730
vn 0.4714 0.0000 0.8819
vn 0.2903 0.0000 0.9569
vn 0.0980 -0.0000 0.9952
vn -0.6344 -0.0000 -0.7730
vn -0.4714 -0.0000 -0.8819
vn -0.2903 -0.0000 -0.9569
vn -0.0980 -0.0000 -0.9952
vn 0.0980 0.0000 -0.9952
vn 0.2903 0.0000 -0.9569
vn 0.4714 0.0000 -0.8819
vn 0.6344 0.0000 -0.7730
vn 0.0000 0.0000 0.0000
usemtl cake_NONE
s off
f 1/1/1 3/2/1 4/3/1
f 2/4/2 7/5/2 8/6/2
f 7/5/3 10/7/3 8/6/3
f 9/8/4 12/9/4 10/7/4
f 11/10/5 14/11/5 12/9/5
f 6/12/6 7/13/6 1/14/6
f 8/15/7 10/16/7 5/17/7
f 15/18/1 17/19/1 18/20/1
f 15/21/8 22/22/8 16/23/8
f 21/24/9 24/25/9 22/22/9
f 23/26/10 26/27/10 24/25/10
f 25/28/11 28/29/11 26/27/11
f 20/30/6 21/31/6 15/32/6
f 22/33/7 24/34/7 19/35/7
f 29/36/1 31/37/1 32/38/1
f 30/39/12 35/40/12 36/41/12
f 36/41/13 37/42/13 38/43/13
f 37/42/14 40/44/14 38/43/14
f 40/44/15 41/45/15 42/46/15
f 34/47/6 35/48/6 29/49/6
f 36/50/7 38/51/7 33/52/7
f 43/53/1 45/54/1 46/55/1
f 44/56/16 49/57/16 50/58/16
f 50/58/17 51/59/17 52/60/17
f 51/59/18 54/61/18 52/60/18
f 54/61/19 55/62/19 56/63/19
f 48/64/6 49/65/6 43/66/6
f 50/67/7 52/68/7 47/69/7
f 57/70/1 59/71/1 60/72/1
f 58/73/20 63/74/20 64/75/20
f 63/74/21 66/76/21 64/75/21
f 66/76/22 67/77/22 68/78/22
f 68/78/23 69/79/23 70/80/23
f 62/81/6 63/82/6 57/83/6
f 64/84/7 66/85/7 61/86/7
f 71/87/1 73/88/1 74/89/1
f 71/90/24 78/91/24 72/92/24
f 77/93/25 80/94/25 78/91/25
f 79/95/26 82/96/26 80/94/26
f 82/96/27 83/97/27 84/98/27
f 76/99/6 77/100/6 71/101/6
f 78/102/7 80/103/7 75/104/7
f 85/105/1 87/106/1 88/107/1
f 85/108/28 92/109/28 86/110/28
f 91/111/29 94/112/29 92/109/29
f 94/112/30 95/113/30 96/114/30
f 95/113/31 98/115/31 96/114/31
f 90/116/6 91/117/6 85/118/6
f 92/119/7 94/120/7 89/121/7
f 99/122/1 101/123/1 102/124/1
f 100/125/32 105/126/32 106/127/32
f 106/127/33 107/128/33 108/129/33
f 108/129/34 109/130/34 110/131/34
f 110/131/35 111/132/35 112/133/35
f 104/134/6 105/135/6 99/136/6
f 106/137/7 108/138/7 103/139/7
f 1/1/1 2/140/1 3/2/1
f 2/4/2 1/141/2 7/5/2
f 7/5/3 9/8/3 10/7/3
f 9/8/4 11/10/4 12/9/4
f 11/10/5 13/142/5 14/11/5
f 6/12/6 13/143/6 11/144/6
f 11/144/6 9/145/6 6/12/6
f 1/14/1 4/146/1 6/12/1
f 9/145/6 7/13/6 6/12/6
f 5/17/1 3/147/1 2/148/1
f 2/148/7 8/15/7 5/17/7
f 10/16/7 12/149/7 5/17/7
f 14/150/7 5/17/7 12/149/7
f 15/18/1 16/151/1 17/19/1
f 15/21/8 21/24/8 22/22/8
f 21/24/9 23/26/9 24/25/9
f 23/26/10 25/28/10 26/27/10
f 25/28/11 27/152/11 28/29/11
f 20/30/6 27/153/6 25/154/6
f 25/154/6 23/155/6 20/30/6
f 15/32/1 18/156/1 20/30/1
f 23/155/6 21/31/6 20/30/6
f 19/35/1 17/157/1 16/158/1
f 16/158/7 22/33/7 19/35/7
f 24/34/7 26/159/7 19/35/7
f 28/160/7 19/35/7 26/159/7
f 29/36/1 30/161/1 31/37/1
f 30/39/12 29/162/12 35/40/12
f 36/41/13 35/40/13 37/42/13
f 37/42/14 39/163/14 40/44/14
f 40/44/15 39/163/15 41/45/15
f 34/47/6 41/164/6 39/165/6
f 39/165/6 37/166/6 34/47/6
f 29/49/36 32/167/36 34/47/36
f 37/166/6 35/48/6 34/47/6
f 33/52/36 31/168/36 30/169/36
f 30/169/7 36/50/7 33/52/7
f 38/51/7 40/170/7 33/52/7
f 42/171/7 33/52/7 40/170/7
f 43/53/1 44/172/1 45/54/1
f 44/56/16 43/173/16 49/57/16
f 50/58/17 49/57/17 51/59/17
f 51/59/18 53/174/18 54/61/18
f 54/61/19 53/174/19 55/62/19
f 48/64/6 55/175/6 53/176/6
f 53/176/6 51/177/6 48/64/6
f 43/66/1 46/178/1 48/64/1
f 51/177/6 49/65/6 48/64/6
f 47/69/1 45/179/1 44/180/1
f 44/180/7 50/67/7 47/69/7
f 52/68/7 54/181/7 47/69/7
f 56/182/7 47/69/7 54/181/7
f 57/70/1 58/183/1 59/71/1
f 58/73/20 57/184/20 63/74/20
f 63/74/21 65/185/21 66/76/21
f 66/76/22 65/185/22 67/77/22
f 68/78/23 67/77/23 69/79/23
f 62/81/6 69/186/6 67/187/6
f 67/187/6 65/188/6 62/81/6
f 57/83/1 60/189/1 62/81/1
f 65/188/6 63/82/6 62/81/6
f 61/86/1 59/190/1 58/191/1
f 58/191/7 64/84/7 61/86/7
f 66/85/7 68/192/7 61/86/7
f 70/193/7 61/86/7 68/192/7
f 71/87/1 72/194/1 73/88/1
f 71/90/24 77/93/24 78/91/24
f 77/93/25 79/95/25 80/94/25
f 79/95/26 81/195/26 82/96/26
f 82/96/27 81/195/27 83/97/27
f 76/99/6 83/196/6 81/197/6
f 81/197/6 79/198/6 76/99/6
f 71/101/1 74/199/1 76/99/1
f 79/198/6 77/100/6 76/99/6
f 75/104/1 73/200/1 72/201/1
f 72/201/7 78/102/7 75/104/7
f 80/103/7 82/202/7 75/104/7
f 84/203/7 75/104/7 82/202/7
f 85/105/1 86/204/1 87/106/1
f 85/108/28 91/111/28 92/109/28
f 91/111/29 93/205/29 94/112/29
f 94/112/30 93/205/30 95/113/30
f 95/113/31 97/206/31 98/115/31
f 90/116/6 97/207/6 95/208/6
f 95/208/6 93/209/6 90/116/6
f 85/118/1 88/210/1 90/116/1
f 93/209/6 91/117/6 90/116/6
f 89/121/1 87/211/1 86/212/1
f 86/212/7 92/119/7 89/121/7
f 94/120/7 96/213/7 89/121/7
f 98/214/7 89/121/7 96/213/7
f 99/122/1 100/215/1 101/123/1
f 100/125/32 99/216/32 105/126/32
f 106/127/33 105/126/33 107/128/33
f 108/129/34 107/128/34 109/130/34
f 110/131/35 109/130/35 111/132/35
f 104/134/6 111/217/6 109/218/6
f 109/218/6 107/219/6 104/134/6
f 99/136/36 102/220/36 104/134/36
f 107/219/6 105/135/6 104/134/6
f 103/139/36 101/221/36 100/222/36
f 100/222/7 106/137/7 103/139/7
f 108/138/7 110/223/7 103/139/7
f 112/224/7 103/139/7 110/223/7
