# Blender v2.78 (sub 0) OBJ File: 'cake.blend'
# www.blender.org
mtllib slice4.mtl
o Cube.007_Cube.024
v 0.000000 1.200000 0.000000
v -0.000000 0.000000 -0.000000
v -0.000001 1.200001 -2.000000
v -0.000001 0.000001 -2.000000
v -0.000001 1.200001 -2.000000
v 1.414213 1.200001 -1.414214
v 1.111139 1.200001 -1.662940
v 0.765366 1.200001 -1.847759
v 0.390179 1.200001 -1.961571
v -0.000001 0.000001 -2.000000
v 0.390180 0.000001 -1.961571
v 0.765366 0.000001 -1.847760
v 1.111140 0.000001 -1.662940
v 1.414213 0.000001 -1.414215
vt 0.0000 0.0000
vt 0.0000 0.0000
vt 0.0000 0.0000
vt 0.3045 0.0293
vt 0.0293 0.3045
vt 0.3045 0.3045
vt 0.6021 0.0293
vt 0.5505 0.3045
vt 0.5505 0.0293
vt 0.4968 0.3045
vt 0.4968 0.0293
vt 0.4431 0.0293
vt 0.4431 0.3045
vt 0.3915 0.0293
vt 0.3339 0.6613
vt 0.3966 0.9763
vt 0.3339 0.9825
vt 0.7898 0.1698
vt 0.7726 0.1646
vt 0.8077 0.0798
vt 0.3045 0.0293
vt 0.0293 0.0293
vt 0.0000 0.0000
vt 0.6021 0.3045
vt 0.3915 0.3045
vt 0.5610 0.8884
vt 0.5124 0.9283
vt 0.4568 0.9580
vt 0.3339 0.9825
vt 0.8077 0.1716
vt 0.8077 0.1716
vt 0.7568 0.1561
vt 0.7428 0.1447
vt 0.3045 0.3045
vn 0.0000 0.0000 1.0000
vn -1.0000 0.0000 0.0000
vn 0.0980 0.0000 -0.9952
vn 0.2903 0.0000 -0.9569
vn 0.4714 0.0000 -0.8819
vn 0.6344 0.0000 -0.7730
vn 0.0000 1.0000 0.0000
vn 0.0000 -1.0000 -0.0000
vn 0.7071 -0.0000 0.7071
usemtl cake
s off
f 5/1/1 4/2/1 3/3/1
f 4/4/2 1/5/2 3/6/2
f 10/7/3 9/8/3 11/9/3
f 11/9/4 8/10/4 12/11/4
f 8/10/5 13/12/5 12/11/5
f 7/13/6 14/14/6 13/12/6
f 1/15/7 9/16/7 5/17/7
f 11/18/8 12/19/8 2/20/8
f 14/21/9 1/5/9 2/22/9
f 5/1/1 10/23/1 4/2/1
f 4/4/2 2/22/2 1/5/2
f 10/7/3 5/24/3 9/8/3
f 11/9/4 9/8/4 8/10/4
f 8/10/5 7/13/5 13/12/5
f 7/13/6 6/25/6 14/14/6
f 1/15/7 6/26/7 7/27/7
f 7/27/7 8/28/7 1/15/7
f 5/17/1 3/29/1 1/15/1
f 8/28/7 9/16/7 1/15/7
f 2/20/1 4/30/1 10/31/1
f 10/31/8 11/18/8 2/20/8
f 12/19/8 13/32/8 2/20/8
f 14/33/8 2/20/8 13/32/8
f 14/21/9 6/34/9 1/5/9
