# Blender v2.78 (sub 0) OBJ File: ''
# www.blender.org
mtllib slice1_1.mtl
o slice1_1_Cube.021
v 0.000000 0.000000 0.000000
v 0.582977 1.200000 0.582976
v 0.582976 -0.000000 0.582976
v 0.454876 -0.000000 0.741504
v 0.303340 -0.000000 0.865867
v 0.000000 1.200000 0.000000
v 0.000000 -0.000000 0.997849
v 0.000001 1.200001 0.997849
v 0.130453 1.200001 0.958277
v 0.303340 1.200000 0.865867
v 0.579239 -0.000000 0.589967
v 0.579239 1.200000 0.589967
v 0.454876 1.200000 0.741504
v 0.130453 -0.000000 0.958277
vt 0.0293 0.0293
vt 0.1427 0.3045
vt 0.1427 0.0293
vt 0.8077 0.0798
vt 0.7984 0.1186
vt 0.7895 0.1178
vt 0.0293 0.3045
vt 0.1666 0.0293
vt 0.1666 0.3045
vt 0.4893 0.0827
vt 0.5171 0.0975
vt 0.4683 0.2366
vt 0.0000 0.0000
vt 0.0000 0.0000
vt 0.0000 0.0000
vt 0.0000 0.0000
vt 0.0000 0.0000
vt 0.0000 0.0000
vt 0.0000 0.0000
vt 0.0000 0.0000
vt 0.0000 0.0000
vt 0.0000 0.0000
vt 0.7809 0.1151
vt 0.7754 0.1122
vt 0.8077 0.1177
vt 0.8074 0.1178
vt 0.5485 0.1817
vt 0.4548 0.2753
vt 0.5479 0.1805
vt 0.4683 0.0764
vt 0.5414 0.1175
vt 0.5614 0.1418
vt 0.0000 0.0000
vt 0.0000 0.0000
vn 0.7071 -0.0000 -0.7071
vn -0.0000 -1.0000 -0.0000
vn -1.0000 0.0000 0.0000
vn 0.0000 1.0000 -0.0000
vn 0.8819 -0.0000 0.4714
vn 0.8819 -0.0000 0.4715
vn 0.7730 -0.0000 0.6344
vn 0.6344 -0.0000 0.7730
vn 0.4714 -0.0000 0.8819
vn 0.2903 -0.0000 0.9569
usemtl cake
s 1
f 1/1/1 2/2/1 3/3/1
f 1/4/2 4/5/2 5/6/2
f 6/7/3 7/8/3 8/9/3
f 9/10/4 10/11/4 6/12/4
f 11/13/5 2/14/6 12/15/6
f 12/15/7 4/16/7 11/13/7
f 13/17/8 5/18/8 4/16/8
f 10/19/9 14/20/9 5/18/9
f 9/21/10 7/22/10 14/20/10
f 1/1/1 6/7/1 2/2/1
f 14/23/2 7/24/2 1/4/2
f 1/4/2 3/25/2 11/26/2
f 11/26/2 4/5/2 1/4/2
f 5/6/2 14/23/2 1/4/2
f 6/7/3 1/1/3 7/8/3
f 2/27/4 6/28/4 12/29/4
f 8/30/4 9/10/4 6/12/4
f 10/11/4 13/31/4 6/12/4
f 12/32/4 6/12/4 13/31/4
f 11/13/5 3/33/5 2/14/6
f 12/15/7 13/17/7 4/16/7
f 13/17/8 10/19/8 5/18/8
f 10/19/9 9/21/9 14/20/9
f 9/21/10 8/34/10 7/22/10
