# Blender v2.78 (sub 0) OBJ File: ''
# www.blender.org
mtllib slice1.mtl
o Cube.004_Cube.021
v 1.414214 1.200000 1.414213
v 1.414214 -0.000000 1.414213
v 1.414214 -0.000000 1.414213
v 1.414214 1.200000 1.414213
v 0.000000 0.000000 0.000000
v 0.000000 1.200000 0.000000
v 1.111142 1.200000 1.662938
v 1.111141 -0.000000 1.662939
v 0.765368 1.200001 1.847758
v 0.765367 -0.000000 1.847759
v 0.390182 1.200001 1.961570
v 0.390181 0.000001 1.961571
v 0.000001 1.200001 2.000000
v 0.000001 0.000001 2.000000
vt 0.0000 0.0000
vt 0.0000 0.0000
vt 0.0000 0.0000
vt 0.3045 0.0293
vt 0.0293 0.3045
vt 0.3045 0.3045
vt 0.6021 0.3045
vt 0.5505 0.0293
vt 0.6021 0.0293
vt 0.5505 0.3045
vt 0.4968 0.0293
vt 0.4968 0.3045
vt 0.4431 0.0293
vt 0.3915 0.3045
vt 0.3915 0.0293
vt 0.3339 0.6613
vt 0.5124 0.3943
vt 0.5610 0.4342
vt 0.7898 0.1698
vt 0.7726 0.1646
vt 0.8077 0.0798
vt 0.3045 0.0293
vt 0.0293 0.0293
vt 0.0000 0.0000
vt 0.4431 0.3045
vt 0.3339 0.3401
vt 0.3966 0.3463
vt 0.4568 0.3646
vt 0.5610 0.4342
vt 0.8077 0.1716
vt 0.8077 0.1716
vt 0.7568 0.1561
vt 0.7428 0.1447
vt 0.3045 0.3045
vn 0.0000 0.0000 1.0000
vn 0.7071 0.0000 -0.7071
vn 0.6344 -0.0000 0.7730
vn 0.4714 0.0000 0.8819
vn 0.2903 0.0000 0.9569
vn 0.0980 -0.0000 0.9952
vn 0.0000 1.0000 0.0000
vn 0.0000 -1.0000 -0.0000
vn -1.0000 -0.0000 0.0000
usemtl cake_NONE
s off
f 1/1/1 3/2/1 4/3/1
f 3/4/2 6/5/2 4/6/2
f 1/7/3 8/8/3 2/9/3
f 7/10/4 10/11/4 8/8/4
f 9/12/5 12/13/5 10/11/5
f 12/13/6 13/14/6 14/15/6
f 6/16/7 7/17/7 1/18/7
f 8/19/8 10/20/8 5/21/8
f 14/22/9 6/5/9 5/23/9
f 1/1/1 2/24/1 3/2/1
f 3/4/2 5/23/2 6/5/2
f 1/7/3 7/10/3 8/8/3
f 7/10/4 9/12/4 10/11/4
f 9/12/5 11/25/5 12/13/5
f 12/13/6 11/25/6 13/14/6
f 6/16/7 13/26/7 11/27/7
f 11/27/7 9/28/7 6/16/7
f 1/18/1 4/29/1 6/16/1
f 9/28/7 7/17/7 6/16/7
f 5/21/1 3/30/1 2/31/1
f 2/31/8 8/19/8 5/21/8
f 10/20/8 12/32/8 5/21/8
f 14/33/8 5/21/8 12/32/8
f 14/22/9 13/34/9 6/5/9
