# Blender v2.78 (sub 0) OBJ File: 'cake.blend'
# www.blender.org
mtllib slice3.mtl
o Cube.006_Cube.023
v -0.000000 1.200000 0.000000
v 0.000000 0.000000 -0.000000
v 1.414213 1.200001 -1.414213
v 1.414214 0.000001 -1.414214
v 1.414213 1.200001 -1.414213
v 2.000000 1.200001 0.000000
v 1.961570 1.200001 -0.390181
v 1.847759 1.200001 -0.765367
v 1.662939 1.200001 -1.111140
v 1.414214 0.000001 -1.414214
v 1.662939 0.000001 -1.111141
v 1.847759 0.000001 -0.765367
v 1.961571 0.000001 -0.390181
v 2.000000 0.000001 -0.000000
vt 0.0000 0.0000
vt 0.0000 0.0000
vt 0.0000 0.0000
vt 0.3045 0.3045
vt 0.0293 0.0293
vt 0.0293 0.3045
vt 0.6021 0.3045
vt 0.5505 0.0293
vt 0.6021 0.0293
vt 0.4968 0.3045
vt 0.4968 0.0293
vt 0.4431 0.0293
vt 0.4431 0.3045
vt 0.3915 0.0293
vt 0.3339 0.6613
vt 0.6010 0.8397
vt 0.5610 0.8884
vt 0.7898 0.1698
vt 0.7726 0.1646
vt 0.8077 0.0798
vt 0.3045 0.0293
vt 0.0000 0.0000
vt 0.3045 0.0293
vt 0.5505 0.3045
vt 0.3915 0.3045
vt 0.6551 0.6613
vt 0.6489 0.7239
vt 0.6307 0.7842
vt 0.5610 0.8884
vt 0.8077 0.1716
vt 0.8077 0.1716
vt 0.7568 0.1561
vt 0.7428 0.1447
vt 0.3045 0.3045
vn 0.0000 0.0000 1.0000
vn -0.7071 0.0000 -0.7071
vn 0.7730 0.0000 -0.6344
vn 0.8819 0.0000 -0.4714
vn 0.9569 0.0000 -0.2903
vn 0.9952 0.0000 -0.0980
vn -0.0000 1.0000 0.0000
vn 0.0000 -1.0000 -0.0000
usemtl cake
s off
f 5/1/1 4/2/1 3/3/1
f 3/4/2 2/5/2 1/6/2
f 5/7/3 11/8/3 10/9/3
f 11/8/4 8/10/4 12/11/4
f 8/10/5 13/12/5 12/11/5
f 7/13/6 14/14/6 13/12/6
f 1/15/7 9/16/7 5/17/7
f 11/18/8 12/19/8 2/20/8
f 14/21/1 1/6/1 2/5/1
f 5/1/1 10/22/1 4/2/1
f 3/4/2 4/23/2 2/5/2
f 5/7/3 9/24/3 11/8/3
f 11/8/4 9/24/4 8/10/4
f 8/10/5 7/13/5 13/12/5
f 7/13/6 6/25/6 14/14/6
f 1/15/7 6/26/7 7/27/7
f 7/27/7 8/28/7 1/15/7
f 5/17/1 3/29/1 1/15/1
f 8/28/7 9/16/7 1/15/7
f 2/20/1 4/30/1 10/31/1
f 10/31/8 11/18/8 2/20/8
f 12/19/8 13/32/8 2/20/8
f 14/33/8 2/20/8 13/32/8
f 14/21/1 6/34/1 1/6/1
