# Blender v2.78 (sub 0) OBJ File: 'cake.blend'
# www.blender.org
mtllib slice1_3.mtl
o slice1_3_Cube.001
v 1.414214 1.200000 1.414213
v 1.414214 0.000000 1.414213
v 1.414214 0.000000 1.414213
v 1.414214 1.200000 1.414213
v 1.111142 1.200000 1.662938
v 1.111141 0.000000 1.662939
v 0.765367 0.000000 1.847759
v 0.390181 0.000001 1.961571
v 0.000001 0.000001 2.000000
v 0.000000 0.000001 1.508613
v 0.099981 0.000001 1.517949
v 0.250200 0.000000 1.503922
v 0.394647 0.000000 1.462381
v 0.527770 0.000000 1.394922
v 0.634553 0.000000 1.311839
v 0.699981 0.000000 1.317949
v 0.850200 0.000000 1.303922
v 0.994647 0.000000 1.262381
v 1.127770 0.000000 1.194922
v 1.165537 0.000000 1.165537
v 0.000001 1.200001 1.508613
v 0.000001 1.200001 2.000000
v 0.390182 1.200001 1.961570
v 0.765368 1.200001 1.847758
v 1.165538 1.200000 1.165536
v 1.127770 1.200000 1.194922
v 0.994647 1.200000 1.262381
v 0.850200 1.200000 1.303922
v 0.699981 1.200000 1.317949
v 0.634553 1.200000 1.311839
v 0.527770 1.200001 1.394922
v 0.394647 1.200001 1.462381
v 0.250200 1.200001 1.503922
v 0.099981 1.200001 1.517949
vt 0.0000 0.0000
vt 0.0000 0.0000
vt 0.0000 0.0000
vt 0.6021 0.3045
vt 0.5505 0.0293
vt 0.6021 0.0293
vt 0.7726 0.1646
vt 0.7796 0.1422
vt 0.7877 0.1453
vt 0.4937 0.4586
vt 0.4705 0.4519
vt 0.5124 0.3943
vt 0.3045 0.0293
vt 0.2561 0.3045
vt 0.3045 0.3045
vt 0.5505 0.3045
vt 0.4968 0.0293
vt 0.4968 0.3045
vt 0.4431 0.0293
vt 0.3915 0.3045
vt 0.3915 0.0293
vt 0.3045 0.0293
vt 0.2369 0.3045
vt 0.2369 0.0293
vt 0.1791 0.3048
vt 0.1979 0.0272
vt 0.1979 0.3048
vt 0.2186 0.0272
vt 0.1791 0.0272
vt 0.1700 0.3048
vt 0.1700 0.0272
vt 0.2394 0.0272
vt 0.2186 0.3048
vt 0.1490 0.3048
vt 0.1490 0.0272
vt 0.2604 0.0272
vt 0.2394 0.3048
vt 0.1282 0.3048
vt 0.1282 0.0272
vt 0.2743 0.0272
vt 0.2604 0.3048
vt 0.1075 0.3048
vt 0.1075 0.0272
vt 0.1008 0.3048
vt 0.0000 0.0000
vt 0.8077 0.1555
vt 0.8077 0.1716
vt 0.8077 0.1716
vt 0.7898 0.1698
vt 0.8056 0.1552
vt 0.7568 0.1561
vt 0.7731 0.1401
vt 0.7428 0.1447
vt 0.7588 0.1288
vt 0.7617 0.1323
vt 0.7930 0.1497
vt 0.7990 0.1530
vt 0.7671 0.1367
vt 0.7858 0.1430
vt 0.3500 0.4175
vt 0.3339 0.4190
vt 0.3339 0.3401
vt 0.3966 0.3463
vt 0.4568 0.3646
vt 0.5610 0.4342
vt 0.5610 0.4342
vt 0.5211 0.4741
vt 0.3973 0.4265
vt 0.3741 0.4198
vt 0.5150 0.4694
vt 0.4187 0.4373
vt 0.4463 0.4496
vt 0.4358 0.4506
vt 0.2561 0.0293
vt 0.4431 0.3045
vt 0.3045 0.3045
vt 0.2743 0.3048
vt 0.1008 0.0272
vn 0.0000 0.0000 1.0000
vn 0.6344 0.0000 0.7730
vn -0.0000 -1.0000 0.0000
vn 0.0000 1.0000 0.0000
vn 0.7071 -0.0000 -0.7071
vn 0.4714 0.0000 0.8819
vn 0.2903 0.0000 0.9569
vn 0.0980 0.0000 0.9952
vn -1.0000 0.0000 0.0000
vn -0.6141 -0.0000 -0.7892
vn -0.4520 -0.0000 -0.8920
vn 0.0930 0.0000 -0.9957
vn -0.2764 0.0000 -0.9610
vn -0.0930 0.0000 -0.9957
usemtl cake
s off
f 2/1/1 4/2/1 1/3/1
f 1/4/2 6/5/2 2/6/2
f 7/7/3 14/8/3 16/9/3
f 27/10/4 28/11/4 5/12/4
f 3/13/5 25/14/5 4/15/5
f 5/16/6 7/17/6 6/5/6
f 24/18/7 8/19/7 7/17/7
f 8/19/8 22/20/8 9/21/8
f 9/22/9 21/23/9 10/24/9
f 30/25/10 14/26/10 31/27/10
f 13/28/11 31/27/11 14/26/11
f 15/29/12 29/30/12 16/31/12
f 12/32/13 32/33/13 13/28/13
f 16/31/14 28/34/14 17/35/14
f 11/36/14 33/37/14 12/32/14
f 17/35/13 27/38/13 18/39/13
f 10/40/12 34/41/12 11/36/12
f 18/39/11 26/42/11 19/43/11
f 25/44/10 19/43/10 26/42/10
f 2/1/1 3/45/1 4/2/1
f 1/4/2 5/16/2 6/5/2
f 20/46/1 3/47/1 2/48/1
f 2/48/3 6/49/3 19/50/3
f 7/7/3 8/51/3 13/52/3
f 9/53/3 10/54/3 11/55/3
f 9/53/3 11/55/3 8/51/3
f 6/49/3 7/7/3 17/56/3
f 19/50/3 20/46/3 2/48/3
f 18/57/3 19/50/3 6/49/3
f 8/51/3 11/55/3 12/58/3
f 8/51/3 12/58/3 13/52/3
f 17/56/3 18/57/3 6/49/3
f 14/8/3 15/59/3 16/9/3
f 16/9/3 17/56/3 7/7/3
f 7/7/3 13/52/3 14/8/3
f 34/60/4 21/61/4 22/62/4
f 22/62/4 23/63/4 34/60/4
f 24/64/4 5/12/4 28/11/4
f 1/65/1 4/66/1 25/67/1
f 23/63/4 24/64/4 32/68/4
f 33/69/4 34/60/4 23/63/4
f 32/68/4 33/69/4 23/63/4
f 1/65/4 25/67/4 26/70/4
f 1/65/4 26/70/4 5/12/4
f 32/68/4 24/64/4 31/71/4
f 29/72/4 30/73/4 31/71/4
f 31/71/4 24/64/4 29/72/4
f 26/70/4 27/10/4 5/12/4
f 28/11/4 29/72/4 24/64/4
f 3/13/5 20/74/5 25/14/5
f 5/16/6 24/18/6 7/17/6
f 24/18/7 23/75/7 8/19/7
f 8/19/8 23/75/8 22/20/8
f 9/22/9 22/76/9 21/23/9
f 30/25/10 15/29/10 14/26/10
f 13/28/11 32/33/11 31/27/11
f 15/29/12 30/25/12 29/30/12
f 12/32/13 33/37/13 32/33/13
f 16/31/14 29/30/14 28/34/14
f 11/36/14 34/41/14 33/37/14
f 17/35/13 28/34/13 27/38/13
f 10/40/12 21/77/12 34/41/12
f 18/39/11 27/38/11 26/42/11
f 25/44/10 20/78/10 19/43/10
