# Blender v2.79 (sub 0) OBJ File: 'screen.blend'
# www.blender.org
mtllib button.mtl
o inner
v -1.602542 -0.337500 0.000000
v -1.634033 -0.333354 0.000000
v -1.661088 -0.322148 0.000000
v -1.684321 -0.304321 0.000000
v -1.702148 -0.281088 0.000000
v -1.713354 -0.254033 0.000000
v -1.717500 -0.222542 0.000000
v -1.634033 0.333354 0.000000
v -1.602542 0.337500 0.000000
v -1.661088 0.322148 0.000000
v -1.684321 0.304321 0.000000
v -1.702148 0.281088 0.000000
v -1.713354 0.254033 0.000000
v -1.717500 0.222542 0.000000
v 1.634034 -0.333354 0.000000
v 1.602542 -0.337500 0.000000
v 1.661088 -0.322148 0.000000
v 1.684321 -0.304321 0.000000
v 1.702148 -0.281088 0.000000
v 1.713354 -0.254033 0.000000
v 1.717500 -0.222542 0.000000
v 1.602542 0.337500 0.000000
v 1.634034 0.333354 0.000000
v 1.661088 0.322148 0.000000
v 1.684321 0.304321 0.000000
v 1.702148 0.281088 0.000000
v 1.713354 0.254033 0.000000
v 1.717500 0.222542 0.000000
vn 0.0000 0.0000 1.0000
usemtl Material.004
s off
f 6//1 4//1 2//1
f 2//1 1//1 6//1
f 1//1 16//1 9//1
f 16//1 15//1 21//1
f 15//1 17//1 20//1
f 21//1 15//1 20//1
f 17//1 18//1 19//1
f 19//1 20//1 17//1
f 21//1 28//1 22//1
f 28//1 27//1 23//1
f 27//1 26//1 25//1
f 25//1 24//1 23//1
f 23//1 22//1 28//1
f 22//1 9//1 16//1
f 21//1 22//1 16//1
f 9//1 8//1 13//1
f 8//1 10//1 12//1
f 10//1 11//1 12//1
f 12//1 13//1 8//1
f 13//1 14//1 9//1
f 14//1 7//1 1//1
f 7//1 6//1 1//1
f 6//1 5//1 4//1
f 4//1 3//1 2//1
f 1//1 9//1 14//1
f 27//1 25//1 23//1
o outer
v -1.755000 -0.225000 0.000000
v -1.605000 -0.375000 0.000000
v -1.749889 -0.263823 0.000000
v -1.734904 -0.300000 0.000000
v -1.711066 -0.331066 0.000000
v -1.680000 -0.354904 0.000000
v -1.643823 -0.369889 0.000000
v -1.605000 0.375000 0.000000
v -1.755000 0.225000 0.000000
v -1.643823 0.369889 0.000000
v -1.680000 0.354904 0.000000
v -1.711066 0.331066 0.000000
v -1.734904 0.300000 0.000000
v -1.749889 0.263823 0.000000
v 1.605000 -0.375000 0.000000
v 1.755000 -0.225000 0.000000
v 1.643823 -0.369889 0.000000
v 1.680000 -0.354904 0.000000
v 1.711066 -0.331066 0.000000
v 1.734904 -0.300000 0.000000
v 1.749889 -0.263823 0.000000
v 1.755000 0.225000 0.000000
v 1.605000 0.375000 0.000000
v 1.749889 0.263823 0.000000
v 1.734904 0.300000 0.000000
v 1.711066 0.331066 0.000000
v 1.680000 0.354904 0.000000
v 1.643823 0.369889 0.000000
v -1.602542 -0.337500 0.000000
v -1.634033 -0.333354 0.000000
v -1.661088 -0.322148 0.000000
v -1.684321 -0.304321 0.000000
v -1.702148 -0.281088 0.000000
v -1.713354 -0.254033 0.000000
v -1.717500 -0.222542 0.000000
v -1.634033 0.333354 0.000000
v -1.602542 0.337500 0.000000
v -1.661088 0.322148 0.000000
v -1.684321 0.304321 0.000000
v -1.702148 0.281088 0.000000
v -1.713354 0.254033 0.000000
v -1.717500 0.222542 0.000000
v 1.634034 -0.333354 0.000000
v 1.602542 -0.337500 0.000000
v 1.661088 -0.322148 0.000000
v 1.684321 -0.304321 0.000000
v 1.702148 -0.281088 0.000000
v 1.713354 -0.254033 0.000000
v 1.717500 -0.222542 0.000000
v 1.602542 0.337500 0.000000
v 1.634034 0.333354 0.000000
v 1.661088 0.322148 0.000000
v 1.684321 0.304321 0.000000
v 1.702148 0.281088 0.000000
v 1.713354 0.254033 0.000000
v 1.717500 0.222542 0.000000
vn 0.0000 0.0000 1.0000
usemtl Material.005
s off
f 58//2 30//2 57//2
f 58//2 34//2 35//2
f 60//2 34//2 59//2
f 61//2 33//2 60//2
f 62//2 32//2 61//2
f 62//2 29//2 31//2
f 64//2 36//2 38//2
f 64//2 39//2 66//2
f 66//2 40//2 67//2
f 67//2 41//2 68//2
f 69//2 41//2 42//2
f 69//2 37//2 70//2
f 70//2 29//2 63//2
f 71//2 43//2 45//2
f 71//2 46//2 73//2
f 73//2 47//2 74//2
f 74//2 48//2 75//2
f 76//2 48//2 49//2
f 76//2 44//2 77//2
f 79//2 51//2 78//2
f 79//2 55//2 56//2
f 80//2 54//2 55//2
f 81//2 53//2 54//2
f 83//2 53//2 82//2
f 83//2 50//2 52//2
f 77//2 50//2 84//2
f 78//2 36//2 65//2
f 57//2 43//2 72//2
f 58//2 35//2 30//2
f 58//2 59//2 34//2
f 60//2 33//2 34//2
f 61//2 32//2 33//2
f 62//2 31//2 32//2
f 62//2 63//2 29//2
f 64//2 65//2 36//2
f 64//2 38//2 39//2
f 66//2 39//2 40//2
f 67//2 40//2 41//2
f 69//2 68//2 41//2
f 69//2 42//2 37//2
f 70//2 37//2 29//2
f 71//2 72//2 43//2
f 71//2 45//2 46//2
f 73//2 46//2 47//2
f 74//2 47//2 48//2
f 76//2 75//2 48//2
f 76//2 49//2 44//2
f 79//2 56//2 51//2
f 79//2 80//2 55//2
f 80//2 81//2 54//2
f 81//2 82//2 53//2
f 83//2 52//2 53//2
f 83//2 84//2 50//2
f 77//2 44//2 50//2
f 78//2 51//2 36//2
f 57//2 30//2 43//2
