# Blender v2.79 (sub 0) OBJ File: ''
# www.blender.org
o screen
v -0.113820 2.279002 -0.474645
v -0.112974 2.279259 -0.486596
v -0.107314 2.280977 -0.505034
v -0.110678 2.279956 -0.496888
v -0.113820 2.279002 0.474646
v 0.425883 2.442759 0.474646
v 0.425883 2.442759 -0.474645
v 0.422742 2.441805 -0.496888
v 0.425037 2.442502 -0.486596
v 0.415748 2.439683 -0.510207
v 0.419377 2.440784 -0.505034
v -0.098096 2.283774 -0.513000
v -0.100970 2.282902 -0.512297
v 0.425037 2.442502 0.486597
v 0.415748 2.439683 0.510208
v 0.419377 2.440784 0.505034
v -0.107314 2.280977 0.505035
v -0.110678 2.279956 0.496889
v -0.103685 2.282078 0.510208
v 0.101256 2.344261 -0.513000
v 0.410160 2.437987 0.513000
v 0.413033 2.438859 0.512298
v -0.098096 2.283774 0.513000
v -0.100970 2.282902 0.512297
v 0.410160 2.437987 -0.513000
v -0.112974 2.279259 0.486597
v -0.103685 2.282078 -0.510207
v 0.379154 2.428580 0.513000
v 0.422742 2.441805 0.496889
v 0.413033 2.438859 -0.512297
vt 0.104987 0.636248
vt 0.150718 0.840226
vt 0.035962 0.840226
vt 0.150538 0.641701
vt 0.150718 0.644169
vt 0.147375 0.636248
vt 0.150538 0.842694
vt 0.147375 0.848147
vt 0.150050 0.844820
vt 0.149335 0.846502
vt 0.148563 0.847571
vt 0.147986 0.848002
vt 0.045898 0.848147
vt 0.039305 0.848147
vt 0.036630 0.844820
vt 0.038695 0.848002
vt 0.038117 0.847571
vt 0.150050 0.639575
vt 0.148563 0.636824
vt 0.149335 0.637893
vt 0.147986 0.636393
vt 0.038695 0.636393
vt 0.039305 0.636248
vt 0.038117 0.636824
vt 0.035962 0.644169
vt 0.037345 0.846502
vt 0.036142 0.842694
vt 0.036142 0.641701
vt 0.036630 0.639575
vt 0.037345 0.637893
vn -0.2903 0.9569 -0.0000
vn -0.2904 0.9569 0.0000
vn -0.2903 0.9569 -0.0001
vn -0.2904 0.9569 0.0001
vn -0.2905 0.9569 -0.0002
vn -0.2903 0.9569 0.0001
vn -0.2904 0.9569 -0.0001
vn -0.2905 0.9569 0.0000
vn -0.2905 0.9569 -0.0001
vn -0.2905 0.9569 0.0001
s 1
f 20/1/1 5/2/1 6/3/1
f 2/4/1 1/5/1 12/6/2
f 1/5/1 5/2/1 20/1/1
f 5/2/1 26/7/1 23/8/2
f 26/7/1 18/9/3 23/8/2
f 18/9/3 17/10/4 23/8/2
f 17/10/4 19/11/2 23/8/2
f 19/11/2 24/12/2 23/8/2
f 28/13/1 21/14/2 29/15/1
f 21/14/2 22/16/5 15/17/4
f 23/8/2 28/13/1 5/2/1
f 4/18/6 2/4/1 12/6/2
f 1/5/1 20/1/1 12/6/2
f 27/19/2 3/20/7 12/6/2
f 3/20/7 4/18/6 12/6/2
f 12/6/2 13/21/2 27/19/2
f 30/22/8 25/23/2 10/24/7
f 25/23/2 20/1/1 7/25/1
f 21/14/2 15/17/4 16/26/9
f 29/15/1 21/14/2 16/26/9
f 29/15/1 14/27/1 28/13/1
f 14/27/1 6/3/1 28/13/1
f 6/3/1 7/25/1 20/1/1
f 7/25/1 9/28/1 25/23/2
f 9/28/1 8/29/1 25/23/2
f 8/29/1 11/30/10 25/23/2
f 11/30/10 10/24/7 25/23/2
f 6/3/1 5/2/1 28/13/1
o border
v 0.440237 2.447114 0.475200
v -0.128174 2.274647 0.475200
v -0.128174 2.274647 -0.475200
v 0.101256 2.344261 -0.528000
v 0.411817 2.438490 -0.528000
v 0.419172 2.440722 -0.526201
v 0.411817 2.438490 0.528000
v 0.379154 2.428580 0.528000
v 0.419172 2.440722 0.526201
v 0.426027 2.442802 -0.520926
v 0.431913 2.444588 -0.512535
v 0.426027 2.442802 0.520926
v 0.431913 2.444588 0.512535
v 0.436430 2.445958 -0.501600
v 0.439269 2.446820 -0.488866
v 0.436430 2.445958 0.501600
v 0.439269 2.446820 0.488866
v 0.440237 2.447114 -0.475200
v -0.099753 2.283271 0.528000
v -0.099753 2.283271 -0.528000
v -0.107109 2.281039 0.526201
v -0.113964 2.278959 0.520926
v -0.107109 2.281039 -0.526201
v -0.113964 2.278959 -0.520926
v -0.119850 2.277173 0.512535
v -0.124366 2.275803 0.501600
v -0.119850 2.277173 -0.512535
v -0.124366 2.275803 -0.501600
v -0.127206 2.274941 0.488866
v -0.127206 2.274941 -0.488866
v -0.113820 2.279002 -0.474645
v -0.112974 2.279259 -0.486596
v -0.107314 2.280977 -0.505034
v -0.110678 2.279956 -0.496888
v -0.113820 2.279002 0.474646
v 0.425883 2.442759 0.474646
v 0.425883 2.442759 -0.474645
v 0.422742 2.441805 -0.496888
v 0.425037 2.442502 -0.486596
v 0.415748 2.439683 -0.510207
v 0.419377 2.440784 -0.505034
v -0.098096 2.283774 -0.513000
v -0.100970 2.282902 -0.512297
v 0.425037 2.442502 0.486597
v 0.415748 2.439683 0.510208
v 0.419377 2.440784 0.505034
v -0.107314 2.280977 0.505035
v -0.110678 2.279956 0.496889
v -0.103685 2.282078 0.510208
v 0.101256 2.344261 -0.513000
v 0.410160 2.437987 0.513000
v 0.413033 2.438859 0.512298
v -0.098096 2.283774 0.513000
v -0.100970 2.282902 0.512297
v 0.410160 2.437987 -0.513000
v -0.112974 2.279259 0.486597
v -0.103685 2.282078 -0.510207
v 0.379154 2.428580 0.513000
v 0.422742 2.441805 0.496889
v 0.413033 2.438859 -0.512297
vt 0.150538 0.641701
vt 0.153770 0.644054
vt 0.150718 0.644169
vt 0.149335 0.637893
vt 0.152961 0.638602
vt 0.150050 0.639575
vt 0.153770 0.840341
vt 0.150718 0.840226
vt 0.035962 0.840226
vt 0.032910 0.644054
vt 0.035962 0.644169
vt 0.036630 0.639575
vt 0.033116 0.641232
vt 0.033720 0.638602
vt 0.038117 0.636824
vt 0.034680 0.636343
vt 0.035932 0.634611
vt 0.147986 0.636393
vt 0.147727 0.633150
vt 0.149291 0.633521
vt 0.036142 0.842694
vt 0.032910 0.840341
vt 0.038117 0.847571
vt 0.034680 0.848051
vt 0.037345 0.846502
vt 0.153564 0.641232
vt 0.149335 0.846502
vt 0.152961 0.845793
vt 0.152000 0.848051
vt 0.148563 0.847571
vt 0.150749 0.849784
vt 0.036142 0.641701
vt 0.147375 0.636248
vt 0.104987 0.633150
vt 0.038695 0.848002
vt 0.038953 0.851245
vt 0.037389 0.850874
vt 0.147986 0.848002
vt 0.147727 0.851245
vt 0.147375 0.848147
vt 0.037345 0.637893
vt 0.039305 0.636248
vt 0.104987 0.636248
vt 0.035932 0.849784
vt 0.150538 0.842694
vt 0.153564 0.843163
vt 0.148563 0.636824
vt 0.152000 0.636343
vt 0.150050 0.844820
vt 0.045898 0.851245
vt 0.045898 0.848147
vt 0.033720 0.845793
vt 0.036630 0.844820
vt 0.033116 0.843163
vt 0.038695 0.636393
vt 0.037389 0.633521
vt 0.150749 0.634611
vt 0.149291 0.850874
vt 0.039305 0.848147
vt 0.038953 0.633150
vn -0.2904 0.9569 0.0000
vn -0.2903 0.9569 0.0000
s 1
f 62/31/11 33/32/12 61/33/12
f 63/34/12 58/35/12 64/36/12
f 61/33/12 32/37/12 65/38/12
f 66/39/12 48/40/11 67/41/12
f 68/42/12 45/43/11 44/44/12
f 70/45/11 41/46/12 40/47/11
f 73/48/11 50/49/11 53/50/11
f 74/51/11 31/52/12 66/39/12
f 75/53/11 43/54/12 76/55/12
f 64/36/12 60/56/11 62/31/11
f 77/57/12 56/58/12 55/59/12
f 79/60/11 55/59/12 52/61/11
f 69/62/11 48/40/11 45/43/11
f 72/63/11 34/64/12 50/49/11
f 82/65/11 37/66/11 39/67/11
f 84/68/11 49/69/11 83/70/11
f 71/71/12 44/44/12 41/46/12
f 85/72/11 34/64/12 80/73/12
f 82/65/11 42/74/11 75/53/11
f 86/75/12 32/37/12 59/76/12
f 87/77/11 57/78/12 63/34/12
f 78/79/12 59/76/12 56/58/12
f 83/70/11 38/80/12 88/81/12
f 76/55/12 46/82/12 89/83/12
f 89/83/12 47/84/11 74/51/11
f 90/85/11 40/47/11 36/86/11
f 73/48/11 54/87/11 87/77/11
f 84/68/11 52/61/11 51/88/11
f 81/89/11 38/80/12 37/66/11
f 90/85/11 35/90/11 85/72/11
f 62/31/11 60/56/11 33/32/12
f 63/34/12 57/78/12 58/35/12
f 61/33/12 33/32/12 32/37/12
f 66/39/12 31/52/12 48/40/11
f 68/42/12 69/62/11 45/43/11
f 70/45/11 71/71/12 41/46/12
f 73/48/11 72/63/11 50/49/11
f 74/51/11 47/84/11 31/52/12
f 75/53/11 42/74/11 43/54/12
f 64/36/12 58/35/12 60/56/11
f 77/57/12 78/79/12 56/58/12
f 79/60/11 77/57/12 55/59/12
f 69/62/11 67/41/12 48/40/11
f 72/63/11 80/73/12 34/64/12
f 82/65/11 81/89/11 37/66/11
f 84/68/11 51/88/11 49/69/11
f 71/71/12 68/42/12 44/44/12
f 85/72/11 35/90/11 34/64/12
f 82/65/11 39/67/11 42/74/11
f 86/75/12 65/38/12 32/37/12
f 87/77/11 54/87/11 57/78/12
f 78/79/12 86/75/12 59/76/12
f 83/70/11 49/69/11 38/80/12
f 76/55/12 43/54/12 46/82/12
f 89/83/12 46/82/12 47/84/11
f 90/85/11 70/45/11 40/47/11
f 73/48/11 53/50/11 54/87/11
f 84/68/11 79/60/11 52/61/11
f 81/89/11 88/81/12 38/80/12
f 90/85/11 36/86/11 35/90/11
o base
v -0.539462 2.067874 0.560636
v -0.547806 1.986000 0.547806
v -0.416029 2.187307 0.579352
v -0.519984 2.107093 -0.566782
v -0.491532 2.141557 -0.572183
v -0.416029 2.187307 -0.579352
v 0.604846 2.350000 -0.604847
v 0.236592 -0.200000 0.236592
v 0.236592 -0.200000 -0.236592
v 0.604790 2.387075 -0.610656
v 0.604846 2.350000 0.604847
v 0.592275 2.418126 -0.615522
v 0.604790 2.387075 0.610656
v 0.567994 2.441039 -0.619113
v 0.592275 2.418126 0.615522
v 0.533626 2.454250 -0.621183
v 0.567994 2.441039 0.619113
v 0.491715 2.456861 0.621592
v 0.533626 2.454251 0.621183
v 0.445443 2.448693 -0.620312
v 0.491715 2.456861 -0.621592
v 0.440237 2.447114 0.475200
v 0.445443 2.448693 0.620312
v -0.416029 2.187307 0.579352
v -0.456021 2.168916 -0.576470
v -0.456021 2.168916 0.576470
v -0.491532 2.141557 0.572183
v -0.491532 2.141557 -0.572183
v -0.519984 2.107093 -0.566782
v -0.519984 2.107093 0.566782
v -0.539462 2.067874 -0.560636
v -0.539462 2.067874 0.560636
v -0.548841 2.026571 -0.554164
v -0.548841 2.026571 0.554164
v -0.547806 1.986000 -0.547806
v -0.547806 1.986000 0.547806
v -0.236592 -0.200000 0.236592
v -0.236592 -0.200000 -0.236592
v -0.128174 2.274647 0.475200
v -0.128174 2.274647 -0.475200
v -0.416029 2.187307 -0.579352
v -0.456021 2.168916 0.576470
v -0.491532 2.141557 0.572183
v -0.519984 2.107093 0.566782
v -0.548841 2.026571 0.554164
v -0.236592 -0.200000 0.236592
v 0.236592 -0.200000 0.236592
v 0.604846 2.350000 0.604847
v 0.604790 2.387075 0.610656
v 0.533626 2.454251 0.621183
v 0.592275 2.418126 0.615522
v 0.567994 2.441039 0.619113
v 0.491715 2.456861 0.621592
v 0.445443 2.448693 0.620312
v -0.456021 2.168916 -0.576470
v 0.445443 2.448693 -0.620312
v 0.604846 2.350000 -0.604847
v 0.491715 2.456861 -0.621592
v 0.533626 2.454250 -0.621183
v 0.567994 2.441039 -0.619113
v 0.604790 2.387075 -0.610656
v 0.592275 2.418126 -0.615522
v 0.236592 -0.200000 -0.236592
v -0.547806 1.986000 -0.547806
v -0.236592 -0.200000 -0.236592
v -0.548841 2.026571 -0.554164
v -0.539462 2.067874 -0.560636
v 0.101256 2.344261 -0.528000
v 0.411817 2.438490 -0.528000
v 0.419172 2.440722 -0.526201
v 0.411817 2.438490 0.528000
v 0.379154 2.428580 0.528000
v 0.419172 2.440722 0.526201
v 0.426027 2.442802 -0.520926
v 0.431913 2.444588 -0.512535
v 0.426027 2.442802 0.520926
v 0.431913 2.444588 0.512535
v 0.436430 2.445958 -0.501600
v 0.439269 2.446820 -0.488866
v 0.436430 2.445958 0.501600
v 0.439269 2.446820 0.488866
v 0.440237 2.447114 -0.475200
v -0.099753 2.283271 0.528000
v -0.099753 2.283271 -0.528000
v -0.107109 2.281039 0.526201
v -0.113964 2.278959 0.520926
v -0.107109 2.281039 -0.526201
v -0.113964 2.278959 -0.520926
v -0.119850 2.277173 0.512535
v -0.124366 2.275803 0.501600
v -0.119850 2.277173 -0.512535
v -0.124366 2.275803 -0.501600
v -0.127206 2.274941 0.488866
v -0.127206 2.274941 -0.488866
vt 0.517206 0.513945
vt 0.517921 0.495093
vt 0.538948 0.544412
vt 0.279703 0.113897
vt 0.284509 0.105296
vt 0.298617 0.092874
vt 0.259600 0.579005
vt 0.085818 0.006815
vt 0.183544 0.006815
vt 0.260800 0.587406
vt 0.009762 0.579005
vt 0.261805 0.594630
vt 0.008562 0.587406
vt 0.262546 0.600189
vt 0.007557 0.594630
vt 0.013559 0.613905
vt 0.006816 0.870063
vt 0.006815 0.614332
vt 0.022105 0.870575
vt 0.013559 0.870491
vt 0.031803 0.614084
vt 0.022105 0.613820
vt 0.032910 0.840341
vt 0.031803 0.870311
vt 0.214976 0.861851
vt 0.223629 0.623139
vt 0.223629 0.861256
vt 0.231575 0.860370
vt 0.231575 0.624025
vt 0.993185 0.528825
vt 0.757954 0.520355
vt 0.992069 0.520355
vt 0.759223 0.511032
vt 0.990800 0.511032
vt 0.760560 0.501486
vt 0.989463 0.501486
vt 0.761873 0.492359
vt 0.988150 0.492359
vt 0.923875 0.006815
vt 0.826148 0.006815
vt 0.153770 0.840341
vt 0.153770 0.644054
vt 0.214976 0.622544
vt 0.531303 0.539162
vt 0.524840 0.531990
vt 0.520034 0.523389
vt 0.516508 0.504297
vt 0.646299 0.006815
vt 0.743208 0.019430
vt 0.743208 0.608647
vt 0.742098 0.617082
vt 0.725534 0.630470
vt 0.738616 0.623814
vt 0.732964 0.628380
vt 0.716874 0.629947
vt 0.707639 0.626855
vt 0.290972 0.098124
vt 0.467308 0.010431
vt 0.502877 0.028638
vt 0.476543 0.007339
vt 0.485204 0.006815
vt 0.492633 0.008906
vt 0.501768 0.020204
vt 0.498285 0.013472
vt 0.502877 0.617856
vt 0.277591 0.142193
vt 0.405968 0.630470
vt 0.276177 0.132989
vt 0.276875 0.123340
vt 0.006815 0.600189
vt 0.104987 0.633150
vt 0.038953 0.633150
vt 0.037389 0.633521
vt 0.038953 0.851245
vt 0.045898 0.851245
vt 0.037389 0.850874
vt 0.035932 0.634611
vt 0.034680 0.636343
vt 0.035932 0.849784
vt 0.034680 0.848051
vt 0.033720 0.638602
vt 0.033116 0.641232
vt 0.033720 0.845793
vt 0.033116 0.843163
vt 0.032910 0.644054
vt 0.756839 0.528825
vt 0.147727 0.851245
vt 0.147727 0.633150
vt 0.149291 0.850874
vt 0.150749 0.849784
vt 0.149291 0.633521
vt 0.150749 0.634611
vt 0.152000 0.848051
vt 0.152961 0.845793
vt 0.152000 0.636343
vt 0.152961 0.638602
vt 0.153564 0.843163
vt 0.153564 0.641232
vn 0.0000 -0.1548 0.9879
vn -0.0020 -0.1476 0.9891
vn 0.0000 -0.1548 -0.9879
vn 0.9979 -0.0641 0.0000
vn 0.9897 -0.1429 0.0000
vn 0.9779 0.2093 0.0000
vn 0.8159 0.5782 0.0000
vn 0.5238 0.8519 0.0000
vn 0.2098 0.9778 -0.0000
vn 0.5238 0.8518 -0.0000
vn -0.0556 0.9985 -0.0000
vn -0.2311 0.9729 0.0000
vn -0.2903 0.9569 0.0000
vn -0.3526 0.9358 0.0000
vn -0.5123 0.8588 0.0000
vn -0.6895 0.7243 0.0000
vn -0.8336 0.5523 0.0000
vn -0.9383 0.3459 0.0000
vn -0.9938 0.1109 0.0000
vn -0.9970 -0.0780 -0.0000
vn -0.9900 -0.1409 -0.0000
vn 0.0001 -0.1548 0.9879
vn 0.0000 -0.1409 0.9900
vn -0.0011 -0.1413 0.9900
vn -0.0015 -0.1502 0.9887
vn -0.0015 -0.1502 -0.9887
vn -0.0011 -0.1413 -0.9900
vn -0.0020 -0.1476 -0.9891
vn 0.0000 -0.1409 -0.9900
vn 0.0001 -0.1548 -0.9879
vn -0.2904 0.9569 0.0000
vn -0.2905 0.9569 -0.0000
vn -0.2904 0.9569 -0.0002
vn -0.2904 0.9569 0.0002
s 1
f 91/91/13 92/92/14 93/93/13
f 94/94/15 95/95/15 96/96/15
f 97/97/16 98/98/17 99/99/17
f 100/100/18 101/101/16 97/97/16
f 102/102/19 103/103/18 100/100/18
f 104/104/20 105/105/19 102/102/19
f 106/106/21 107/107/22 104/108/20
f 106/106/21 108/109/23 109/110/21
f 110/111/24 108/109/23 111/112/23
f 110/111/24 112/113/25 113/114/24
f 114/115/26 115/116/27 116/117/27
f 117/118/28 115/116/27 118/119/28
f 117/120/28 119/121/29 120/122/29
f 120/122/29 121/123/30 122/124/30
f 122/124/30 123/125/31 124/126/31
f 124/126/31 125/127/32 126/128/32
f 127/129/33 125/127/32 128/130/33
f 129/131/25 130/132/25 131/133/26
f 93/93/13 132/134/13 133/135/13
f 133/135/13 134/136/13 93/93/13
f 134/136/13 91/91/13 93/93/13
f 91/91/13 135/137/34 92/92/14
f 92/92/14 136/138/35 137/139/36
f 137/139/36 138/140/37 92/92/14
f 138/140/37 139/141/13 140/142/13
f 92/92/14 138/140/37 93/93/13
f 139/141/13 141/143/13 142/144/13
f 142/144/13 140/142/13 139/141/13
f 140/142/13 143/145/13 138/140/37
f 143/145/13 144/146/13 138/140/37
f 144/146/13 93/93/13 138/140/37
f 145/147/15 96/96/15 95/95/15
f 96/96/15 146/148/15 147/149/38
f 146/148/15 148/150/15 147/149/38
f 148/150/15 149/151/15 147/149/38
f 149/151/15 150/152/15 151/153/15
f 150/152/15 152/154/15 151/153/15
f 151/153/15 147/149/38 149/151/15
f 147/149/38 153/155/39 154/156/40
f 153/155/39 155/157/41 154/156/40
f 147/149/38 154/156/40 96/96/15
f 154/156/40 156/158/42 157/159/15
f 157/159/15 94/94/15 96/96/15
f 154/156/40 157/159/15 96/96/15
f 97/97/16 101/101/16 98/98/17
f 100/100/18 103/103/18 101/101/16
f 102/102/19 105/105/19 103/103/18
f 104/104/20 107/160/22 105/105/19
f 106/106/21 109/110/21 107/107/22
f 106/106/21 111/112/23 108/109/23
f 110/111/24 113/114/24 108/109/23
f 110/111/24 158/161/25 159/162/43
f 110/111/24 159/162/43 160/163/43
f 161/164/43 162/165/25 113/114/24
f 163/166/43 161/164/43 113/114/24
f 110/111/24 160/163/43 164/167/43
f 110/111/24 164/167/43 165/168/25
f 166/169/43 163/166/43 113/114/24
f 167/170/25 166/169/43 113/114/24
f 110/111/24 165/168/25 168/171/44
f 110/111/24 168/171/44 169/172/44
f 170/173/44 167/170/25 113/114/24
f 171/174/44 170/173/44 113/114/24
f 110/111/24 169/172/44 172/175/25
f 112/113/25 171/174/44 113/114/24
f 110/111/24 172/175/25 112/113/25
f 114/115/26 131/133/26 115/116/27
f 117/118/28 116/117/27 115/116/27
f 117/120/28 118/176/28 119/121/29
f 120/122/29 119/121/29 121/123/30
f 122/124/30 121/123/30 123/125/31
f 124/126/31 123/125/31 125/127/32
f 127/129/33 126/128/32 125/127/32
f 114/115/26 113/114/24 173/177/25
f 113/114/24 162/165/25 173/177/25
f 158/161/25 110/111/24 174/178/25
f 110/111/24 131/133/26 174/178/25
f 114/115/26 173/177/25 175/179/45
f 114/115/26 175/179/45 176/180/25
f 177/181/46 174/178/25 131/133/26
f 178/182/25 177/181/46 131/133/26
f 114/115/26 176/180/25 179/183/25
f 114/115/26 179/183/25 180/184/25
f 181/185/25 178/182/25 131/133/26
f 182/186/25 181/185/25 131/133/26
f 131/133/26 114/115/26 129/131/25
f 114/115/26 180/184/25 183/187/43
f 114/115/26 183/187/43 129/131/25
f 184/188/43 182/186/25 131/133/26
f 130/132/25 184/188/43 131/133/26
