# Blender v2.79 (sub 0) OBJ File: 'screen.blend'
# www.blender.org
mtllib screen.mtl
o screen
v -3.686892 -2.050000 0.050000
v 3.686892 -2.050000 0.050000
v 3.725435 -2.044926 0.050000
v 3.749137 -2.035108 0.050000
v 3.769491 -2.019490 0.050000
v 3.785108 -1.999138 0.050000
v 3.794926 -1.975436 0.050000
v 3.800000 -1.936891 0.050000
v 3.800000 1.936891 0.050000
v 3.794926 1.975435 0.050000
v 3.785108 1.999137 0.050000
v 3.769490 2.019490 0.050000
v 3.749137 2.035108 0.050000
v 3.725435 2.044925 0.050000
v 3.686891 2.050000 0.050000
v -3.686891 2.050000 0.050000
v -3.725435 2.044926 0.050000
v -3.749137 2.035108 0.050000
v -3.769490 2.019490 0.050000
v -3.785108 1.999137 0.050000
v -3.794926 1.975435 0.050000
v -3.800000 1.936892 0.050000
v -3.800000 -1.936891 0.050000
v -3.794926 -1.975435 0.050000
v -3.785108 -1.999137 0.050000
v -3.769490 -2.019490 0.050000
v -3.749137 -2.035108 0.050000
v -3.725435 -2.044926 0.050000
vn 0.0000 0.0000 1.0000
usemtl None
s off
f 1//1 2//1 3//1 4//1 5//1 6//1 7//1 8//1 9//1 10//1 11//1 12//1 13//1 14//1 15//1 16//1 17//1 18//1 19//1 20//1 21//1 22//1 23//1 24//1 25//1 26//1 27//1 28//1
o border
v -3.686892 -2.050000 0.050000
v 3.686892 -2.050000 0.050000
v 3.725435 -2.044926 0.050000
v 3.749137 -2.035108 0.050000
v 3.769491 -2.019490 0.050000
v 3.785108 -1.999138 0.050000
v 3.794926 -1.975436 0.050000
v 3.800000 -1.936891 0.050000
v 3.800000 1.936891 0.050000
v 3.794926 1.975435 0.050000
v 3.785108 1.999137 0.050000
v 3.769490 2.019490 0.050000
v 3.749137 2.035108 0.050000
v 3.725435 2.044925 0.050000
v 3.686891 2.050000 0.050000
v -3.686891 2.050000 0.050000
v -3.725435 2.044926 0.050000
v -3.749137 2.035108 0.050000
v -3.769490 2.019490 0.050000
v -3.785108 1.999137 0.050000
v -3.794926 1.975435 0.050000
v -3.800000 1.936892 0.050000
v -3.800000 -1.936891 0.050000
v -3.794926 -1.975435 0.050000
v -3.785108 -1.999137 0.050000
v -3.769490 -2.019490 0.050000
v -3.749137 -2.035108 0.050000
v -3.725435 -2.044926 0.050000
v 3.693446 -2.150000 0.050000
v -3.693446 -2.150000 0.050000
v 3.751540 -2.142352 0.050000
v 3.799569 -2.122458 0.050000
v 3.840812 -2.090811 0.050000
v 3.872458 -2.049569 0.050000
v 3.892352 -2.001541 0.050000
v 3.900000 -1.943446 0.050000
v 3.900000 1.943445 0.050000
v 3.892352 2.001540 0.050000
v 3.872458 2.049569 0.050000
v 3.840811 2.090811 0.050000
v 3.799569 2.122458 0.050000
v 3.751540 2.142351 0.050000
v 3.693446 2.150000 0.050000
v -3.693446 2.150000 0.050000
v -3.751541 2.142352 0.050000
v -3.799569 2.122458 0.050000
v -3.840811 2.090811 0.050000
v -3.872458 2.049568 0.050000
v -3.892352 2.001541 0.050000
v -3.900000 1.943446 0.050000
v -3.900000 -1.943446 0.050000
v -3.892352 -2.001541 0.050000
v -3.872458 -2.049569 0.050000
v -3.840811 -2.090811 0.050000
v -3.799569 -2.122458 0.050000
v -3.751541 -2.142352 0.050000
vn 0.0000 0.0000 1.0000
usemtl None
s off
f 30//2 29//2 58//2 57//2
f 31//2 30//2 57//2 59//2
f 32//2 31//2 59//2 60//2
f 33//2 32//2 60//2 61//2
f 34//2 33//2 61//2 62//2
f 35//2 34//2 62//2 63//2
f 36//2 35//2 63//2 64//2
f 37//2 36//2 64//2 65//2
f 38//2 37//2 65//2 66//2
f 39//2 38//2 66//2 67//2
f 40//2 39//2 67//2 68//2
f 41//2 40//2 68//2 69//2
f 42//2 41//2 69//2 70//2
f 43//2 42//2 70//2 71//2
f 44//2 43//2 71//2 72//2
f 45//2 44//2 72//2 73//2
f 46//2 45//2 73//2 74//2
f 47//2 46//2 74//2 75//2
f 48//2 47//2 75//2 76//2
f 49//2 48//2 76//2 77//2
f 50//2 49//2 77//2 78//2
f 51//2 50//2 78//2 79//2
f 52//2 51//2 79//2 80//2
f 53//2 52//2 80//2 81//2
f 54//2 53//2 81//2 82//2
f 55//2 54//2 82//2 83//2
f 56//2 55//2 83//2 84//2
f 29//2 56//2 84//2 58//2
o edge
v -3.900000 -1.943446 0.100000
v -3.693446 -2.150000 0.100000
v -3.892352 -2.001541 0.100000
v -3.872458 -2.049569 0.100000
v -3.840811 -2.090811 0.100000
v -3.799569 -2.122458 0.100000
v -3.751541 -2.142352 0.100000
v -3.700000 -2.250000 -0.100000
v -4.000000 -1.950000 -0.100000
v -3.777646 -2.239778 -0.100000
v -3.850000 -2.209808 -0.100000
v -3.912132 -2.162132 -0.100000
v -3.959808 -2.100000 -0.100000
v -3.989778 -2.027646 -0.100000
v 3.900000 1.943445 0.100000
v 3.693446 2.150000 0.100000
v 3.892352 2.001540 0.100000
v 3.872458 2.049569 0.100000
v 3.840811 2.090811 0.100000
v 3.799569 2.122458 0.100000
v 3.751540 2.142351 0.100000
v 3.700000 2.250000 -0.100000
v 4.000000 1.950000 -0.100000
v 3.777646 2.239778 -0.100000
v 3.850000 2.209807 -0.100000
v 3.912132 2.162132 -0.100000
v 3.959808 2.100000 -0.100000
v 3.989778 2.027646 -0.100000
v 3.693446 -2.150000 0.100000
v 3.900000 -1.943446 0.100000
v 3.751540 -2.142352 0.100000
v 3.799569 -2.122458 0.100000
v 3.840812 -2.090811 0.100000
v 3.872458 -2.049569 0.100000
v 3.892352 -2.001541 0.100000
v 4.000000 -1.950000 -0.100000
v 3.700000 -2.250000 -0.100000
v 3.989778 -2.027646 -0.100000
v 3.959807 -2.100000 -0.100000
v 3.912132 -2.162132 -0.100000
v 3.850000 -2.209808 -0.100000
v 3.777646 -2.239778 -0.100000
v -3.693446 2.150000 0.100000
v -3.900000 1.943446 0.100000
v -3.751541 2.142352 0.100000
v -3.799569 2.122458 0.100000
v -3.840811 2.090811 0.100000
v -3.872458 2.049568 0.100000
v -3.892352 2.001541 0.100000
v -4.000000 1.950000 -0.100000
v -3.700000 2.250000 -0.100000
v -3.989778 2.027646 -0.100000
v -3.959808 2.100000 -0.100000
v -3.912132 2.162132 -0.100000
v -3.850000 2.209808 -0.100000
v -3.777646 2.239778 -0.100000
v -3.700000 -2.250000 0.100000
v -3.777646 -2.239778 0.100000
v -3.850000 -2.209808 0.100000
v -3.912132 -2.162132 0.100000
v -3.959808 -2.100000 0.100000
v -3.989778 -2.027646 0.100000
v -4.000000 -1.950000 0.100000
v 3.700000 2.250000 0.100000
v 3.777646 2.239778 0.100000
v 3.850000 2.209807 0.100000
v 3.912132 2.162132 0.100000
v 3.959807 2.100000 0.100000
v 3.989778 2.027646 0.100000
v 4.000000 1.950000 0.100000
v 3.777646 -2.239778 0.100000
v 3.700000 -2.250000 0.100000
v 3.850000 -2.209808 0.100000
v 3.912132 -2.162132 0.100000
v 3.959808 -2.100000 0.100000
v 3.989778 -2.027646 0.100000
v 4.000000 -1.950000 0.100000
v -3.777646 2.239778 0.100000
v -3.700000 2.250000 0.100000
v -3.850000 2.209808 0.100000
v -3.912132 2.162132 0.100000
v -3.959808 2.100000 0.100000
v -3.989778 2.027646 0.100000
v -4.000000 1.950000 0.100000
v -3.693446 -2.150000 0.100000
v 3.693446 -2.150000 0.100000
v 3.751540 -2.142352 0.100000
v 3.799569 -2.122458 0.100000
v 3.840812 -2.090811 0.100000
v 3.872458 -2.049569 0.100000
v 3.892352 -2.001541 0.100000
v 3.900000 -1.943446 0.100000
v 3.900000 1.943445 0.100000
v 3.892352 2.001540 0.100000
v 3.872458 2.049569 0.100000
v 3.840811 2.090811 0.100000
v 3.799569 2.122458 0.100000
v 3.751540 2.142351 0.100000
v 3.693446 2.150000 0.100000
v -3.693446 2.150000 0.100000
v -3.751541 2.142352 0.100000
v -3.799569 2.122458 0.100000
v -3.840811 2.090811 0.100000
v -3.872458 2.049568 0.100000
v -3.892352 2.001541 0.100000
v -3.900000 1.943446 0.100000
v -3.900000 -1.943446 0.100000
v -3.892352 -2.001541 0.100000
v -3.872458 -2.049569 0.100000
v -3.840811 -2.090811 0.100000
v -3.799569 -2.122458 0.100000
v -3.751541 -2.142352 0.100000
v 3.693446 -2.150000 0.050000
v -3.693446 -2.150000 0.050000
v 3.751540 -2.142352 0.050000
v 3.799569 -2.122458 0.050000
v 3.840812 -2.090811 0.050000
v 3.872458 -2.049569 0.050000
v 3.892352 -2.001541 0.050000
v 3.900000 -1.943446 0.050000
v 3.900000 1.943445 0.050000
v 3.892352 2.001540 0.050000
v 3.872458 2.049569 0.050000
v 3.840811 2.090811 0.050000
v 3.799569 2.122458 0.050000
v 3.751540 2.142351 0.050000
v 3.693446 2.150000 0.050000
v -3.693446 2.150000 0.050000
v -3.751541 2.142352 0.050000
v -3.799569 2.122458 0.050000
v -3.840811 2.090811 0.050000
v -3.872458 2.049568 0.050000
v -3.892352 2.001541 0.050000
v -3.900000 1.943446 0.050000
v -3.900000 -1.943446 0.050000
v -3.892352 -2.001541 0.050000
v -3.872458 -2.049569 0.050000
v -3.840811 -2.090811 0.050000
v -3.799569 -2.122458 0.050000
v -3.751541 -2.142352 0.050000
vt 0.801418 0.287507
vt 0.659574 0.287507
vt 0.659574 0.283121
vt 0.801418 0.283121
vt 0.659574 0.277749
vt 0.801418 0.277749
vt 0.659574 0.271758
vt 0.801418 0.271758
vt 0.659574 0.265555
vt 0.801418 0.265555
vt 0.659574 0.259564
vt 0.801418 0.259564
vt 0.659574 0.254192
vt 0.801418 0.254192
vt 0.198581 0.806266
vt 0.198581 0.647864
vt 0.203392 0.647864
vt 0.203392 0.806266
vt 0.208757 0.647864
vt 0.208757 0.806266
vt 0.214311 0.647864
vt 0.214311 0.806266
vt 0.219676 0.647864
vt 0.219676 0.806266
vt 0.224486 0.647864
vt 0.224486 0.806266
vt 0.146099 0.973583
vt 0.004255 0.973583
vt 0.004255 0.968012
vt 0.146099 0.968012
vt 0.659575 0.644295
vt 0.801418 0.644295
vt 0.801418 0.647396
vt 0.659575 0.647396
vt 0.004255 0.647864
vt 0.146099 0.647864
vt 0.146099 0.651940
vt 0.004255 0.651941
vt 0.146099 0.657088
vt 0.004255 0.657088
vt 0.146099 0.662955
vt 0.004255 0.662955
vt 0.146099 0.669144
vt 0.004255 0.669144
vt 0.146099 0.675231
vt 0.004255 0.675231
vt 0.809929 0.469727
vt 0.951773 0.469727
vt 0.951773 0.475098
vt 0.809929 0.475098
vt 0.951773 0.481090
vt 0.809929 0.481090
vt 0.951773 0.487292
vt 0.809929 0.487292
vt 0.951773 0.493284
vt 0.809929 0.493284
vt 0.951773 0.498655
vt 0.809929 0.498655
vt 0.659574 0.004752
vt 0.801418 0.004752
vt 0.801418 0.009138
vt 0.659574 0.009138
vt 0.951773 0.004752
vt 0.809929 0.004752
vt 0.650339 0.620750
vt 0.648213 0.626480
vt 0.644832 0.631401
vt 0.640426 0.635177
vt 0.635294 0.637551
vt 0.629787 0.638360
vt 0.353192 0.638360
vt 0.347685 0.637551
vt 0.342553 0.635177
vt 0.338147 0.631401
vt 0.334765 0.626480
vt 0.332640 0.620750
vt 0.331915 0.614600
vt 0.331915 0.028512
vt 0.332640 0.022363
vt 0.334765 0.016632
vt 0.338147 0.011711
vt 0.342553 0.007935
vt 0.347685 0.005562
vt 0.353191 0.004752
vt 0.629787 0.004752
vt 0.635294 0.005562
vt 0.640425 0.007935
vt 0.644832 0.011711
vt 0.648213 0.016632
vt 0.650339 0.022363
vt 0.651064 0.028512
vt 0.651064 0.614600
vt 0.316312 0.029031
vt 0.315770 0.024430
vt 0.322679 0.022363
vt 0.323404 0.028512
vt 0.314359 0.020626
vt 0.320554 0.016632
vt 0.312114 0.017360
vt 0.317172 0.011711
vt 0.309189 0.014854
vt 0.312766 0.007935
vt 0.305783 0.013278
vt 0.307634 0.005562
vt 0.301663 0.012672
vt 0.302128 0.004752
vt 0.011348 0.614081
vt 0.011890 0.618682
vt 0.004980 0.620750
vt 0.004255 0.614600
vt 0.013301 0.622486
vt 0.007106 0.626480
vt 0.015545 0.625752
vt 0.010487 0.631401
vt 0.018470 0.628259
vt 0.014894 0.635177
vt 0.021877 0.629834
vt 0.020025 0.637551
vt 0.025997 0.630440
vt 0.025532 0.638360
vt 0.315770 0.618682
vt 0.316312 0.614081
vt 0.323404 0.614600
vt 0.322679 0.620750
vt 0.314359 0.622486
vt 0.320554 0.626480
vt 0.312114 0.625752
vt 0.317172 0.631401
vt 0.309189 0.628259
vt 0.312766 0.635177
vt 0.305783 0.629834
vt 0.307634 0.637551
vt 0.301663 0.630440
vt 0.302128 0.638360
vt 0.011890 0.024430
vt 0.011348 0.029031
vt 0.004255 0.028512
vt 0.004980 0.022363
vt 0.013301 0.020626
vt 0.007106 0.016632
vt 0.015545 0.017360
vt 0.010487 0.011711
vt 0.018470 0.014854
vt 0.014894 0.007935
vt 0.021877 0.013278
vt 0.020025 0.005562
vt 0.025997 0.012672
vt 0.025532 0.004752
vt 0.000000 0.000000
vt 0.000000 0.000000
vt 0.000000 0.000000
vt 0.000000 0.000000
vt 0.000000 0.000000
vt 0.000000 0.000000
vt 0.000000 0.000000
vt 0.000000 0.000000
vt 0.000000 0.000000
vt 0.000000 0.000000
vt 0.000000 0.000000
vt 0.000000 0.000000
vt 0.000000 0.000000
vt 0.000000 0.000000
vt 0.000000 0.000000
vt 0.000000 0.000000
vt 0.000000 0.000000
vt 0.000000 0.000000
vt 0.000000 0.000000
vt 0.000000 0.000000
vt 0.000000 0.000000
vt 0.000000 0.000000
vt 0.000000 0.000000
vt 0.000000 0.000000
vt 0.000000 0.000000
vt 0.000000 0.000000
vt 0.000000 0.000000
vt 0.000000 0.000000
vt 0.000000 0.000000
vt 0.000000 0.000000
vt 0.000000 0.000000
vt 0.000000 0.000000
vt 0.000000 0.000000
vt 0.000000 0.000000
vt 0.000000 0.000000
vt 0.000000 0.000000
vt 0.000000 0.000000
vt 0.000000 0.000000
vt 0.000000 0.000000
vt 0.000000 0.000000
vt 0.000000 0.000000
vt 0.000000 0.000000
vt 0.000000 0.000000
vt 0.000000 0.000000
vt 0.000000 0.000000
vt 0.000000 0.000000
vt 0.000000 0.000000
vt 0.000000 0.000000
vt 0.000000 0.000000
vt 0.000000 0.000000
vt 0.000000 0.000000
vt 0.000000 0.000000
vt 0.000000 0.000000
vt 0.000000 0.000000
vt 0.000000 0.000000
vt 0.000000 0.000000
vt 0.809929 0.531097
vt 0.845390 0.531097
vt 0.845390 0.995248
vt 0.809929 0.995248
vt 0.809929 0.527078
vt 0.845390 0.527078
vt 0.809929 0.523101
vt 0.845390 0.523101
vt 0.809929 0.518984
vt 0.845390 0.518984
vt 0.809929 0.515007
vt 0.845390 0.515007
vt 0.809929 0.511441
vt 0.845390 0.511441
vt 0.809929 0.508159
vt 0.845390 0.508159
vt 0.960284 0.386166
vt 0.995745 0.386166
vt 0.995745 0.630396
vt 0.960284 0.630396
vt 0.960284 0.382147
vt 0.995745 0.382147
vt 0.960284 0.378170
vt 0.995745 0.378170
vt 0.960284 0.374053
vt 0.995745 0.374052
vt 0.960284 0.370075
vt 0.995745 0.370075
vt 0.960284 0.366510
vt 0.995745 0.366510
vt 0.960284 0.363228
vt 0.995745 0.363228
vt 0.960284 0.007072
vt 0.995745 0.007072
vt 0.960284 0.004752
vt 0.995745 0.004752
vt 0.190071 0.650570
vt 0.154610 0.650570
vt 0.154610 0.647864
vt 0.190071 0.647864
vt 0.190071 0.653987
vt 0.154610 0.653987
vt 0.190071 0.657882
vt 0.154610 0.657882
vt 0.190071 0.661989
vt 0.154610 0.661989
vt 0.190071 0.666544
vt 0.154610 0.666544
vt 0.190071 0.958341
vt 0.154610 0.958341
vt 0.190071 0.962509
vt 0.154610 0.962509
vt 0.236190 0.647864
vt 0.236190 0.687465
vt 0.232997 0.687465
vt 0.232997 0.647864
vt 0.239751 0.647864
vt 0.239751 0.687465
vt 0.243438 0.647864
vt 0.243438 0.687465
vt 0.246999 0.647864
vt 0.246999 0.687465
vt 0.250598 0.647864
vt 0.250598 0.687465
vn -0.1305 -0.9914 0.0000
vn -0.3827 -0.9239 0.0000
vn -0.6088 -0.7934 0.0000
vn -0.7934 -0.6088 0.0000
vn -0.9239 -0.3827 0.0000
vn -0.9914 -0.1305 0.0000
vn 0.1305 0.9914 0.0000
vn 0.3827 0.9239 0.0000
vn 0.6088 0.7934 0.0000
vn 0.7934 0.6088 0.0000
vn 0.9239 0.3827 0.0000
vn 0.9914 0.1305 0.0000
vn 0.1305 -0.9914 0.0000
vn 0.3827 -0.9239 0.0000
vn 0.6088 -0.7934 0.0000
vn 0.7934 -0.6088 -0.0000
vn 0.9239 -0.3827 -0.0000
vn 0.9914 -0.1305 0.0000
vn -0.1305 0.9914 0.0000
vn -0.3827 0.9239 0.0000
vn -0.6088 0.7934 0.0000
vn -0.7934 0.6088 0.0000
vn -0.9239 0.3827 0.0000
vn -0.9914 0.1305 0.0000
vn -1.0000 0.0000 0.0000
vn -0.0000 -1.0000 0.0000
vn 1.0000 0.0000 0.0000
vn 0.0000 1.0000 0.0000
vn -0.0000 0.0000 -1.0000
vn 0.0000 0.0000 1.0000
usemtl None
s off
f 92/1/3 141/2/3 142/3/3 94/4/3
f 94/4/4 142/3/4 143/5/4 95/6/4
f 95/6/5 143/5/5 144/7/5 96/8/5
f 96/8/6 144/7/6 145/9/6 97/10/6
f 97/10/7 145/9/7 146/11/7 98/12/7
f 98/12/8 146/11/8 147/13/8 93/14/8
f 106/15/9 148/16/9 149/17/9 108/18/9
f 108/18/10 149/17/10 150/19/10 109/20/10
f 109/20/11 150/19/11 151/21/11 110/22/11
f 110/22/12 151/21/12 152/23/12 111/24/12
f 111/24/13 152/23/13 153/25/13 112/26/13
f 112/27/14 153/28/14 154/29/14 107/30/14
f 156/31/15 121/32/15 126/33/15 155/34/15
f 155/35/16 126/36/16 125/37/16 157/38/16
f 157/38/17 125/37/17 124/39/17 158/40/17
f 158/40/18 124/39/18 123/41/18 159/42/18
f 159/42/19 123/41/19 122/43/19 160/44/19
f 160/44/20 122/43/20 120/45/20 161/46/20
f 163/47/21 135/48/21 140/49/21 162/50/21
f 162/50/22 140/49/22 139/51/22 164/52/22
f 164/52/23 139/51/23 138/53/23 165/54/23
f 165/54/24 138/53/24 137/55/24 166/56/24
f 166/56/25 137/55/25 136/57/25 167/58/25
f 167/59/26 136/60/26 134/61/26 168/62/26
f 147/13/27 168/62/27 134/61/27 93/14/27
f 92/1/28 121/32/28 156/31/28 141/2/28
f 154/29/29 161/46/29 120/45/29 107/30/29
f 106/63/30 135/48/30 163/47/30 148/64/30
f 94/65/31 95/66/31 96/67/31 97/68/31 98/69/31 93/70/31 134/71/31 136/72/31 137/73/31 138/74/31 139/75/31 140/76/31 135/77/31 106/78/31 108/79/31 109/80/31 110/81/31 111/82/31 112/83/31 107/84/31 120/85/31 122/86/31 123/87/31 124/88/31 125/89/31 126/90/31 121/91/31 92/92/31
f 86/93/32 91/94/32 142/95/32 141/96/32
f 91/94/32 90/97/32 143/98/32 142/95/32
f 90/97/32 89/99/32 144/100/32 143/98/32
f 89/99/32 88/101/32 145/102/32 144/100/32
f 88/101/32 87/103/32 146/104/32 145/102/32
f 87/103/32 85/105/32 147/106/32 146/104/32
f 100/107/32 105/108/32 149/109/32 148/110/32
f 105/108/32 104/111/32 150/112/32 149/109/32
f 104/111/32 103/113/32 151/114/32 150/112/32
f 103/113/32 102/115/32 152/116/32 151/114/32
f 102/115/32 101/117/32 153/118/32 152/116/32
f 101/117/32 99/119/32 154/120/32 153/118/32
f 115/121/32 113/122/32 156/123/32 155/124/32
f 116/125/32 115/121/32 155/124/32 157/126/32
f 117/127/32 116/125/32 157/126/32 158/128/32
f 118/129/32 117/127/32 158/128/32 159/130/32
f 119/131/32 118/129/32 159/130/32 160/132/32
f 114/133/32 119/131/32 160/132/32 161/134/32
f 129/135/32 127/136/32 163/137/32 162/138/32
f 130/139/32 129/135/32 162/138/32 164/140/32
f 131/141/32 130/139/32 164/140/32 165/142/32
f 132/143/32 131/141/32 165/142/32 166/144/32
f 133/145/32 132/143/32 166/144/32 167/146/32
f 128/147/32 133/145/32 167/146/32 168/148/32
f 85/105/32 128/147/32 168/148/32 147/106/32
f 113/122/32 86/93/32 141/96/32 156/123/32
f 99/119/32 114/133/32 161/134/32 154/120/32
f 127/136/32 100/107/32 148/110/32 163/137/32
f 113/149/32 170/150/32 169/151/32 86/152/32
f 115/153/32 171/154/32 170/150/32 113/149/32
f 116/155/32 172/156/32 171/154/32 115/153/32
f 117/157/32 173/158/32 172/156/32 116/155/32
f 118/159/32 174/160/32 173/158/32 117/157/32
f 119/161/32 175/162/32 174/160/32 118/159/32
f 114/163/32 176/164/32 175/162/32 119/161/32
f 99/165/32 177/166/32 176/164/32 114/163/32
f 101/167/32 178/168/32 177/166/32 99/165/32
f 102/169/32 179/170/32 178/168/32 101/167/32
f 103/171/32 180/172/32 179/170/32 102/169/32
f 104/173/32 181/174/32 180/172/32 103/171/32
f 105/175/32 182/176/32 181/174/32 104/173/32
f 100/177/32 183/178/32 182/176/32 105/175/32
f 127/179/32 184/180/32 183/178/32 100/177/32
f 129/181/32 185/182/32 184/180/32 127/179/32
f 130/183/32 186/184/32 185/182/32 129/181/32
f 131/185/32 187/186/32 186/184/32 130/183/32
f 132/187/32 188/188/32 187/186/32 131/185/32
f 133/189/32 189/190/32 188/188/32 132/187/32
f 128/191/32 190/192/32 189/190/32 133/189/32
f 85/193/32 191/194/32 190/192/32 128/191/32
f 87/195/32 192/196/32 191/194/32 85/193/32
f 88/197/32 193/198/32 192/196/32 87/195/32
f 89/199/32 194/200/32 193/198/32 88/197/32
f 90/201/32 195/202/32 194/200/32 89/199/32
f 91/203/32 196/204/32 195/202/32 90/201/32
f 86/152/32 169/151/32 196/204/32 91/203/32
f 170/205/30 197/206/30 198/207/30 169/208/30
f 171/209/21 199/210/21 197/206/21 170/205/21
f 172/211/22 200/212/22 199/210/22 171/209/22
f 173/213/23 201/214/23 200/212/23 172/211/23
f 174/215/24 202/216/24 201/214/24 173/213/24
f 175/217/25 203/218/25 202/216/25 174/215/25
f 176/219/26 204/220/26 203/218/26 175/217/26
f 177/221/27 205/222/27 204/223/27 176/224/27
f 178/225/8 206/226/8 205/222/8 177/221/8
f 179/227/7 207/228/7 206/226/7 178/225/7
f 180/229/6 208/230/6 207/228/6 179/227/6
f 181/231/5 209/232/5 208/230/5 180/229/5
f 182/233/4 210/234/4 209/232/4 181/231/4
f 183/235/3 211/236/3 210/234/3 182/233/3
f 184/237/28 212/238/28 211/236/28 183/235/28
f 185/239/15 213/240/15 212/238/15 184/237/15
f 186/241/16 214/242/16 213/243/16 185/244/16
f 187/245/17 215/246/17 214/242/17 186/241/17
f 188/247/18 216/248/18 215/246/18 187/245/18
f 189/249/19 217/250/19 216/248/19 188/247/19
f 190/251/20 218/252/20 217/250/20 189/249/20
f 191/253/29 219/254/29 218/252/29 190/251/29
f 192/255/14 220/256/14 219/254/14 191/253/14
f 193/257/13 221/258/13 220/259/13 192/260/13
f 194/261/12 222/262/12 221/258/12 193/257/12
f 195/263/11 223/264/11 222/262/11 194/261/11
f 196/265/10 224/266/10 223/264/10 195/263/10
f 169/267/9 198/268/9 224/266/9 196/265/9
