# Blender v2.79 (sub 0) OBJ File: 'stageLayout.blend'
# www.blender.org
mtllib stage.mtl
o Cylinder
v 0.000000 -0.440000 -4.050000
v 0.000000 0.060000 -4.050000
v 0.790116 -0.440000 -3.972180
v 0.790116 0.060000 -3.972180
v 1.549868 -0.440000 -3.741712
v 1.549868 0.060000 -3.741712
v 2.250059 -0.440000 -3.367452
v 2.250059 0.060000 -3.367452
v 2.863782 -0.440000 -2.863782
v 2.863782 0.060000 -2.863782
v 3.367452 -0.440000 -2.250059
v 3.367452 0.060000 -2.250059
v 3.741712 -0.440000 -1.549868
v 3.741712 0.060000 -1.549868
v 3.972180 -0.440000 -0.790116
v 3.972180 0.060000 -0.790116
v 4.050000 -0.440000 -0.000000
v 4.050000 0.060000 -0.000000
v 3.972180 -0.440000 0.790115
v 3.972180 0.060000 0.790115
v 3.741712 -0.440000 1.549867
v 3.741712 0.060000 1.549867
v 3.367452 -0.440000 2.250059
v 3.367452 0.060000 2.250059
v 2.863782 -0.440000 2.863782
v 2.863782 0.060000 2.863782
v 2.250059 -0.440000 3.367452
v 2.250059 0.060000 3.367452
v 1.549867 -0.440000 3.741713
v 1.549867 0.060000 3.741713
v 0.790115 -0.440000 3.972180
v 0.790115 0.060000 3.972180
v -0.000001 -0.440000 4.050000
v -0.000001 0.060000 4.050000
v -0.790117 -0.440000 3.972180
v -0.790117 0.060000 3.972180
v -1.549870 -0.440000 3.741711
v -1.549870 0.060000 3.741711
v -2.250061 -0.440000 3.367451
v -2.250061 0.060000 3.367451
v -2.863784 -0.440000 2.863781
v -2.863784 0.060000 2.863781
v -3.367454 -0.440000 2.250057
v -3.367454 0.060000 2.250057
v -3.741713 -0.440000 1.549865
v -3.741713 0.060000 1.549865
v -3.972181 -0.440000 0.790112
v -3.972181 0.060000 0.790112
v -4.050000 -0.440000 -0.000004
v -4.050000 0.060000 -0.000004
v -3.972180 -0.440000 -0.790120
v -3.972180 0.060000 -0.790120
v -3.741710 -0.440000 -1.549872
v -3.741710 0.060000 -1.549872
v -3.367449 -0.440000 -2.250064
v -3.367449 0.060000 -2.250064
v -2.863779 -0.440000 -2.863786
v -2.863779 0.060000 -2.863786
v -2.250055 -0.440000 -3.367455
v -2.250055 0.060000 -3.367455
v -1.549863 -0.440000 -3.741714
v -1.549863 0.060000 -3.741714
v -0.790110 -0.440000 -3.972182
v -0.790110 0.060000 -3.972182
v 0.790116 0.060000 -3.972180
v 0.000000 0.060000 -4.050000
v 1.549868 0.060000 -3.741712
v 2.250059 0.060000 -3.367452
v 2.863782 0.060000 -2.863782
v 3.367452 0.060000 -2.250059
v 3.741712 0.060000 -1.549868
v 3.972180 0.060000 -0.790116
v 4.050000 0.060000 -0.000000
v 3.972180 0.060000 0.790115
v 3.741712 0.060000 1.549867
v 3.367452 0.060000 2.250059
v 2.863782 0.060000 2.863782
v 2.250059 0.060000 3.367452
v 1.549867 0.060000 3.741713
v 0.790115 0.060000 3.972180
v -0.000001 0.060000 4.050000
v -0.790117 0.060000 3.972180
v -1.549870 0.060000 3.741711
v -2.250061 0.060000 3.367451
v -2.863784 0.060000 2.863781
v -3.367454 0.060000 2.250057
v -3.741713 0.060000 1.549865
v -3.972181 0.060000 0.790112
v -4.050000 0.060000 -0.000004
v -3.972180 0.060000 -0.790120
v -3.741710 0.060000 -1.549872
v -3.367449 0.060000 -2.250064
v -2.863779 0.060000 -2.863786
v -2.250055 0.060000 -3.367455
v -1.549863 0.060000 -3.741714
v -0.790110 0.060000 -3.972182
vt 0.856595 0.197073
vt 0.896429 0.124927
vt 0.896429 0.197073
vt 0.856595 0.124927
vt 0.896429 0.059998
vt 0.856595 0.059998
vt 0.896429 0.004780
vt 0.847034 0.004780
vt 0.807200 0.059998
vt 0.807200 0.004780
vt 0.847034 0.059998
vt 0.807200 0.124927
vt 0.847034 0.124927
vt 0.807200 0.197073
vt 0.847034 0.197073
vt 0.807200 0.273662
vt 0.847034 0.273662
vt 0.807199 0.351752
vt 0.847034 0.351752
vt 0.807199 0.428341
vt 0.847034 0.428341
vt 0.807199 0.500487
vt 0.847034 0.500487
vt 0.807199 0.565416
vt 0.847034 0.565416
vt 0.807199 0.620634
vt 0.995220 0.004780
vt 0.955385 0.069709
vt 0.955385 0.004780
vt 0.995220 0.069709
vt 0.955385 0.141855
vt 0.995220 0.141855
vt 0.955385 0.218444
vt 0.995220 0.218444
vt 0.955385 0.296534
vt 0.995220 0.296534
vt 0.955385 0.373124
vt 0.995220 0.373124
vt 0.955385 0.445269
vt 0.995220 0.445269
vt 0.955385 0.510198
vt 0.905990 0.565416
vt 0.945825 0.500487
vt 0.945825 0.565416
vt 0.905990 0.500487
vt 0.945825 0.428341
vt 0.905990 0.428341
vt 0.945825 0.351752
vt 0.905990 0.351752
vt 0.945825 0.273662
vt 0.905990 0.273662
vt 0.945825 0.197073
vt 0.905990 0.197073
vt 0.945825 0.124927
vt 0.905990 0.124927
vt 0.945825 0.059998
vt 0.905990 0.059998
vt 0.945825 0.004780
vt 0.856595 0.565416
vt 0.896430 0.500486
vt 0.896430 0.565416
vt 0.856595 0.500486
vt 0.896429 0.428341
vt 0.856595 0.428341
vt 0.896429 0.351751
vt 0.362165 0.004780
vt 0.797639 0.362165
vt 0.440255 0.797639
vt 0.856595 0.351752
vt 0.896429 0.273662
vt 0.856595 0.273662
vt 0.856595 0.004780
vt 0.847034 0.620634
vt 0.995220 0.510198
vt 0.905990 0.004780
vt 0.362165 0.797639
vt 0.285575 0.782404
vt 0.213430 0.752521
vt 0.148501 0.709137
vt 0.093283 0.653919
vt 0.049899 0.588990
vt 0.020015 0.516844
vt 0.004780 0.440255
vt 0.004780 0.362165
vt 0.020015 0.285576
vt 0.049898 0.213430
vt 0.093283 0.148501
vt 0.148500 0.093283
vt 0.213430 0.049898
vt 0.285575 0.020015
vt 0.440254 0.004780
vt 0.516844 0.020015
vt 0.588989 0.049898
vt 0.653919 0.093283
vt 0.709137 0.148501
vt 0.752521 0.213430
vt 0.782405 0.285575
vt 0.797639 0.440255
vt 0.782405 0.516844
vt 0.752521 0.588989
vt 0.709136 0.653919
vt 0.653919 0.709136
vt 0.588989 0.752521
vt 0.516844 0.782405
vn 0.0000 0.0000 -1.0000
vn 0.1951 0.0000 -0.9808
vn 0.3827 0.0000 -0.9239
vn 0.5556 0.0000 -0.8314
vn 0.7071 0.0000 -0.7071
vn 0.8314 0.0000 -0.5556
vn 0.9239 0.0000 -0.3827
vn 0.9808 0.0000 -0.1951
vn 1.0000 0.0000 0.0000
vn 0.9808 0.0000 0.1951
vn 0.9239 0.0000 0.3827
vn 0.8314 0.0000 0.5556
vn 0.7071 0.0000 0.7071
vn 0.5556 0.0000 0.8314
vn 0.3827 0.0000 0.9239
vn 0.1951 0.0000 0.9808
vn 0.0000 0.0000 1.0000
vn -0.1951 0.0000 0.9808
vn -0.3827 0.0000 0.9239
vn -0.5556 0.0000 0.8314
vn -0.7071 0.0000 0.7071
vn -0.8314 0.0000 0.5556
vn -0.9239 0.0000 0.3827
vn -0.9808 0.0000 0.1951
vn -1.0000 0.0000 0.0000
vn -0.9808 0.0000 -0.1951
vn -0.9239 0.0000 -0.3827
vn -0.8314 0.0000 -0.5556
vn -0.7071 0.0000 -0.7071
vn -0.5556 0.0000 -0.8314
vn -0.3827 0.0000 -0.9239
vn 0.0000 1.0000 0.0000
vn -0.1951 0.0000 -0.9808
usemtl Material.001
s 1
f 66/1/1 3/2/2 1/3/1
f 65/4/2 5/5/3 3/2/2
f 67/6/3 7/7/4 5/5/3
f 68/8/4 9/9/5 7/10/4
f 69/11/5 11/12/6 9/9/5
f 70/13/6 13/14/7 11/12/6
f 71/15/7 15/16/8 13/14/7
f 72/17/8 17/18/9 15/16/8
f 73/19/9 19/20/10 17/18/9
f 74/21/10 21/22/11 19/20/10
f 75/23/11 23/24/12 21/22/11
f 76/25/12 25/26/13 23/24/12
f 77/27/13 27/28/14 25/29/13
f 78/30/14 29/31/15 27/28/14
f 79/32/15 31/33/16 29/31/15
f 80/34/16 33/35/17 31/33/16
f 81/36/17 35/37/18 33/35/17
f 82/38/18 37/39/19 35/37/18
f 83/40/19 39/41/20 37/39/19
f 84/42/20 41/43/21 39/44/20
f 85/45/21 43/46/22 41/43/21
f 86/47/22 45/48/23 43/46/22
f 87/49/23 47/50/24 45/48/23
f 88/51/24 49/52/25 47/50/24
f 89/53/25 51/54/26 49/52/25
f 90/55/26 53/56/27 51/54/26
f 91/57/27 55/58/28 53/56/27
f 92/59/28 57/60/29 55/61/28
f 93/62/29 59/63/30 57/60/29
f 94/64/30 61/65/31 59/63/30
f 38/66/32 22/67/32 6/68/32
f 95/69/31 63/70/33 61/65/31
f 64/71/33 1/3/1 63/70/33
f 66/1/1 65/4/2 3/2/2
f 65/4/2 67/6/3 5/5/3
f 67/6/3 68/72/4 7/7/4
f 68/8/4 69/11/5 9/9/5
f 69/11/5 70/13/6 11/12/6
f 70/13/6 71/15/7 13/14/7
f 71/15/7 72/17/8 15/16/8
f 72/17/8 73/19/9 17/18/9
f 73/19/9 74/21/10 19/20/10
f 74/21/10 75/23/11 21/22/11
f 75/23/11 76/25/12 23/24/12
f 76/25/12 77/73/13 25/26/13
f 77/27/13 78/30/14 27/28/14
f 78/30/14 79/32/15 29/31/15
f 79/32/15 80/34/16 31/33/16
f 80/34/16 81/36/17 33/35/17
f 81/36/17 82/38/18 35/37/18
f 82/38/18 83/40/19 37/39/19
f 83/40/19 84/74/20 39/41/20
f 84/42/20 85/45/21 41/43/21
f 85/45/21 86/47/22 43/46/22
f 86/47/22 87/49/23 45/48/23
f 87/49/23 88/51/24 47/50/24
f 88/51/24 89/53/25 49/52/25
f 89/53/25 90/55/26 51/54/26
f 90/55/26 91/57/27 53/56/27
f 91/57/27 92/75/28 55/58/28
f 92/59/28 93/62/29 57/60/29
f 93/62/29 94/64/30 59/63/30
f 94/64/30 95/69/31 61/65/31
f 6/68/32 4/76/32 2/77/32
f 2/77/32 96/78/32 62/79/32
f 62/79/32 60/80/32 58/81/32
f 58/81/32 56/82/32 54/83/32
f 54/83/32 52/84/32 50/85/32
f 50/85/32 48/86/32 46/87/32
f 46/87/32 44/88/32 42/89/32
f 42/89/32 40/90/32 46/87/32
f 40/90/32 38/66/32 46/87/32
f 38/66/32 36/91/32 34/92/32
f 34/92/32 32/93/32 38/66/32
f 32/93/32 30/94/32 38/66/32
f 30/94/32 28/95/32 22/67/32
f 28/95/32 26/96/32 22/67/32
f 26/96/32 24/97/32 22/67/32
f 22/67/32 20/98/32 18/99/32
f 18/99/32 16/100/32 14/101/32
f 14/101/32 12/102/32 10/103/32
f 10/103/32 8/104/32 6/68/32
f 6/68/32 2/77/32 54/83/32
f 2/77/32 62/79/32 54/83/32
f 62/79/32 58/81/32 54/83/32
f 54/83/32 50/85/32 46/87/32
f 22/67/32 18/99/32 14/101/32
f 14/101/32 10/103/32 22/67/32
f 10/103/32 6/68/32 22/67/32
f 54/83/32 46/87/32 6/68/32
f 46/87/32 38/66/32 6/68/32
f 38/66/32 30/94/32 22/67/32
f 95/69/31 64/71/33 63/70/33
f 64/71/33 66/1/1 1/3/1
