# Blender v2.79 (sub 0) OBJ File: 'stageLayout2.blend'
# www.blender.org
o stage
v 0.000000 0.060000 -1.199999
v 0.808641 0.060000 -1.160273
v 1.609495 0.060000 -1.041477
v 2.394849 0.060000 -0.844757
v 3.157139 0.060000 -0.572005
v 3.889023 0.060000 -0.225849
v 4.583455 0.060000 0.190377
v 5.233745 0.060000 0.672665
v -5.233759 0.060000 0.672677
v -4.583471 0.060000 0.190388
v -3.889042 0.060000 -0.225839
v -3.157160 0.060000 -0.571996
v -2.394873 0.060000 -0.844749
v -1.609521 0.060000 -1.041472
v -0.808670 0.060000 -1.160270
v 5.833631 1.032927 1.216370
v 0.000000 -0.467073 4.116026
v 0.000000 0.060000 4.116026
v 0.808641 -0.467073 4.068355
v 0.808641 0.060000 4.068355
v 1.609495 -0.467073 3.925799
v 1.609495 0.060000 3.925799
v 2.394849 -0.467073 3.689735
v 2.394849 0.060000 3.689735
v 3.157139 -0.467073 3.362432
v 3.157139 0.060000 3.362432
v 3.889023 -0.467073 2.947046
v 3.889023 0.060000 2.947046
v 4.583455 -0.467073 2.447575
v 4.583455 0.060000 2.447575
v 5.233745 -0.467073 1.868829
v 5.233745 0.060000 1.868829
v 5.833631 -0.467073 1.216383
v 5.833631 0.060000 1.216383
v -5.833643 -0.467073 1.216369
v -5.833643 0.060000 1.216369
v -5.233759 -0.467073 1.868814
v -5.233759 0.060000 1.868814
v -4.583471 -0.467073 2.447561
v -4.583471 0.060000 2.447561
v -3.889042 -0.467073 2.947034
v -3.889042 0.060000 2.947034
v -3.157160 -0.467073 3.362422
v -3.157160 0.060000 3.362422
v -2.394873 -0.467073 3.689727
v -2.394873 0.060000 3.689727
v -1.609521 -0.467073 3.925794
v -1.609521 0.060000 3.925794
v -0.808670 -0.467073 4.068351
v -0.808670 0.060000 4.068351
vt 0.728355 0.288239
vt 0.763309 0.354045
vt 0.054770 0.307138
vt 0.816450 0.482724
vt 0.894840 0.555438
vt 0.816450 0.555438
vt 0.816450 0.409750
vt 0.894840 0.482724
vt 0.816450 0.337216
vt 0.894840 0.409750
vt 0.816450 0.265823
vt 0.894840 0.337216
vt 0.816450 0.196257
vt 0.894840 0.265823
vt 0.816450 0.129189
vt 0.894840 0.196257
vt 0.816450 0.065264
vt 0.894840 0.129189
vt 0.894840 0.005096
vt 0.816450 0.005096
vt 0.912687 0.495271
vt 0.991076 0.555437
vt 0.912687 0.555437
vt 0.912687 0.431346
vt 0.991076 0.495271
vt 0.912687 0.364278
vt 0.991076 0.431346
vt 0.912687 0.294712
vt 0.991076 0.364278
vt 0.912687 0.223318
vt 0.991076 0.294712
vt 0.912687 0.150785
vt 0.991076 0.223318
vt 0.912687 0.077810
vt 0.991076 0.150785
vt 0.991076 0.005096
vt 0.991076 0.077810
vt 0.786800 0.421492
vt 0.798603 0.489928
vt 0.010104 0.443284
vt 0.798603 0.558698
vt 0.021907 0.580491
vt 0.786800 0.627135
vt 0.048928 0.647838
vt 0.763309 0.694581
vt 0.089727 0.713480
vt 0.728356 0.760387
vt 0.143910 0.776786
vt 0.682276 0.823920
vt 0.210956 0.837144
vt 0.625515 0.884568
vt 0.290219 0.893975
vt 0.558618 0.941746
vt 0.380936 0.946731
vt 0.482232 0.994904
vt 0.008924 0.512085
vt 0.025435 0.374749
vt 0.097827 0.241104
vt 0.154190 0.177283
vt 0.682276 0.224706
vt 0.625514 0.164058
vt 0.223317 0.116288
vt 0.304542 0.058708
vt 0.558617 0.106880
vt 0.397083 0.005096
vt 0.482229 0.053722
vt 0.894840 0.065264
vt 0.912687 0.005096
vn 0.0000 1.0000 0.0000
vn -0.7361 0.0000 0.6768
vn -0.6648 0.0000 0.7470
vn -0.5839 0.0000 0.8118
vn -0.4936 0.0000 0.8697
vn -0.3945 0.0000 0.9189
vn -0.2879 0.0000 0.9577
vn -0.1753 0.0000 0.9845
vn -0.0589 0.0000 0.9983
vn 0.0589 0.0000 0.9983
vn 0.1752 0.0000 0.9845
vn 0.2879 0.0000 0.9577
vn 0.3945 0.0000 0.9189
vn 0.4936 0.0000 0.8697
vn 0.5839 0.0000 0.8118
vn 0.6648 0.0000 0.7470
vn 0.7361 0.0000 0.6768
vn 0.0588 0.0000 0.9983
s off
f 4/1/1 3/2/1 24/3/1
f 37/4/2 36/5/2 35/6/2
f 39/7/3 38/8/3 37/4/3
f 41/9/4 40/10/4 39/7/4
f 43/11/5 42/12/5 41/9/5
f 45/13/6 44/14/6 43/11/6
f 47/15/7 46/16/7 45/13/7
f 49/17/8 48/18/8 47/15/8
f 18/19/9 49/17/9 17/20/9
f 19/21/10 18/22/10 17/23/10
f 21/24/11 20/25/11 19/21/11
f 23/26/12 22/27/12 21/24/12
f 25/28/13 24/29/13 23/26/13
f 27/30/14 26/31/14 25/28/14
f 29/32/15 28/33/15 27/30/15
f 31/34/16 30/35/16 29/32/16
f 31/34/17 34/36/17 32/37/17
f 2/38/1 1/39/1 20/40/1
f 1/39/1 15/41/1 50/42/1
f 15/41/1 14/43/1 48/44/1
f 14/43/1 13/45/1 46/46/1
f 15/41/1 48/44/1 50/42/1
f 13/45/1 12/47/1 44/48/1
f 12/47/1 11/49/1 42/50/1
f 11/49/1 10/51/1 40/52/1
f 10/51/1 9/53/1 38/54/1
f 11/49/1 40/52/1 42/50/1
f 9/53/1 36/55/1 38/54/1
f 38/54/1 40/52/1 10/51/1
f 42/50/1 44/48/1 12/47/1
f 44/48/1 46/46/1 13/45/1
f 46/46/1 48/44/1 14/43/1
f 50/42/1 18/56/1 1/39/1
f 18/56/1 20/40/1 1/39/1
f 20/40/1 22/57/1 2/38/1
f 22/57/1 24/3/1 3/2/1
f 2/38/1 22/57/1 3/2/1
f 24/3/1 26/58/1 4/1/1
f 26/58/1 28/59/1 5/60/1
f 5/60/1 28/59/1 6/61/1
f 28/59/1 30/62/1 6/61/1
f 30/62/1 32/63/1 7/64/1
f 6/61/1 30/62/1 7/64/1
f 32/63/1 34/65/1 8/66/1
f 8/66/1 7/64/1 32/63/1
f 5/60/1 4/1/1 26/58/1
f 37/4/2 38/8/2 36/5/2
f 39/7/3 40/10/3 38/8/3
f 41/9/4 42/12/4 40/10/4
f 43/11/5 44/14/5 42/12/5
f 45/13/6 46/16/6 44/14/6
f 47/15/7 48/18/7 46/16/7
f 49/17/8 50/67/8 48/18/8
f 18/19/9 50/67/9 49/17/9
f 19/21/18 20/25/18 18/22/18
f 21/24/11 22/27/11 20/25/11
f 23/26/12 24/29/12 22/27/12
f 25/28/13 26/31/13 24/29/13
f 27/30/14 28/33/14 26/31/14
f 29/32/15 30/35/15 28/33/15
f 31/34/16 32/37/16 30/35/16
f 31/34/17 33/68/17 34/36/17
