# Blender v2.79 (sub 0) OBJ File: 'stageLayout2.blend'
# www.blender.org
o wall
v 0.000000 0.060000 -1.199999
v 0.000000 3.060000 -1.199999
v 0.808641 0.060000 -1.160273
v 0.808641 3.060000 -1.160273
v 1.609495 0.060000 -1.041477
v 1.609495 3.060000 -1.041477
v 2.394849 0.060000 -0.844757
v 2.394849 3.060000 -0.844757
v 3.157139 0.060000 -0.572005
v 3.157139 3.060000 -0.572005
v 3.889023 0.060000 -0.225849
v 3.889023 3.060000 -0.225849
v 4.583455 0.060000 0.190377
v 4.583455 3.060000 0.190377
v 5.233745 0.060000 0.672665
v 5.233745 3.060000 0.672665
v 5.833631 0.060000 1.216370
v 5.833631 3.060000 1.216370
v -5.833643 0.060000 1.216382
v -5.833643 3.060000 1.216382
v -5.233759 0.060000 0.672677
v -5.233759 3.060000 0.672677
v -4.583471 0.060000 0.190388
v -4.583471 3.060000 0.190388
v -3.889042 0.060000 -0.225839
v -3.889042 3.060000 -0.225839
v -3.157160 0.060000 -0.571996
v -3.157160 3.060000 -0.571996
v -2.394873 0.060000 -0.844749
v -2.394873 3.060000 -0.844749
v -1.609521 0.060000 -1.041472
v -1.609521 3.060000 -1.041472
v -0.808670 0.060000 -1.160270
v -0.808670 3.060000 -1.160270
vt 0.000000 0.420683
vt 1.000000 0.489825
vt 0.000000 0.489825
vt 0.000000 0.352543
vt 1.000000 0.420683
vt 0.000001 0.286058
vt 1.000000 0.352543
vt 0.000001 0.221871
vt 1.000000 0.286058
vt 0.000001 0.160599
vt 1.000000 0.221871
vt 0.000000 0.102832
vt 1.000000 0.160599
vt 0.000000 0.049127
vt 1.000000 0.102832
vt 0.000000 0.000000
vt 1.000000 0.049127
vt 0.000000 0.946295
vt 1.000000 1.000000
vt 0.000000 1.000000
vt 0.000000 0.888528
vt 1.000000 0.946295
vt 0.000000 0.827256
vt 1.000000 0.888528
vt 0.000000 0.763069
vt 1.000000 0.827256
vt 0.000000 0.696585
vt 1.000000 0.763069
vt 0.000000 0.628444
vt 1.000000 0.696585
vt 0.000000 0.559303
vt 1.000000 0.628444
vt 1.000000 0.559303
vt 1.000000 0.000000
vn -0.0491 0.0000 0.9988
vn -0.1467 0.0000 0.9892
vn -0.2430 0.0000 0.9700
vn -0.3369 0.0000 0.9415
vn -0.4276 0.0000 0.9040
vn -0.5141 0.0000 0.8577
vn -0.5957 0.0000 0.8032
vn -0.6716 0.0000 0.7410
vn 0.6716 0.0000 0.7409
vn 0.5957 0.0000 0.8032
vn 0.5141 0.0000 0.8577
vn 0.4276 0.0000 0.9040
vn 0.3369 0.0000 0.9415
vn 0.2430 0.0000 0.9700
vn 0.1467 0.0000 0.9892
vn 0.0491 0.0000 0.9988
vn 0.6716 0.0000 0.7410
s off
f 3/1/1 2/2/1 1/3/1
f 5/4/2 4/5/2 3/1/2
f 7/6/3 6/7/3 5/4/3
f 9/8/4 8/9/4 7/6/4
f 11/10/5 10/11/5 9/8/5
f 13/12/6 12/13/6 11/10/6
f 15/14/7 14/15/7 13/12/7
f 17/16/8 16/17/8 15/14/8
f 21/18/9 20/19/9 19/20/9
f 23/21/10 22/22/10 21/18/10
f 25/23/11 24/24/11 23/21/11
f 27/25/12 26/26/12 25/23/12
f 29/27/13 28/28/13 27/25/13
f 31/29/14 30/30/14 29/27/14
f 33/31/15 32/32/15 31/29/15
f 1/3/16 34/33/16 33/31/16
f 3/1/1 4/5/1 2/2/1
f 5/4/2 6/7/2 4/5/2
f 7/6/3 8/9/3 6/7/3
f 9/8/4 10/11/4 8/9/4
f 11/10/5 12/13/5 10/11/5
f 13/12/6 14/15/6 12/13/6
f 15/14/7 16/17/7 14/15/7
f 17/16/8 18/34/8 16/17/8
f 21/18/17 22/22/17 20/19/17
f 23/21/10 24/24/10 22/22/10
f 25/23/11 26/26/11 24/24/11
f 27/25/12 28/28/12 26/26/12
f 29/27/13 30/30/13 28/28/13
f 31/29/14 32/32/14 30/30/14
f 33/31/15 34/33/15 32/32/15
f 1/3/16 2/2/16 34/33/16
