# Blender v2.78 (sub 0) OBJ File: 'dinnerware.blend'
# www.blender.org
mtllib bowl.mtl
o DinnerBowl_Tube.002
v 0.256778 0.002570 -0.256681
v 0.335440 0.002570 -0.138954
v 0.363063 0.002570 -0.000086
v 0.335440 0.002570 0.138782
v 0.256778 0.002570 0.256509
v 0.139051 0.002570 0.335172
v 0.000183 0.002570 0.362794
v -0.138685 0.002570 0.335172
v -0.256412 0.002570 0.256509
v -0.335074 0.002570 0.138782
v -0.362697 0.002570 -0.000086
v -0.335074 0.002570 -0.138954
v -0.256412 0.002570 -0.256681
v -0.138685 0.002570 -0.335343
v 0.000183 0.002570 -0.362966
v 0.139051 0.002570 -0.335343
v 0.427842 0.472374 -0.427744
v 0.558946 0.472374 -0.231532
v 0.604983 0.472374 -0.000085
v 0.558945 0.472374 0.231362
v 0.427841 0.472374 0.427573
v 0.231629 0.472374 0.558677
v 0.000182 0.472374 0.604714
v -0.231265 0.472374 0.558676
v -0.427476 0.472374 0.427571
v -0.558580 0.472374 0.231360
v -0.604617 0.472374 -0.000087
v -0.558579 0.472374 -0.231534
v -0.427474 0.472374 -0.427745
v -0.231262 0.472374 -0.558849
v 0.000185 0.472374 -0.604886
v 0.231632 0.472374 -0.558847
v 0.256778 0.041515 -0.256681
v 0.335441 0.041515 -0.138954
v 0.363063 0.041515 -0.000085
v 0.335440 0.041515 0.138783
v 0.256778 0.041515 0.256509
v 0.139051 0.041515 0.335172
v 0.000182 0.041515 0.362794
v -0.138686 0.041515 0.335171
v -0.256413 0.041515 0.256508
v -0.335075 0.041515 0.138781
v -0.362697 0.041515 -0.000087
v -0.335074 0.041515 -0.138955
v -0.256411 0.041515 -0.256682
v -0.138684 0.041515 -0.335344
v 0.000184 0.041515 -0.362966
v 0.139052 0.041515 -0.335343
v 0.000183 0.042234 -0.000086
v 0.000183 0.002570 -0.000086
v 0.587166 0.472890 -0.243222
v 0.449440 0.472890 -0.449343
v 0.635529 0.472890 -0.000085
v 0.587166 0.472890 0.243051
v 0.449440 0.472890 0.449172
v 0.243319 0.472890 0.586897
v 0.000182 0.472890 0.635260
v -0.242954 0.472890 0.586897
v -0.449075 0.472890 0.449171
v -0.586800 0.472890 0.243050
v -0.635163 0.472890 -0.000087
v -0.586799 0.472890 -0.243223
v -0.449073 0.472890 -0.449344
v -0.242952 0.472890 -0.587069
v 0.000184 0.472890 -0.635431
v 0.243321 0.472890 -0.587068
v 0.515740 0.224919 -0.213636
v 0.394773 0.224919 -0.394675
v 0.558217 0.224919 -0.000085
v 0.515739 0.224919 0.213465
v 0.394773 0.224919 0.394504
v 0.213733 0.224919 0.515471
v 0.000183 0.224919 0.557949
v -0.213368 0.224919 0.515471
v -0.394407 0.224919 0.394504
v -0.515374 0.224919 0.213464
v -0.557851 0.224919 -0.000086
v -0.515373 0.224919 -0.213637
v -0.394406 0.224919 -0.394676
v -0.213367 0.224919 -0.515643
v 0.000184 0.224919 -0.558120
v 0.213734 0.224919 -0.515642
v 0.256778 0.002570 -0.256681
v 0.335440 0.002570 -0.138954
v 0.427842 0.472374 -0.427744
v 0.558946 0.472374 -0.231532
v 0.363063 0.002570 -0.000086
v 0.604983 0.472374 -0.000085
v 0.335440 0.002570 0.138782
v 0.558945 0.472374 0.231362
v 0.256778 0.002570 0.256509
v 0.427841 0.472374 0.427573
v 0.139051 0.002570 0.335172
v 0.231629 0.472374 0.558677
v 0.000183 0.002570 0.362794
v 0.000182 0.472374 0.604714
v -0.138685 0.002570 0.335172
v -0.231265 0.472374 0.558676
v -0.256412 0.002570 0.256509
v -0.427476 0.472374 0.427571
v -0.335074 0.002570 0.138782
v -0.558580 0.472374 0.231360
v -0.362697 0.002570 -0.000086
v -0.604617 0.472374 -0.000087
v -0.335074 0.002570 -0.138954
v -0.558579 0.472374 -0.231534
v -0.256412 0.002570 -0.256681
v -0.427474 0.472374 -0.427745
v -0.138685 0.002570 -0.335343
v -0.231262 0.472374 -0.558849
v 0.000183 0.002570 -0.362966
v 0.000185 0.472374 -0.604886
v 0.139051 0.002570 -0.335343
v 0.231632 0.472374 -0.558847
v 0.256778 0.041515 -0.256681
v 0.335441 0.041515 -0.138954
v 0.363063 0.041515 -0.000085
v 0.335440 0.041515 0.138783
v 0.256778 0.041515 0.256509
v 0.139051 0.041515 0.335172
v 0.000182 0.041515 0.362794
v -0.138686 0.041515 0.335171
v -0.256413 0.041515 0.256508
v -0.335075 0.041515 0.138781
v -0.362697 0.041515 -0.000087
v -0.335074 0.041515 -0.138955
v -0.256411 0.041515 -0.256682
v -0.138684 0.041515 -0.335344
v 0.000184 0.041515 -0.362966
v 0.139052 0.041515 -0.335343
v 0.587166 0.472890 -0.243222
v 0.449440 0.472890 -0.449343
v 0.635529 0.472890 -0.000085
v 0.587166 0.472890 0.243051
v 0.449440 0.472890 0.449172
v 0.243319 0.472890 0.586897
v 0.000182 0.472890 0.635260
v -0.242954 0.472890 0.586897
v -0.449075 0.472890 0.449171
v -0.586800 0.472890 0.243050
v -0.635163 0.472890 -0.000087
v -0.586799 0.472890 -0.243223
v -0.449073 0.472890 -0.449344
v -0.242952 0.472890 -0.587069
v 0.000184 0.472890 -0.635431
v 0.243321 0.472890 -0.587068
vt 0.6891 0.7843
vt 0.5363 0.8523
vt 0.4814 0.5894
vt 0.5358 0.5683
vt 0.8012 0.6639
vt 0.5780 0.5269
vt 0.8571 0.5121
vt 0.6011 0.4719
vt 0.8508 0.3532
vt 0.6013 0.4119
vt 0.7859 0.2103
vt 0.5786 0.3559
vt 0.6741 0.1009
vt 0.5340 0.3154
vt 0.5290 0.0435
vt 0.4790 0.2910
vt 0.3732 0.0421
vt 0.4186 0.2928
vt 0.2269 0.0997
vt 0.3637 0.3170
vt 0.1123 0.2094
vt 0.3222 0.3601
vt 0.0473 0.3558
vt 0.3002 0.4156
vt 0.0433 0.5171
vt 0.3012 0.4753
vt 0.1021 0.6689
vt 0.3250 0.5299
vt 0.2160 0.7871
vt 0.3680 0.5710
vt 0.3686 0.8523
vt 0.4232 0.5919
vt 0.5358 0.5683
vt 0.4814 0.5894
vt 0.4507 0.4428
vt 0.5780 0.5269
vt 0.6011 0.4719
vt 0.6013 0.4119
vt 0.5786 0.3559
vt 0.5340 0.3154
vt 0.4790 0.2910
vt 0.4186 0.2928
vt 0.3637 0.3170
vt 0.3222 0.3601
vt 0.3002 0.4156
vt 0.3012 0.4753
vt 0.3250 0.5299
vt 0.3680 0.5710
vt 0.4232 0.5919
vt 0.8783 0.8189
vt 0.8906 0.8305
vt 0.8553 0.8556
vt 0.8975 0.8459
vt 0.8980 0.8628
vt 0.8920 0.8785
vt 0.8805 0.8908
vt 0.8651 0.8978
vt 0.8482 0.8983
vt 0.8324 0.8923
vt 0.8201 0.8807
vt 0.8132 0.8653
vt 0.8126 0.8485
vt 0.8186 0.8327
vt 0.8302 0.8204
vt 0.8456 0.8134
vt 0.8625 0.8129
vt 0.5410 0.8746
vt 0.5363 0.8523
vt 0.6891 0.7843
vt 0.7022 0.8026
vt 0.8012 0.6639
vt 0.8201 0.6755
vt 0.8571 0.5121
vt 0.8785 0.5155
vt 0.8508 0.3532
vt 0.8716 0.3482
vt 0.7859 0.2103
vt 0.8032 0.1982
vt 0.6741 0.1009
vt 0.6857 0.0832
vt 0.5290 0.0435
vt 0.5330 0.0227
vt 0.3732 0.0421
vt 0.3693 0.0212
vt 0.2269 0.0997
vt 0.2154 0.0817
vt 0.1123 0.2094
vt 0.0946 0.1970
vt 0.0473 0.3558
vt 0.0261 0.3510
vt 0.0433 0.5171
vt 0.0216 0.5209
vt 0.1021 0.6689
vt 0.0834 0.6808
vt 0.2160 0.7871
vt 0.2033 0.8056
vt 0.3686 0.8523
vt 0.3641 0.8746
vt 0.8783 0.8189
vt 0.8998 0.7873
vt 0.9226 0.8096
vt 0.8906 0.8305
vt 0.9255 0.7505
vt 0.9604 0.7854
vt 0.9351 0.8388
vt 0.8975 0.8459
vt 0.9793 0.8310
vt 0.9354 0.8706
vt 0.8980 0.8628
vt 0.9793 0.8803
vt 0.9236 0.9001
vt 0.8920 0.8785
vt 0.9604 0.9258
vt 0.9014 0.9228
vt 0.8805 0.8908
vt 0.9255 0.9607
vt 0.8721 0.9353
vt 0.8651 0.8978
vt 0.8800 0.9795
vt 0.8404 0.9357
vt 0.8482 0.8983
vt 0.8307 0.9795
vt 0.8108 0.9239
vt 0.8324 0.8923
vt 0.7851 0.9607
vt 0.7881 0.9016
vt 0.8201 0.8807
vt 0.7503 0.9258
vt 0.7756 0.8724
vt 0.8132 0.8653
vt 0.7314 0.8803
vt 0.7752 0.8406
vt 0.8126 0.8485
vt 0.7314 0.8310
vt 0.7871 0.8111
vt 0.8186 0.8327
vt 0.7503 0.7854
vt 0.8093 0.7884
vt 0.8302 0.8204
vt 0.7851 0.7505
vt 0.8385 0.7759
vt 0.8456 0.8134
vt 0.8307 0.7317
vt 0.8703 0.7755
vt 0.8625 0.8129
vt 0.8800 0.7317
vn -0.8056 0.4896 0.3337
vn -0.6166 0.4896 0.6165
vn -0.8719 0.4896 0.0000
vn -0.8056 0.4896 -0.3337
vn -0.6165 0.4896 -0.6166
vn -0.3337 0.4896 -0.8056
vn 0.0000 0.4896 -0.8719
vn 0.3337 0.4896 -0.8056
vn 0.6166 0.4896 -0.6165
vn 0.8056 0.4896 -0.3337
vn 0.8719 0.4896 0.0000
vn 0.8056 0.4896 0.3337
vn 0.6165 0.4896 0.6166
vn 0.3337 0.4896 0.8056
vn 0.0000 0.4896 0.8719
vn -0.3337 0.4896 0.8056
vn 0.0018 1.0000 -0.0007
vn 0.0014 1.0000 -0.0014
vn 0.0000 1.0000 0.0000
vn 0.0020 1.0000 0.0000
vn 0.0018 1.0000 0.0007
vn 0.0014 1.0000 0.0014
vn 0.0007 1.0000 0.0018
vn 0.0000 1.0000 0.0020
vn -0.0007 1.0000 0.0018
vn -0.0014 1.0000 0.0014
vn -0.0018 1.0000 0.0007
vn -0.0020 1.0000 0.0000
vn -0.0018 1.0000 -0.0007
vn -0.0014 1.0000 -0.0014
vn -0.0007 1.0000 -0.0018
vn 0.0000 1.0000 -0.0020
vn 0.0007 1.0000 -0.0018
vn 0.0000 -1.0000 0.0000
vn -0.0119 0.9998 0.0119
vn -0.0156 0.9998 0.0064
vn -0.0169 0.9998 0.0000
vn -0.0156 0.9998 -0.0064
vn -0.0119 0.9998 -0.0119
vn -0.0064 0.9998 -0.0156
vn 0.0000 0.9998 -0.0169
vn 0.0064 0.9998 -0.0156
vn 0.0119 0.9998 -0.0119
vn 0.0156 0.9998 -0.0064
vn 0.0169 0.9998 0.0000
vn 0.0156 0.9998 0.0064
vn 0.0119 0.9998 0.0119
vn 0.0064 0.9998 0.0156
vn 0.0000 0.9998 0.0169
vn -0.0064 0.9998 0.0156
vn 0.5314 -0.6596 -0.5314
vn 0.6208 -0.4786 -0.6208
vn 0.8112 -0.4786 -0.3360
vn 0.6944 -0.6596 -0.2876
vn 0.6750 -0.2976 -0.6750
vn 0.8820 -0.2976 -0.3653
vn 0.8780 -0.4786 0.0000
vn 0.7515 -0.6596 0.0000
vn 0.9546 -0.2976 0.0000
vn 0.8112 -0.4786 0.3360
vn 0.6944 -0.6596 0.2876
vn 0.8820 -0.2976 0.3653
vn 0.6208 -0.4786 0.6208
vn 0.5314 -0.6596 0.5314
vn 0.6750 -0.2976 0.6750
vn 0.3360 -0.4786 0.8112
vn 0.2876 -0.6596 0.6944
vn 0.3653 -0.2976 0.8820
vn 0.0000 -0.4786 0.8780
vn 0.0000 -0.6596 0.7515
vn 0.0000 -0.2976 0.9546
vn -0.3360 -0.4786 0.8112
vn -0.2876 -0.6596 0.6944
vn -0.3653 -0.2976 0.8820
vn -0.6208 -0.4786 0.6208
vn -0.5314 -0.6596 0.5314
vn -0.6750 -0.2976 0.6750
vn -0.8112 -0.4786 0.3360
vn -0.6944 -0.6596 0.2876
vn -0.8820 -0.2976 0.3653
vn -0.8780 -0.4786 0.0000
vn -0.7515 -0.6596 0.0000
vn -0.9546 -0.2976 0.0000
vn -0.8112 -0.4786 -0.3360
vn -0.6944 -0.6596 -0.2876
vn -0.8820 -0.2976 -0.3653
vn -0.6208 -0.4786 -0.6208
vn -0.5314 -0.6596 -0.5314
vn -0.6750 -0.2976 -0.6750
vn -0.3360 -0.4786 -0.8112
vn -0.2876 -0.6596 -0.6944
vn -0.3653 -0.2976 -0.8820
vn 0.0000 -0.4786 -0.8780
vn 0.0000 -0.6596 -0.7515
vn 0.0000 -0.2976 -0.9546
vn 0.3360 -0.4786 -0.8112
vn 0.2876 -0.6596 -0.6944
vn 0.3653 -0.2976 -0.8820
usemtl Wood
s 1
f 86/1/1 85/2/2 115/3/2 116/4/1
f 88/5/3 86/1/1 116/4/1 117/6/3
f 90/7/4 88/5/3 117/6/3 118/8/4
f 92/9/5 90/7/4 118/8/4 119/10/5
f 94/11/6 92/9/5 119/10/5 120/12/6
f 96/13/7 94/11/6 120/12/6 121/14/7
f 98/15/8 96/13/7 121/14/7 122/16/8
f 100/17/9 98/15/8 122/16/8 123/18/9
f 102/19/10 100/17/9 123/18/9 124/20/10
f 104/21/11 102/19/10 124/20/10 125/22/11
f 106/23/12 104/21/11 125/22/11 126/24/12
f 108/25/13 106/23/12 126/24/12 127/26/13
f 110/27/14 108/25/13 127/26/13 128/28/14
f 112/29/15 110/27/14 128/28/14 129/30/15
f 114/31/16 112/29/15 129/30/15 130/32/16
f 85/2/2 114/31/16 130/32/16 115/3/2
f 34/33/17 33/34/18 49/35/19
f 35/36/20 34/33/17 49/35/19
f 36/37/21 35/36/20 49/35/19
f 37/38/22 36/37/21 49/35/19
f 38/39/23 37/38/22 49/35/19
f 39/40/24 38/39/23 49/35/19
f 40/41/25 39/40/24 49/35/19
f 41/42/26 40/41/25 49/35/19
f 42/43/27 41/42/26 49/35/19
f 43/44/28 42/43/27 49/35/19
f 44/45/29 43/44/28 49/35/19
f 45/46/30 44/45/29 49/35/19
f 46/47/31 45/46/30 49/35/19
f 47/48/32 46/47/31 49/35/19
f 48/49/33 47/48/32 49/35/19
f 33/34/18 48/49/33 49/35/19
f 83/50/34 84/51/34 50/52/34
f 84/51/34 87/53/34 50/52/34
f 87/53/34 89/54/34 50/52/34
f 89/54/34 91/55/34 50/52/34
f 91/55/34 93/56/34 50/52/34
f 93/56/34 95/57/34 50/52/34
f 95/57/34 97/58/34 50/52/34
f 97/58/34 99/59/34 50/52/34
f 99/59/34 101/60/34 50/52/34
f 101/60/34 103/61/34 50/52/34
f 103/61/34 105/62/34 50/52/34
f 105/62/34 107/63/34 50/52/34
f 107/63/34 109/64/34 50/52/34
f 109/64/34 111/65/34 50/52/34
f 111/65/34 113/66/34 50/52/34
f 113/66/34 83/50/34 50/52/34
f 132/67/35 17/68/35 18/69/36 131/70/36
f 131/70/36 18/69/36 19/71/37 133/72/37
f 133/72/37 19/71/37 20/73/38 134/74/38
f 134/74/38 20/73/38 21/75/39 135/76/39
f 135/76/39 21/75/39 22/77/40 136/78/40
f 136/78/40 22/77/40 23/79/41 137/80/41
f 137/80/41 23/79/41 24/81/42 138/82/42
f 138/82/42 24/81/42 25/83/43 139/84/43
f 139/84/43 25/83/43 26/85/44 140/86/44
f 140/86/44 26/85/44 27/87/45 141/88/45
f 141/88/45 27/87/45 28/89/46 142/90/46
f 142/90/46 28/89/46 29/91/47 143/92/47
f 143/92/47 29/91/47 30/93/48 144/94/48
f 144/94/48 30/93/48 31/95/49 145/96/49
f 145/96/49 31/95/49 32/97/50 146/98/50
f 17/68/35 132/67/35 146/98/50 32/97/50
f 1/99/51 68/100/52 67/101/53 2/102/54
f 68/100/52 52/103/55 51/104/56 67/101/53
f 2/102/54 67/101/53 69/105/57 3/106/58
f 67/101/53 51/104/56 53/107/59 69/105/57
f 3/106/58 69/105/57 70/108/60 4/109/61
f 69/105/57 53/107/59 54/110/62 70/108/60
f 4/109/61 70/108/60 71/111/63 5/112/64
f 70/108/60 54/110/62 55/113/65 71/111/63
f 5/112/64 71/111/63 72/114/66 6/115/67
f 71/111/63 55/113/65 56/116/68 72/114/66
f 6/115/67 72/114/66 73/117/69 7/118/70
f 72/114/66 56/116/68 57/119/71 73/117/69
f 7/118/70 73/117/69 74/120/72 8/121/73
f 73/117/69 57/119/71 58/122/74 74/120/72
f 8/121/73 74/120/72 75/123/75 9/124/76
f 74/120/72 58/122/74 59/125/77 75/123/75
f 9/124/76 75/123/75 76/126/78 10/127/79
f 75/123/75 59/125/77 60/128/80 76/126/78
f 10/127/79 76/126/78 77/129/81 11/130/82
f 76/126/78 60/128/80 61/131/83 77/129/81
f 11/130/82 77/129/81 78/132/84 12/133/85
f 77/129/81 61/131/83 62/134/86 78/132/84
f 12/133/85 78/132/84 79/135/87 13/136/88
f 78/132/84 62/134/86 63/137/89 79/135/87
f 13/136/88 79/135/87 80/138/90 14/139/91
f 79/135/87 63/137/89 64/140/92 80/138/90
f 14/139/91 80/138/90 81/141/93 15/142/94
f 80/138/90 64/140/92 65/143/95 81/141/93
f 15/142/94 81/141/93 82/144/96 16/145/97
f 81/141/93 65/143/95 66/146/98 82/144/96
f 52/103/55 68/100/52 82/144/96 66/146/98
f 68/100/52 1/99/51 16/145/97 82/144/96
