# Blender v2.77 (sub 0) OBJ File: 'butterknife.blend'
# www.blender.org
mtllib butterknife.mtl
o EmptyMesh
v 0.110711 -0.002238 -0.256397
v 0.110355 0.000000 -0.271101
v 0.110355 0.000000 -0.496511
v 0.103181 0.000000 -0.510860
v 0.092419 0.001266 -0.510262
v 0.084049 0.001534 -0.501294
v 0.078668 0.001606 -0.486348
v 0.073168 0.001596 -0.400406
v 0.085954 0.001226 -0.271081
v 0.083755 -0.001541 -0.256251
v 0.084164 -0.000384 0.059594
v 0.091716 -0.000219 0.065544
v 0.104040 0.000847 0.066464
v 0.110245 0.001347 0.060610
v 0.110245 0.008312 0.060610
v 0.104040 0.004264 0.066464
v 0.091716 0.003198 0.065544
v 0.084164 0.005040 0.059594
v 0.083755 0.003883 -0.256251
v 0.085954 0.001701 -0.271081
v 0.073168 0.001821 -0.400406
v 0.078668 0.001811 -0.486348
v 0.084049 0.001883 -0.501294
v 0.092419 0.002151 -0.510262
v 0.103181 0.003417 -0.510860
v 0.110355 0.003417 -0.496511
v 0.110355 0.003417 -0.271101
v 0.110711 0.004727 -0.256397
vn 0.2680 -0.6424 0.7180
vn -0.4503 -0.6081 0.6538
vn 0.7025 -0.6956 0.1501
vn 0.6052 -0.6975 0.3836
vn -0.7471 -0.6428 0.1693
vn 0.7096 -0.7044 -0.0125
vn -0.7352 -0.6760 -0.0491
vn 0.6854 -0.7271 -0.0402
vn -0.6966 -0.7156 -0.0506
vn 0.6997 -0.7143 -0.0067
vn -0.7063 -0.6283 -0.3260
vn 0.7150 -0.6123 -0.3374
vn 0.3202 -0.6334 -0.7044
vn -0.1990 -0.6179 -0.7606
vn 0.3067 -0.4441 -0.8419
vn 0.7082 -0.5983 -0.3748
vn -0.6390 -0.6808 -0.3580
vn -0.2177 -0.4391 -0.8716
vn 0.7263 -0.6816 0.0892
vn -0.6783 -0.7327 0.0548
vn -0.6964 -0.7157 0.0520
vn 0.7131 -0.6982 0.0621
vn 0.7405 -0.6718 -0.0136
vn -0.7166 -0.6747 0.1765
vn -0.3738 -0.6216 0.6883
vn 0.7395 -0.6562 0.1498
vn 0.3689 -0.5929 0.7158
vn 0.6705 -0.6250 0.3997
usemtl Material.001
s 1
f 5//1 4//2 7//3 6//4
f 4//2 3//5 8//6 7//3
f 2//7 9//8 8//6 3//5
f 2//7 1//9 10//10 9//8
f 1//9 14//11 11//12 10//10
f 12//13 11//12 14//11 13//14
f 17//15 18//16 15//17 16//18
f 18//16 19//19 28//20 15//17
f 27//21 28//20 19//19 20//22
f 27//21 20//22 21//23 26//24
f 25//25 26//24 21//23 22//26
f 24//27 25//25 22//26 23//28
f 8//6 7//3 22//26 21//23
f 8//6 21//23 20//22 9//8
f 6//4 23//28 22//26 7//3
f 5//1 24//27 23//28 6//4
f 5//1 4//2 25//25 24//27
f 4//2 3//5 26//24 25//25
f 2//7 27//21 26//24 3//5
f 2//7 1//9 28//20 27//21
f 28//20 1//9 14//11 15//17
f 13//14 16//18 15//17 14//11
f 12//13 17//15 16//18 13//14
f 12//13 11//12 18//16 17//15
f 11//12 10//10 19//19 18//16
f 9//8 20//22 19//19 10//10
