# Blender v2.77 (sub 0) OBJ File: 'stones.blend'
# www.blender.org
mtllib stones.mtl
o stone004_Cube.003
v -0.000000 0.072727 -4.621068
v -0.000000 0.002016 -4.668171
v 0.061237 0.072727 -4.564209
v 0.086603 0.002016 -4.587760
v 0.061237 0.072727 -4.450490
v 0.086603 0.002016 -4.426939
v -0.000000 0.072727 -4.455029
v -0.000000 0.002016 -4.407926
v -0.000000 0.102016 -4.507350
v -0.061237 0.072727 -4.450490
v -0.086603 0.002016 -4.426939
v -0.061237 0.072727 -4.564209
v -0.086603 0.002016 -4.587760
v -0.079072 0.078519 -4.846693
v -0.109148 0.001248 -4.869524
v -0.013084 0.078519 -4.858233
v -0.015827 0.001248 -4.885845
v 0.059526 0.078519 -4.803113
v 0.086859 0.001248 -4.807893
v 0.066149 0.078519 -4.736453
v 0.096225 0.001248 -4.713621
v -0.006461 0.110526 -4.791573
v 0.000162 0.078519 -4.724912
v 0.002905 0.001248 -4.697300
v -0.072448 0.078519 -4.780032
v -0.099781 0.001248 -4.775252
v -0.203329 0.068307 -4.590425
v -0.203329 0.002563 -4.617891
v -0.159346 0.049724 -4.532625
v -0.133981 0.002563 -4.546359
v -0.138788 0.049724 -4.474194
v -0.113422 0.002563 -4.460460
v -0.180043 0.049724 -4.436604
v -0.180043 0.002563 -4.409137
v -0.200025 0.069259 -4.507349
v -0.261262 0.049724 -4.474194
v -0.286627 0.002563 -4.460460
v -0.261262 0.068307 -4.540505
v -0.286627 0.002563 -4.554239
v -0.245981 0.052118 -4.809472
v -0.260333 0.001572 -4.832891
v -0.178278 0.033535 -4.783174
v -0.163828 0.001572 -4.808137
v -0.130218 0.048733 -4.744096
v -0.101414 0.001572 -4.745640
v -0.145752 0.048733 -4.690489
v -0.131399 0.001572 -4.667069
v -0.199755 0.056972 -4.740367
v -0.234642 0.048733 -4.680099
v -0.249093 0.001572 -4.655136
v -0.255339 0.067316 -4.740397
v -0.284143 0.001572 -4.738853
v -0.261033 0.043523 -4.833077
v -0.167479 0.029918 -4.802541
v -0.103845 0.029918 -4.745445
v -0.128885 0.029918 -4.670385
v -0.247608 0.029918 -4.657340
v -0.281359 0.043523 -4.738937
v -0.407558 0.019359 -4.631677
v -0.412822 0.000818 -4.640268
v -0.382723 0.012542 -4.622031
v -0.377422 0.000818 -4.631188
v -0.365094 0.018117 -4.607696
v -0.354528 0.000818 -4.608263
v -0.370792 0.018117 -4.588032
v -0.365527 0.000818 -4.579442
v -0.390601 0.021140 -4.606328
v -0.403398 0.018117 -4.584221
v -0.408699 0.000818 -4.575064
v -0.410991 0.024934 -4.606339
v -0.421556 0.000818 -4.605773
v -0.413079 0.016206 -4.640336
v -0.378762 0.011216 -4.629135
v -0.355420 0.011216 -4.608191
v -0.364605 0.011216 -4.580658
v -0.408155 0.011216 -4.575872
v -0.420535 0.016206 -4.605804
vn 0.6115 0.4387 -0.6585
vn 0.2256 0.9434 -0.2430
vn 0.4315 0.9021 0.0000
vn 0.9413 0.3377 0.0000
vn 0.0866 0.4576 0.8849
vn -0.0362 0.8720 0.4882
vn -0.0866 0.4576 0.8849
vn 0.0362 0.8720 0.4882
vn -0.9413 0.3377 0.0000
vn -0.4315 0.9021 0.0000
vn -0.6115 0.4387 -0.6585
vn -0.2256 0.9434 -0.2430
vn -0.1622 0.3371 -0.9274
vn -0.0744 0.9018 -0.4256
vn 0.3302 0.8377 -0.4350
vn 0.5847 0.2545 -0.7703
vn 0.9368 0.3371 -0.0931
vn 0.4300 0.9018 -0.0427
vn 0.1622 0.3371 0.9274
vn 0.0744 0.9018 0.4256
vn -0.5847 0.2545 0.7703
vn -0.3302 0.8377 0.4350
vn -0.9368 0.3371 0.0931
vn -0.4300 0.9018 0.0427
vn 0.7234 0.3742 -0.5802
vn 0.4190 0.9076 -0.0271
vn 0.3636 0.9227 -0.1279
vn 0.8542 0.4594 -0.2434
vn 0.5670 0.4530 0.6880
vn 0.1918 0.9586 0.2105
vn -0.3812 0.4542 0.8052
vn -0.1388 0.9439 0.2998
vn -0.9111 0.4094 0.0475
vn -0.1590 0.9507 0.2664
vn -0.5887 0.3429 -0.7320
vn -0.0095 0.9999 -0.0111
vn 0.2840 0.9145 -0.2880
vn 0.3598 0.8826 -0.3027
vn 0.0816 0.8909 -0.4468
vn 0.2673 0.8544 -0.4455
vn 0.5970 0.7798 0.1883
vn 0.1194 0.9922 0.0346
vn 0.0738 0.7528 0.6541
vn 0.0170 0.9893 0.1451
vn -0.5632 0.7326 0.3823
vn 0.1778 0.9559 0.2336
vn -0.5493 0.8169 -0.1760
vn 0.1798 0.9656 -0.1881
vn -0.9733 0.0234 -0.2283
vn -0.9191 0.0684 0.3881
vn 0.1047 0.0891 0.9905
vn 0.9413 0.0172 0.3371
vn 0.6809 0.1463 -0.7176
vn 0.2842 0.0910 -0.9544
vn 0.6809 0.1464 -0.7176
usemtl stone
s off
f 2//1 1//1 3//1 4//1
f 1//2 9//2 3//2
f 3//3 9//3 5//3
f 4//4 3//4 5//4 6//4
f 6//5 5//5 7//5 8//5
f 5//6 9//6 7//6
f 8//7 7//7 10//7 11//7
f 7//8 9//8 10//8
f 11//9 10//9 12//9 13//9
f 10//10 9//10 12//10
f 13//11 12//11 1//11 2//11
f 12//12 9//12 1//12
f 15//13 14//13 16//13 17//13
f 14//14 22//14 16//14
f 16//15 22//15 18//15
f 17//16 16//16 18//16 19//16
f 19//17 18//17 20//17 21//17
f 18//18 22//18 20//18
f 21//19 20//19 23//19 24//19
f 20//20 22//20 23//20
f 24//21 23//21 25//21 26//21
f 23//22 22//22 25//22
f 26//23 25//23 14//23 15//23
f 25//24 22//24 14//24
f 28//25 27//25 29//25 30//25
f 27//26 35//26 29//26
f 29//27 35//27 31//27
f 30//28 29//28 31//28 32//28
f 32//29 31//29 33//29 34//29
f 31//30 35//30 33//30
f 34//31 33//31 36//31 37//31
f 33//32 35//32 36//32
f 37//33 36//33 38//33 39//33
f 36//34 35//34 38//34
f 39//35 38//35 27//35 28//35
f 38//36 35//36 27//36
f 53//37 40//37 42//37 54//37
f 40//38 48//38 42//38
f 42//39 48//39 44//39
f 54//40 42//40 44//40 55//40
f 55//41 44//41 46//41 56//41
f 44//42 48//42 46//42
f 56//43 46//43 49//43 57//43
f 46//44 48//44 49//44
f 57//45 49//45 51//45 58//45
f 49//46 48//46 51//46
f 58//47 51//47 40//47 53//47
f 51//48 48//48 40//48
f 52//49 58//49 53//49 41//49
f 50//50 57//50 58//50 52//50
f 47//51 56//51 57//51 50//51
f 45//52 55//52 56//52 47//52
f 43//53 54//53 55//53 45//53
f 41//54 53//54 54//54 43//54
f 72//37 59//37 61//37 73//37
f 59//38 67//38 61//38
f 61//39 67//39 63//39
f 73//40 61//40 63//40 74//40
f 74//41 63//41 65//41 75//41
f 63//42 67//42 65//42
f 75//43 65//43 68//43 76//43
f 65//44 67//44 68//44
f 76//45 68//45 70//45 77//45
f 68//46 67//46 70//46
f 77//47 70//47 59//47 72//47
f 70//48 67//48 59//48
f 71//49 77//49 72//49 60//49
f 69//50 76//50 77//50 71//50
f 66//51 75//51 76//51 69//51
f 64//52 74//52 75//52 66//52
f 62//55 73//55 74//55 64//55
f 60//54 72//54 73//54 62//54
o stone003_Cube.002
v -0.015043 0.466594 -3.192061
v 0.081051 -0.006137 -3.301223
v 0.489051 0.262017 -2.767904
v 0.509773 -0.006137 -2.883376
v 0.365322 0.586344 -2.244391
v 0.440622 -0.006137 -2.079830
v 0.016114 0.678389 -1.856776
v 0.377443 -0.004258 -1.505914
v 0.175476 0.560610 -2.460813
v -0.681543 0.500898 -2.132282
v -0.845715 -0.006137 -2.014610
v -0.676069 0.469497 -2.815694
v -0.982996 -0.006137 -3.043360
v 0.033004 0.230229 -3.246642
v 0.506790 0.068060 -2.810835
v 0.581608 0.254434 -2.166032
v 0.271793 0.382361 -1.632895
v -0.744860 0.233791 -2.211368
v -0.816675 0.246053 -2.990575
v -0.234136 0.002184 -1.760262
v -0.291108 0.635878 -1.951575
v -0.211723 0.300657 -1.722960
vn 0.5334 0.8102 -0.2431
vn 0.6908 0.2586 -0.6752
vn 0.3714 0.8260 -0.4240
vn 0.9086 0.3953 -0.1348
vn 0.0655 0.9825 -0.1743
vn 0.6746 0.6631 0.3244
vn -0.1373 0.9539 -0.2668
vn -0.6025 0.1771 0.7782
vn -0.0871 0.9951 -0.0464
vn -0.9295 0.3670 0.0374
vn -0.0594 0.9919 -0.1120
vn -0.3351 0.4738 -0.8144
vn -0.2481 0.2648 -0.9318
vn -0.8612 0.4977 0.1030
vn -0.5260 0.3500 0.7752
vn 0.9482 0.0515 0.3134
vn 0.9242 -0.3792 0.0452
vn 0.6722 0.3724 -0.6399
vn -0.3043 0.0872 0.9486
vn -0.2701 0.4621 0.8447
usemtl stone
s off
f 78//56 86//56 80//56
f 91//57 78//57 80//57 92//57
f 80//58 86//58 82//58
f 92//59 80//59 82//59 93//59
f 82//60 86//60 84//60
f 93//61 82//61 84//61 94//61
f 84//62 86//62 87//62 98//62
f 99//63 98//63 87//63 95//63
f 87//64 86//64 89//64
f 95//65 87//65 89//65 96//65
f 89//66 86//66 78//66
f 96//67 89//67 78//67 91//67
f 90//68 96//68 91//68 79//68
f 88//69 95//69 96//69 90//69
f 97//70 99//70 95//70 88//70
f 83//71 93//71 94//71 85//71
f 81//72 92//72 93//72 83//72
f 79//73 91//73 92//73 81//73
f 85//74 94//74 99//74 97//74
f 94//75 84//75 98//75 99//75
o stone002_Cube.001
v -0.002677 0.905484 2.484607
v -0.043461 -0.004142 2.712307
v 1.258230 0.923618 3.244249
v 1.755593 -0.004142 2.981365
v 1.083501 1.028115 4.512629
v 1.508720 0.005220 4.598105
v -0.421146 0.530239 5.059604
v 0.083960 -0.016567 5.882337
v 0.263385 1.000362 3.779587
v -0.726768 0.674281 3.571602
v -1.471238 -0.013768 4.523533
v 0.856503 0.005472 5.259015
v 0.387366 0.774226 4.818282
v -0.023069 0.450671 2.598457
v 1.502936 0.443641 3.126179
v 1.293441 0.505862 4.564344
v -0.168593 0.256836 5.470971
v -1.099003 0.330256 4.047567
v 0.737424 0.411245 5.074724
v 1.201174 1.098589 3.776493
v 1.632156 0.000539 3.789735
v 1.411954 0.530488 3.798960
v 0.556224 -0.004142 2.801993
v 1.155908 -0.004142 2.891679
v 0.837927 0.917573 2.991035
v 0.417625 0.911529 2.737822
v 0.491513 0.389727 2.607879
v 1.000181 0.387383 2.783786
vn 0.0338 0.9962 -0.0799
vn 0.4670 0.4359 -0.7693
vn -0.1040 0.9899 -0.0959
vn 0.9160 0.3648 0.1672
vn -0.2281 0.9453 0.2330
vn 0.0687 0.7525 0.6550
vn -0.3388 0.9273 0.1594
vn -0.6979 0.6286 0.3432
vn -0.3117 0.9502 -0.0056
vn -0.8132 -0.0295 -0.5813
vn 0.3683 0.5048 0.7807
vn 0.6241 0.3927 0.6755
vn -0.7904 -0.0615 -0.6095
vn -0.4855 0.7469 0.4542
vn 0.3054 0.7168 0.6268
vn 0.9102 0.3881 0.1448
vn 0.3475 0.2093 -0.9140
vn 0.9017 0.4196 0.1046
vn 0.9177 0.3964 0.0266
vn 0.0651 -0.3374 -0.9391
vn 0.2221 -0.2950 -0.9293
vn 0.2720 0.0307 -0.9618
vn 0.3902 0.3593 -0.8477
usemtl stone
s off
f 100//76 108//76 102//76 124//76 125//76
f 127//77 124//77 102//77 114//77
f 102//78 108//78 104//78 119//78
f 121//79 119//79 104//79 115//79
f 104//80 108//80 106//80 112//80
f 118//81 112//81 106//81 116//81
f 106//82 108//82 109//82
f 116//83 106//83 109//83 117//83
f 109//84 108//84 100//84
f 113//85 117//85 109//85 100//85
f 115//86 104//86 112//86 118//86
f 105//87 115//87 118//87 111//87
f 101//88 110//88 117//88 113//88
f 107//89 116//89 117//89 110//89
f 111//90 118//90 116//90 107//90
f 120//91 121//91 115//91 105//91
f 123//92 127//92 114//92 103//92
f 103//93 114//93 121//93 120//93
f 114//94 102//94 119//94 121//94
f 101//95 113//95 126//95 122//95
f 122//96 126//96 127//96 123//96
f 113//97 100//97 125//97 126//97
f 126//98 125//98 124//98 127//98
o stone001_Cube
v -0.015043 0.472731 -0.745210
v -0.033501 -0.000000 -0.634529
v 0.612373 0.707107 -0.353553
v 0.866026 -0.000000 -0.500000
v 0.521371 0.869049 0.286598
v 0.742589 -0.000000 0.308370
v 0.099328 0.858866 0.675983
v -0.000000 -0.000000 1.000000
v 0.057965 0.724561 0.000659
v -0.681543 0.507035 0.314568
v -0.845715 -0.000000 0.432241
v -0.646895 0.564125 -0.428452
v -0.982996 -0.000000 -0.596510
vn -0.1629 0.9395 -0.3013
vn 0.3120 0.0909 -0.9457
vn -0.1368 0.9556 -0.2612
vn 0.9540 0.2787 0.1101
vn -0.1897 0.9651 -0.1803
vn 0.6669 0.1912 0.7202
vn -0.3415 0.9256 -0.1632
vn -0.5205 0.3520 0.7779
vn -0.2573 0.9643 0.0621
vn -0.9053 0.4197 0.0660
vn -0.0222 0.9479 -0.3179
vn -0.2103 0.1256 -0.9695
usemtl stone
s off
f 128//99 136//99 130//99
f 129//100 128//100 130//100 131//100
f 130//101 136//101 132//101
f 131//102 130//102 132//102 133//102
f 132//103 136//103 134//103
f 133//104 132//104 134//104 135//104
f 134//105 136//105 137//105
f 135//106 134//106 137//106 138//106
f 137//107 136//107 139//107
f 138//108 137//108 139//108 140//108
f 139//109 136//109 128//109
f 140//110 139//110 128//110 129//110
