# Blender v2.77 (sub 0) OBJ File: 'teaspoon.blend'
# www.blender.org
mtllib teaspoon.mtl
o EmptyMesh
v 0.078562 0.016862 -0.044360
v 0.067537 0.030811 -0.222725
v 0.068998 0.031299 -0.331914
v 0.065212 0.023836 -0.497039
v 0.098774 0.010002 -0.547512
v 0.006349 0.009868 -0.546038
v 0.041460 0.023836 -0.496523
v 0.037558 0.031048 -0.330261
v 0.036103 0.031048 -0.222190
v 0.025116 0.017177 -0.043397
v 0.067687 0.016862 -0.033834
v 0.036983 0.016862 -0.033834
v 0.036983 0.021624 -0.033834
v 0.067687 0.021624 -0.033834
v 0.025116 0.021939 -0.043397
v 0.036103 0.035810 -0.222190
v 0.037558 0.035810 -0.330261
v 0.041460 0.028598 -0.496523
v 0.006349 0.014630 -0.546038
v 0.098774 0.014764 -0.547512
v 0.065212 0.028598 -0.497039
v 0.068998 0.036061 -0.331914
v 0.067537 0.035573 -0.222725
v 0.078562 0.021624 -0.044360
v -0.002298 0.010487 -0.577708
v -0.002298 0.015249 -0.577708
v 0.001395 0.009111 -0.636567
v 0.001395 0.011269 -0.636567
v 0.030468 0.005997 -0.669747
v 0.030468 0.006683 -0.669747
v 0.077504 0.006000 -0.668654
v 0.077504 0.005315 -0.668654
v 0.102005 0.012717 -0.637694
v 0.102005 0.010403 -0.637694
v 0.108792 0.010278 -0.578999
v 0.108792 0.015040 -0.578999
v 0.036684 -0.003763 -0.577848
v 0.069947 -0.003799 -0.577467
v 0.070565 0.000977 -0.635337
v 0.037303 0.001014 -0.635931
v 0.037303 0.003416 -0.635931
v 0.070565 0.003380 -0.635337
v 0.069947 -0.001397 -0.577467
v 0.036684 -0.001360 -0.577848
vt 0.5247 0.7285
vt 0.6175 0.8113
vt 0.3371 0.8011
vt 0.4526 0.7256
vt 0.5636 0.4694
vt 0.4684 0.4641
vt 0.5770 0.2980
vt 0.4816 0.2945
vt 0.6388 0.0201
vt 0.4767 0.0140
vt 0.5143 0.0000
vt 0.6075 0.0026
vt 0.3331 0.0201
vt 0.1710 0.0140
vt 0.2086 0.0000
vt 0.3018 0.0026
vt 0.2712 0.2980
vt 0.1759 0.2945
vt 0.2579 0.4694
vt 0.1626 0.4641
vt 0.2189 0.7285
vt 0.1469 0.7256
vt 0.3118 0.8113
vt 0.0314 0.8011
vt 0.7166 0.0535
vt 0.7149 0.0301
vt 0.7294 0.0300
vt 0.7310 0.0534
vt 0.7140 0.0001
vt 0.7285 0.0000
vt 0.6435 0.8224
vt 0.6580 0.8225
vt 0.6573 0.8454
vt 0.6428 0.8453
vt 0.6928 0.5900
vt 0.7073 0.5901
vt 0.7649 0.2624
vt 0.7794 0.2622
vt 0.6987 0.4409
vt 0.7132 0.4411
vt 0.7689 0.3939
vt 0.7833 0.3938
vt 0.6826 0.2201
vt 0.6971 0.2203
vt 0.7529 0.5947
vt 0.7674 0.5946
vt 0.6434 0.1247
vt 0.6578 0.1248
vt 0.7132 0.6903
vt 0.7277 0.6902
vt 0.7310 0.7376
vt 0.7165 0.7377
vt 0.7209 0.8065
vt 0.7144 0.8066
vt 0.7977 0.2148
vt 0.8043 0.2149
vt 0.7893 0.2592
vt 0.7872 0.2592
vt 0.7854 0.3332
vt 0.7833 0.3332
vt 0.8049 0.3729
vt 0.7979 0.3729
vt 0.6483 0.0000
vt 0.6553 0.0001
vt 0.6602 0.0742
vt 0.6457 0.0741
vt 0.5243 0.8566
vt 0.4233 0.8544
vt 0.6428 0.8615
vt 0.7840 0.0000
vt 0.8709 0.0251
vt 0.7833 0.0705
vt 0.9901 0.0941
vt 0.9101 0.1344
vt 0.5170 0.9472
vt 0.4159 0.9453
vt 0.6126 0.9530
vt 1.0000 0.1634
vt 0.8994 0.2148
vt 0.8396 0.1710
vt 0.7838 0.2076
vt 0.2185 0.8568
vt 0.1174 0.8545
vt 0.3371 0.8615
vt 0.0000 0.8500
vt 0.1101 0.9454
vt 0.0014 0.9429
vt 0.2112 0.9473
vt 0.3068 0.9531
vt 0.0840 0.9977
vt 0.2269 1.0000
vn 0.6330 0.7714 0.0656
vn 0.6194 0.7729 0.1372
vn -0.9496 0.2309 0.2120
vn -0.6315 0.7717 0.0747
vn 0.7156 0.6982 -0.0187
vn -0.7139 0.6997 -0.0271
vn 0.7084 0.7057 0.0106
vn -0.7092 0.7049 0.0020
vn 0.7129 0.6239 0.3202
vn -0.6995 0.6172 0.3601
vn -0.2493 0.6375 0.7290
vn 0.2911 0.6267 0.7229
vn 0.7335 0.6057 0.3083
vn -0.7202 0.6042 0.3410
vn -0.2540 0.6326 0.7316
vn 0.6917 0.7220 0.0130
vn -0.6916 0.7222 0.0042
vn 0.7044 0.7095 -0.0186
vn -0.7042 0.7095 -0.0271
vn 0.5963 0.8026 0.0132
vn -0.5956 0.8030 0.0203
vn 0.6701 0.7210 0.1763
vn -0.6819 0.7075 0.1857
vn -0.6093 0.7901 0.0675
vn -0.8295 -0.5534 0.0746
vn -0.6204 0.7240 -0.3015
vn -0.7813 -0.5460 -0.3023
vn -0.2886 0.6427 -0.7096
vn -0.3379 -0.5828 -0.7390
vn 0.3225 0.6298 -0.7066
vn 0.3735 -0.5933 -0.7131
vn 0.5807 0.7555 -0.3032
vn 0.8920 0.2012 -0.4047
vn 0.6207 0.7813 0.0643
vn 0.6409 0.7638 0.0763
vn -0.1268 0.9827 -0.1350
vn -0.3971 0.8032 -0.4439
vn -0.2407 -0.9655 -0.0989
vn -0.6119 0.7121 -0.3443
vn -0.1415 0.9762 -0.1643
vn 0.1300 0.9780 -0.1630
vn 0.1273 0.9900 0.0613
vn -0.1490 0.9871 0.0592
usemtl Material.001
s 1
f 4/1/1 5/2/2 6/3/3 7/4/4
f 3/5/5 4/1/1 7/4/4 8/6/6
f 2/7/7 3/5/5 8/6/6 9/8/8
f 1/9/9 2/7/7 9/8/8 10/10/10
f 1/9/9 10/10/10 12/11/11 11/12/12
f 24/13/13 15/14/14 13/15/15 14/16/12
f 24/13/13 23/17/16 16/18/17 15/14/14
f 23/17/16 22/19/18 17/20/19 16/18/17
f 22/19/18 21/21/20 18/22/21 17/20/19
f 21/21/20 20/23/22 19/24/23 18/22/21
f 10/25/10 12/26/11 13/27/15 15/28/14
f 11/29/12 14/30/12 13/27/15 12/26/11
f 1/31/9 24/32/13 14/33/12 11/34/12
f 1/31/9 2/35/7 23/36/16 24/32/13
f 9/37/8 10/25/10 15/28/14 16/38/17
f 2/35/7 3/39/5 22/40/18 23/36/16
f 8/41/6 9/37/8 16/38/17 17/42/19
f 3/39/5 4/43/1 21/44/20 22/40/18
f 7/45/4 8/41/6 17/42/19 18/46/21
f 4/43/1 5/47/2 20/48/22 21/44/20
f 6/49/3 7/45/4 18/46/21 19/50/23
f 6/49/3 19/50/23 26/51/24 25/52/25
f 25/52/25 26/51/24 28/53/26 27/54/27
f 27/55/27 28/56/26 30/57/28 29/58/29
f 29/58/29 30/57/28 31/59/30 32/60/31
f 32/60/31 31/59/30 33/61/32 34/62/33
f 34/63/33 33/64/32 36/65/34 35/66/35
f 35/66/35 36/65/34 20/48/22 5/47/2
f 5/2/2 38/67/36 37/68/37 6/3/3
f 5/2/2 35/69/35 38/67/36
f 6/70/3 25/71/25 37/72/37
f 25/71/25 27/73/27 40/74/38 37/72/37
f 37/68/37 38/67/36 39/75/39 40/76/38
f 34/77/33 39/75/39 38/67/36 35/69/35
f 29/78/29 32/79/31 39/80/39 40/74/38
f 32/79/31 34/81/33 39/80/39
f 27/73/27 29/78/29 40/74/38
f 19/24/23 20/23/22 43/82/40 44/83/41
f 20/23/22 36/84/34 43/82/40
f 19/24/23 44/83/41 26/85/24
f 26/85/24 44/83/41 41/86/42 28/87/26
f 44/83/41 43/82/40 42/88/43 41/86/42
f 33/89/32 42/88/43 43/82/40 36/84/34
f 28/87/26 41/86/42 30/90/28
f 30/90/28 41/86/42 42/88/43 31/91/30
f 31/91/30 42/88/43 33/89/32
