# Blender v2.77 (sub 0) OBJ File: 'dim_arboretum.blend'
# www.blender.org
mtllib tree2.mtl
o AbiesBalsamica_Fir
v 10.117583 -0.100000 -20.117582
v 10.166287 -0.100000 -20.000000
v 10.117583 -0.100000 -19.882418
v 10.000000 -0.100000 -19.833714
v 9.882417 -0.100000 -19.882418
v 9.833713 -0.100000 -20.000000
v 9.882417 -0.100000 -20.117582
v 10.000000 -0.100000 -20.166286
v 10.000000 9.173182 -20.000000
v 7.900000 2.600000 -20.000000
v 7.900000 1.400000 -21.400000
v 10.000000 3.800000 -20.000000
v 7.900000 1.400000 -18.600000
v 5.800000 2.200000 -20.000000
v 10.000000 3.100000 -21.000000
v 5.800000 0.700000 -21.600000
v 5.800000 0.700000 -18.400000
v 10.000000 3.100000 -19.000000
v 9.194561 3.176346 -19.534979
v 6.758212 1.231883 -22.638811
v 9.335617 1.231883 -24.126877
v 10.805439 3.176346 -20.465021
v 8.046914 2.626944 -23.382845
v 7.895843 1.595277 -21.040394
v 10.000000 3.827375 -20.000000
v 10.151072 1.595277 -22.342451
v 9.023458 2.711326 -21.691422
v 12.114969 2.657704 -20.566704
v 12.492771 1.406518 -19.156725
v 10.000000 3.908891 -20.000000
v 11.737165 1.406518 -21.976683
v 14.229938 2.240642 -21.133408
v 10.269859 3.179032 -18.992872
v 14.661711 0.676659 -19.522003
v 13.798162 0.676659 -22.744812
v 9.730141 3.179032 -21.007128
v 10.954475 3.140716 -20.091757
v 11.912542 0.520599 -16.138018
v 8.858222 0.520599 -15.844393
v 9.045525 3.140716 -19.908243
v 10.385382 1.958912 -15.991203
v 11.528956 1.510627 -18.124063
v 10.000000 3.811928 -20.000000
v 8.856426 1.510627 -17.867142
v 10.192691 2.661277 -17.995602
v 8.834340 3.696591 -18.586384
v 7.891930 2.649601 -19.363491
v 10.000000 4.743580 -20.000000
v 9.776751 2.649601 -17.809278
v 7.668680 2.962620 -17.172768
v 9.326850 4.132837 -20.555077
v 6.591641 1.653883 -18.060890
v 8.745722 1.653883 -16.284647
v 10.673150 4.132837 -19.444923
v 10.474361 4.167701 -20.821619
v 14.209777 2.235973 -19.322271
v 12.691819 2.235973 -16.693090
v 9.525639 4.167701 -19.178381
v 13.450798 3.659058 -18.007681
v 12.389505 2.554871 -20.154106
v 10.000000 4.831808 -20.000000
v 11.061293 2.554871 -17.853575
v 11.725399 3.693339 -19.003839
v 10.459956 3.742131 -21.716579
v 11.604342 2.726626 -21.409943
v 10.000000 4.757636 -20.000000
v 9.315570 2.726626 -22.023216
v 10.919912 3.109602 -23.433159
v 10.817419 4.165257 -19.780973
v 12.227782 1.840221 -23.082716
v 9.612042 1.840221 -23.783602
v 9.182581 4.165257 -20.219027
v 9.356596 4.095789 -19.356596
v 6.268256 1.912003 -21.672852
v 8.327149 1.912003 -23.731745
v 10.643404 4.095789 -20.643404
v 7.297702 3.276869 -22.702297
v 7.748085 2.548941 -20.450382
v 10.000000 4.732727 -20.000000
v 9.549617 2.548941 -22.251915
v 8.648851 3.640834 -21.351149
v 9.908440 5.679350 -18.451689
v 8.876232 4.268624 -18.512730
v 10.000000 7.090074 -20.000000
v 10.940647 4.268624 -18.390648
v 9.816879 5.209108 -16.903378
v 9.262709 6.267151 -20.043600
v 8.637214 3.445702 -16.973137
v 10.996545 3.445702 -16.833618
v 10.737291 6.267151 -19.956400
v 10.307738 6.356903 -19.385881
v 7.913085 3.957239 -17.724911
v 6.928324 3.957239 -19.690088
v 9.692262 6.356903 -20.614119
v 7.420704 5.597279 -18.707500
v 9.141186 4.498193 -18.493984
v 10.000000 7.122256 -20.000000
v 8.279519 4.498193 -20.213514
v 8.710352 5.810225 -19.353750
v 9.674387 5.612421 -21.584055
v 10.730425 4.141522 -21.801130
v 10.000000 7.218086 -20.000000
v 8.618350 4.141522 -21.366982
v 9.348775 4.818441 -23.168112
v 10.754313 6.360061 -20.155054
v 10.555674 2.979817 -23.416197
v 8.141874 2.979817 -22.920025
v 9.245687 6.360061 -19.844946
v 9.973964 6.315016 -20.707727
v 12.930792 3.455867 -21.241716
v 13.014111 3.455867 -18.976994
v 10.026036 6.315016 -19.292273
v 12.972452 5.146753 -20.109354
v 11.449775 4.398678 -21.045494
v 10.000000 7.104096 -20.000000
v 11.522677 4.398678 -19.063860
v 11.486226 5.751387 -20.054678
v 10.772369 7.201506 -19.397705
v 10.366645 5.890622 -18.844166
v 9.942060 8.512388 -20.006290
v 11.178093 5.890622 -19.951244
v 11.602678 7.064483 -18.789118
v 9.652257 7.747707 -19.610907
v 11.138993 5.425879 -18.156502
v 12.066362 5.425879 -19.421736
v 10.231863 7.747707 -20.401676
v 9.465978 7.791359 -20.246061
v 10.187362 4.940520 -22.389469
v 11.710826 4.940520 -21.622206
v 10.418142 7.791359 -19.766521
v 10.949095 6.722295 -22.005838
v 9.779061 5.772015 -21.341743
v 9.942060 8.622853 -20.006290
v 11.112092 5.772015 -20.670385
v 10.445577 7.197434 -21.006063
v 8.964412 7.258523 -20.209309
v 9.099757 5.987060 -20.861074
v 9.942060 8.529986 -20.006290
v 8.829067 5.987060 -19.557545
v 7.986764 6.834703 -20.412327
v 10.038734 7.788299 -20.471838
v 8.141444 5.245373 -21.157200
v 7.832085 5.245373 -19.667452
v 9.845385 7.788299 -19.540745
v 10.323588 7.701322 -19.665987
v 9.123231 4.967113 -17.859385
v 7.902338 4.967113 -18.948355
v 9.560531 7.701322 -20.346596
v 8.512784 6.675993 -18.403870
v 9.761562 5.764589 -18.728655
v 9.942060 8.498799 -20.006290
v 8.693281 5.764589 -19.681505
v 9.227422 7.131695 -19.205080
v 11.245123 4.576352 -18.552294
v 10.279503 3.379839 -17.721430
v 9.998826 5.772865 -20.000725
v 12.210744 3.379839 -19.383160
v 12.491421 4.177514 -17.103865
v 9.309097 5.074899 -19.407249
v 11.387855 2.681873 -16.154305
v 13.594986 2.681873 -18.053423
v 10.688555 5.074899 -20.594200
v 10.797572 5.151023 -19.721169
v 10.102682 2.603213 -16.198702
v 7.546696 2.603213 -17.093285
v 9.200081 5.151023 -20.280281
v 8.824689 3.994220 -16.645994
v 10.530002 3.574548 -17.931980
v 9.998826 5.800160 -20.000725
v 8.293514 3.574548 -18.714737
v 9.411757 4.687355 -18.323359
v 8.352775 4.633888 -21.123154
v 9.101061 3.386338 -22.220522
v 9.998826 5.881439 -20.000725
v 7.604487 3.386338 -20.025785
v 6.706722 4.596322 -22.245584
v 10.533317 5.153701 -20.784559
v 7.561906 3.036884 -23.499720
v 5.851537 3.036884 -20.991449
v 9.464336 5.153701 -19.216890
v 9.369081 5.115496 -20.604597
v 11.527500 2.399021 -23.611849
v 13.542684 2.399021 -21.679455
v 10.628571 5.115496 -19.396852
v 12.535093 3.833154 -22.645653
v 10.385317 3.490144 -22.168610
v 9.998826 5.784758 -20.000725
v 12.148602 3.490144 -20.477766
v 11.266960 4.637451 -21.323189
v 9.622519 6.611114 -20.793901
v 10.765118 6.611114 -20.218454
v 10.193818 7.739571 -20.506178
v 10.042576 6.618762 -19.197321
v 9.126905 6.618762 -20.014050
v 9.584741 7.701053 -19.605686
v 10.357214 7.659274 -19.701998
v 10.009451 6.621491 -19.227535
v 10.704978 6.621491 -20.176460
v 9.453236 7.740297 -20.107800
v 9.569246 6.733722 -20.666456
v 9.337226 6.733722 -19.549145
vt 0.5000 0.0000
vt 0.5000 0.5000
vt 0.0000 0.5000
vt 0.0000 0.0000
vt 0.5000 1.0000
vt 0.0000 1.0000
vt 1.0000 0.0000
vt 1.0000 0.5000
vt 1.0000 1.0000
vt 1.0000 0.5000
vt 1.0000 0.0000
vt 0.5000 0.0000
vt 0.5000 0.5000
vt 1.0000 1.0000
vt 0.5000 1.0000
vt 0.0000 0.0000
vt 0.0000 0.5000
vt 0.0000 1.0000
vt 0.5000 0.0000
vt 0.5000 0.5000
vt 0.0000 0.5000
vt 0.0000 0.0000
vt 0.5000 1.0000
vt 0.0000 1.0000
vt 1.0000 0.0000
vt 1.0000 0.5000
vt 1.0000 1.0000
vt 1.0000 0.5000
vt 1.0000 0.0000
vt 0.5000 0.0000
vt 0.5000 0.5000
vt 1.0000 1.0000
vt 0.5000 1.0000
vt 0.0000 0.0000
vt 0.0000 0.5000
vt 0.0000 1.0000
vt 0.5000 1.0000
vt 0.5000 0.5000
vt 0.0000 0.5000
vt 0.0000 1.0000
vt 0.5000 0.0000
vt 0.0000 0.0000
vt 1.0000 1.0000
vt 1.0000 0.5000
vt 1.0000 0.0000
vt 1.0000 0.5000
vt 1.0000 1.0000
vt 0.5000 1.0000
vt 0.5000 0.5000
vt 1.0000 0.0000
vt 0.5000 0.0000
vt 0.0000 1.0000
vt 0.0000 0.5000
vt 0.0000 0.0000
vt 0.5000 1.0000
vt 0.5000 0.5000
vt 0.0000 0.5000
vt 0.0000 1.0000
vt 0.5000 0.0000
vt 0.0000 0.0000
vt 1.0000 1.0000
vt 1.0000 0.5000
vt 1.0000 0.0000
vt 1.0000 0.5000
vt 1.0000 1.0000
vt 0.5000 1.0000
vt 0.5000 0.5000
vt 1.0000 0.0000
vt 0.5000 0.0000
vt 0.0000 1.0000
vt 0.0000 0.5000
vt 0.0000 0.0000
vt 0.5000 0.0000
vt 0.5000 0.5000
vt 0.0000 0.5000
vt 0.0000 0.0000
vt 0.5000 1.0000
vt 0.0000 1.0000
vt 1.0000 0.0000
vt 1.0000 0.5000
vt 1.0000 1.0000
vt 1.0000 0.5000
vt 1.0000 0.0000
vt 0.5000 0.0000
vt 0.5000 0.5000
vt 1.0000 1.0000
vt 0.5000 1.0000
vt 0.0000 0.0000
vt 0.0000 0.5000
vt 0.0000 1.0000
vt 0.5000 0.0000
vt 0.5000 0.5000
vt 0.0000 0.5000
vt 0.0000 0.0000
vt 0.5000 1.0000
vt 0.0000 1.0000
vt 1.0000 0.0000
vt 1.0000 0.5000
vt 1.0000 1.0000
vt 1.0000 0.5000
vt 1.0000 0.0000
vt 0.5000 0.0000
vt 0.5000 0.5000
vt 1.0000 1.0000
vt 0.5000 1.0000
vt 0.0000 0.0000
vt 0.0000 0.5000
vt 0.0000 1.0000
vt 1.0000 1.0000
vt 1.0000 0.5000
vt 0.5000 0.5000
vt 0.5000 1.0000
vt 1.0000 0.0000
vt 0.5000 0.0000
vt 1.0000 0.5000
vt 1.0000 1.0000
vt 0.5000 1.0000
vt 0.5000 0.5000
vt 1.0000 0.0000
vt 0.5000 0.0000
vt 1.0000 1.0000
vt 1.0000 0.5000
vt 0.5000 0.5000
vt 0.5000 1.0000
vt 1.0000 0.0000
vt 0.5000 0.0000
vt 1.0000 0.5000
vt 1.0000 1.0000
vt 0.5000 1.0000
vt 0.5000 0.5000
vt 1.0000 0.0000
vt 0.5000 0.0000
vt 0.5000 0.0000
vt 0.5000 0.5000
vt 0.0000 0.5000
vt 0.0000 0.0000
vt 0.5000 1.0000
vt 0.0000 1.0000
vt 1.0000 0.0000
vt 1.0000 0.5000
vt 1.0000 1.0000
vt 1.0000 0.5000
vt 1.0000 0.0000
vt 0.5000 0.0000
vt 0.5000 0.5000
vt 1.0000 1.0000
vt 0.5000 1.0000
vt 0.0000 0.0000
vt 0.0000 0.5000
vt 0.0000 1.0000
vt 0.5000 0.0000
vt 0.5000 0.5000
vt 0.0000 0.5000
vt 0.0000 0.0000
vt 0.5000 1.0000
vt 0.0000 1.0000
vt 1.0000 0.0000
vt 1.0000 0.5000
vt 1.0000 1.0000
vt 1.0000 0.5000
vt 1.0000 0.0000
vt 0.5000 0.0000
vt 0.5000 0.5000
vt 1.0000 1.0000
vt 0.5000 1.0000
vt 0.0000 0.0000
vt 0.0000 0.5000
vt 0.0000 1.0000
vt 0.2500 1.0000
vt 0.2500 0.5000
vt 0.0000 1.0000
vt 0.0000 0.5000
vt 0.2500 0.0000
vt 0.0000 0.0000
vt 0.2500 1.0000
vt 0.2500 0.5000
vt 0.0000 1.0000
vt 0.0000 0.5000
vt 0.2500 0.0000
vt 0.0000 0.0000
vt 0.2500 0.5000
vt 0.2500 1.0000
vt 0.0000 0.5000
vt 0.0000 1.0000
vt 0.2500 0.0000
vt 0.0000 0.0000
vt 0.2500 0.5000
vt 0.2500 1.0000
vt 0.0000 0.5000
vt 0.0000 1.0000
vt 0.2500 0.0000
vt 0.0000 0.0000
vt 0.2225 -1.6530
vt 0.4744 3.5428
vt 0.1453 -1.6530
vt 0.8004 -1.6530
vt 0.7238 -1.6530
vt 0.6447 -1.6530
vt 0.5603 -1.6530
vt 0.3040 -1.6530
vt 0.3885 -1.6530
vt 0.4744 -1.6530
vn -0.2611 0.7311 -0.6303
vn -0.4027 0.9153 0.0000
vn -0.5239 0.8518 0.0000
vn -0.4344 0.7062 -0.5591
vn -0.2611 0.7311 0.6303
vn -0.4344 0.7062 0.5591
vn -0.1607 0.7336 -0.6603
vn -0.2140 0.9768 0.0000
vn -0.1607 0.7336 0.6603
vn -0.0358 0.9974 -0.0620
vn -0.6052 0.7422 0.2879
vn -0.6528 0.7428 0.1489
vn -0.1714 0.9394 -0.2969
vn 0.5519 0.7422 -0.3801
vn 0.4553 0.7428 -0.4909
vn -0.7013 0.7062 -0.0966
vn -0.2619 0.8518 -0.4537
vn 0.2670 0.7062 -0.6557
vn 0.4154 0.7311 0.5412
vn 0.3890 0.9153 -0.1042
vn 0.5060 0.8518 -0.1356
vn 0.5643 0.7062 0.4276
vn 0.0891 0.7311 -0.6764
vn 0.2748 0.7062 -0.6525
vn 0.3261 0.7336 0.5962
vn 0.2067 0.9768 -0.0554
vn -0.0157 0.7336 -0.6793
vn 0.0338 0.9356 0.3514
vn 0.6670 0.7157 0.2072
vn 0.6455 0.7152 0.2679
vn 0.0438 0.8889 0.4560
vn -0.6153 0.7157 0.3305
vn -0.5827 0.7152 0.3860
vn 0.5981 0.7062 0.3789
vn 0.0501 0.8518 0.5215
vn -0.5149 0.7062 0.4859
vn -0.6947 0.7093 -0.1194
vn -0.3016 0.8804 0.3658
vn -0.3333 0.8518 0.4042
vn -0.7077 0.7062 -0.0205
vn 0.2495 0.7093 0.6592
vn 0.1550 0.7062 0.6908
vn -0.6850 0.7081 -0.1710
vn -0.2509 0.9189 0.3043
vn 0.2983 0.7081 0.6399
vn 0.0396 0.9989 0.0229
vn 0.3637 0.7429 -0.5620
vn 0.4819 0.7445 -0.4621
vn 0.2870 0.9435 0.1657
vn -0.3048 0.7429 0.5960
vn -0.1592 0.7445 0.6483
vn 0.6557 0.7062 -0.2670
vn 0.4537 0.8518 0.2619
vn 0.0966 0.7062 0.7013
vn 0.6811 0.7144 -0.1606
vn 0.1191 0.8877 -0.4447
vn 0.1356 0.8518 -0.5060
vn 0.6525 0.7062 -0.2748
vn -0.5095 0.7144 -0.4796
vn -0.4276 0.7062 -0.5643
vn 0.6924 0.7147 -0.0989
vn 0.0929 0.9334 -0.3466
vn -0.5502 0.7147 -0.4319
vn -0.1513 0.9768 -0.1513
vn -0.5805 0.7336 0.3532
vn -0.6304 0.7311 0.2611
vn -0.2848 0.9153 -0.2848
vn 0.3532 0.7336 -0.5805
vn 0.2611 0.7311 -0.6304
vn -0.7025 0.7062 0.0882
vn -0.3704 0.8518 -0.3704
vn 0.0882 0.7062 -0.7025
vn -0.7916 0.5598 0.2448
vn -0.0348 0.8081 0.5880
vn -0.0413 0.7145 0.6983
vn -0.6987 0.5310 0.4794
vn 0.7572 0.5598 0.3364
vn 0.6373 0.5310 0.5585
vn -0.8143 0.5613 0.1479
vn -0.0194 0.9442 0.3286
vn 0.7912 0.5613 0.2428
vn -0.1695 0.9818 0.0849
vn 0.2669 0.5689 0.7779
vn 0.1431 0.5692 0.8097
vn -0.4864 0.8390 0.2438
vn -0.4633 0.5689 -0.6794
vn -0.5629 0.5692 -0.5993
vn -0.1650 0.5310 0.8311
vn -0.6254 0.7145 0.3134
vn -0.7645 0.5310 -0.3653
vn 0.6660 0.5440 -0.5103
vn -0.1320 0.7551 -0.6421
vn -0.1466 0.6854 -0.7132
vn 0.5293 0.5187 -0.6714
vn -0.8133 0.5440 -0.2062
vn -0.7512 0.5187 -0.4082
vn 0.7087 0.5472 -0.4453
vn -0.0952 0.8812 -0.4630
vn -0.8269 0.5472 -0.1297
vn 0.4116 0.9112 -0.0151
vn 0.2211 0.5541 -0.8025
vn 0.2997 0.5527 -0.7776
vn 0.6139 0.7891 -0.0226
vn 0.2795 0.5541 0.7841
vn 0.3560 0.5527 0.7535
vn 0.4949 0.5310 -0.6878
vn 0.6991 0.7146 -0.0257
vn 0.5441 0.5310 0.6496
vn -0.4565 0.4445 0.7707
vn 0.1557 0.9812 0.1141
vn 0.4455 0.8336 0.3265
vn -0.3765 0.4465 0.8117
vn 0.5976 0.4445 -0.6673
vn 0.6607 0.4465 -0.6034
vn 0.1973 0.8986 -0.3918
vn -0.6852 0.4360 -0.5834
vn -0.6446 0.4361 -0.6278
vn 0.2921 0.7603 -0.5801
vn 0.8767 0.4360 0.2032
vn 0.8882 0.4361 0.1441
vn -0.0306 0.4360 -0.8994
vn -0.4295 0.8986 -0.0892
vn -0.6349 0.7612 -0.1318
vn -0.0904 0.4362 -0.8953
vn -0.3862 0.4360 0.8129
vn -0.4393 0.4362 0.7853
vn -0.2920 0.8986 0.3273
vn 0.5109 0.4360 0.7409
vn 0.4548 0.4351 0.7770
vn -0.4488 0.7385 0.5032
vn -0.7942 0.4360 -0.4232
vn -0.8238 0.4351 -0.3634
vn -0.3259 0.6994 0.6361
vn 0.2849 0.8996 0.3311
vn 0.3645 0.8292 0.4237
vn -0.1467 0.6731 0.7248
vn 0.6776 0.6994 -0.2273
vn 0.7386 0.6731 -0.0370
vn -0.4148 0.7018 0.5791
vn 0.1522 0.9724 0.1769
vn 0.6345 0.7018 -0.3237
vn -0.1282 0.9215 0.3665
vn 0.5399 0.6819 0.4934
vn 0.4956 0.6817 0.5381
vn -0.1638 0.8684 0.4680
vn -0.7297 0.6819 0.0490
vn -0.7230 0.6817 0.1116
vn 0.4013 0.6731 0.6211
vn -0.1846 0.8292 0.5275
vn -0.7010 0.6731 0.2353
vn 0.2229 0.7135 -0.6642
vn -0.2987 0.9323 -0.2037
vn -0.4617 0.8292 -0.3149
vn -0.0458 0.6731 -0.7381
vn -0.5369 0.7135 0.4501
vn -0.7038 0.6731 0.2268
vn 0.3659 0.7115 -0.5999
vn -0.0414 0.9987 -0.0282
vn -0.4248 0.7115 0.5596
vn 0.2945 0.9049 -0.3071
vn -0.2608 0.6751 -0.6900
vn -0.2107 0.6764 -0.7058
vn 0.3528 0.8603 -0.3679
vn 0.7003 0.6751 0.2317
vn 0.7140 0.6764 0.1809
vn -0.1075 0.6731 -0.7317
vn 0.3868 0.8292 -0.4034
vn 0.7355 0.6731 0.0767
vn -0.4583 0.4204 -0.7830
vn 0.3742 0.5550 -0.7429
vn -0.2855 0.3883 -0.8762
vn 0.3868 0.5105 -0.7679
vn 0.9020 0.4204 -0.0979
vn 0.8739 0.3883 -0.2922
vn 0.2196 0.4152 0.8828
vn -0.5501 0.5630 0.6167
vn 0.0745 0.3975 0.9145
vn -0.5637 0.5318 0.6319
vn -0.9021 0.4152 -0.1176
vn -0.9171 0.3975 0.0301
vn 0.6738 0.5495 0.4939
vn -0.0721 0.4250 0.9023
vn 0.7016 0.4932 0.5142
vn 0.1653 0.3806 0.9098
vn 0.8387 0.4250 -0.3403
vn 0.9174 0.3806 -0.1162
vn -0.8146 0.5547 -0.1692
vn -0.3272 0.4206 -0.8462
vn -0.8423 0.5097 -0.1749
vn -0.5094 0.3880 -0.7681
vn -0.6370 0.4206 0.6459
vn -0.7731 0.3880 0.5018
vn -0.9998 0.0179 0.0000
vn 0.0000 1.0000 0.0001
vn -0.7070 0.0179 -0.7070
vn 0.0000 0.0179 -0.9998
vn 0.7070 0.0179 -0.7070
vn 0.9998 0.0179 0.0000
vn -0.7070 0.0179 0.7070
vn 0.0000 0.0179 0.9998
vn 0.7070 0.0179 0.7070
usemtl Material.TF.66049
s 1
f 11/1/1 10/2/2 12/3/3 15/4/4
f 10/2/2 13/5/5 18/6/6 12/3/3
f 16/7/7 14/8/8 10/2/2 11/1/1
f 14/8/8 17/9/9 13/5/5 10/2/2
f 23/10/10 20/11/11 24/12/12 27/13/13
f 21/14/14 23/10/10 27/13/13 26/15/15
f 27/13/13 24/12/12 19/16/16 25/17/17
f 26/15/15 27/13/13 25/17/17 22/18/18
f 29/19/19 28/20/20 30/21/21 33/22/22
f 28/20/20 31/23/23 36/24/24 30/21/21
f 34/25/25 32/26/26 28/20/20 29/19/19
f 32/26/26 35/27/27 31/23/23 28/20/20
f 41/28/28 38/29/29 42/30/30 45/31/31
f 39/32/32 41/28/28 45/31/31 44/33/33
f 45/31/31 42/30/30 37/34/34 43/35/35
f 44/33/33 45/31/31 43/35/35 40/36/36
f 47/37/37 46/38/38 48/39/39 51/40/40
f 46/38/38 49/41/41 54/42/42 48/39/39
f 52/43/43 50/44/44 46/38/38 47/37/37
f 50/44/44 53/45/45 49/41/41 46/38/38
f 59/46/46 56/47/47 60/48/48 63/49/49
f 57/50/50 59/46/46 63/49/49 62/51/51
f 63/49/49 60/48/48 55/52/52 61/53/53
f 62/51/51 63/49/49 61/53/53 58/54/54
f 65/55/55 64/56/56 66/57/57 69/58/58
f 64/56/56 67/59/59 72/60/60 66/57/57
f 70/61/61 68/62/62 64/56/56 65/55/55
f 68/62/62 71/63/63 67/59/59 64/56/56
f 77/64/64 74/65/65 78/66/66 81/67/67
f 75/68/68 77/64/64 81/67/67 80/69/69
f 81/67/67 78/66/66 73/70/70 79/71/71
f 80/69/69 81/67/67 79/71/71 76/72/72
f 83/73/73 82/74/74 84/75/75 87/76/76
f 82/74/74 85/77/77 90/78/78 84/75/75
f 88/79/79 86/80/80 82/74/74 83/73/73
f 86/80/80 89/81/81 85/77/77 82/74/74
f 95/82/82 92/83/83 96/84/84 99/85/85
f 93/86/86 95/82/82 99/85/85 98/87/87
f 99/85/85 96/84/84 91/88/88 97/89/89
f 98/87/87 99/85/85 97/89/89 94/90/90
f 101/91/91 100/92/92 102/93/93 105/94/94
f 100/92/92 103/95/95 108/96/96 102/93/93
f 106/97/97 104/98/98 100/92/92 101/91/91
f 104/98/98 107/99/99 103/95/95 100/92/92
f 113/100/100 110/101/101 114/102/102 117/103/103
f 111/104/104 113/100/100 117/103/103 116/105/105
f 117/103/103 114/102/102 109/106/106 115/107/107
f 116/105/105 117/103/103 115/107/107 112/108/108
f 124/109/109 122/110/110 118/111/111 119/112/112
f 122/110/110 125/113/113 121/114/114 118/111/111
f 131/115/115 128/116/116 132/117/117 135/118/118
f 129/119/119 131/115/115 135/118/118 134/120/120
f 142/121/121 140/122/122 136/123/123 137/124/124
f 140/122/122 143/125/125 139/126/126 136/123/123
f 149/127/127 146/128/128 150/129/129 153/130/130
f 147/131/131 149/127/127 153/130/130 152/132/132
f 155/133/133 154/134/134 156/135/135 159/136/136
f 154/134/134 157/137/137 162/138/138 156/135/135
f 160/139/139 158/140/140 154/134/134 155/133/133
f 158/140/140 161/141/141 157/137/137 154/134/134
f 167/142/142 164/143/143 168/144/144 171/145/145
f 165/146/146 167/142/142 171/145/145 170/147/147
f 171/145/145 168/144/144 163/148/148 169/149/149
f 170/147/147 171/145/145 169/149/149 166/150/150
f 173/151/151 172/152/152 174/153/153 177/154/154
f 172/152/152 175/155/155 180/156/156 174/153/153
f 178/157/157 176/158/158 172/152/152 173/151/151
f 176/158/158 179/159/159 175/155/155 172/152/152
f 185/160/160 182/161/161 186/162/162 189/163/163
f 183/164/164 185/160/160 189/163/163 188/165/165
f 189/163/163 186/162/162 181/166/166 187/167/167
f 188/165/165 189/163/163 187/167/167 184/168/168
f 132/117/117 190/169/169 192/170/170 135/118/118
f 190/169/169 127/171/171 133/172/172 192/170/170
f 135/118/118 192/170/170 191/173/173 134/120/120
f 192/170/170 133/172/172 130/174/174 191/173/173
f 150/129/129 193/175/175 195/176/176 153/130/130
f 193/175/175 145/177/177 151/178/178 195/176/176
f 153/130/130 195/176/176 194/179/179 152/132/132
f 195/176/176 151/178/178 148/180/180 194/179/179
f 118/111/111 196/181/181 197/182/182 119/112/112
f 196/181/181 120/183/183 123/184/184 197/182/182
f 121/114/114 198/185/185 196/181/181 118/111/111
f 198/185/185 126/186/186 120/183/183 196/181/181
f 136/123/123 199/187/187 200/188/188 137/124/124
f 199/187/187 138/189/189 141/190/190 200/188/188
f 139/126/126 201/191/191 199/187/187 136/123/123
f 201/191/191 144/192/192 138/189/189 199/187/187
usemtl Material.TF.2
f 6/193/193 9/194/194 7/195/195
f 7/196/195 9/194/194 8/197/196
f 1/198/197 8/197/196 9/194/194
f 1/198/197 9/194/194 2/199/198
f 5/200/199 9/194/194 6/193/193
f 4/201/200 9/194/194 5/200/199
f 3/202/201 9/194/194 4/201/200
f 2/199/198 9/194/194 3/202/201
