# This file uses centimeters as units for non-parametric coordinates.

mtllib StandingDesk.mtl
g default
v 33.880669 0.000000 121.454147
v -65.666756 0.000000 21.906805
v -71.364250 0.000000 14.064856
v -74.359612 0.000000 4.846090
v -74.359596 0.000000 -4.847134
v -71.364281 0.000000 -14.065922
v -65.666740 0.000000 -21.907867
v 74.360130 0.000000 104.686981
v 71.775635 0.000000 115.452171
v 64.585564 0.000000 123.870667
v 54.357216 0.000000 128.107391
v 43.320290 0.000000 127.238739
v 32.817436 0.000000 110.977448
v -58.142982 0.000000 20.017071
v -63.349037 0.000000 12.851553
v -66.086021 0.000000 4.428017
v -66.085976 0.000000 -4.429066
v -63.349022 0.000000 -12.852642
v -58.142967 0.000000 -20.018135
v 69.805145 0.000000 95.656601
v 67.443588 0.000000 105.493179
v 60.873734 0.000000 113.185486
v 51.527672 0.000000 117.056793
v 41.442802 0.000000 116.263062
v 33.880669 2.580872 121.454147
v -65.666756 2.580872 21.906805
v -58.142982 2.580872 20.017071
v 32.817436 2.580872 110.977448
v -71.364250 2.580872 14.064856
v -63.349037 2.580872 12.851553
v -74.359612 2.580872 4.846090
v -66.086021 2.580872 4.428017
v -74.359596 2.580872 -4.847134
v -66.085976 2.580872 -4.429066
v -71.364281 2.580872 -14.065922
v -63.349022 2.580872 -12.852642
v -65.666740 2.580872 -21.907867
v -58.142967 2.580872 -20.018135
v 71.775635 2.580872 115.452171
v 74.360130 2.580872 104.686981
v 67.443588 2.580872 105.493179
v 69.805145 2.580872 95.656601
v 64.585564 2.580872 123.870667
v 60.873734 2.580872 113.185486
v 54.357216 2.580872 128.107391
v 51.527672 2.580872 117.056793
v 43.320290 2.580872 127.238739
v 41.442802 2.580872 116.263062
v 71.775635 85.532867 115.452171
v 74.360130 85.532867 104.686981
v 67.443588 85.532867 105.493179
v 69.805145 85.532867 95.656601
v 54.357216 85.532867 128.107391
v 64.585564 85.532867 123.870667
v 51.527672 85.532867 117.056793
v 60.873734 85.532867 113.185486
v 43.320290 85.532867 127.238739
v 41.442802 85.532867 116.263062
v 33.880669 85.532867 121.454147
v 32.817436 85.532867 110.977448
v 74.359619 85.532867 -104.687515
v 33.880135 85.532867 -121.454666
v 43.319763 85.532867 -127.239288
v 54.356697 85.532867 -128.107910
v 64.585037 85.532867 -123.871193
v 71.775116 85.532867 -115.452698
v -65.667274 85.532867 21.907324
v -71.364769 85.532867 14.065374
v -74.360130 85.532867 4.846609
v -74.360115 85.532867 -4.846615
v -71.364799 85.532867 -14.065403
v -65.667259 85.532867 -21.907349
v 33.880150 85.532867 121.454666
v 74.359612 85.532867 104.687500
v 71.775116 85.532867 115.452690
v 64.585045 85.532867 123.871185
v 54.356697 85.532867 128.107910
v 43.319771 85.532867 127.239258
v 33.880135 90.058586 -121.454666
v 35.433281 92.549896 -119.484512
v -63.766975 92.549896 -20.284344
v -65.667259 90.058586 -21.907349
v 71.868271 92.549866 -104.392639
v 74.359619 90.058563 -104.687515
v 74.359612 90.058563 104.687492
v 71.868279 92.549866 104.392654
v -65.667274 90.058586 21.907324
v -63.766975 92.549896 20.284344
v 35.433281 92.549896 119.484520
v 33.880150 90.058586 121.454666
v 69.492249 92.549896 -114.289505
v 71.775116 90.058586 -115.452698
v 63.079067 92.549896 -121.798386
v 64.585037 90.058586 -123.871193
v 53.955902 92.549896 -125.577301
v 54.356697 90.058586 -128.107910
v 44.111511 92.549896 -124.802551
v 43.319763 90.058586 -127.239288
v -69.117317 92.549896 -12.920238
v -71.364799 90.058586 -14.065403
v -71.868767 92.549896 -4.452026
v -74.360115 90.058586 -4.846615
v -71.868752 92.549896 4.452023
v -74.360130 90.058586 4.846609
v -69.117332 92.549896 12.920233
v -71.364769 90.058586 14.065374
v 71.775116 90.058586 115.452690
v 69.492249 92.549896 114.289520
v 64.585045 90.058586 123.871185
v 63.079067 92.549896 121.798401
v 54.356697 90.058586 128.107910
v 53.955910 92.549896 125.577301
v 43.319771 90.058586 127.239258
v 44.111534 92.549896 124.802582
vt 0.980176 0.070598
vt 0.988734 0.070598
vt 0.988734 0.588687
vt 0.980176 0.588687
vt 0.980176 0.030981
vt 0.988734 0.030981
vt 0.988734 0.623919
vt 0.980176 0.623919
vt 0.980176 0.000000
vt 0.988734 0.000000
vt 0.977014 0.642968
vt 0.976025 0.979313
vt 0.988734 0.655703
vt 0.980176 0.655703
vt 0.920364 0.979334
vt 0.921184 0.642990
vt 0.876905 0.979351
vt 0.988734 0.680927
vt 0.980176 0.680927
vt 0.991442 0.084284
vt 1.000000 0.084284
vt 1.000000 0.557682
vt 0.991442 0.557682
vt 0.991442 0.052090
vt 1.000000 0.052090
vt 0.647637 0.647529
vt 0.647627 0.657725
vt 0.991442 0.023048
vt 1.000000 0.023048
vt 0.624372 0.657725
vt 0.624401 0.647529
vt 0.679543 0.647529
vt 0.679556 0.657725
vt 0.991442 0.000000
vt 1.000000 0.000000
vt 0.715266 0.647529
vt 0.923844 0.149776
vt 0.932402 0.149776
vt 0.932402 0.185128
vt 0.923844 0.185128
vt 0.045866 0.652218
vt 0.045546 0.999161
vt 0.932402 0.206416
vt 0.923844 0.206416
vt 0.000000 0.998586
vt 0.923478 0.058252
vt 0.923478 0.333951
vt 0.886289 0.333951
vt 0.886289 0.058252
vt 0.715305 0.657725
vt 0.750481 0.647529
vt 0.750546 0.657725
vt 0.780380 0.647529
vt 0.000840 0.654432
vt 0.081268 0.659712
vt 0.081360 0.997216
vt 0.126428 0.665695
vt 0.977411 0.632104
vt 0.952915 0.602075
vt 0.952915 0.128677
vt 0.977411 0.114016
vt 0.947816 0.096483
vt 0.971831 0.078783
vt 0.933018 0.067441
vt 0.955636 0.046999
vt 0.909970 0.044393
vt 0.930412 0.021775
vt 0.880928 0.029595
vt 0.898628 0.005580
vt 0.848735 0.024496
vt 0.863396 0.000000
vt 0.221206 0.040617
vt 0.184018 0.055259
vt 0.186939 0.018146
vt 0.224403 0.000000
vt 0.000000 0.000000
vt 0.008558 0.000000
vt 0.008558 0.031784
vt 0.000000 0.031784
vt 0.008558 0.067017
vt 0.000000 0.067017
vt 0.008558 0.081678
vt 0.000000 0.081678
vt 0.943668 0.122671
vt 0.935110 0.122671
vt 0.935110 0.093629
vt 0.943668 0.093629
vt 0.943668 0.154865
vt 0.935110 0.154865
vt 0.932401 0.149776
vt 0.923844 0.149776
vt 0.923844 0.109159
vt 0.932401 0.109159
vt 0.923844 0.071517
vt 0.932401 0.071517
vt 0.877416 0.643007
vt 0.831882 0.979368
vt 0.780473 0.657725
vt 0.647291 0.981140
vt 0.623407 0.981140
vt 0.716562 0.981140
vt 0.679979 0.981140
vt 0.752696 0.981140
vt 0.783535 0.981140
vt 0.083814 0.659632
vt 0.832056 0.643024
vt 0.784892 0.979386
vt 0.784931 0.643042
vt 0.125729 0.991286
vt 0.082620 0.992858
vt 0.317508 0.000000
vt 0.781310 0.000000
vt 0.812851 0.004996
vt 0.841305 0.019493
vt 0.863885 0.042074
vt 0.878383 0.070528
vt 0.883379 0.102069
vt 0.883379 0.565871
vt 0.874864 0.601337
vt 0.851177 0.629071
vt 0.817479 0.643029
vt 0.781118 0.640168
vt 0.750020 0.621110
vt 0.262269 0.133359
vt 0.243211 0.102261
vt 0.240350 0.065899
vt 0.254307 0.032202
vt 0.282042 0.008515
vt 0.580028 0.661868
vt 0.579230 0.653421
vt 0.612988 0.645370
vt 0.616748 0.653111
vt 0.102563 0.661789
vt 0.103430 0.653342
vt 0.070216 0.656643
vt 0.073054 0.648509
vt 0.633370 0.529894
vt 0.640178 0.524629
vt 0.659031 0.556638
vt 0.650702 0.559321
vt 0.150066 0.022570
vt 0.144639 0.029249
vt 0.115638 0.011213
vt 0.118521 0.002951
vt 0.000000 0.556727
vt 0.008465 0.556063
vt 0.012566 0.586547
vt 0.004366 0.589188
vt 0.011418 0.079397
vt 0.019844 0.080398
vt 0.021057 0.042899
vt 0.028705 0.046844
vt 0.661082 0.594060
vt 0.652532 0.592699
vt 0.645883 0.628737
vt 0.638975 0.623630
vt 0.041281 0.641717
vt 0.046475 0.634799
vt 0.018591 0.618474
vt 0.025632 0.613448
vt 0.082313 0.008580
vt 0.081159 0.000000
vt 0.051065 0.021388
vt 0.046125 0.014359
vt 0.580028 0.661868
vt 0.102563 0.661789
vt 0.000000 0.556727
vt 0.011418 0.079397
vt 0.150066 0.022570
vt 0.640178 0.524629
vt 0.659031 0.556638
vt 0.661082 0.594060
vt 0.645883 0.628737
vt 0.616748 0.653111
vt 0.070216 0.656643
vt 0.041281 0.641717
vt 0.018591 0.618474
vt 0.004366 0.589188
vt 0.118521 0.002951
vt 0.081159 0.000000
vt 0.046125 0.014359
vt 0.021057 0.042899
vn 0.000000 1.000000 0.000000
vn 0.000000 1.000000 0.000000
vn 0.000000 1.000000 -0.000000
vn 0.000000 1.000000 -0.000000
vn 0.000000 1.000000 -0.000000
vn 0.000000 1.000000 -0.000000
vn 0.000000 1.000000 0.000000
vn 0.000000 1.000000 0.000000
vn 0.000000 1.000000 0.000000
vn 0.000000 1.000000 0.000000
vn 0.000000 1.000000 -0.000000
vn 0.000000 1.000000 -0.000000
vn 0.000000 1.000000 -0.000000
vn 0.000000 1.000000 -0.000000
vn 0.000000 1.000000 0.000000
vn 0.000000 1.000000 0.000000
vn 0.000000 1.000000 0.000000
vn 0.000000 1.000000 0.000000
vn -0.707106 0.000000 0.707107
vn -0.707106 0.000000 0.707107
vn -0.714201 0.000000 0.699940
vn -0.714201 0.000000 0.699940
vn 0.714202 0.000000 -0.699940
vn 0.714202 0.000000 -0.699940
vn 0.707107 0.000000 -0.707107
vn 0.707107 0.000000 -0.707107
vn -0.891007 0.000000 0.453990
vn -0.891007 0.000000 0.453990
vn 0.891006 0.000000 -0.453991
vn 0.891006 0.000000 -0.453991
vn -0.987689 0.000000 0.156434
vn -0.987689 0.000000 0.156434
vn 0.987689 0.000000 -0.156432
vn 0.987689 0.000000 -0.156432
vn -0.987689 0.000000 -0.156433
vn -0.987689 0.000000 -0.156433
vn 0.987688 0.000000 0.156435
vn 0.987688 0.000000 0.156435
vn -0.891007 0.000000 -0.453990
vn -0.891007 0.000000 -0.453990
vn 0.891007 0.000000 0.453990
vn 0.891007 0.000000 0.453990
vn -0.809015 0.000000 -0.587787
vn -0.809015 0.000000 -0.587787
vn 0.243602 0.000000 -0.969875
vn 0.243602 0.000000 -0.969875
vn 0.243602 0.000000 -0.969875
vn 0.243602 0.000000 -0.969875
vn 0.809016 0.000000 0.587787
vn 0.809016 0.000000 0.587787
vn 0.995082 0.000000 -0.099052
vn 0.995082 0.000000 -0.099052
vn 0.972370 0.000000 0.233446
vn 0.972370 0.000000 0.233446
vn -0.972370 0.000000 -0.233446
vn -0.972370 0.000000 -0.233446
vn -0.972370 0.000000 -0.233446
vn -0.972370 0.000000 -0.233446
vn 0.892848 0.000000 -0.450358
vn 0.892848 0.000000 -0.450358
vn 0.760406 0.000000 0.649448
vn 0.760406 0.000000 0.649448
vn 0.760406 0.000000 0.649448
vn 0.760406 0.000000 0.649448
vn -0.760406 0.000000 -0.649448
vn -0.760406 0.000000 -0.649448
vn -0.760406 0.000000 -0.649448
vn -0.760406 0.000000 -0.649448
vn 0.382684 0.000000 0.923879
vn 0.382684 0.000000 0.923879
vn 0.156434 0.000000 0.987688
vn 0.156434 0.000000 0.987688
vn -0.156435 0.000000 -0.987688
vn -0.156435 0.000000 -0.987688
vn -0.382686 0.000000 -0.923878
vn -0.382686 0.000000 -0.923878
vn -0.309017 0.000000 0.951056
vn -0.309017 0.000000 0.951056
vn 0.309018 0.000000 -0.951056
vn 0.309018 0.000000 -0.951056
vn -0.522498 0.000000 0.852641
vn -0.522498 0.000000 0.852641
vn 0.522497 0.000000 -0.852641
vn 0.522497 0.000000 -0.852641
vn 0.995082 0.000000 -0.099052
vn 0.995082 0.000000 -0.099052
vn 0.972370 0.000000 0.233446
vn 0.972370 0.000000 0.233446
vn -0.917001 0.000000 0.398885
vn -0.917001 0.000000 0.398885
vn -0.917001 0.000000 0.398885
vn -0.917001 0.000000 0.398885
vn -0.972370 0.000000 -0.233446
vn -0.972370 0.000000 -0.233446
vn -0.972370 0.000000 -0.233446
vn -0.972370 0.000000 -0.233446
vn 0.892848 0.000000 -0.450358
vn 0.892848 0.000000 -0.450358
vn 0.382683 0.000000 0.923880
vn 0.382683 0.000000 0.923880
vn 0.156433 0.000000 0.987689
vn 0.156433 0.000000 0.987689
vn -0.156435 0.000000 -0.987688
vn -0.156435 0.000000 -0.987688
vn -0.382687 0.000000 -0.923878
vn -0.382687 0.000000 -0.923878
vn 0.944627 0.000000 -0.328146
vn 0.944627 0.000000 -0.328146
vn 0.944627 0.000000 -0.328146
vn 0.944627 0.000000 -0.328146
vn -0.309017 0.000000 0.951056
vn -0.309017 0.000000 0.951056
vn 0.309018 0.000000 -0.951056
vn 0.309018 0.000000 -0.951056
vn -0.522497 0.000000 0.852641
vn -0.522497 0.000000 0.852641
vn -0.994890 0.000000 0.100967
vn -0.994890 0.000000 0.100967
vn -0.994890 0.000000 0.100967
vn -0.994890 0.000000 0.100967
vn 0.522497 0.000000 -0.852641
vn 0.522497 0.000000 -0.852641
vn 0.000000 -1.000000 -0.000000
vn 0.000000 -1.000000 -0.000000
vn 0.000000 -1.000000 -0.000000
vn 0.000000 -1.000000 -0.000000
vn 0.000000 -1.000000 -0.000000
vn 0.000000 -1.000000 -0.000000
vn 0.000000 -1.000000 -0.000000
vn 0.000000 -1.000000 -0.000000
vn 0.000000 -1.000000 -0.000000
vn 0.000000 -1.000000 -0.000000
vn 0.000000 -1.000000 -0.000000
vn 0.000000 -1.000000 -0.000000
vn 0.000000 -1.000000 -0.000000
vn 0.000000 -1.000000 -0.000000
vn 0.000000 -1.000000 -0.000000
vn 0.000000 -1.000000 -0.000000
vn 0.000000 -1.000000 -0.000000
vn 0.000000 -1.000000 -0.000000
vn -0.491265 0.707751 -0.507688
vn -0.491265 0.707751 -0.507688
vn -0.216568 0.716947 -0.662635
vn -0.216568 0.716947 -0.662635
vn -0.504695 0.707368 -0.494888
vn -0.504695 0.707368 -0.494888
vn -0.625849 0.711479 -0.319549
vn -0.625849 0.711479 -0.319548
vn 0.687565 0.707112 -0.165068
vn 0.687565 0.707112 -0.165068
vn 0.621693 0.716945 -0.315417
vn 0.621693 0.716945 -0.315416
vn 0.687568 0.707109 0.165068
vn 0.687568 0.707109 0.165068
vn 0.621694 0.716944 0.315417
vn 0.621694 0.716944 0.315417
vn -0.504697 0.707367 0.494887
vn -0.504697 0.707367 0.494887
vn -0.625851 0.711476 0.319549
vn -0.625851 0.711476 0.319550
vn -0.491267 0.707750 0.507688
vn -0.491267 0.707750 0.507688
vn -0.216570 0.716943 0.662639
vn -0.216568 0.716943 0.662639
vn 0.409762 0.716946 -0.563989
vn 0.409762 0.716946 -0.563989
vn 0.109054 0.716947 -0.688545
vn 0.109055 0.716947 -0.688545
vn -0.694056 0.711479 -0.109926
vn -0.694056 0.711479 -0.109926
vn -0.694056 0.711479 0.109926
vn -0.694056 0.711479 0.109926
vn 0.409762 0.716945 0.563991
vn 0.409762 0.716945 0.563990
vn 0.109056 0.716944 0.688547
vn 0.109054 0.716944 0.688548
vn -0.694946 0.000000 -0.719061
vn -0.694946 0.000000 -0.719061
vn -0.714201 0.000000 -0.699940
vn -0.714201 0.000000 -0.699940
vn -0.714201 0.000000 0.699941
vn -0.714201 0.000000 0.699941
vn -0.694946 0.000000 0.719062
vn -0.694946 0.000000 0.719062
vn 0.999931 0.000001 0.011739
vn 0.999931 0.000001 0.011740
vn 0.999931 0.000001 -0.011739
vn 0.999931 0.000001 -0.011739
vn 0.891006 0.000000 -0.453991
vn 0.891006 0.000000 -0.453991
vn 0.587785 0.000000 -0.809017
vn 0.587785 0.000000 -0.809017
vn 0.156435 0.000000 -0.987688
vn 0.156435 0.000000 -0.987688
vn -0.309017 0.000000 -0.951057
vn -0.309017 0.000000 -0.951057
vn -0.891007 0.000000 -0.453989
vn -0.891007 0.000000 -0.453989
vn -0.987689 0.000000 -0.156432
vn -0.987689 0.000000 -0.156432
vn -0.987689 0.000000 0.156433
vn -0.987689 0.000000 0.156433
vn -0.891007 0.000000 0.453990
vn -0.891007 0.000000 0.453990
vn 0.891007 0.000000 0.453991
vn 0.891007 0.000000 0.453990
vn 0.587785 0.000000 0.809017
vn 0.587785 0.000000 0.809017
vn 0.156434 0.000000 0.987688
vn 0.156434 0.000000 0.987688
vn -0.309017 0.000000 0.951057
vn -0.309017 0.000000 0.951057
vn 0.000000 1.000000 0.000000
vn 0.000000 1.000000 0.000000
vn 0.000000 1.000000 0.000000
vn 0.000000 1.000000 0.000000
vn 0.000000 1.000000 0.000000
vn 0.000000 1.000000 0.000000
vn 0.000000 1.000000 0.000000
vn 0.000000 1.000000 0.000000
vn 0.000000 1.000000 0.000000
vn 0.000000 1.000000 0.000000
vn 0.000000 1.000000 0.000000
vn 0.000000 1.000000 0.000000
vn 0.000000 1.000000 0.000000
vn 0.000000 1.000000 0.000000
vn 0.000000 1.000000 0.000000
vn 0.000000 1.000000 0.000000
vn 0.000000 1.000000 0.000000
vn 0.000000 1.000000 0.000000
vn 0.707101 0.707113 -0.000000
vn 0.707101 0.707113 -0.000000
vn 0.707101 0.707113 -0.000000
vn 0.707101 0.707113 -0.000000
s 1
g TurtleDefaultBakeLayer Desk_Standing
usemtl lambert2SG
f 25/58/1 28/59/2 27/60/3 26/61/4
f 26/61/4 27/60/3 30/62/5 29/63/6
f 29/63/6 30/62/5 32/64/7 31/65/8
f 31/65/8 32/64/7 34/66/9 33/67/10
f 33/67/10 34/66/9 36/68/11 35/69/12
f 35/69/12 36/68/11 38/70/13 37/71/14
s off
f 39/72/15 41/73/16 44/74/17 43/75/18
s 2
f 1/1/19 25/2/20 26/3/21 2/4/22
s 3
f 14/20/23 27/21/24 28/22/25 13/23/26
s 2
f 2/4/22 26/3/21 29/7/27 3/8/28
s 3
f 15/24/29 30/25/30 27/21/24 14/20/23
s 2
f 3/8/28 29/7/27 31/13/31 4/14/32
s 3
f 16/28/33 32/29/34 30/25/30 15/24/29
s 2
f 4/14/32 31/13/31 33/18/35 5/19/36
s 3
f 17/34/37 34/35/38 32/29/34 16/28/33
s 2
f 5/76/36 33/77/35 35/78/39 6/79/40
s 3
f 18/84/41 36/85/42 34/86/38 17/87/37
s 2
f 6/79/40 35/78/39 37/80/43 7/81/44
s off
f 7/81/45 37/80/46 38/82/47 19/83/48
s 3
f 19/88/49 38/89/50 36/85/42 18/84/41
s 4
f 8/40/51 40/39/52 39/43/53 9/44/54
s off
f 21/26/55 41/27/56 42/30/57 20/31/58
s 4
f 20/37/59 42/38/60 40/39/52 8/40/51
s off
f 9/90/61 39/91/62 43/92/63 10/93/64
f 22/32/65 44/33/66 41/27/67 21/26/68
s 5
f 10/93/69 43/92/70 45/94/71 11/95/72
s 6
f 23/36/73 46/50/74 44/33/75 22/32/76
s 5
f 11/9/72 45/10/71 47/6/77 12/5/78
s 6
f 24/51/79 48/52/80 46/50/74 23/36/73
s 5
f 12/5/78 47/6/77 25/2/81 1/1/82
s 6
f 13/53/83 28/98/84 48/52/80 24/51/79
s 7
f 40/41/85 50/42/86 49/45/87 39/54/88
s off
f 39/46/89 49/47/90 51/48/91 41/49/92
f 41/27/93 51/99/94 52/100/95 42/30/96
s 7
f 42/55/97 52/56/98 50/42/86 40/41/85
s 8
f 43/11/99 54/12/100 53/15/101 45/16/102
s 9
f 46/50/103 55/101/104 56/102/105 44/33/106
s off
f 44/57/107 56/109/108 54/110/109 43/105/110
s 8
f 45/16/102 53/15/101 57/17/111 47/96/112
s 9
f 48/52/113 58/103/114 55/101/104 46/50/103
s 8
f 47/96/112 57/17/111 59/97/115 25/106/116
s off
f 25/106/117 59/97/118 60/107/119 28/108/120
s 9
f 28/98/121 60/104/122 58/103/114 48/52/113
s off
f 73/111/123 67/112/124 68/113/125 69/114/126 70/115/127 71/116/128 72/117/129 62/118/130 63/119/131 64/120/132 65/121/133 66/122/134 61/123/135 74/124/136 75/125/137 76/126/138 77/127/139 78/128/140
s 10
f 79/129/141 80/130/142 97/131/143 98/132/144
f 80/130/142 79/129/141 82/133/145 81/134/146
f 81/134/146 82/133/145 100/135/147 99/136/148
f 83/137/149 84/138/150 92/139/151 91/140/152
f 85/141/153 86/142/154 108/143/155 107/144/156
f 87/145/157 88/146/158 105/147/159 106/148/160
f 88/146/158 87/145/157 90/149/161 89/150/162
f 89/150/162 90/149/161 113/151/163 114/152/164
f 91/140/152 92/139/151 94/153/165 93/154/166
f 93/154/166 94/153/165 96/155/167 95/156/168
f 95/156/168 96/155/167 98/132/144 97/131/143
f 99/136/148 100/135/147 102/157/169 101/158/170
f 101/158/170 102/157/169 104/159/171 103/160/172
f 103/160/172 104/159/171 106/148/160 105/147/159
f 107/144/156 108/143/155 110/161/173 109/162/174
f 109/162/174 110/161/173 112/163/175 111/164/176
f 111/164/176 112/163/175 114/152/164 113/151/163
s 14
f 79/129/177 62/165/178 72/166/179 82/133/180
f 87/145/181 67/167/182 73/168/183 90/149/184
f 85/141/185 74/169/186 61/170/187 84/138/188
f 61/170/187 66/171/189 92/139/190 84/138/188
f 66/171/189 65/172/191 94/153/192 92/139/190
f 65/172/191 64/173/193 96/155/194 94/153/192
f 64/173/193 63/174/195 98/132/196 96/155/194
f 63/174/195 62/165/178 79/129/177 98/132/196
f 72/166/179 71/175/197 100/135/198 82/133/180
f 71/175/197 70/176/199 102/157/200 100/135/198
f 70/176/199 69/177/201 104/159/202 102/157/200
f 69/177/201 68/178/203 106/148/204 104/159/202
f 68/178/203 67/167/182 87/145/181 106/148/204
f 85/141/185 107/144/205 75/179/206 74/169/186
f 107/144/205 109/162/207 76/180/208 75/179/206
f 109/162/207 111/164/209 77/181/210 76/180/208
f 111/164/209 113/151/211 78/182/212 77/181/210
f 113/151/211 90/149/184 73/168/183 78/182/212
s off
f 114/152/213 112/163/214 110/161/215 108/143/216 86/142/217 83/137/218 91/140/219 93/154/220 95/156/221 97/131/222 80/130/223 81/134/224 99/136/225 101/158/226 103/160/227 105/147/228 88/146/229 89/150/230
f 84/138/231 83/137/232 86/142/233 85/141/234
